<mxfile host="65bd71144e">
    <diagram id="K4TgWqCizAiKyappeKc-" name="Page-1">
        <mxGraphModel dx="713" dy="594" grid="1" gridSize="10" guides="1" tooltips="1" connect="1" arrows="1" fold="1" page="1" pageScale="1" pageWidth="827" pageHeight="1169" math="0" shadow="0">
            <root>
                <mxCell id="0"/>
                <mxCell id="1" parent="0"/>
                <mxCell id="2" value="http://ics2o.mths.ca" style="swimlane;whiteSpace=wrap;html=1;" vertex="1" parent="1">
                    <mxGeometry x="100" y="40" width="620" height="380" as="geometry"/>
                </mxCell>
                <mxCell id="8" value="" style="shape=image;verticalLabelPosition=bottom;labelBackgroundColor=default;verticalAlign=top;aspect=fixed;imageAspect=0;image=data:image/png,iVBORw0KGgoAAAANSUhEUgAAAggAAAElCAYAAACBJhoWAAAAAXNSR0IArs4c6QAAIABJREFUeF7UvQe4ZcdxHvifm19+8yYHYALCIBGRABEYkAiANLlK/CTLlqzPkk1Lu9Z6ba+8K1m2KVuWlamwK8nWytT6k2VL337SihJlkRSRCCLnNMAAgxlg8rxJL958735V3XVOnT59wn0z0u4eCZx37+3Tobq66u+q6urg8c//xjAAgCH9j33oC/rMP5h/hkMgCMKv+Dv+PggQDIcY2DL0bx9AD8BgCJSqZUx9aDtmd67H6htHsfruaQTBECV6X9XHHwD+PuyGbV99FfaHf6L37Xvm4xBD2+lgOIh+s+ORoubfqHLz8xDDYYDXmwN8ZamLpqaH2wH1Wfc3o1iMtL5yahhM+1LK2HmqbN9i7ziVarp427O0pvmS6S7S/yJliB/cp1YqoeHpMPNBkUrjLOl/o8CcSZG0NmM8ya1ElYbvEM+rpSL0o5I7ts/i2uu349gHZ7H/rZPo94nCcZ4uBwEa9RL6vQE6vXinZV1VKwGqlRJWV7vo2TKaJ+jv8XoZ/cEQy+0B2v0hM4YeV6MSoFErYbU9QKc/NGvVMtA0hthcGmKiUeXv2u0uD5Xbt10qA6hUyqjXKzjd7eFIb4ieM1s0lolaCeVSgOV2n9e8PCVbUaUcYKpeQbPTR4vHogrZPo1XA9QqZay0e3BIEq55TcdSuNLNt1nrRVY7tZrKb2rihYYllihxGUN1VWsV1BtVdFoddLsk7fyPVFlS/CJ9SX/JUIfa5nGVAtTKJXAdanJpHOuqZeycqGC8aqSQ/M7viuwmnrAdMdNhBbkal8w5KwJ6lfkoiAkaWdMiV0L+t43KWKkObsdRKiTzEbCW4L6udoF3F/qY76RSAkN6h3mygIRQMofGPzU3jnarh9aqaaA+VsXYdAPnTywyPXis9A6Tw3zmLuY0VfLImGoAzFaGoLWgXyedIo8divmG2hmqX+3cDoZDLPYDtIxG5kdq0HJLt6Gli8ih0mCIiZUW6p2e1eMButUylifq6JfTNVa700W302ddGPb78b//G8RBZin4pKedbOkU0TRcjEGAkqMMSAiFlZdLDA7Gd23A0utH0DxwmiclZCIGGGbRstig+kYACdxvRS3D32YQzOLDAc+4JmisvPpA8vWFpR6+1uyjW0DRaLa+EJCQxZC+erUAZgFSYO3ovrrAgV4P6f9XCBaonUapDFpMaY/0Jb1EwV9y5k9h34hXnX7FPyrF6/CT26PZqTompho4dXIRg35cYVNZUqT1WgmDwQBdYTQt+IcAKdRarYxmu49uu8dyTAA11UE8Q0qZFOki8evAKgHbGRI+9WoJpHQJPHQHamkPh5gcDrC5TOCgZsBBq4vhcGiUkAJspJgaY1WcbhM4INBvOiprjHhvslYGyZyldp8Btgg1GVKtDEw1Kmh2+2hRR6jzSmYQP4bgoNXjjYX7xNavBTBGbpiJToI6P5/I2FwWZAVhBhaXFTLePK0hdHd5KAAq/J0FGqpbIsxjwt62b/qp5GgAVMslVEqlhAIbK5Vw6XgZc40yKyhDjySYiMvAaLyxDZn0j/rBmsfwFdOaBbTDZ5b43F+aVkd2x0CC1TGD4QDzzT7eXRxg1YK8QCvEYAj9ueCKjxUj/p/eMIHmUgedVpd/q9YrmFw/gfPHF5nX+SEGFjCkAFZemzxeW0UEDsxboeihNTvoo9pZQjDoYxiU0a1NoF+qhDNbGtLvywgGPdCWeaEygYWgwfVMtc8xiJBHgMBqbQq9UtXbRSo/s9jE9GITZ+cmsDxh6qJnvNnB3JllNCdqODs7aQCSemheVlc7EW3sbwEDBE0cwgl2MoWJBXRqLCCKyVViDBCoYDnA9HU7MHn5Jpx/5TCaBw04EMIyMT2aWxB+mlJ3KWPWn1kQZmFZocH8TGCEFpX9zgE7su7bgwCPLvbwVIvQ02gPo+2CAkRqHmlsIrB1G54dOpPB2lB8I2CBk6Ocec2Q5cepgOjojlHm3dA4veIYgCRlUCqh4hisNF20ghptJjylR5hM3xBcxcQtZJMxbgFzrCOkgOv1Mgb9Abq9QTQdtiH6p0Y7RrvrJ+vDoEeWLV4tIUiYHCuj1x/i3GoffavYw9EPh2gwOChhuWMsByF9CRxggI3BEJNkOQgCNFsdXpN6l0v9IIU0Nl7HmVYHh7tD9INopdMaozJT9TIqpQALat2ENCPlWAowXS+j2eujTeBAgHuo2AOMVwLUqxUstrsgY4tRMmYrl8GuKOtdjpqTPiszpVxtq5rHvIDeCjS3zVJgYEhaX7KteAQQkm+yrvVYMwY8DrNJiiYt+rNKa4etCXFep7lbXy3hkokKxirW9iBgwQFQUjeLaWv9lY2ZZe9Y2+GOWWSAmJItTUT+ah0SrmELGoweGTJAfGexi9PdIWis0t6FAgLN+4awAapkud44iaVTy9z21PpJNJfbaC21DIBiC7fZ7fIYs5jNI1p4rcJYDhL8ROpv0MW2Dx4FaJNqn0G5hhPb7kCvUkdpOMDWI0+i3FuNuh+U8MaWj6FVGcMtR/4SwTAJl/dv/DDONzbENnVMxyFw6eHTOLlpBq2GH0BQuWqvj52H5vHenk0YlEzPSYZ3uj10yOLgPMFjn/9NAxB44pUFShPNIaA1QBmF7BCWFbS1HEzu2YSFV45g9b15iz4tU1iZ5aIY+pV3s8okFpnNYl6PcNnzEJ1OuDsKMnXGhmCZiMa82Af+dKGHd6wA8/BC6lfhYiti/ra1iLh2aSdkTNNppryHi7W/wQEOjP7td65p0NcOt+Eo/LR+uYrcBRVCNKaR6iPVP14uJxeVfcFdbCOuW/9c5QCFNCEfAwjqQ1af3B2ZlCVTcaNGLoEBOpbXwrJWwZHloF4tsymerA9kLRr2BqFZskwugXoZ3f4Q55u90JxPCsKudDQqJUzUS1git0LP7tjtvE4MB9hQInBgLAfNtgEH9LexUJh6SAmNj9Vxpt3GkW5gAKO2DGLIir8cAIudAfdDxin/VksBJhslVgrGrSBlosmYqJYYHCy0ulA4hmEuA5bBEMMUE5kABLuUw/alJSvK7PcKJIliUzTTJgh3bg2wzgYrqfxTChgMu48PIJDCtI6CuK7ygIF6xbgcwsf2j3azG2tl7JgoM8ATivP8unI6tDZE1Wh5FtVtZbbaNYdzLcT36FcuY/m6Oxjg0HIPJ5qD0ELEEln0TYp2ZrN8xmLTm80EjQOgRlaDuQnm0+VzTXY38GZHy9IRBIzwFLVF4GBdJWkhFD7fcvx5VJtnEnPfq07g2I67sPXUq6iunPDwRoCXdjyAm45+IxcgaJm76+BpHN0xi27Vx3HxZsqDAfa8N493Lt/Eopnqaa62E9YDHosAhNB/yYxjIUBIkbiEjfz8srOMdphBpYTpa7dh4vLNWHj1MFYPnMZwQLulSEWzAldVaiYwTGFmjZharwMtfHmRWXcHCzaFbLU8Ez+obxvwXnOIry73cJoEkV+1ZH57ocpsRMNDXCik9cwx3446rBHWS8wcnQYQeB7pfxxTHlkS0trymj1HHYgun4aG7PejAoRI2fk7Jf0P/w0CjDVK6JIP3yr8hEKtBKhUSgweCBzQMyC+JKBArolgiPFamWMNlmjHLsDPCjv6zOCgUcJSk9wKcaVI4GAuGMRiDmRPIOCA/qU+NOpVnGt3cbQXgAy0FIsgC5HWMYEDWptLChwYUWHkRpVBSCUGDoRSLAcobsHGHCxRzIHDPCTQ65UAnc4gHyDYXbDeFJheSG+Y+bh5TfMQMIsSsj/6eJJqC8vHPSSm3hRGJgsK08XxbcvMaD4XgBCDIp56RbkZl4MpEI/DAuoBsL5WxuaxChpV7r2VpUpO6o2DGjtv0GLWgYjHdXdEfusNmtvdZr+P4yt9nKIYGW5vFOlSbMGzvtCbJGqCg98sbcLpF0ucqZcB1ojdIUsDzROBg5nKMLKEhmMzM1se9LD9/YfDAZzZfBPWz78GkCuhVMGRnfdg+/uPoTQw8RGH5q7H1sX3UO8t8+dXt92NrUvvo95bwXTzlJEFqOLM5FacnNyJ1epEjDiNdheV3oBjDOiZWWpiYrmF8+smsdqootHpYt3ZFbTHqjg7Y96td8i90cXKRB3NXo9dmfIQKCdwzrwVAgTVpEs381nvfc1kxxiJvmFwsBXjezZhiQISD8xj6DrNE2hWWosLNAYhFiC4JiDdvxhI8PCUWVD0H+3IzPLrDod4eqWPp5t9rFr/7Yi8kroDLlLPqMBAD0sERLHlM/IaSFRbRImn9cUNoAmDn+ycpIGEmCByKk/rT2Hx47JxioBPrAH1hW990HfintGKiARRo1G2AYnGraDkF49OAhJJIRIoEDdZrw8GC7QZbNQCkAWQwUG4+iJfNSkCiktYasXBAdVP4GBdMGDLAa3jDgckmlqYnywNKEiwXq/ivAUHFH5Hpci3zf9iiMl6ic3mC21yb9j3Zfdr3QpTtRJaPWM5iGSEVdgUP1ExAYlLnQgciEIncDBRK/P7HODpWSysnErhNiXmq2W3spL8QksWdk5doXXLKvI0PjYm6STn5a1jshoxuHKeGEAIIpee2fOnM5q7LiplshRE4EWaEeBBVpyZcglz9RKDOnJfUfVZVleZrxhIV+4IPRRxP2iZ1B0OsNgaYL7dx7nuEB2LQsMxZ5kEigo1ratsxRLXFoEFW0isHHZHqYHeGpoDqeDpMgUkSv3J3Uel18S2w980CjYo4f1d92PL8edQa50DgjI+2HkvdnzwCEoDUsolPH/JA9h99k2sX/mA33lzy0exWp3ETOsMrph/jr/rlSfw4raPebu8d/9x7L9iC2+s586voFWvspuhTsChO0C/UkK7XkW91cV4s43T66d4Ze8+eBoH6PBAuxvpabIg03oQehFA0EMUgeH2JA4SzK/hEiWmK5cwedUWkFthaf9xrOw/GQtW1vWJQLIUjAUtReUsQHAEuBa+3Ad1usJnSTCTRIhxyALtZGeIR1a6eK8z4NMWoypcri8HC+eBhDzB4uMCqjNcZCNWkNefrIXie9e4o+K/+MppvmLBQ/7ymPAGxsmnqjrgLrcsWus2RwIIzos+co4CEMSYK3Ok36WTCCSXzWkFs2J0XwUckI+ewTQHJBoqdPqGZvUqgQNzWkGeMFCQdgMSkNgZsvshKgOMDQeYLQ0wVa9xrRR5T4vGbLBMT+l/a2I56PZxogu2HMhjorOHIMVPQZYLbeNWMO+aP6hMhQISKeagM0CbwEFsk2ZGPVGjqPwyljs9PoERqXmz6Zusl3lHSCcizNqNqCm0I6Bi/PVmcctuRwYjStaVWWlxNMKSaeuE4hC8azJjYYlRk+jl42/ha+YKWw/9E64PT91Jngx4PsiaoF0OYTkLlgikNAgsVEuYJiBZLaFB7yhgpNgh5AnpY+iN8cg9EgXd/gArvSHOdwY43x2gSSdmLMFCXpcxXmSAwCwgViBuVAXbhwshWnUGHGVJvPTfCF4TOODAU+uKNcH9pn6xXLkA4dDO+7HlxHOoW4Bw8NJ7sfNwHCBsXfoA0y1jLXh/3TVoVsYxWwAgkLtg06lFHN8yi/FWB41mF5PLLT6tcHTbOq6PTjWsP7uESp+sDA30ywFWGzVsOr2Ik2M1rEiQLpPPuvXsSQu2INjxhYwR0lWIaWeZ6Roez1ALl2IOrtqMycs3Y2X/CSy/TeAgiaw06Zn5bBRp6uoTIeRoCe0rI5EZetscYaLrbQ6GeLU5wJPNHpaVVSPmyyvIN9Je1gizeLCQfrcBS4lJsYug0NEfO1/iQ5VlIjvdgsONFUsblzNFiaqFVoaHxP1IiqqEcbXT0oJFKpH5Nio2eiIv61pGEkmwiwEQfCrEuAZMO2LpssNnGUXggZT7Kh0PZMuBxAOYwE865VCvkAA24MAFQVR+rBpgrErHA81pBv0QOJghcGCPMjbbXY5ON0cELQAfmoDERqOKc50+TvJphfhDApHAASmURQUOjHgwbdYqNiCRwQH1NQL4Utt4LUC9TPER5jhkbC65DbPfXqajVk7sDH0vJl4BCBSMOCxRxH1UE+1+9M5WtyLBaZoXtWK8uADBxP+QiNMBoHKsOMbTquHQiuB0xtc3ATwuSIg2EiLA42umysHCwGS1xEGNY3SkNqDQMQKAYmEw7wh9SAkTmQnU0eGbVn+A1e4Qy70BVvvGKstT5lkIJs5ljVq54NKWY4RGd3sksz0Sv9ZeaHCQptqk1Wq3ie1HHjf0C0o4uPN+rDt/gE8sDIIyDs1di6uPPsKuCCLYS9vvRa3fDtc3BSlSUDABhCtzLAiVXp/dBSvjNcydW2Gs0i+X0Wh3cGrDNPdhYrWNmcVVdKpVEKCg5/iGKUyutNBs97BogxqFdsbFbw4UBI9SkKKNCdBkFULGYmFEpvKEW8REwUhXb8XUFZux8s4JLO07kQAH6Qsvmn2JO9BBcuExD3v8UYNPrRwEJFBtA4lfsK4MslIe6QzwyKo5x+2OcS0M4zMbiuDX/Oxf1BkcTycuSKJQJDKbPexqC6ypUsAZ/UsT3ScbdMqCcJrxKfBsCOcH2j4ekab8+6x4R1wlT/0iepK7QdPVjWnIAjVUR5G2w544mtY7Twn6qfPjHtq6PCHjdE21InQJHFSrJbTJVO8oduoPfVULyCIArLDCjCtUWhuNahkT9QArdJRRR/mRVQFDzKBvwEEArNrjXhV1TJn6VipR3EINZztdnOwFbFXTD41rup60HGjlQcfwpxtljjloduOBW8a9R5YiOt5ZxiIdZbSTK7KFAMt0vcJrc4nMJtqnbDuj50ifYND+UiOQ47NpPvlPGsmaYHYIAXl8VRjrgQvNrPLMER7cFRsjIUcQYxsaaz3wyST/OIQYSXVLIISsQPq9aOMUd7tQLRqg0N/UP857YQGN8UYYKU//T3xBfNqzYQyu7NCkYOuJ+kIAwkAFnumTJgUxQG4xN2hRAwX36GduZapALQCmS9qtEBoNktXQMeXeKnYciVwM7+2833DhEFgeltAaDHHLsW+EAOG99Tdiz5kXw7pe33IXVqtThQBCtdtHZTBAs15liwCBgu3Hz3FswfJ4PbSuEEiodfuYXz+JHUfP4fC2dSittFFqdXB+jOCPfezaCw8KPPoPftNoTUbippAsB4POk25AWb+0o5i8egtmr9qK828eCy0H3nWj1lj4uzr3y+2mbK0NUIhiEvSsRNYEg3rMYjcLaKE/xDeWenib/DAeoa6/GgUoiGAZ6Z2swhSwVytjWCp7I6ZFifqYmhdir49hh87LJ1W+22xWN3yAwcq4GP/4xaUpMpKiVkcqSTjRmW7fAZ2sAEiXJkXAguGU5BMTcupnly19NE3zNeuyxj8O1MoBqhRw6AEHpOd7dByxXkGn3WPLgO6s9J0i2SkegGISetb6IF0mZ8KUBQfU5iq7FcxOlgCC9IlOKzQaNSx0OjjRLSUixmkuCRxQMNx5smA4RCO6VErAbL2M1W4fzZ6ygIj7wsYcNOplnF/txU8r2FwGM40qHzkjcMDxGWxi8il6y2P8s+mMBgjaeiByLMqVYOrzzX0oQzyLQwcoJngtFyAoN6l6OQaEU+pg5W5pkOC3FDnJIMG6DgRQm6LJRuQboiJZuYQuSd4uJuW0THebW4sFIfU4vE8IurJd8akc0WaXmjrVVaAaLkJnAmZKQ7BoVoKIm1CBwlomkovBBQghOLCm+5svEkAo9wdYf26ZgcHmUwt8zJEeClys9ntYGh/DRLONaqePhekx/m3XB6fx7iXrMTW/iOVaBSs1dfLBBQiP/IPfDDMpaqYJCSibWCVYmDh0xvmKTZi+djsW3jiKlXfmKew6fC0mbEkwim3NsqL8rlG2yaEQmS1Dq4Kt1eIYU0OMI00BWXjn+0M8tdrHvk4/NSPiKIpTBhXbDRblMFvOt6b5CFetiqHNbmXqjwSZNMFKz/q8XAUsdOB9Tm+AQcckvdHvJgRbgb4ndjUOwWK6wlEco4IE3dcaBfVl+GDywEIRgJA2fJ+1zCdeXd7hnbinUhdIUf1kiifLQYsUrjo9Q4qxY5PTTNBuejDA4grNZbxiaod2ihONAMutAedD0PSrDoeYQB8zY9Zy0DSR0kIXUiJUB7sValUsdHs4RZYDRydTGXIrcJ4DCZ505oU8AmQ5WLWWA+mHrENqk90K1TIWmz0D0tV4yEBGwXP0HQUsUhCxFS0Jaro0D485SsS1DaTTme5EXmgLwsUECEzXDP3JCj48vhgNSXb21L80lzzzk5O4KpznjEY5KNYeg2RSpwAEzTMEENJBf2StyNoYhPK8lATfPoAg1oRU8KD0DbNNMZxieN0DZA05o2PfBUQgb1amCBzYtlnG5rjOqd6qAxAOXHo/Np96GfX2eZ7Tl7beDQ0QXtxxL/acewuzK0e4W6NYEGisV+4/jrf3bsX6s8s4MzeJydU2g5dYoiSKT2h1cW5mHJd+cBpvb5nB3vfPYt+2GfQ1PxnkY8AUsS8DBFk1lrCspzWRlfTjBUiWgys2YebqbVh46ziW959KgIPEfNpOMJM5RDZmyHQO8P0SFTedJwF7pjfEy+0B3m4PsMLmeD9Lp7WUx4ParVGEwXQZd3jDagUDiupyIqjdID4GvpZmNFEyIp9CIvdEMBigT9YEsipkxOPkjVXLcgu+U4fsmr9lQWWdU86iH/lIxwIT3OcuyDyAoAWf0M5ty6ckIuFr/soCOUUBgtsuC+86HXekCH27AyZgMByiPzDJvijPAQEHshz0nTS+1C5bDhoBn1bQ4IDmgFwSExhgeqzCQrJpMyTK/MmulOIAavUqVjo9disITUMhL5aDAGw5EAwiZnIWgiVghsFBH02KaBQhqgITzVHGEgccukcZaW4poJEeOuoojom0zKBpACGksQcgaPpnZRw1yti/i04LUBTxmLY2BBz4eFDkiCQLSlsLVEdkIY0AQ9baMf0xdGcwqALQxKqQ5MsigdfF5XMRF4Mo8iKxCWuxJsg7WQAui45kdJ9U4CCUD6JADRSxX1tusG5AAgiXHI1cDK9c8gAuO/ksJtpn+Z3nKc+BsiA8S6cYzu3HxuX3RgQIRsJvPL2Ec9MNjHf6fLxxZaqBRZVFUfrOsQjnV7Far+BIo4rti00csVYFlveSfsAGofPnr33+N4cUoBIDCa50lN0/lSuVDDi4cguWDpzC0r7jxmEqmwPJwsh9NwR0yGi+S9gr7dlUz6y5rGkNDQx0KGDmaHeI19oDHKKAGe6LAyE9u/K8Reb73QtUMpSwriNk1CBAv1bBsFKOLHHW32eOAYasGNJOCxktmHzWBAmIGnR7bE3w2tJtE0VAQqw3BV7wuI8TiL4I7WlsDZt10S3vm+G0On2gzgUIPiGSlV1trQCB+ki7ZgZU7EoAK05aXuT7HSOFORhitWPiEiRJksw/Z0ismZgDOiWglR6Nc4LiDhrmVMhKy6RopndLGJhz8BwYWcZ4vcIJjk73TNt6PPTuJFsOwAGJ+l4EriugPAcGHDTZcjCIuQZNe9ZykAIOyGBGKZrpIbeCFgU+Re5lu2CIsmR9tQPljIDu0le87nMVhXU7jcjHLIAQAipPB8UyynOumDOUs753lOQSN6kGbVmbqEhsRDKXwGSYyVFHqjuLhfqUtfnJU+Je+Uxf6uAwmYcCAYsScOiLaxwFLKwlQyJ1kywHk3SU0bFiJOWQzTLkWDhqCiAgKOHZHQ/gmlPPYtIChOd2PBCzIBiA8DY2Lh8cESBEPSKrwJFL1ocxeF79ZWPY6N6Vy46exbubptGVODe1TnhTJhaEz3/3rw731svYVS9htmyD4dSMc1m7FQ3KAadOnrlyK5bem2dwwMFyWosoN4F5TyXnUJI5BhAs85odjl/U669pR3OuP8ShzgD7ukOc6osgS5EOawQIriJJU0JpQYsJhioFGJBLwaZD1cKJlYCXIc3yFCGjR6iBQ4gmrBDnvnf7GHQoe1i6Si6g813Zk6XfffFlawIIYv2gS57o7LHbT3fXmzFEb/pjDbTSBFERXiRiyPwUoSWhcgIFekdNR3BJaZPlgBUuyVY6CUCplu3cmwyJ9m4Fvpgp2vVy/AbFHTA4CDggMQIHxmVHvvgaRa3Xq5zg6IwFB7GlS4LRxhzQWXZK4+w+9XKAmTEDDlrdZIIxosEkWQ6qJSy2TEyBpgvRlE4r0L8uOGBaevLXpAEEEx9gTzHwYrDnt1M4VGJAYkpXE0Arcvv3KABBW+wEILhrVGRK3s7WveBJ+CwTJDiVMsiumADTKLtGkjgXGyAYk2eKHL9AgMB0kA17xoJjWVpkQTrdZHBAAYme7sdWg3bjqv5Qu5V+G5cefczUEAR4l4IQz76O0qDLdzI8v+N+3HT0EVRsoqSD62/E5qWDGO8srBkg0MVMdNfCyc0zGKSYy0jnUibXDcfP4/REPR57kAYQHvqOX2b3zlgpwI5qGVfVy9haDTBJmbqYm83oyXw9sWcjZq/ZjuUDJy04iEgWO2FA8ouOG4WHpdVMOVpXzyHVpkFCKFxIqFIEaH/IJxHe7gxwtDdEW+W5ztRaVnuOyi+jlGclYV8IyeZIxl6taqK6BAi5AaB03C+MaI9e1gLNHWfarogFDAHcfh+D9kUECSKp8gmeWiLP9eDyBJ/jDkphMBVVrAEClS/ietCKPAa0soSZ57c0vqB+pv1G/SNrVxjBbzU8ZUgktwLhbPLlyzMgF5G17UfgYIieuh2Slib5jxvBEFN1Aw6WW+YGt3Iw4DsJqH6qlYLX6OZG8vWfsemTNe9Q3ylFM1sOWpQzxA8OKGix2R+g1UlKYLEcUH8XrVtB6wqOa2j4LQdamktgYai7w4PuWoOb/klKZuMiyF6x5tf4iYZwd++8qj/6QALLKlVI4qhDRW5dh3kyJE2JaXeOXkihLPC9aL/TJyU4zIlSm2f4WPgoZsZ6LkZXW0FWRaqNIqcYEqcStBpR7OmLT9D0KxI3QF3jEzt003DWpIXtxu8VYs5cLmM7AAAgAElEQVRSpwEvPfoEqv3ongUZeqc8hpe3fQLXnhKXQ5Lwo8Qg6Lfr3R42Hz+P+Y3TnCgpdnHicIhaq4v184s4PDOGVXJvex6ju8wa4cPKAhCEJlQpBYptLAe4rFbGrloZ66oB1u3ZgLnrd2DpnZNYeossB/G9LPNm/K7XsHm5CUy7HHw7PrFUiAmZ5CVZCt7rDvBub4Cz/aH3KtiiuipvsaYRTM6yiy9W1mYigEztfnR+BSJ4r2ZiDhIJhi1gcoW16YvpsQ8giLKTZE9SSJcN3Q10EU7Xd09efMRrpY+Wyz5ZnjY/WUDB1xeT8CWZotnnEUubS1ZY4m+2TJi607A6kIOTtG5yKhdg4FpU2RJAwIAtBkZRG6UWnY2nID1C9XQ8MLJqDNG1iZPonPokWw6GnF9AXAVUltrlI1h18lUHnF+A+YUTUlnXwpAS6QSYGq9hsdXFWRtzEB9zgOlGwKZVSoLknJg0Pm0+ylhCszeAjXuM7dCoX3SentJBn2sa94Z+qD8U0EhfSz9jBZxJkAuh5LRCrKyVxGYu45wiuRJcV0OUUTF506GLK+I1Gj+++2QBBFmzOhGRlx8zFlwaQOC60+6GcGloBT2DBHJpqt/D2AatdFMW6kgAQQafBbodghcFAlS1e3xSupw4Aq/GWgQgMDigmIMUGhA/m0DxqIDIOt1/WuMrKKHf7+DGY4+BbmyM+ljC25tvw2J1FuXhADcdo2RJJiUZWXiOrLsWl5x7faQgRambL56ygHl8tY1LjpxFp1pGt1FFpdNDrdXD0S3TmK/ScWJT1o0d07TkdAMk/wggyA8sCB0mo/iEm67ehjs/sguH951Ab98xzJGwKBvhxAKLo0NNLUw/piblEDX/agKGQEQpPiIqJYmjBEbz3QGO9Ic42R9icWACuIrsDlPmNepTVgHPb5q/w7SaI9Sh3+9XyibugHyk5FtmxO6IIc8ORhK86p/cv8PbM63iiZnO7flm6vag1QHtSvOeUUGCeJBCF8ioFSiToVeIul/yXWAB6iqAS/OvLi5AU75jhWI/hMKShaifKrHyGYTTlgPiVf6P4mNoru2EaB5mv7AFKY1ywPcr6IcWZ7fb50AzyixI8QQmE6MNJrM7PgMODCeZ65bterSnXuh7OlJJuRCW2z2co7QZHlBEip/6RAGJkrBJ94fqiGIOnL5a2lGGRAIzdLMjWUn0LoyGy6cVKAmSTZKUoHnCPG5PX2egSJ+izAcIcVAhAYox+jtSg4eolLJQQMaorQchr3GAYNKiRO9GPOjneDH5p7Gc9/ijh4ljMoxuCbVxT667Uls+U3rEX+u+6zUVeyfDgpB13DHPqujrVxhUp340c2W+EDrlAQQ65MenFSKDOVfB82zBdhEdRP1ZpTwHlkHKwz5m2ouYbJ3Dcn0WC/Xp2HXPlChpffMMqv02Tk1uRa9UwXR3GUuVCQyCEiqDHiasFaKPEpark16WIHAga0GAAo9/OORjzezWDAK0KS6NTZimg55bEMw8S7Ai1ZEFEEgQX3fVNtx+22688eYxPPfi++j1eqDwOroQhKKhx8mnWKJseMBEKcC43W1QmYq925s7SMk2bMQ2GV5WKT2nBQWrwyEnj2j3Bzhz7hCWF49jcfEw+p0VjnEYcMYpcnPQJTEBgnIF9cYcJiY3oTGxDjMzu1BvjKetp+K+KCX7XJ1hwJPK4eKYGKVxWUSyuyEFTrmxOQGSetiVotuTn205yg5HX60uL2Dh7EEsnj2C5cWjGPa6GAwo816fs3SZBCAlBJSXvTaJxvgsJibWY2J6M2bW7UDD0qVEcRo2zW4qoTJM5H7BYUNMrPQIwd9FBAneqmQB8jn8EqqW6K5sKgQQYpn7o1GGQtx+lTUkapeWHfE3ZZTzxcnGLEShCSquLGxskHERDOjuhDKWLDjQ7EF/E3AncEAPZWIUIKKVEv080ajw7ws2nYIOIiX+o6uj6SjjYtNcHa3kK/9NromZeoBmb8iZ81w60FDotAK5Feh+BvL6sSUlFNI25sAJSCwCEOjmCnKVpD0XAyCYdRpvwd0xh3zN7gnrIlTv+QAC1WhOEcTrzgMIbnCid+w2sCy8Sj0F4bpzRfNMIEHWiVBWNkDROJ24ETvrLkDwrgkPQMgCBjK+iwYQVKeKAASymlFwL+2rOcleVsCWZzJCER4AK8MS2lYWZslYd43llc37nUCBWLk0QKD3xJFAN2q29YVMZEew8UFi+ZSxxKwkGiAwU9veUIY1Age3fXgn3tp/Ek+/cAjdXj95+oBHG80KLzjPojNoLBoqC+/hEGdOvYVzp99iULC6nMzCmEcc+b1UqWOssQ61sRmMjc9hcmorJqa3YHp6K0rlYmGE4Sjim6SwCyGqVJ3yCcxImAfoVCvoKX8PCwxLL/ozjNOwX6+snMOJ95/H0ulDWDx/FN3WYlESeMuVKw1MTG3A+MR6TE5swrp1O7FubhfKlPkj5RlFv8tuR4vxpcWT6HRXUSrVUC3XQHNT4f+qnLmPWSbjKldXWGSBBCOIbXQ9K5TkkS03XsGwrKlVX+bDrqBeF91eG/1eB91+G71+B7VKHXMzW215QzRiEU49y4HM9mpmTU8nOE+bjLlpJW31+OhvUuyUO5+sAnRlsxbcND6qi3b99P2qvdkxMhmb/Hd1AutkfegOsOxkEDXjDth14Ys5MCwanVbQeQ6kL0RTjluolTi3A/U1iq+IbmKV9MkmQ2JEoFBkhIja1hyaSomu5DqxoMWjQVJN7WxBiTN35qVNHoAQV+R6ZyB8Y+pXWC+xmoSO3pMZGYvMF6DIPCc8a/8dFSBQk3SlOMUkaHHsAgR3IGkuhtgQRPA7LxeJNZBX1gISDF1sgLePpio2xc0PQ5aDCYo5CPvsucchQ/pqhUqWAwrLSVEdsTVs1t+FPT6rwWR3GY3eClfcrkxgSVkc2pRnxMYvGXpF1k3h9UIAgSonpHn13m24/cM78fY783jy+ffQI3CQMib+viCKpaLLS6cwf+xlnDr+MnqdpQujVN7blHd8YjPvqAk0NMZmMTY+i0p1AtXqOKq1RixXel51zJApXKADLLmeUolTYGrfH1uXtS+Qdp3tZZw68hpOvv8CFk4fKNKFCypDlph163ZjbsNlWDd7CWZmd6BaNVeFroV5Y8FaAJ5/7vdw8sQb/j6yxUMyRpIFxPzHJlzOfUCK78KWT4qsYt/bYEAZAVml878D2vLSZ/ufr9NbN12J+27/Id4Z09TzIQIX8bov5gEED62pSjolQL785dUeW9R4PmxdLOBLAQckEolWWkbpmlMKVuhwNj1zjFDAgds1qodOK5CFcLFtaKIf+p0SKc02Ao6NoP+ohKYr9XWSkiBVzN0KlLJB2JrKkdKhPAfUN30tdKwdDZRCTWvvpLAXDcUVe3zhZQEEfSLIcJN91+O/N4o86pmBWEqIK5Ore3Q7DSDEQJ/HkpDm1pJe+GIQ0gAC7XzdjXuWrOarom1yNhHdIf94FkAuQEhbcAzUiq/lCwEIxlVU0AIQgK2OBA5ipx0KWA80B7JFmUD6MECX7gVxaEcKe7Z5CmPdJlrVBhYaG7BYM5kO1yJndfViKZAlRL9ddv6dMJfCmcndeGf2Sn6FYpw6dBWsBTDs4hZLp2e+sy0IpQDXXLkVd9y6G+8enMcTTx9gy0E4KA9nm0tJkmykERsRb2X5FI4e/CbOnHjFrzyEcKUyqtUJVKrjKJdr7FIgxUH1DQc99HpN9LotdNoELtIwW2YT4Y+79z6EPZd/PC4gM1avHpMbvKYnnSaOrQfVaKcuFBKF2mou4OShF/DBvq9j0GPjVOKpkzVkejNmN1yG2Y2XYWx8HRqNSb5YpdvtoNVcxMrCYZw9cxiLZw5iZWkevW4yejab4AHWzV2GK6/8JObWX7omBg4vJQLw1FP/B878NQCdYjN84aXWr9uFu+/64fC+NhF5maIvBSAYMB31yeUhuqKXjjd2KO2wLcfyl2MvSLFXWPnSaQU+5UMWBRtzQLVSQOJko4TVDthyoJUjrRSCX3JagZIthStbCUdyK8w6bgVZZaJMCcRQXgY5DinmSmqQ+HtGYg6cPAcxySg00hra5gJhWe/stNyAxRAguAUVqIrInQ4QqEwsZiIBEKIJiyl+0UkeFovxhnNhUx44oOrSAEJ8c2HG5AIE0depu1mbkpkAomnLDCAdVPh/Cb9dA0BYKxjwreYYuCuQLZHWCx9lVFF6a9EitD6bwwBtDwia7Czi2pNPJcKb3914C840NqxJxuqxu64E+m3H8mHMrRzjYufHt+GDqUv473any3lVxGrLLgXe5PhHnQkQrrliKz5652V498ApfOuZAxwslXZHQlHR2++1cejtr+LUUXO3te8pV+qoj6/H9l0fx8bN1/gzK/LRIWNDpqCqXq+Dk0dfxOFDT6LTWsCgry+pLda7XVc8gN1X3s2Lo+jNjkLYjHgc7v8K3ZKlgJMABDJfH33nCbz/xp/bHNTxvtJOenLuUuy9+XNYN7dNxSqYJekKKXlb0OR77zyBQ/u+hk5rNOvM7svuw1VXm4tF9BPmao/ygniJK+6Gxx//DSwsHC42AbYUWw9KFeOCsFYFc849NJ6j1TqfWSeByVp13EbpkglN/jNWgsGQYjf8d1ZkVUyumQfu+cexItQ37/zLCQk6wqreEIHvAwhSTJZrn6x1fXOlMc83gwByCZRRLg2x2OQbuqwrz+x3qSidNCDFvNyl63cjBSt7G5IHUxRzEFASJGs5cLRVja4F5tMKQzQpoFCl+xX+okRKjUrAeQ7UyczwdAi9T/wvgZMJ9SJfRDpb2eojC0LanAhQKGpBMGvGf2GToW+0rhzbQcIy6o7FnU/dZ85iKEGw4hZIN7aGk814R04gqApJDrsAQS6nE7kg/ZO5SnwO+2SsP9RHWd9Za8BnRfDCBrsownYzLAgXCyTQaRH3YiYai08BEjiYIssBD9bvE9DHFdNQE81RGjigmm87+jACm+fASALD7O3KOF7Z+nH+REGIU51lzLTm0S/VcGpiMzrlBpcb67dQ76zymmpVx/hivo2rx3FubBOW69Ood1exaeUYmtVpzI9t4KDGiV4T9V7LttPAaqWBmeY51uGdUhXdoIwdzeOYr23AudpkeBJxYtDCttZJLFRmcY4uieoZvdEuVeNBisR8f+OT12J5pYNvPWvAgV5AI0l8W/j0ybfw7mt/wDt/7xOUsHvv38DWSz7MyiArWjQUyHw1KQUARSKagvYOvPV1HD1krtks+lx62T247KpPmnGG8RNpWNqpNZb5MP7boFTis6j6oVrPnXgHb37rtzEc+E8UVOpT+MgDP8ZWgjAa183Gprg2BhYcE9uJY2/h5W/9h0L5w6mf2y+9Hddf/21e0nFODPsQc6dFwFIXHv7LX0CzSWlF858tW27Azt13Yo6AkP0/85ZtUIWZ/9mf/YQ/BsY2c+mOj+CGG7497GUEkM3iZGE9HOLs+aM4eOgpHM+xZEnvq9VJfPbBf+7MpRGZ/J/tqgSrhaRSzJwGENzNF/W0R+tOoXuOOSBzfTDEEh33scTXwp9cE7PjFNTYZ3Agj1kh5uZVykFA87jQMi6V8CiFLUzWi3X1Elb7JtWzL7aITiuMV0s4R0GNanzsOgMw2zBRA8sdc7mTdyVlAYRwHWbv6YgWWYBeuxhCWqQt6xiIj3FfLkBgTnXqFXUQAgRWYNHx2sxz9mE6dVOLjhQSgBBeQERmYu2uVByaR3eS9dQPAgkCOrIitdYCEIK/JnAgaztP2rDlwIIDc2tw/A1tJdOyLib4rGxqIjCB955G6/0Wbjz2qGWkAC9tuxd755/nREj9UhUvbL8PlWEfNx59BKVhXC8u1Tdj36abcMnCQWxdfJvrWG5sxmTrZNjSam09xjtnom6Vynhu233Yff7dmIvhg+nduOnYw6aO6jpM9M6H8vN0bTNembwaG3oLuGHxpbCupdJGTA3m+fPp6sY4QKAvq3Revz9En64Stk9m9q6UWSEfx75X/hDn5t+0wihZcOuld+HSy+5GpdqIjqRk6GY2kZBJzLhg+W8jJKKXut0VHNz/CI69/2Qev/Dv2y69A3s/9Fk77SLwCwIE24JvJ9kpl9CuVcJdZr/XxVtP/SecP7HP7xYJAuy54Tuw84o7OZ01Cx4lI+M+wuRy5R6LoFNnTjudVbz67B9g/uirufQgy82tt30/l/NZn9yEKtQ96aIu/9W/+Cn0LZL1NVpvTOPmW74P09Ob2YVku57bv9EAgr86PbO9QZfjYZ594T+j1TyX2j4B12//zM+YXV100XnIdW4Mht49yS7GBxC0gpfGOfDR5qwQyzkdH2Rff6cfBd/FXAIBpsfKnIK5pXMjq5VBOQjY+kBuhfD2x+gcHoEDc1rBJmzSxx0sQKWYA3IrEMBwb5Ak/qTYCD4Hbm6disUsxIjrAQis/ETe2B1/FkOsBSAIiEnU6wEI0n9X+6cp3hhQV3KTlbnvBFOKiIkuqDMFTHyJlXYmgClMZMN+5LUABK7X1G9AgoEGehPg0uj/kwChFD8unnWckQISx8OAxEiw+mBoxJ4C7FT5YYAWgQMWkn6A0Og1ccNxyaRYwTM77sfV8y9gukWKN8CzlzyIa+efx0TrtOL4qI1Xt34cG1dOhgCBRtktj6PaXw6npV8aQ3nQDD+/suVj2LZ8NAYQDk7sxodPGoBgHprnSK8/vu5juGplPzZ1BHyIVjWlvQDBuyjTEnOkrOBet4k3nvsSVpeP+0sEJVxz8w9g3fo90e+s54sr5pCZWYoa05t+/ezp9/DaC7+HQYaiosY3bb8F1974XXYxXjyA0KpU0KmapX3+xH4ceOEP0Vn1K6FKfRLX3vWDWL9xt6WHf/ckkdkRIIkvWwEJLFhiiSmA9999Cm+++H95XRoyCXPr9+D2O/9+fM4cK1yaOVLcedTzP//KT6RGcl52xb244op7UC6rK0YtIPFNvz7tkAsQLrEWhIzNZ4zD7Aey5rxz4Jt46+2vpca0fPZT/wa1StX48azyk3/TAAIFaHFX1DEkIa5WVrpP5FtkC4ISHQKB2SxpiSRmaDpBQLc/tujmUpUrQd6nvpFLgAMSQ8uBmmI+rWBORbS7Qw5slD5r0BkGJLboOGScRagc9YNyKHDXJRCXx+2xIlwkgDCKi8FH94jIcXDi0j6Wkc6RaFqkCv8aUWYGybYbD2OHfn/nNE8CINi4O7LLsEWiIEBgGRA/LGN67hGx1RK5jKLMLMLXeqguQODNmU+6F3Qx6CTdbDnMNhj59QjHNkfvpgEEUosGHKQ3MgzNCRaYeY7XUhmyHJAjW2SxJKrTNccAQqmCZ7bfj3WtM6j1CVoMcXJiB1sY6DM9b27+GLYvvI2Z1in7+Q6sa54NAcL5sW3YP3ctbj36DXB+w6CC57bdg+vmX8B4x1hqX9t8J7asnIgAwsRuvD12Ke48bYAKJWd6aeYGfMJ+pu++OXsnblh+E9M947p9depmTPSbuGyVNrECEL7zixoeWSaKc1FxtQ00V89i3wv/J9opJuZqfQYfuu3voT42m5h0vnZ0BJBAvBgJ5yBE6tLfbreFl5/+Hc4fkPas33wVrv/w34n9bE4jjDLq+GIhgjZrFfTLJZx47xm8//Ifp8ZHNCY34dqP/l1MzmwxcRBhT/zMbBaE0VKJZEtq/ccVofl0/PArePWZ30vty9T0VnzsE/9jKq3EZOwV+vatdruJr33tX3vruO7678LOnR9OrT/vh8IAQVdkyWiM7I6Ys0QSmh8+8gpeeOUPvODm/nt+DDOT642MDes08jYNIMgc6bkgtrL5w2I7ZukyKVk6MSSPfpfakSu+aDwUjU7Kv0X3IngsB9QWH0MsB1ho2pMaiq9pHHTsbXrMgINVcgs4k0C0oTo45oBumLQeDl6rGfnu9TFS5SUK6+dx2cbYM6biAJjGOVaEMA7BUjFh5ve4NwZ2oil5TOxJsSBIP1xXSxqfjgYQzHW6cgpF6kwDCAIotYyQ213l3byTDCGYcUQbrYpGucQBrr4n9xSDfsnphD7F4IICt61RQALTWnLGqPnkNtRnFxw42DRP5ESR/yDLASXuswDCyuoiAGHfxtsw2TabQ3K7HJu+FJtWjqNk3czzk9uw8+wb2LBq9NQbm+7AXCsCCMdm9uLI5KW49djDCIZ9kPXguW0fx96zr2HdqglKJICwefUENi2ZGyHnx3Zh/9gluOusuVXyTH0DXpn+EO499WgowAgg3Lj0Bqb65g6I56c/gtqgh+uXX+DPxoKgAUIKuYqqytbqWbz+7G+j24lMIbrKWmMGN9z+36NaSyY1YuZVVgCNzNNmUY4VxgUw+dSiNwhVvvj0b2Px7CFvNdPrduGWOz8flxejxiI45lTiz+VqCYfe+ksc3/eXqbvSamMaN977oxgnxaMEpPiNUxernPtVx9+kbDh0ARLMlRFBCCS8/OTvevtEJyTuue+fZS6aPJCwsHASjz/+K4k6rr7609hz+cfyF2RGiYsCEDzMrGXawUPP4ZXX/yjRi4/e+cPYvH5X+L22JGhrQGz3ZTMKagHLytABcnqn1+/TVdDOsUPbZ1K64Q1zlFudkhgECLMs6k4LOCChT6cVTIZE8rtGBGC3whgBjGHoFtB1GHBgkyBZtwLpEAE4jhcivoZipu+4tg57IIKc0UAkeKWirB2fe6LBjUfgKh0gYC6x8dzSlwEQzPJJ9i3BIMpSYoZj3kmzIMTyoRiTjYFEMtcK+GggJgCB/tXuBaohLWha6M2855gHhDepzFjVBC26S6QwQOCBR5QxcxB9IQAhjZpFAQKvN3vboCVy2KxYv+j7pOUgW6uwFSGWht0wEGf6JcuBc5RRr9ssC8KJycuwxcYTiIuB+YouWGsvYF3rFDYuHUZpaILsEwBh9iocmbhkJIBwsrET745fmg0Q1t2JGxcjgPDc9EdQVwDhjAsQigIBnwynY4evPvNbaK9GwRO6HPmab7jjH/IxvbwnNvl5hR3fGS0AZnK1raNz3i88+VtYXjiSqK0+Noc77/2fva3wYhzBkiDrgwLA3jzwKI6+9fXU3gelCm751I9jbGJdcmGTIhDO99SgBVbJieoMhYGRbMrVEM3uoXeexL4X/zBRc6U6hgce+pcFKG6KiLDSL5ycfwfPPv0fY3XMrtuFj971eXsBSOHqEwXXBBBE9kqHVa1CEVewPvnM7+LUvAkQkucjt34/dmy5NvzsWhFEx7kAgV5wkyS5Jlw56kh1kPWAlLl+hJeF3mlXGodDZMtBGeRaXiZwYDW5dteEboWeHxxQW5w+uVrmLIsd26dYsKqyAOisdUxXByDEsivK4GSYaq1qGTQKQPC5G1w6iQWB2iCgFU2m8ev7jhbqsWTJR1dMiNzguXZeFF6JWSY4aC5u45L3XEsNxR5Q/WknGNyFEwEEG+0fU+LRB6Ihxbu4hoQ0gJBYUg5AEOuBthyMkhchTVLQemDlbLvOx+wVMjGfKUMiyW+dJi1eY+RWMEIieTcpfRtwdkRfngOpzYUdrovhxOTl2LL4li1uYhDKwx6uO/E06r1lDlwkaVq2px7e2HwH5pSL4ejsVThaBCCsnMCmZWNBKAQQ5u7CjQuvKwvC7agNuqEFYU0AQYP+iNxDvPr0v8dKhil/97Xfhq2X3JqatsD1H2XdPuZjnKRvPIjdYNbtNvHkw7+QiEkolWv4xENfyNRaaZnNfC8Rs+x/62t4/91H0usMAlx//z/B9Ow2LsOpgaJVHMmtcFeQ7m7g9+VK7pAFFZDXIMEK7qDfx8vP/FccO+wcOw0CfPozP5NJCy/t1ZfHjr2GF174fSV7S3jgwZ9EjY7q2IdG4x9RdtNrBggp1aYBBHJN/bev/zSns5bnpus/h13KPcLuLSeYk/RcqPztppmEWFntolwLgghZFjJ02yPd4qgCEDXQ5f5K7oMUAsqYyP1AgYTRkdzIH0DxCGI5ILeC76FYB0q41KGAZdUWAQT67LNGk4IxZ6zjvgdS9JwV0aKqmL6konwdsXlcJZwGEryXONmdezivYm22FjcBCASqpUVW5NTvLICgCJTmevTtI9y4KKlmFIDgc+NohR+r0zORmp688XKOlmgLAs0BgSSyJLjzINAlhqt8jJNixqBmxT0W9nktQoCmS93vI04x6nHI60GACeK4IclVWgNJaGdSf0lnJfg4vhaoey0KEMzopwsOaGwuQHh2+/3YO/8SZvgkggEI1598Go2O8f2/tel2bFz+AOutu8C1IBQGCMrFkAAItQ14efpDuG9euRhGBQhZ4jkLPb/z+v+N08eM38L3zG3+EPbe8N3Z0p9I50T7FkuQHFWrTb0ibjTQOH/2A7z01G8l+vGJT/10mALY10mzoP042l0Ph957Cvvf/HLmWDdddheuvJkCIw3nSf38tyNp6Lc0l0NoSbAmSo3OHTBv67XtkRJqt/Hw138WbU42FT0f/cQ/wfTURr+0ThmV5o2DB5/Gm6//SVhyz55P4NprH8qkR1HAkAcQLrFBilm86nYkom/8l/3vPoE33/pK+OVVVz6Aq/feG36OnSqxAsQHEOgFAYAi7F0LgvAAIYRej2IFIonEc2wHJCCCvmKAogRXkTGLYjJKEQlLhY827neFAILzUiZAsDyfBhBEkScUVpo9mvJp0L5PABqtMtcvbgGCsSib2xqpfZ9uS7brobSaH5deQmv9vQ8g2MhQ5Woxm4aQZxTmMjEd0WmGUIZ4VpmXL9SXLkCgKsgtRffs+ECCOw76HM6dK3RUYROwaxQx97cAOPBexhRmZLNKnapTx36J3mMYmLm0LgGfEncviHeBDwFa41aIBuGvJ0l0H0C4av4lTAtA2PEAbjn2MMr2JsfndzyA3Wdf/38dILwwfRu7GK5bfpEHlRmDUETgUCWL5w7jzed/B0N1rWWMiYIAN9z1P/H9CPK4SlAEovc4UKZqifnyRyQAACAASURBVP+YBAhyLDJa+u8feALvvfXnsRdvv/ufYWwiGTQpNBCB7robREkID506tR+vPv97GNiJ93W9MbkBNz30v6aYM+3lLgokFAEI0k7Z2QzGBB4DHNvTbg9Btwe69+Gbj30xFrR47fXfiZ07bx2B6vEFtO/Nr+G9A8Z6QrEmDz7wk7kBn0VuSqP6igIEEZhFBpEGEOjd//b1f4t228TT7N55B25UOSJiAMFKyTyAIP3RexfdR1oHfZV7RM67x6wOlhmp39pMHq7XDCmWef7eQyyfDMgDCD6auwDBnR/e2doXOQDX4X+jvOMaJc2CQEm2pCxniysAEML14zEDMA1C573idV02AyDQG6411AsQmIeisfOOPQ0gOOBA6OmbrwRfOIUSAMHyDx2rJTeULu5ukbR8FDL5TknIZU2jAASebZ3iWlw1lom1WyE6SgyMyeVr3hwMfjeCmVVJkWV66YIDoXEBXBO3IAQlPLvjAVw9/yKm+JRCwJ9vOfYN0G2O9Dy34wHsWQtAOPMa1jVVkGKOi+HlqaQF4brFfVjXMychTtc2odHvYLJvLBuFghSzgALdef38oz+HQb+TKou37b4bO6+4L/G7CwbSKkgI4gJS3wUKLGA4Ox/4Eh5yNfS65lILem654/OYXS9HDIVdoobI/CiMod0NGjCTWfpbj34RnXbG5UpBgKs//iOY23RZWLm7AMO+O8Iqsqa4gjKqgYSr6+NzQT1bQtodzsxFz1v7vob3lDtk6/ZbcNPNnytAZX+RV1/5Ixz5wLgudlxyK27iI6RFlpUV5hktFwEI19/47d7rxX3Vii4VGrm8/uobf473Dpoo4B3bb8StN/9NK0r8u03iVQngM9Hp5tEuJGvs8fqlKfaAsijqR5upXd0fBiyKaZ790vELwOJ1JXk7b6JdmvgBgulZAviHcSpxFwO1GeP7TIAQqZWYNSHDgpCwOjiDEBeDWBCEBpkxCCoiU1LL60Wct6Fy55GXd0Z8Ux5A0Jf1CD2zAELMQqMuMEqbf9LDjUo55krKAghmPCm16bUwwt0MVNuAExuZo4ysM2wbAhDoo7iHGpwzwncLnBm9yZ8of8e7G9k2hpznwOdWcNdfGu0oQ+ItRyk43Tzzk5dibvW4tRgEeGb7J/Hh44+EFoT9G27FjsV3MG5dDmt1MWxaPo7NKwe5TV8Mgg8gUGbF3U0Tt2CIFKGyRAyCb8BZjP/BgUdw9IBOxJCs4aaP/VO+ICn22IXBdeetrJRguDzBJnyo3RRmkQZYXDiGF7/1v4em3Gtv+lvYuv1DmVW6JlC3288/8yWcm9+fWcfM1mtx9V0/GF2Fa0tLXSGal3Xg7KSiNahM0FyHjb61X3M5xzQWE8itdiwj4WOPfJHvyaCHbn28OyVoM4/m9PuLz/8+Thx/DRTbcd/9P456bUyHDxWpgsv4rApFAQJTpID5XTLdcXntQrLKoN/vsRWh12thy+ZrcMdt0XFY4ivXVcB+UNmLxAL3jWUoi9Vpqtm9QBcnqb7r3acroMRCRGPleAgb2a1vCE0Q3Lonik6E0WORfzcLIHCQnTIARPQxf0kMgrQd0kPzeYoFwXB5dN10lgXBvTbHGyQoa0/zSdqlR9qCoHbvUf8LiDF1YVOIDXIAQkgn50hplMI54qjY+laTK9+78suIjGzh68YjpAEEEUGh/lXVujhu1CBFAgj08MbM0suA7CgwkTZGY5TnwBtrkMbp0cSbvwzXdDEMjzK6bxYFCPTeNaHFQNdiwpGfvvRB3Hzsm6jZmxdNiaj21zfdgfXqmOPR2b04OpF9zPHVzXdi49IxbF01p/WKAoQeqrhueR/Wdc+jXaphvrYDu5qSB2FT+jFHMxnp91fSkcaXnvhippyZ2XgVrrnl++JlYmek4smNsipbiyXBMFZUq1gSeJIe/WW07ImLPXs/hd1XxC9s0n3xLSNzxNL8Mn/qHbz4DEXuZ+yUKTnUPf8I0+t3qJ1l1Ep8gat75IuABDMww2Z2i+qzJHCBwQCldjd2zfGxY6/j5Rf+M/9cq03ivgd+ItctkDZXzz79uzg9/zbWb7gCt9/xg1ZhuvcW5FsUqIRbahSAIP3zpdyV32IAISX+48ln/xNOnnwT69fvwcfVcVgBay64C9vluYjEMgcrpuBhmWJKkMTjlkyH9jiXtMEWCtuA5hfmRdvUkFKQp+XBlndzwIo7t5FrzUSHU/XxIEUjK+Ri6pTj9F6AwNDB4XF37WnlFloHClgQwrkI63eBtRPHYctp15zZxMSvexbXj4h1KZIpDOVOC0v7PAuCqcuoZO1qMDItHn+QmC/1xYUABJYHNh5B98crG2VBONd+uicZRk2KJACBLqejR8AB04Ei/+kGVL63Imk5cOVHmoKn76nbZAd3LQf6nSIAQcqQFeG6k0+i3jMX59H1y8en92DXudfx9CUPciKkK06/yKmWu+UxLNXnMJeWB6HAMccXN34EW5ZPYlszAggHxnfizrPm6gHKg+CzIAyHJcx1z2OhMsnw+0Mrb2Gma1wOhxs7EXzqc7+SL61dgRMEeO/Nr+DkYbqtKv258WP/GGMTJrlM1pONY6M31woSpAYBC5Q699zZQ3jl6d9mltux+07svfazMTydRpREX/tdPPzVn4pFvPvGOrvteuy98wdYj+vz43FhFGF0kWm+qOm0I5AxQZvibkCvh6DTCwWP9PWZp7+EM/P7Uak0cP+DP4lSadQQUVPTk0/8e5w/dwg33vy3cMn26ynvl4pQ10Ahn+2kbwIW1gIQqA7RJcZ9E492Nr/bvnh2dCdOvo2nn/0SZme3456P/WhiaoVKvt2YCSK0NgVrufMpT+IJWmKcQZH5IzLX6x25BghmL2JjbGKBYnGAIEMyx39NOyFv5a1LbemzZaVv5Rh8iwACveIN9uPv4wfJYsLX0xbPjR5buM8znfFaEfi6cD9vyaYnBq48RV034poBgsNPouzl36KZYw0giObtYgEEQ98M6WvBDKVirmqrgPNOCJJL0R0tMnTfUUdqt6glgV0MbH0xregAXjoVMWaPNGZJkzxJQ7/7wEGe3kr7nQGHJUq1byRgr2wlReiDNHKpOuijw9fdWySYA+5jC8J6BKgfrU7XHC+ylkSRadqowjxEF+7ZvtE/1y/uw8bOCe9QXpy+qSBAcF5vN8/jxcd/KTWdLjNeqYLb7vvnKJXjFxZdKFCgQaWcpCk0n0ZJ0GIr4dnHfxWryyexedtNuO5mc8qiKFiRxj44+BT2v5F9aoHKXvnRz2N2y17Ttuqpa3o2v5sS0tfwg34vrCfO/u7JBr0YOUah3Qlv8dL5FM6fP4onv/nrCIIyHvz0F/hmxZEe241vfvPX0FpdMCCDTbbRaGl/LJ/iMdJ5S9gowj/NuayJTjFQDELaYwBmtDpC4OAoofB9eyTsL77+c6hV67jv7viNjkxbOw8+Qctzac3/sT45O3hW3JSmuNtPnOQRnhS+EUppgODyVOyMv0RO2lsFDVwxj+ZD7UaQvmr+cGlq1qGykEiMeoYLw+diCPuTChBMDEJEh0gIeq92uwgAgZrjuBGhkWtBcGkYU56KUh6AIOvauITMIs+TOVoeMM/ZY5lFTlZJ3doK406+7wijLkN9HauU41lrHYYIeUoHVgqfpyxvPobo1BMmirLvDEqU88FIC1ZulueIx8foS0/GTH5Vlnm6EZxbvpjgQNz3ekwM4lMmmOWP3ZzwOrAuQjaGqJNM7trTpzvo726vz+7JyGLpb1NOuGor5K6VY7isGc/5Qjz5+vh1ONGYWxtA+OAdij34Rqb+mJjZievvcPL6J0Ya/4LpqLfYKS1cqCWB1zuAY4eewYF9f4p16y/DzXf8vbC1vAUrBdutZTzx8M+m3swo5SqNGdz06X+OQO3KWcCqhkJ/sqNJQoXqhKAbAS1PtALjVgSzBMIgH7pGmJCmfVwF8NILf4Djx17C3ff9OMbHpzPnN+3Hxx7+Zayb24Xrb/xOLiKCVsoLc0roWRzsZQOFL18MgBDzdydH4Zv7V1/7Mo6f2IeHPvm/JF7QvOiKOwZ/Ypzw7VTV4PuUb4DmxzPPIu+0sM8CCJwXw/aUsgeKcJVMiqGxVvUp9O+6RyzT3CKxU+SGz0SRj+xiiBgyoTDkcFxEg4ig3nWaCRBMQ/q9tKRTTCNPTAIfL/QABPku1qcUgEBlmTcuACCYfAb5R6+LAARDEw81RclyfgSgUaYbRf2l7dehX5BlrGrc2HWczYxzB4Muz7rf1hFedGYVJ81NnV12Ec+lySOWNylihd4mZ6uTpXxNco+bkQy32hWiMz46NbsAwQhMi7AyRGEIEGhjgSFaLXMaYi0AgUyKZfRRpVslLU91girIxswA9FPf9SvRtq4QaYZ44dFfQqdljkKkPXtv/juY23RloRp1IRZUGehJyl4oSKB56PW6ePrhn0VjfA63O3cQFAEJh99/Fm+/9se5Y9x+3Wex7aq74zs2ByAwb6iazIKNcH9oaXCETgQszNnvEIHLjkxl0ePYAzJhOfQV893y8mk8/sgv4urrvg27d9+RHVORMuozZw6hVhvH1NSmsIQLEmTN6kNHUZn0lXGhAIFNlZrGTlNamOr5X14+g2ZrAZs2qMvFbD0uH2pBGwOAnqhLupWUHr7BsU/pkO0tiCk++ZhiUy4G1jMx3ol86ya9sHkqdPsfBwvaL2RLITrXMeNmWRBYINlqzL9xYe13pfjn1l1r8ZgEvwVBR6HGlXK6i0HooC1zeQBBxhm2kQIQYjJMN+TMS1zW2aQ/ORJE8xS7cGSeUsBbIobCZyHz4gG/1BN2pGOPlB/B0CRZlsvJZWaOmdekXE7OvwGvUYppmu3wkjPL2KFLxVrjCBwIQNZrlsWaWDBypfIQnYsIDsLmrHswzF6aARBk8XspYzexep3JAQ0dftPpG+sBl1Ny3We18FkQSPhol4P0iUEIAYSHLEAoohDp5fOnD2Df81/KJD+ZqT/ywBfWHOhm0Gh+j1zBmMcTmoBS9vUXfw9L5z7Axx/8F15TX1ovKMveEw//Ajotc9FF1nP9ff8UtXXbEu4Feke7GFzXSeIyJs/pBiGVyVRmsZ4FCkIfii6vEDggRtJMpAQ8lyXT0utfRqXUwFXXPOAZUvYOP4sGVH8y9YoRGe4VQWnRDxcCEGJCM7wWO95j31yngQZ5syhA4FiC2I7dsrj9jsyEiQRJHgUg/ZHxJEzHdh5dhUXlyGnEMjSWfScpt7W7Ic2MLYIrjGew4EPa9WdalFjxLLpru7QBdHqMYXyBIuaoAEHWDM9dCkvzb14w4LcguLzvk2E+XjKxd9nB2j7LlJik9dh17IorS6R/cVolV2yq4rdFCSDQ7Y9pcpHc6cReJIkSLiW2bCUtCVlyQ+eeIbdCTbmwJJ6G+mJc92YyfWNwrRcXy3KgFXHCNVAk8Yghlm8iYnzvK0LBzO1uL4pp8wKECH64AIFppQACd8KxIAYPftcXh3k7Bd37d1/7Y8wfTc+aSGWrtSl8+N6kOdbHCEXBQBoTjQoS9EIhop888hLeff2P8NEH/hWq1ZobA2LQuseicfrUfrz8bDZQMoKojHs+/a+x0qijL5HMajBGEJkv3LGIbzAm7C2yc+khPk1RWCwsqEYyxfX6KHfIhBS9lebjyr97YlSQEDGoz5IgPaJazX8mUj5a5lF7Fw0giEBOsSBk8Zr85ncJxYUTH4WUudXgwAacCWvRXPTogiZ3cfrlBn8rJvCwiFiKMoA1AQQVI2VNin6A4DadqhBsQbOOoyH43QwUcOaP8wnrl/7b3aBu16wPMXdEBF0LQDBr07mTIbEu4ymgU5V+CnF8AcayGuQV4QEGYjYgL0n7ZANRLFX0myVZyB+avcP2Ck6sa7XQctMELfoHLe5bgQIukojifpLvixKXNWNkmSlHlh4BB644NjSNwIH5Kxq9S4e/CnDA/KSugucepC0aPQdFAIIvtQMFVvb66FvrgWlfjdnTthukSPJGBy0assWFIgOEUOgV2LW/8q3/DatL/qhHqWdschNu/Gj6tcG+hZMmlIt8vxaQwKa6GB/ZaFlCx2KedydSfd732pdx9P3sUxxUfNOWG3DTrd+LbhBguVrmC1ZcdE/9F7DpQ/4JS4KT4czKZsfsZhfMAKh2uiY/vnoSfFlAOSXnYlSwkIxJiPVJLXQRdpoeFwsgxPhdK+4cZtNrLsvFJUIt6xyIAEMiO7kWkjc4+v3L0gcXIMj3Wkm4wykEEASAFgRPMcWjCJS2gzXHPZN8kwAItvN/1QCB156HjX0WBF5nvriCiwAQuO5S+uVwLjdINzSgdwGC9mr53A5M4rS+qx9ctUCyioIWfRsYXaeARpcPzdFjf8NyrNHIdFOK5ofcCmHwB8+XgyBd+aaGpqeXfOsXM+agiH7SGSQT5dMAQg7AoKDmjrIeaICQBkxcgMDuZnXiwrcRjgEEwy/W3BUieUHsAR/le+Zr/yo3RmBq/R5cd+sPemnnQ+FFiExl0oRO0ffdcu65dGY5UuB0ljwNLFlGfPwvf7aQe+HDd/wI1m/YyU13SgQSKqF4dMejd13xBZ1cTnKjmR5TQmnRlcCtbjhfabu38GSNAxLS5EdcCY0OEnjR58Ruy/FIPaY8gHAp3cVw47d7kyz5eCc0n7u71ZQhFQEIsZ1XBs+SkCR3rht/EAMvHsaO9UGvUZ/ict4nGnjXkHY5GC2YiGlIXcwiHhyvoNuOtqREuQyil7KOmmoQIu+yfSy8qc/0zsgWsT/l86W23MXutbAXnBF/uGmxqVYNztKUoA9MSB/1+nENlOWUCM8s07/wsQsQ6LNQIc3iVQQgWENkpKBt0OJYxZx0Stsok2vTXNyVUcjDWHIEUtY+gwP9eCy6JkmXGW3azFOOg36O3MnTJe4JAi4vArSIS0GVDV0SOt7Adj7L+sDBld0++hxPFvWYxs8fUybExSKFAALHIMhjK05T4vPHX8O7L//XPBpi2557sfPK6GIb94V4EFJ2dcL0Raw14TDs1al5HRUGTNRNPnuJIPNUsrBwDM89/mt51bOgvfuTP4F6fcowLgVGBgGWKmXOeuezJNDkyvcuSNBzz8o+zcxHC3gwZMsBMa9MsKzTPEMR87A6i++wR3ythvyYL5D1i8VAQmQ6JFrkHXMUgMBr1jM7rpxyLUXUhvCbRwbFhCFFVvOmxlNQB5Exj6XsUEXYSPyBV/k743B31OHcFAAIVJYUYRE5FlYn5+9906vCBQy4jmRTGkDQvMTzITJH6JgxDlPUJMUxefSiWQ7pYgGCWSvZPKmbkp0qv6dcgX3nlseYPBIglSOcXHmXBhAoHiF9TScb0f3Pcw1eiAXB0CS5oEzQontHY1SOZBy/a4/YFtXN5miwkY/kVojO9Et9hg+yZtf9jSwH+lbSfOEdL5GINSiokMR6ELpAhGVpcPbvUevuDwYMEOh9Pulhu8r8rphL7qiUkawNIKQkSvIx6oE3voJTHzyZS9vLr/8cNm27MTXQsCBtrTjIbS5RYBTAahSVAl0hSApQTgEJ77/3FN55I7qxMK2HdKzx3gf/JSqVeswX3SsFWKmUGSwkQIICCAmFpnznWQCh0h+gTBcyeZJuiFDOmgMtq7X+k3fiFgTf6IuBhayYBKlVK/o/+7Mfj/nZ3JY1QEgDCTFBqaSepnU4Ts8w5DeT48E8LkjQgX1CP9fdIPNAu4ABBSgqHtTAhUFIBkgwijDF9K3e0/WkZXTUzRQFCCENQiFl/sgCCEJDDShCfvQwVxwUXRyAYGgc3xvFXA1BwEf7OGZDEcY7TxcAEDTNLwQgMM0zkH9SljgT5lnGaXEIuigFLdZslkO3CgEInBY5RSi7pBP6VgcBKjomw2c1UEOIr5H43PaGBkoWk0p+aV4onsDzqgAETvhEYNsqdR53SmxBnsbjwERiTB9AiPGqCQmVx+dWjsUgeGgcPJSTSVEDhTef+xIWTr+b139ce9vnMbPemNUtHbzvjAIUchv1CNGi9VM517JnrK5+S8K+1/4ERw/lxx9Qkqj7PvVTCFIWULNcRrts0s0wS1tw4CqrUKBaCK7HZRae+YZS7FZ6fZToIqaM1cCgqCBxxEKoyZsPEPJmPqqtCEiQ0l8eESCwIcThCx9AcEkRKf4k1+myaVYE1zJBNNQ5EaRWqosBwiCe5MQFCO4a0iBFjlO5yiHGI7ZBvXnR1pJYmj4RuqqCGH00QdWRO6rDWBFMpGIWQPCecNBSjP52wJumGbkWilgQoneSi8HVpSHNVZprlEoM/tjq4hNAKn1yEfmUFwxu+kQuTh/fJResDw8IWJT5jXaXSctzWGOKLEiLe9C9o1ezghbDspqfnFNWzN/qd3Ix0MVLuls5tqBUcUdXn12I5SBky4Ly0scHIThQWVyL8IuvDAUz9+RCNwUQTPeyqZQW7hBucNYEENRi5QDFxeO5Y7v57h9HY4xyO+c/Lt2LzAOVybsiWCvZ/F4YeRSzJISCMoDkAZd6Xnz6P+JszsVMVLZam8Q9D/1kZvN0soFAQrdEN/GZXWkECMyrccBgfg3LWBMcWQ0IHBQiulhNihA7XCHRMDRAyAcL+VxAgsgrgB3KjQoQ5HWdOcy3y0oFCALc1BB0WQO0IjEqJ0dYR3pcgW4wHJXjC5rcyGHhPWcnrk22hgmMMhal4Apu+ezugPX3aSyQUKC6cqV1YvRUPmB3LWkFkAkQPKslISPoC8m/r2hlaJLkJL2LkiOc0cZHWREk9kAmzwMQYvMqwFwvyIzVngcQzJReGECgOmROlBU7lCEaMITdLggQwlgEZ4zUDt38qNdCggy2DTHcuLqIfyYXC51W4DsWTE9dM7nPcaSTael2KRgxT09kCmf146gWhPBuFNJVduGbxEhFW/SUG5pjjWIYFmtExJM6HDLekNDbbT4me9YCEIRp6d+XHosuOMoa5m0P/BTK5fRUvby+rQClM7X0d88miXHP6RtQHXHwqIp/lOlgoeYew7LXjGqQ8PRjv4blRXMPd9Yzu+FK3HanP1hT3pPkRpTAhkACuR/6bGuMapY/RfQxDSjIbQhU+n2UeAca5drP65cIBqNY8kszU3lSmtqvjfUjNw4pe2UUsST8dQEEl8d8bpZw/sgUrUjoA7zhyOV4oyJFt9/PPosfc3+pM/gqsFC7NMJ+qT65AEGaz3I1rBkgmAWbsCLkAQThSR83JmlqRqDvYgjLpAIEoy4FIERyLVKZRnlFk1PyAQSVHTMml0QBZiwnaTvTFTAiQBA2kGap92HmQfslfZcGwMO165EDaScNfDKDxjRWKeUGH4urIU0a1AZR//Mlkymh66JhkFWN5OmFgINRAUGir6EWDy4aQOBjjXQc2j5yrDJ9wxZRRqwHMt8hv2jhtlaAIIvpxUd/Ee3mudx5u+cz/w6tvtztliwuvDjbqGKsVsVKq4MFe4FQVuU8+c6OOrczayhAO5zkriWyJDzxjV9Ea/V0bs3bL70T19743+WW0xPODE++TxtBzbtGuyNlJUpBUxYQFK44paDZARevxedu0IJJqtK7FJchsyB0HkhYK0CgPgrfeIWzughHxpNq0bCD0663LIBAmwcdwR+LgqYLmgbZAIHXngMSjFS0nR7RgqBnOwtsZwIEVUnimJ0SMmnKJy0Vs4w1rN6OsQhA4LC2BC/HYStfF62uro7HIdjTW9alQNnlGHjRf4PIZWLm0kbMO1GORTYveQHaaRYE22pssaaB+ywA4uNrwXRpkiABFFJyWfD10JW8VWxacaeKZqpu0ygl3WWRNcEnbwgQ6HfWajlw12kaPYbWPGCyQ0YPuxJ482aDV+xPw7LdQI1oQdBydDAcoN0hh4nzuLkX1M+md6aWEK84gCqWnM0XT5UXg6C788IjP49uezGNbnbmA9z10E+H6C1N0M42apioVbDY7mCpbXJJpz3EeHPjdV6s55otdJVTKUvBpUWiZw/A/JoFEh776r9Ft7OUW82uy+/F3qsfKJYwI6c29ileiHkqk765QwkLZIEEKaQZO71m/2CyxEseQKDLmm7MuKxJ+iIJpOhzHj5K8G8OQNDjZQCWEohEMqY/HGCY4SCNxUv4+mpdDDION7BYxpblvonHZOQsbc/PLBBdTZWwH8eDpbIAQjRH8cb0PCWvfLYqLKExk3YtDRI0QAjHYAECg3JbH1nqQrDDAN4DEBQz5bnL0uZJRuwLVpSYqOTGJaJTiBkVqHTbktgEH+9nWROLggSyCNd5gtPsD1F/9VhMijrz+GS63nyIRURAv+YUWk5FLQdrsRJk5TSQ1PG8pyNvrzNZaXIx73s+1tjps2Uk8WjzpHNux7g8jZVYx6vLqoheVfW67s5RAMLz3/h36HVXcrXJHQ/9tD+hiH1TLAfL7Q6W271Mt0y5FGCuUecc4GebbaxKgIatSwgQjsuu5HzTeZZqMATzxSSQq+GRv/gCBr12Lh0uv/pB7Lnintxy7s7b9wKX+SsCCELDBKr37KzDvmX0RTO8MGP2GOOVaZCgRXweQNi96w7cd8/34cTpxUzFn7eLc5W8b2OaZkEQweuOm+sULWPnktwLaXcBCP8l+iKM7YlbSChq22TarjFL2aTyoPODFyDw+NSchnEa5juJ98ldGJ54HCGjHHeM0cfjXkgfh1ypHfUzBFR28sKYDzHRW6DAF2D5XG5K9mRJl1SAoN6nXCzyMCnDXbtRvCFg8TSk14zrfgoDcFPAcZrc9Kr7FEsCnWqoFQAJmt6hu8sGvspmW7tV88QfWQ7yyoQ0zZqgIozpKRO7W8YGEOpieX3zdYne6an7FmLNxqwHZtZ1GwIQ0lSHFyA4a9fcxRCtukzSvPDIz6Hbzt8533b/F1CpRtc8C+IjAkw3qpioVbHU7mK53c0GB9ZyQAx3ttVGk85+eh65AKtWNmbGLt/BnfdkAwSRbxXPruSbX/8Z9AsApd1X3Icrrv5kSF4xb+q+yWrF3wAAIABJREFUSS/o3yLINy13fN5o836n9i+Wu8G3KBLKKIZ3krMlIGEUgHDV3o/ie777R/DugXksr7T4CmWvgnDmNFOYpwlSBUF8RxhlUcb8/8p/TceUuoOBAaEpzJpQ7DpV9wgAQRSK0ML9HKNRitBPExFhXVlWBPubobPZ1RTlNb0+YmDArnAdh8C71vydgRKjJr1xrF7O9Bhw4Gh4TE+AlgAEazWJ8Y3+ILEmKYsuDcgxjW26ap0wKQ4QzEyEdMkBCKbOuHrPsnCMBBAsU/jWNsliypMQ8Zx/ldG3FQW26BVyr8qTlY1U1hjNIB9jzBf6Yb1rsR7E5Rrxh1m7Ql3OAmmRTZqy97GEdNs3L3TKqUvHGuVFZ4zyUaKTXICQJfdHAwhpEkC1QDEIebc4UvEbP/5jGJ+YjfWNJn6qVsVkPR8cUMcrpQDrxmqol8o41+pgtZvhhggCNMolzI7V+NjYuWbbb45JUKsYjDRMGpH+qYd/Ae2c2yzpje27Porrrv8MdtYq+PBUBbPVAO+3+3hmoYdFCcp0+qQFYix+RHX1rwokUFfSzL9uMFS00rJYcC2/xVeAtibkWRBuuP4e/O2//Q9x5Og5HD58lu9JTxNLIoPyOCBNmWqRmyrEaDekhsPC33LSgG9vjI5yhXPKEtK8ZIJmfRrAvuf8liX43TiJTFCU8iN9rQGbzG6YGMpNriUMrAACm18lcU4B9sgDCKJUo/Xpi0WINxQ/1RD9RrTeccl6NBpVHHj3hAnzcPrI92vYI9BekanXqQdc5gEYeT0GEGwfkoo455InFW8hJwyylFFES//EpDoNfDFbFFNQLrEcl8ebDVKSd1neovKO8SnWmdBnLhdpWZcC30io5kvH+niVct7C5xTENneBwwWSDjoclyQ8cuYp7UxBpNTdAEt7fw4PxZRqd/sm54F+7Ed3oylXgIfaKgcxjQwQyEJXDkqg7GG+56XHfgmt1bO5y/rKW74fGzZdpRiDLAcm5oCsBmQ9yHrIvLZurM63hi3mgQPLiLPjdUb955ud6EREbk8LcEnM1WDo8uxjv4rVlVO5tW/ccgO+9+Pfj+/dOoaZqhVcAXBgqYvfOtZEJ2MCQ2GspiKP6XM7VKDAKOZfZsSU0w3eRVnA5x+9Fw1ccrXlAYQ9u+/AZz7zQzj4/mnVr2wrQhoHaGXoU4wMXCiQlIJG0+hqBWd4QY1tjNY7mQ1ZIGsAoSW0DYxLUygkd+u1Ctqd6Da3vw6AkDbUvEx+PDS7QzZ/F79l3gfSokubSO1o21taPELUczfDIoMWAgc75rBn72acOHwOB/afAM1QQinzF5RC2NRnP3rJkgouM6wcISDidO+mWg3K9N+icAsYTQpbEfLqGsXVQN2vV0oQK6z7Lo2FeJZiPORh14qzJtJ2+5zkx9LnQi0C7gSyu0BZCDTdYwBB3dKqFX+yvrhkk3mOK/k4QKAj0LThjR9FjPOEX7rZMp6AYd2vLIBgVucQnCiJ/qyVy7y7X2h3uFM+wfnyE7+ee1ETdWD31Z/B1l13hH2ZseBgqdPDUotu4U5/iEHnxhqoVUpYaOZYDijXQLmEDeMNFtRnVtvoDc2RvzxGj/cgHyhE8QhDvPDkb2Lp/JGMUZifZiY34qs/9AVMVMvm5jiGuAH66OO3DjXxTrMXira8/o4SpCgMlbdbSRf2+cF7LLgsA/LVrrnU8C+Q/NdMShyaoTyAQEGKN9z0HZnZFnV7rulV/ybBXHohay5h0GJ3Me5FWAIoWIHYlzRPkuVAAIJRMmqXpRiBEl+lzeHkRA133rEHTz55ACurBnAXBQh5ZbmylF1h1nyl5ZhwdzpStzngHH98QjYLIBj6JJ1zJhDVv66TAKGE7dtnccU1W3Hi6Hm88/ZxkIWHFVhKHQJaiwKE5OkJPyV9AMEV6u6oCoGzmJvHORnjdCVPFqWBBMs2sdqobL1CWRF9c2GCVytDMyO+ZF9ZkplmnS0HfwWPgAC5F0JbE2IAYZAtK9MVuM8WF3E/JU/r0k2Ncr+Cx4WiNy5uO/zZAQi8SpSVLw8gsAXks9/za0Pa3VdKJZxebcXOWboT9vozv4PFs+/lTsfclutx1U3fw+UEHJDlYFFZDtLmdeNkgy0H5CZIizmQDhA42DjRYFPtaQIH1myvdyq6s3S5CAHUZTpSGXZgNA4jJf/aC7+PMyffyKVDo1LDUz/6K3yvg9mZm+tuB8EAf3S4jSeWO6mxElrJeBuSO1Bkl6E45JUX/wvmT75lMCCdq67UUKlMoFadQK02jmp1ApVaHZVSFSXumxWmQ2P2HvT7fDHXcEAXgtDfXXQ6y2i3VzlItd9vYtg3Lp89V9yPy6/42EiWhFzCxQqYgRFI+NNCmRS/Q72dha/j5vuE0M3ppAYIpn/RgvQBhLAMBR2p5Ei+qGgBBSYnvf+Znmrg45+4Ao8/+jaWljtcyKdIXaEtZbz1ephOy/W8lWKUZVx9uFXqtWlM9fGsi+L35wyGduih0lSkMN8JgHIBAr1prllK96lH72/bMYe9127ByaML2P/WcfSta4pFeIa2NPcZFjOLufTOA+9Ur8/N4GvOBbraHSjtRBHthnJpvKK5LQsoZJ1RiL1nN2vakuByNNPRum3y5J7wAs3NhVoN6LhitoSwPbW6nMCC614gNktbF9ngIF3A0Px1yLVgTyFIPYnDQSlx64mji1oiWoDgAoi4yDVSif/3B/7uf+CyvPu2Zs8Yk9hFQoUOvP4nOHX42Vz5Pja5GTd9/B+BTiuMVytY6nSx3EoGJOrJ5tMK5FYol3C+ADggCwOVJ8aaV+BAOueChIlqFVONKtq9Ps42yYrhTl+e+DM1U6l33/wzHDuUfydFrVzBN/+HX8ZYrcbAhHdMbEEY4NcPruJQxvFOLVCyghe512Lmt0NYWTmDlZXzaK6cxflzhzB/6i30OvmnT3InlkRuuYHNW67G7LqdmJrahMmpjWg0zGVU4VNo1RVpLV7mKyMDBEscp6k04aw5IM8iQgLSG2xmF3XIh6pSPvIICqJNz33APCa7PQcg0NfkVqDfpybruP3OPXiKLAgENIdDdDL4yeVub5KkEQGCXr9acaWdEpE9kygQUWSuJYHqpUA1uaTH7Xuk3Ayjmfo00wlAsNYZj6YT+bB9xxyuvMaCg7ePmw2SzKHZ1qYyKo0zNI9niI8scODbRwotydzuU9IStBijudzTkrGszJijjhYBCRF9kxXnHWR0wWUaSJCbXdOufXJJK+AgzFZYTHQnBpBQ9qOIJO5EHBxoDkwDOma+s6FDtzsA5T3gRxXNCikIFb6NO/GRRHjNd8FcJLsjcMBzTwDh7GobHdl9e3pBTEWK/uyxl/HS8/8ll4y1xjTu//S/4HeWOxRzQH7SJFFkEAQOKC9CrVIuBA4orScFJBLxtOXA7ZhB1kMIOKBMVBTw6CdQcS479v5zOPDGH+fSgY5EPvzDP49145MhQKD0US+d6+D351czc4THot9TWnIpmqbUiPRLiydx/OgrOHTgUQyF+XJHEBXYsu0GXHb5JzA9szU/Uvz/pwBBBK5wQh5H+EACB+ApurpCkhQQ3caWdd21FuLaPzs7M4Y779rDkaSUG6QxXkVrtYtBf4hOp48nHtvP/6Y9LgAqNE7lavApal9baQDBB5rkOw0SWLgS4azMSGs3dm10TOhq8ey3IpB1dNu2GVx2zVacOb6I/W8f5xvyRGaw8iRAl3Pcgi/t8ml59Z33mGmeHd9iE+6PIkDWtqaoq2EUIJwFEMx6yV4lCZDgBC5KHVRLaJHx7IxDMBoPUUjldW0bkD669oI1WSDC7bxp2gXJCR2kxhKxRLqA5LsWVLbEogCBHWK22rQZCQECA4+UPnAWyugJPvs3f33Y0R3ihaFepuxY1QrmxmpYXFnE17/yhdzzJHSL4Xd+7uex3B2Ach1kIR8CB3RaoVYqY6FAQCLFSsyN17hOyotARxqznsn/h7j3ALYru64D98vv54//kYEGGmigc26im0HN2KTEEZWskT1SU7IseRRm5FJ5VKqyVS6X7RmPVa6aKVsjSiPL1si2NLJC2WUFUhJJUWJqimx2zo0OaOT4gR9f/G9q7X32ufuee+6976Ob41fVDeC9e0/cZ+91dmw2OLSSwcEGVPpF0qtMJEhPq8vn6ckv/+tS8YrWPv13/zntm1+Ui8hoRE9d69MfXNyg9ZwQPNto0S3WAdjUGMp8LxgorFygJ77+m2M5mwpzqNItd3yCDh1+bwkrSIbCFfDyIHTpquU/cH0aBD4N6XUqYc5KBaEfQlQYRjQJXsEd8dbH4R9dJ0DAWZmZbTNXmplq0f0PHKBvPn6C1tZ77Om8stwpDATPEwyl2hLzYuaEeG1HmmdkwIcDGnnRMKHTIt5XqJP4/6R3QEGF1SCERZyc3i6lCMDz+/bO05Fbd9PFCyv08otiVhB6l5FjPBD8rMmIsAX5TcbDpYnDZwxAYLDhhm6xRJ4my2tanHZEcyLwmY/4V/m1DvwMdLVC/LJVW7+sS/HBLQMK1qclGwIp61OPwOaQW48r1K35AKYB0Tq8AzcXI27snsa0B3bfk6RO8mQMU8L3T82P9Ya4PnNhJtd4So4G/JWdKosAggvb9a+NCxC+/Qf+deGqTTRqrMqHwwT8Ah5HPYa18jTDdz7wKM3tvL1QHLPmwIEDjVYIF9qz9wpqj0t0AzQAEPZ9FbI5k51u1jl6AuDgaqfPNzf9xH1mxoSnRPS1zyMnxLVScfePPvxD9Dfvfz+TxDPX+vT7FzdoYwxwYBu2hFbUoVhdyz8bG9foi5/7xRxNSvr9A4e/jW674xPeZlnGKDK9vwNnUtu8foCQBglFJgYdrq65ZdZ5K5trbuD9SBYAihukVmahUrAu4fjwbMifxQfhCH3xr16llZUkaVcRrWwFIJgLfEY4pMZihZI6rbqiY6GgK6ZMl/XNmvSdEyjaCR1BRYgbdS0DELPWLm2vt7ZrRAk0B3vm6Mhtu2np0iq98PwZGsIZzL1r117yq+Q7iiqg4PVQc1COILX0pGPX9/PpSn5hLYIrzxIjG4U0vuuCXBapMbuOeX3HcKUoO/ulIMH1h3HClFyvJW9wNIMr1MAXHZeBFEI9TGms65WX1XBs34K8hY9J+6TT6FtW4Md4iLyUf+gROSjggKjZrNO+W3dRd7VHZ16/6C/kRRftMMtiBq86ZPmOAoTJRo0FMm7pl5F4hoheeep36crZZ0ql0MT0Hrrv4Z/JfQ4oFumTxeegRxv9QeENtVGv0eJEk0PEAVTKNAcIqQT46DpggxScceEpzlBTrQY1ajVaWu+O5bjyyjP/mc6ferx0HW5b2E+/82P/iJ5Z7tEfXNigzhbBQdhBEQAYFyCgzRee+wy99fpfFY6/UqnRh7/jH1O93vLPcdni0lknx0GZ55ivFD729gBCckDLfBBCdJ8ndMWAJYdeVNPZlbE5NGBe0IPMbeag4dj4rKkB/cEH4b3vPUxf+cprtLqWOCnqAsbGzAze9WnpKDo/cz0KBUNmllaLoJEdZieTG24ZFQSOia5dpuscE2UiFMWtKv4RJ1w8C3Bwyx176dKFVXrphdNJ6Vw73pSdvgQgODU7l2oviJ6ya2zpaxxnRU9fppHgAulpL1TpW7mWAojBpo4DEsoAQrj2hY6MLteNJrfD2Gz2SE1ApNEDfHqDsEPOFuAmBRChaxJqCsK1itGIJ3dWNbgnjNYrj3KLsESRr4HdF/AEgAP0C83BDXfsoVq7TmeeO0drKxsCLUouWuMABO+wmtMg0yWHjiadVT72AwhzzDI2gAPWHAw36aIDB2j38rkX6PiTv1120gnC5dgjv0D1ejvzLAa6fbLF3v0cyqjpkwP7rbJ0H62AUMa1Lmegs4ww7ACag7kJaA422QzB6e6Dgh72fYR3AlCsdwe03JOQsYvnXqBWe47m5/d5wrPGjAtnn6WXnyz3x0Bbv/zJX6Q/W61Q91sIDko3JHhgOOzTZ//kHxei2p177qL7jz3q37QqrHEz4Xlzgz0RWx2se/7tAwRpKI/R5QGfIoAgNJrEL2du/+5mhgM8DJyAJfJBHvB20pwbKzNQwyQwB/jssLdzws9SK6vj1nmpyUQFlI+z14gYXpy0/jO2JvY7/rsBBcpfM455OsZCdGkYE9v23b+tOsPO0DgyVlH71n8SJ0X5SvQ4u3fP0h1376dL51fopedPpW296ozt1h9dApSxj0EVPh+uJc1m6Yqpybei3sV/2GfOwhicrDyAIMtXuCieO+MxeTSO0kWTlayCFYzBtkbDN8cBCUXnp+xYx+QMsi3CeZFDmWOOV8VLU9al/D5Ohb9x0thGeiuApIW8VY8+84WB0Ey9XqUD9+yjWqtBp549Q+vLAg742QKAwPk6VHtnNEF26awmjJuKNJgFGRXKAoQK0WRdbt9iVugQclwnA92kb37uf6fhIBl83i7d9u6fpLmFA+6IynBBA4tOcwAzwUZQW4EJ0DAGIExoDjAEcUh0JzGnU/Y5mIDPgYCDWLpdDQvCiGYcOFjrDjjaAv2AkX/9C7/I9RZuOPoIHboJJoL0BwL2K5/9X2lzs7jQFN56z8P/E01vk3XQz9uh+3HMCOF4QxSNcX/u0/+kcPy33PFddOim92XmrnbQPMEZvhDeyIXi86gm//t3CiD4PYhsQp5AjH+f/TZk9izYHU3loXxZx2xbGvXAy+VuT0V7rxqCDBCI0J0XBq5bzmXBG5td//CrPICg5ztvB/U9lvfuoWx3AUjgyecQi4ZUemdG3PZ1Zkp1iEOr0M6dc3T7Pfvo8nn4HJyhgXNIbCASoVrhjH/4D86fApxE2PoxO+SUGW9EuAsDFuDIt0PYlt2fmax4ug4FICHWp1aET99gkycVU9k56LFL5pQFJ/8tQEKtSjRRq/H683zeDnO0xBeiNCXQ2Pc5RNto1fmXvosQsrysiIV5B1qjZcwMbUQsYyG8G8063XDHbqpPNOn0s2dobQX+RInjoe8rYOQ8lZzzkQIIiv0LkIYC20RGVaiS8kFw4AC5C6A5WOp0OWlS+HnzhU/T+RNfKeXwrclFuvf9f58PKA5dvYLQxKaYFdghsdjjGuAADoz4INKCNQe5vKJCUw34HDSoi7HngINEOFRoDnUhONJikKoL8fTXfp2Wr7zBj7YmF+jBD/6c1Fg3fR9q12n19S/Q7z/1mdJ12HPgQbrz3r8Rfe56zoI94KWd5zyAPAef/8w/peFQ1NOxzz0P/CDt2XdP9DfrLFUGFKIAQVvdAlB4pwEC86JgA8YFCBmBbg5uGJcOgd0bZE1otq+8qAbcYi0/KwUITk1o+Yjuj92ncE8UXMSEuOXZKkBSRGEWMT+SJlHVO/nrm0iveVrk+dTfMcbm/R+sB7e8r0ABf+7cNUe33b2P1q+s0ysvnCHa3OTEPQIGglwGZmHSayTPxdTGMp/0LykQ5cYJBqyAoQ/AwBEtaUCUdxYzIM1lfwyFqdLlOHSt+xoN192CnN6q6UH6Tc9oErUbuFS00WI5YFzG4wKZKY/ngYDow1mxouPYcXCR5fTFE5fLhuFmVM7QVKgPBiNCQqRmq0F7bt5JzekWnXn+rIADQZj+j1jnHgIXAITsaPIrWgkeMfSIrbAAAdEK2xgcSDgg39Yjn/WV8/Tsl3+pdMHwwJ3v+xmamt3D6HBxokUQ+nmaA9sg8ngDHGDQACq9IZxVctEBC3oI/N5wSFc3+pwuOhdZVQJwAM2Ba/r0m39Nr7/wh7wzODi3PfAjtLDzFr4FKvMDOHhkvklra5foJ373fytdh0q1Tu//2D+kZnMq8+z1AAR/sEt7zn9gHIBw37FHadeeu3IBggrYFDO8njGVnylu9b8VQEDfacEXsDddgLRs8z7ZiFoAI7CfUNCK8MlSg/oeqJY0KqBdw8qoo5UGOYws/bECkG+aZvzaln5lpxgFAe7Kmhdql+pLCVjHnVkZ/SJR7afc9y0fcKHMKhRUTNerqOdSpd37ttHRO/fQxtUNevP5M+xzYNfar7idoJMOYjpSq4tIlmTuaUmTsu8GwjURwGlCxzTAp3AZ622OopexZCXSe4flXtwxS1eXVlNa0jyAAL6fJ8hje8aJqoKkV0VHe6sgwY/TNTpRq0ooOHI/hOcgIDheeTcfNe2oecLvyhZNBjEWhDntOLSdd/MCnAVLPnk+B5b2U+BgNGKHxD1HBRycfekcrV6DZt6NZgyAgCEVpRCIstY8OWr8D/xFQQFC2/kcQDWP23dePQZmlhWi40/+Hl08+3TZmtHcjtvozmOfpG2TbQYHEq2QrznAoWwhlFHBwQZyNBRLkBAcFCWCwKbDRwGmheXugNa6fR/3uXL1ND3z2K/4Bd9z8L10y53fxTYyZHXEoh1s1eijcy2aa8jt45f+8v+lP3/la6XrcMvd30cHbnwo97nrBQrXY27AIMYFCLsNQIjtgh5UHUcoUEoXRh8YAySUAYT9B95N99z7vYURApnxBObc2D7Ym7eAoiDaJQYQnJDAsygaBSt46I+RuRVGQIJ1TtSCNFnAksxKVcrctllT8Mt6AALQnvo1IO9ATe2Y6gzmBsgMzvgB5NKqi14YZ89DW3nyTpoQkrBDo3mOAAS0BwAEmzZKDSOR2o5d83Tgjt20trROrz93hjYZHKgISez1HhgFE1PGbqFAAhjSmnCM0xbLidKRS+1g1f8JPaG654i1n/2haBrsx7YHIdpqN+nw0V108o2LtNHppTLgCv6Kh2cW8ZkQKCgYHYc3bRUg6BgVK06wH4J8JPeDgwmGwXFkQx6fCN1OzOIFuJ1/KWI37akm1VuSkGx2lySBWz6/zC/1NwbU2YhrXWMAwfJD/F0cEmUiMCswOJhp0rmXLtDK1fU0OHADLRqrpZMMCHehwin+VQAOWC6AT5nLBGsQNJQR+RCgykdxyTyiwPezrSYNNy7S5//0X47DC+jd7/8p2rvnFl9bocgpB+YH+Bzgg+yOPpQxpyc4U8JfQoBNj4FN6KFtX4UJYqZZp2sOHDiQRhvrV+iJv/o/PDhoT+2kB9//92hhapLDca6sdWlPvUrfMd+i6bqYTHCg1vsb9EP//hc4JXHRZ3J6F73ngz9LVRgPI59xDmFe+9cDEq4HINj+LdGC5tThLWSmYxFI+FDOifj0H/2DwuZQi+Hu+yTVclEYoTChhNnkCyvHsEJ1q71ZhdeDYIScunpzk53cygCCMkt7gwqjF8rWU+fiTRbGeYkjUIybQRj14kGeI0Z/i/DqhGRj8ug1ehuNqatzEzDFAQLvaYoAhUfBft2sESF5GvsQOCPAwvZZOnj3Hlpd2qATz6WjFVJaAUew3LYBephyEruedJwCGFYdayon6lU9AwCdHceDCTMfTYiE7QKdgJ91hkh1nl1zqKSRHnph1zRdvbRGF89do7U1qKXDcca1Brm8PUdjcD38JWvikF7DPDSqL5hU84KZg2SS1FCCEqluGU9wSEKAUHYX2X5ggVrzE9xKoy0+CMOO+JqtXlylpbPx8HarcZK5pj/YS8nUKdEK+27ZRS3WHJynlaW1dOpofTnfIiAWiBLzgipSxCG6YOau8BUGJwBBFrTyvT/0yyOJVhjRhfUNEzYSZ0XzrSaHBOLm/Y3HfouunCvXIkzP7qYHP/CztOaSGuWl1IQg3jHRZiK6zKGMnP4hCeExQ8JUUQRpfqLFeQ7YIdEvqvuLIXguN91qsPZgtTuga6YuxHDQ4/wO/e4y94DkQA88/LO0f9d+aqIuRKdHCzSiT8y3adKDg8TD+Tcf+0P6/ac/W8a76eid30sHD7/bMzqVLdd967aHqbT39APjAgSYGGIMJSQ1BQnhs1Z+xoYYPdfXCRD27j9G9933/Z7RF+caGB8gZIST3qjDCQXjxj/h8Iq1we0d0TRhOe3oTdNoEmI5EIq2OgMQ1JYZ0Ar6tRoEO0ebjIaFqUVTrp2iC0SZV74OxZtEUhPKngr7HPoFs2vURjRRr7FWkkswG8C3uDBNB+/fT6uX1+nNZ09LEiQzYAsQlL+oY2co2LL0K8Gt1vCQzEe0CMyxYoEGxhwSggSvKXHjFM1chaNU1gYJULCg7cjNe+iN18+L0MlowpIJZ273WzU3qDZsTL8E3/OYtx6AWQAE3YOQviuB2SHGY/weBDJii2xRHjcAeefh7Uxc598QE4PUR8hOLLTda79KKZJBVaR9rValG27bQ43ZFp194ZxoDnjD3VuOjxTJcx6LSY5k56nN2CtrLEzYv+NoVueQ0iD82N/9tyOg1cvrGzQM5h0mnkI6ZEQJwNsfpoJ+b4Oe+Py/oNGo+PaMgew6+F668fbv9GMC0eotB+shVRlbvFCXHDjIIHCzCgAHcwAH0HpsdOB3lPno5qAd1RzArMBFo9zq43b39GO/SuvLZ/z7dx37O3Tk4J08JoCD7RWij8+1aKKmoMCVKQXhoiwrEf3t3/6ndGG5OIFUq72N3vuRn5fiTcFo3w5I8MyljKJMn+MAhHuPPUpqYig664Jk3dnifR3vkwmBjL3mD8uIPvPH/7Cw4d1776f7H/ibcsaDUsv2RTQpSXDSzYkwjHcRzikqBP0aiKAAbekN0F0ePUDQ23vRunLoV0HBpthIcYPHQc9QWDBZzCcKTkIe4G5CIVAoGnfopBkyS/23VvaVtozQtbdxFbYIA6tBkCAsrpbREiqGmV+coZvu20trSx1649nTNEA57Mi+WmCasocHQAKmF0mfrTkvkjcVaOh8VOhzREjO4nIrRkAzsIb3vguvBIDEqxya7S84I+oMNmmtj8JpztkTZcbrVRryg/IJlZNWkG0FJCT7k55EOF+7r3zmAoIsxAepda7QNJxGwkNq/83lr8dEHOOxn9Kn0J0HCAU+CLIDaWaiI5XwZlELMd9x4KA916LTz52lFetz4JoZh41rZcbYJJRCVSTyvgWNpoBvTlgu7+kP//ivj5AECWWjkcr8AAAgAElEQVSS8z5gUgAHU80Ge/svI32ye/jimWfp9af+U/liV+t05J6/RTv23JF5FrcAaDGwyGVmBUw28TnYpCscaZHfPQ7cLEIZXbQCwI1+hsMBPf3Yr9HatdP+u32HHqYHH/geqtdqtNzp0/bqiD4006RpqC+RzczFRIOcOfNXpUKvrPXpP586S1/94r+izWHSfmxUu284Rrfd/X1RkGAPnGfIBWqksP3wpld0nLYKEGIMIHWeg6tWDCQUaRMsw86sG87X5ib96Z/8QiGdbd95Bz340A/7Z3j+xs5eSqRGkIS3mdh8mAHbRTY8wmoPeBjuORXMVr2ft09lACFJEpPMLKtBMLMObPfqc2DXJbzVW7aXSdEbtJehxzFunHHzTgKXccTgUwBgAKdDD/z8Hd5tQYVo2+IMHbpnH61f3WBw0OsnIcgZgMeDVWgSaCl1Q9zgtL6GjEp+VC1CAm5k9hYkxDQkAiwDZOoWTkFnWsuU9ABhg7DwTl9C4xJCTygoDyTkydaQfGNC3oJhvzSWrAr2eRyRjvanwVwtk4kvEd8+hA7HaXmcEx97Ro0FRPM7Z9l/6MoF0S7LEBO6KepBKuOKSQHTqTVqtPfoTppcmKDTzznNQUgLalLIm7/rME97oK/pn57uDb3YppkaTUlpqz3guX7fJ391hPSvKNaU5w0512wSkgkxOGCP//ToX378P9LVCy+V7katMUF3veenaHJ6h39WwAHyHFQ45wKiFYo+Cg4kDDM/0kIOK9GcAQdrLs8BfhsMevTMV3+N1lbO+u7mFm6kD334ZzijIupC7KgQPTzTpFlGr4L0QcdSmVE6eGVjSH++1OEkSKc4AuK/Fo6/Wq3TPe/+SZrfto9BQp4HsSfGyMkudsKMH5wMgtwc0udKwhytBiE5HKXbzKYejCIvmVLC/qUtCxx09CEVYL/+/NNI7JT/mZu/kd738E9lHlDbe/nIE81D+GyRViSlTXADR1pvm4MjVJPzbcKxG2E6WboXNuiKAclDfsH4YEMLAoxiS86q5sQwstRcjKpH00DHhWd8tULNSVi3ZSvrpmc0pC2lnVa9QhM1yU8gYM+JZU1mZGhnfvsMHb57D61f69Jrz56mPkq62zWLpCG3jL7wtu3X0lJuQrWyT+n9UzOD9c/xa+MTY4k2IFWe1zl6WhMFWrZeYYguW+8NWHua+iig8QmVkl9zoxvGELUJXkp4i+UyIcjQlRlXhIMHsgbBMoIAbNt58no75jKuOStGzbmpmgPfEuZR41zrXSfid5RoDfA1fA72HNlJE9vadPbFC7S8hOq6cVnHXRWIQf45ZzzhXbkMIECdZUEFAxllMzhn3/Por/DvwxG8Z5OsbHq25pvic4CiS1DNWxSt3GpzOKBnvvRL1F0vjxWtNdp057t/mqZmdrAK30crdMQh0Zpiwk2ddnkOcDDgkMhZy3K4PoODpmRI5DwHRnOwfPU0Pf/4f6BBd8W/PTWziz7ysZ+jdqPBqZ9hVnjfdJNmUTmvKlnVKlxFz9mRq1V6dX0g4IBDKqWp48//MZ09UVwKGkDp3R/8eWq22qypCPFwFKgFQKEohDO2JHxYDVGNo0G4/6EfoZ27bk/zoJz1tl/bPckTrJYXhE3G7li93jp97k//WWHvzYlFeuSRn888U2RuyPSdE9VQxOxCgMBqxSBnh4whPbMwoCsUMgoQ1NSnJMBCxwIEl7uet9gdXNVUZO2liZBLkrmkzUJljD1zo7T2pWBBy+56oQYB56tdr/B/yFWgnzyAgCWdW5yhwwhlXO7S8WdPcRIk5V/2oumdMJ1QjAEEf8EPFkG1c+EOaj/xELcE0aXWLFeLIL4L6jAZnh1UgsUHwA73KNUmeE/2gEdYbUIRQPBrZeRSjAbyVPxW21ZGO7EDjHwUUwoQxuAvns7dJVCjHsZ81T8WBwjF5fyK+mCzIvzmgqg7aA72HNlBE/MTdO7lC7R8Za2kaCBRnkI/Bg4sL90qQLByRHEJAwSXE6HyXY9+aqT2SgsSsOmzqjlwPgc8kBxB1Vu/Qi889mvU7a6W7hPseve85yfppv238EIhrLIolBFEB4ekbW34HEhVxrIwTDYrOJPIigtlrNImXTjzHL0SmETak9voQ4/8fZqZmOEETvM0ooenWwwOcMjAtNhZjLOtwY5UoTObFfrc5Q5d6qRNCljw57/5H2mpRKPSnlykYw//PWo0Wuy0kofIRa6nYVAMNY/zjGe2bB8vT5T0yMd/mhrNG7P9GzoYB1nnMQ1riy0jGhSY+sJn/0XhY6gi+vHv/OdZgGA4YMxxMVTShHuhQmEckABGPGDHRNkzv3U5Xvsxb5QYLSiY8Lc5RxJei2BBgnOGE5CQP2qtWMjj5JtrFv7HFjxGf6xJyNFjF4EEbxKpIJse0USjKknJ3EeBARaSb9tuUVVYzS1O0+G793Jhm+NPn2LNgf0oUGLm54SvZaiJb4ELDUx1rIMQPwQlo/TfZIUtQEiZGcxg7PL4W3Zme+QL1lRGFl9Bgo4FyeNWegPvAGf3gEFpCHRywh/DaccAPM8zz1ZhxhoCsbKzvRWAUHCxZv6c5/8SjuH6YUC6JaYraAxwSbQRJ85UUK3XaC/AwbYJOj8uOCjQIORpD/Ks7KFzYmz9LA+3Jgb2iwFA0CmDWQEkIMPXbBMe/w1a7fdZ3S5MJCgw444MPLThQ3Bt6SR9+Qu/PFb6Ybx6xz3fS4v7j1G/xJ4Eh0SAgy6iFRDzGwpMM2tvVvD+Ei59cr9Dx5/7Q7p89qnUDjeak/Thj/4czU0vMDiYYXDQpJkqGJU7qBxjLei+Vq/Q+c0KfXl1QOfXOhxpkSG+0Yie/cZv0rVLrxaejam5fXT/e36CGvUmgwT7CfmG/bduaB5YY+ZRwqzhf1GWSfG7/8bPUn+4N256cg5U4wAEZWZljKLod5Sp/tIX/s/SJj728X9G9bqEyYYfrGHUNyLiWOkFsWuk7Gak6w3VIifjUbW4goSoZkIcXEOWk7f37JNgHk4q3rnwRQ8aVGiVOYyOWDOmn5jNPLqOEdoqAggJf8m2Bk0xTAnTDAzie+bH5zUksm6z26bo8L03UHetS689fYp63YST5IGSmMBE+3qbTO78+Vk2BTAmsDGhlWAxnZBQhYH8iQJDwT6aSD61I6l5LrYmFiRg7BBOa70BdaXoTMpoEIKEvPwIdo3z9jzFd0qqXGobdjR5piyAPdYg2JfMIBKdV6h5T4t5u6o+RDIymXcCHEAEeWAQU/ezxrlK+4/upInFSTr30nm6djnfrGCHmWdiyAMHTAPBPJX+Jeoid2n5h8zlUvkIqFxNDJZJ4LY+Wa+xWh5CMzX4ACRADbgwIUmQrna6dOHyKXr2y/9XjMai37WndtBtD/04tSdmM79jYpMuuyPMCpc3OuLdGy6G+y4EB3BIBKg7+9Y36MQLf5QBLtV6m7794/+AZqbmWYsxMxrRwzMtmqhUqGHBgQMIILpzlQo9tjqgc3DstKqkYFxY9Oce/w909eLLhWsxNbOH7n/fT1Oj3siAhMw8rRk6QpQWFKhXdG7n8EH49D8pTLX8/o/8BE1NH85Phb9FTQLGkqtNcAPFMsYYycWLx+nrj/3bUrr6wId/nqamFnOfyzM3xPCUqk5DsBBvXJ5CUiSsPWehM5ON3chkPUKQkJ+DBDetVLZDXxI3Ae4KGhLPfM0LIoMJx8GgyZnq/DzjtYD8tJXOLI3Z+il5ix/ua7NONNOoJj4GkRdjYAkCdnZukm5+1wHaWOmy5mDgwpax5qEyIy9DZAIiJELBRjPwOqXQWBL2YnMheL5ptAjyriTT8u0wf0i0LAm8kBaSvhKIojSUZ6ZToKA7u9Yb0sZwU26yY5gb0v0mix+ueR7tyvtFOqr0hhYCBHNBytMSbFmwu1BRng/76+REl5RyFVcWgbUELpdDgXlb1qVK+2/dTZOLE3TuhfN09fJqOpQxp0/P1t3ZZpIxvFGFeVh/KmpaCM517rq655jfhZfvECDAZj/RrNNGb+AyKqa7toetTijZ3PbhgBsDUe+tr16iZ770rzjn+TgfOO7NLN5ER+76fmpOTMuBceAA0RPskIjQxwJHEUwODonIc7DCoYxdeuvVL9L5k39NvU42scXkzG760If/Z5qamKZrG32aphE9NN2gKWSUIwUIwrxr1RHVqlU6RxX6+hrAQbqiZGaOZifOnvwmHX/uv+QblRDi2Zqhu479KM3P701FN+SqjXKJK+m4SBU4GHTpG1/9DVpeOlHoDXPfgz9Mu3Zno05s98xkc8xOeXtfdhuPvffUE79HZ049UUpO997/KO3dF08PHb6s8fP4Po8JeyRuwE18/DAtJCmV2ZY8hjpWaT1tQogfZdYguM7DEORMELUTdzrWovkxQDCVEbl2SoGXVB4QTa2LSkCz6LqWkAVTzQq1nJZF2yuii0SYE83MT9KRYwepu9Kj154+Sf2O+kZpdoK0g6wChtCXwwp3u+Jlt2zdMytSExAZ27sEnGloZ9hGllQSf4Q8Z99Qk4A9Q5baNRQAepsgITvHBFxax0r9O1e9jJzOXJu4eRbvohZDFpjkibRSNpA8YJpI7bEFwabolz6juhi1xRc5DWb4Sq3GGRKnt0/S2RfO07Urq24/isfNW+YGgHWzmhOsbZhdM2wts9Y5kQuZ9wxA4Ogq815KgwBw0G7WqdMbsJcs0i4OEMsdeMvyrQdhRRMtTovMhZccONDOe91VevWJ36EVV/RorC2tVGhm2420bddtdOCG+2jXwg6pC+F8DvLIBQQ216zTqL9Kp04+R6dOP0vLS2/RcJDOLiZjqNCeG99Dxx74Xmo1GhzKOEObdP9kg6Zdis8GiTMi0rai7VqN6BJV6GtrMCuUgINwoiOia1dO0EtP/x71NpZyl6FaaxJCIG+98xO5eRIsweTexHNAFA4yzApvHv8inXj9y9TvQd1V/Ln32Cdp9547yx4TG2xEGI5jfsidh+sVv6+tXaEv/gWyXJbn25iYXKQPfOh/oWo1rDyQnYYy3jzhmQjv+BLYseNwZ85JxDExZLyiMUlusCII45TOt31rn48+lr6b6r8gPPIKQnkQYRlDiRaB5+E88DNOi5FJ6i0O4YoTdQHhUlAp+YS3UXtz0r/Pwaxw/wHqdfr02hNv8Z8Wi9jZ61J5x+cghbT2LG2rEBdNgtVERN0r3AMJDSSt6G5Kq3L/zmgkItq09BFKWgadxkwNdu0AFhREwXlxpTfMqlIiuRJkjG7sOYcx9rVqFUCPEFy6d/ZZu3+607GzpgCh0HW/lAvFHygMPsj58e3AklqtRrsOb6fpndN07sXztHx5tdQhUUeeJPqLmwyKMiFacMB0YLQHRZoD9G2zLXrNhPrcfPejv8Lh1FDlQ3PQ6Qs4sGol5EhAwhdl+FB1zrab1HbhgOvDQXRv0caplz9HZ9/4Uml+gOz2Vmhqege1phYJaY/rzTZVa3DoQwEn3NQGXHK611mj3sYl2li5RJ2NK4Vk1GhO0U13fBfdeuQYhzJe3ejSLI3oXoADRCg4lRQDBBR7qVQ4OculimgOtgwOMBq3O4P+Br35yufp7FuPFaa8bE0s0I1HPkD7D9wftaVbkFB2ZnS/1lYv0bnTz9Cpt75O3Y2rha9Bm7O44yjt2H077dl7JzUaknK07BNTNY4DEEJZYvvBXDeHQ3riG79FFy+8WDYE//tNRz9Ct9z60dLn1TbMYZAFT+ffvkUcYZyDQVzfoyaNlCA0/9gaQMiqSOOahOT06rwUdMRAQvJMOqFKbOyhQI8tm19LIyE4l0GjQk0kBYJ2RaowpzVYwS00BAizC9N00937qNcb0PEnT3pwoDSks9Y/UyYep3XnVNOuYSv4txLyKHjCCVXrheqEfgoUOAZgwx6V7kB0Id1lTQ3SlSZQyiNTufEmDpNr/U1a7wsfD3t5O7kStH8rH2Q5xjM12LOkvAxzgwZhqx8LDHPXpUjav8MAoVqr0e5DiwwOLrx8gZYuwWF/PLjB++ceZf8GN6HUGShAO5b78EoG2oNwv+QR6SUECLyfbNpgJ8VfGaE2ATQHMCsAHOhHUb/2B20CGoXanzUH3S6tI42pTiayFq1qlaq9JXrqm39AS5de2yoNvDPPV6q0uPtOOnrX99Cu2Xlq1gEOejQ92qR7J+ucBAn+BawmGxF5DUId4KBKj6+LQ2JedUseJNLpVitc9z3zMV+hINTrL36alpeknHTep9Gcpv0HH6Idu24mhGA2m+MJauQL6HauUWfjGl1dOk3nzzxDK5wIKp9Q0dfc/D7atfce2rf/3tx6EWWbkcckxgEKMQG9vr5Ezz3zX+nSGDk2wrEdPPRtdOToh6jVylbQtM8qQ1Zv99gc9WYW/qZ3RpgWCudY4AQpB1dbSuzgkukxvWfWxFB05vS3NBhI2pL5hHffRIyoP4FGNoR7Y5lNNKLBMBCsa7tepam6RAGhLc+QGCQEcww0Udo3wMHhe/ZzlMLxb0JzIL5R1jwRY4LyTLJzRWYGYYnJeDgrpQIK13hKKBktgl1NBWMZMG+QiY/ICMR3nhaBwZorSFV0Dm0o5Gpvk0MhmY5MwznlYKKaBG+eKTn8qbk6sFAEum1z0PWlnBTLGE3ZWApkst6si5oYT6SbFlz65F03bafpHdN08fgluoLiTlsEB6DNUEeqetCYeUFAYfZjAQI/46J/rOnAR1mZNtiM4ZrTZys/+KP/ZjTRyoID361BuWBaCB1sVsQhcTUwK4S3GdQxkAyJxA6G58+8TCde/EPqrhff9N8mfRhuUKXJmV10y70/SDOzO7h8tJabnhqN6B5oDjiMUexnDBIg6AnV4Cp0pVqlJxgclJsVUDQKUR+oIWELrPjBBDu5cu0svfrMH9DG2sWxoj7qzWnasfNWarYnqF6fZk3KcNijzWGXYM5ZW1+i5WunaLOPcqHFHzCnZmua4CB5403vpx27jvILMSeVsrYyQnOMm0RMmOI7zAf+Eb3OKr3+2pfp3Jknt5SgJDOWap32H3iQDh48xqW263XRQFmhZlMu56lx8wAC+sPBRexz7sdwyTwnLRZiTjhBqMO0l9Qrsaw3XoI3q0WQFuN3MqdCj6m4zSR8WJ8Vrqp3z2569iaM5DDO1wBnTulLX+VZqdwCUKilC0nZLqbhkPjAAQYHr37zLeqaanpe+2FNL5HNKAMJCUQzAMFe8fPQh+uLwbEhg7QWQSab0iI44BIDETIWTe8sHXjfE/hElUjexNwwYlNDh0GCbrirExFtQ1chvYC2b/uL4teIdVH2O++HYH9AHQAI4wKKMp5UZFZggFdodxhXrCejQAG+3TftoJmd03Tx1Yt0GVkXlcDLBquXfac1KIpGCJuKAYSY9iA2BKxB+L4CBJv8rPJjP/kbo43ekFZ7vXwbpQMJM+0mpztFRsKNPmJvk1zz4SAalQptn5pgZndlvZOqyri2cole/sb/Q73O1eIKU2MsbuwRHNbpbYfpzmM/QvV6gwXCwmSLGtUqmxXamyO6b7JObZgVXOYo9jVw1eCalQot1av0pAMH0JzENkcJGlEfqAvB/hLr3UzIiTvv0dmgmM/x5/+ILp5+nE0n37IPQFC1QTcceh8dueUj1Kw3ol2xDarkAJWNkQVqAXMID+jJt56k55763RhbT74bwyYubDWE1Vnhfesd30OHD7/HMbGsM5B2qrfFPIAgCZFGKcGQmYQVsKmbO0AAs36mlzBiQn7JUp36/0TpPpiqOj6Gz+p8wvYz/zYSgNWNeQAhst9IdDTTlNTI4UfniuFaEOPrTrh38PvkdJtuf+gQDboDevmbJ3ypXQ8MTONRXwj3exlAyK5RIixZtmqHKmgjgCEVZmdNC44BaHyKLmNqTJl5hHSbOKj6TK4FB9E7MI5GdK03YAdaORpuXpEcCba5mMEgz1kybxh5lT3t+VdeMVMAEIqAyJZZ1TtsVsAe7r1pF03vhlnBgYMCP6LMidZtzgEIzAcKxpyhkjEXBHsQkzZhX5X/4e/8m5GmIM6rsohBzk002XkOVRyRj8BRG3MxMMk+yh270QJE7JiUqowoH400zrEPHOWuXniFzrz2RdpYPV9A7uP9NLf9Ztp/0wdoan4PNeptXgAJw2xJGOZGjyZpk+5q16ntUieDQaGgJ6IUsNktaEfqFXp6fUgXxtEc1Gs0OykVJdF+madpntZpOOyzJuD8qSfo9ImvjqUJKFsVhNrs2n8f3XDgIZqeWaRGY5IqRr+Y53X8dgGCCrdxQcL6+jJtrC9RowntCHZDzD0YP9+Dmac5lqW2X+9IpkrhxHDH33B2S/yn6v8RDfp96vU3aKI9R1PT23j5lOkpv08JLMu0g8XG82JakOHl3n6CH5J7ktUSpI5TqqeYEM9j1DF/hGQ+yV01Nt7Mdw4dsUrWrXmtRGWqJiZEKAB8s4AoAQi8B04As93TSIPJmQm67cGDNOwN6ZUn36KNtZ7sq1nvVPNGe5VZNwUdbhl0XWIAJnk3EaZZABG5aRotgqxnFpx6Aa0hp7rOwYCTs2PbSMYzDkhQQICL3FJnkNycg0mXmRzsTMeJ8IitVREvwJ7jkoV8OmWfLVzM400FArRA91c2FDaZ7T20g2b2ztD5ly7Q0sUVX1E4z9EYjdoidZqWnlmWKwmvHRfx4XGEO/fli40l07HgwJ7vGBjhREkhCSoTw+0fh3y21aRGPQAHEaYI4SgOjA2e7WXWHBTfiqW2QpNW1pbp3OWz1N24RivXTtL68nn+e7+/TptDRCOMqFptUr3epunpRWq0Z6k5uZNm5ndTszVH7ckFqgW3YtAbIi3gGIXyzhObI7qtXaVJLrjk6is4EAG1HQDQSq1Gz2wAHCAJUvHY4diJsSO7I8BBUXbHKLXZ20jwQLezQt3OVequX6W1lXO0sXaJ1lcvUn/Q4eiM0eaAqrUGVWttajUnaXpmO7UnFmhmbg9NTG6jdnuGWu25Qn+CPLcgTw9jotGik1SkZixT9fmDUtCBvdgpMBHGGJHokXZiAEG3xfIr+3cBBwI+VAKyLIxxm1QSHFvBdMSmLPvJyw0f8k0GTzpDN9i4mUFgVfJ+IlozAtKNvYhH47fc8Ec49HJJ9SpH/6T2LgckMAMLtAg6rqm5Sbr1XQdoszekl588SRurnVQ8uBc4QSIYpbfwgs/aCjOOlC+CedjSk/XuD8z4uRQZ+nZIe2nCUFODqrtS/ggOMDAtF2jhINSL/GYUHGjPMDMg5XxqKDw4GWEeSIifQecMOYZA1x4KAQIy5VaRDyO9rO8A+8nuk2v07QADvAtt864bt9Pcvjk698oFWjq/4gFYGThIrakbiJYrT8niAjCT1S+lHRMVHMTKPBeWKAicGyufMJkUdeC6TzhsbFaoVWm926eO5jgP0a57EZqD6bao9JvtBk1Ot2h1rUvnLi7zDTv8KDiQ2gpdFrA2/7p9HoxECy8ha9hKD05K+RTKYZjtFjVqFdEcjEZ0c7tGU648swUI+DvqQgAcPLcxoIvr3bHAASI5AA6uXQ84iLGY5JKXOshQRSuvgKaDs4QVCE09lOMcgjwhqM0LYi9oyThexYbEN6kSW+Q4QKF0vppYpGRdQuSQc8n1WgHhoUmqXfwTzqqoLikfd6tzf80DCZ5Rmp2LMXgWZK7l7N0x5i2eTqwU9i832bTY07F4fmyEUjKj+EJCixAKX6wPchpMtZyjr3nVF0kOaEDGlcTWW94zPT9JR+8/QKPhJr38+AnqrIvmIAMGjclDf2MtBiIlYPoxnBiZSjlPvlOy+98iGaLtcoQnLWYeSK2Uj6lPvpW5KvxLKgXyktioiphfiFu3MPEZ061zfi07G1gJCAXkh8kUeHL0jT8sSMjscZTbJqvj2YA5FbaNjPnHJBrC+Nu1KsEs/S37BImNYvPL69uCWAYHtSrtOrhIs3tm6cJrl+jKuWUp180NxHml8NEAn7l/2ze8CIjw3KLrKpNSAJZD7UEYtRDl16Zfvv5856Of0qqxqechNGdaTWo6zYGCA3/mgr2EfZ/BAVVobmGKZucm6Nz5ZZqfk4JEL756juPEoZUAsSJEEtEQCg7U+1/zsIcsDQ6ASIIEcIBy08y0c3YUwGZbu8lCH2miJzY36UhLNAfsa8COPokGAc+t1Wv0wvqQzq9LtEIRAU0EmoNSs8L1UH1AZxrmxATKuRneGacey6SLjmdMiNfrNTpwYJGWrqzR0tX8vAplIVDvBEDY0hKbtc0DCMwwldkZgJAGB1sFCGmaxXqHWpy3CxB4RHZ+OQABz/lMEZp90DD3vPUEQIB929dtqEhhJYQw2oiCNC25OHkD4hQghP3MzE7QkfsOMCB45fETtLHRFSEaCCg+nwE4xTO1eo21ZoO+q+ao31Uq1HdO1XgOkUxIiw2eVCSXogCh8GqSZFG0c/MAxkMU+XU8kCB0puckJWzHCoEUjRNodwkF9zKecA7kcnKvfCe9LH9IAwSMi00f/Kf8phqd1Bqj0CHWgQseQh4Qwe8L2Wu/JZ+I1uB6AQLA566D22l2zwxdfuMKXTp71d+fxtUc2DOq1+YM+I1oD8oufMw7zFw5+Zm7yLCWKuKYmFrvAITzGv13ToPgby0ulEbMCjVa7/TZCzb82A1HeB9u02iwO9yku+/cT3/9xJs+teSdt+6lk6eu0PJKR7QLtSo/D60CBDicAEEkeF8OgSyFJJAhjg6YbdVpFRkSe73CAjQgSAnDFIfE5mhER5tVmuDUyS4zIgSsI2bWjtRq9FJnky7AJBIxK9jNs2YFrSgZMoKyjbyuQ+BuGsrUsY7Q2HwrQHee6YFBsCPAaq1Kd96xj+68ax899pXX6I03L5ZO61ttbkjEtQwlRyGT4oBFjlcWIIALsFNihj4ccw06T93kDeMLHQe5YFIAdS2fjGkR+GxkbuTyZEyDkQclU0mXjMmijE9r1+x93pAwRnY8NGNK05A5z67xGECYnNIEIfIAACAASURBVJ2gW+4/wPNgzcFqOtFZImTN3hotAsABwH6XK7eKgGLAUCHqG+2n+LmMaBN8zZ2rRqNOw8Ew40MUu4b4aeZJmSCiITwYCq5Cp0WlRWuj1ncVFISaBAUZ4/okrPQ3OZw99+NShCtwVm4c2y/mQcyH4OCN0vXhCSxBUm4QCiY4s6nzHeLkS2+Hkbore+x27te0gGNpJkMF8QpIoTmY2ztHl964TJfPXivVHASFHf0ZRXvj+hHgpTL39dhSASxAK2/3LpGu2cmrz0Mq6ZICBLWhojHY1QEO1jhD4tCEXEmjQH9CmBVGfjMulHGl06N6vUr3OICgB/rWI7vp/KUVunptnVVJMFtAcwBNgOCBpD3P2F0J5almjWCKgP0MfgSCgoSpsrOFXoE5rKpCC211SOxS3YGDNkIZvdYg0SDgFr5Rr9HLnWGpWQHdhJoDXfwYnSl6juZFCF4AM1VmjTaLzgUzPfM+AM644USlEtw8UAQSgEruvGs/3X3XXnr22TP0zLMnxfOm5FOmSeC9LzE8lgkvy6JiwpUZKUJZQbtVIuTpaCJrJjutygT0QCF6EfmPIG46Q8SUS9QODpACWjtlK7N5nBahuAezkQXxsMPwRhGy3q0AhLyQx7z9iNkt7Twh4PDuTBPhwLJoqWJNrhZF8k6yEyxw3eQsjU1Mt+m2Yzfy2X758bdofWVDkrUEG87nClVV6zXq951N3WnUcBZQsElfwjMY5xDPuU+jWWfz0KYDeuij2Wpwga2RuW1hnJvuqh3TInBzFiAEYEEiPuIHQuhLfrQgIVWxcgvmBuHFcvsvPLdEXMtmqdP3odh2eZMhy7cZvwQ3R1yucMmD1pjnomUqDC9Wx+JSW6hbIrSJM5kS6BxCjOIHxRrdcJV5mBE+mge2Y7ukAIHXgcEv0Z6D22l+/zxdfO0SXXaaA1mp+EaDlcV+4WViLUr2E3NMLBLqsbnrdwoQdA460syYXFIkfS8KEJTI2G5frdJqt8dJNvCJRTdgwWAzmvXgoMsqLDCuW2/eTdeWO3T+/DWanmnT0cM76OlnT0kFtnaTvb89OIifIaaryWadkP55vTfk0EpRkyQbIkzaZXgcEc23G3yDgM9BfShmBTB+OE9ZgICDhDluNOr0ameTLuZoDvzQkCucQxlF67HU6bF6Mk9Y4XvME2uBZ8cRelyIx3XIajezLuGGsk+C+R0qVYCjb8UnvDlgD+68+wa666699PyzZ+jpZ0+yrXjcjzCU/LGWrZXtp2j9+VAg3LVWoR31Kh1oV2nfRI0W20RzDaiYR1Srb7ImiYfj/0sXWVK7IYAbmOuwX6WVHgqHEZ1Z26QT60M61x3RMsCDhjQ4Ek2Nz/0jBhD0tqvMHatpQWAEZ2xJgyAMIr5aMXAJJlVETTB3zTbht5PEyoXVHPX9kIFagKBL3p5q0R3vPkTIpI1QxrWVJJdHKPBwU6036tSHlsCBSWgJatUa9dgvSbYSz+Avg/7Qb22j0WChD02BkmCr2WBzBJ9nnk6FoE3AewlA0FaV9wSQwaI5s3BFnkIhSLC+DRk5GxwuVReH5wgCnQFU5DCKkBEN6mp/QCjspDyf/xKRZABiSghoFzwTuW2Y1Rh+FTN9lKo2AwJTbUR4vkWYis+PLaecmWLOxSqc1rhc0gIEjG3PwUUDDso1Bxhf0Z0prlnIbkIZOAh5QwoEAQiPw5hD3wXzTmJiqBDNt1ocrbDaScCBHg3LYDAICGKOVqAKLXfSyYHQxoF9izQ726ZOp09vnb7C3siTrQYjwuUeNAEyitiG4TtoDZDACZkdoRIrup/CdAD/BIwJZojGcJP21WHXksOiyBoaBTBEPAdwcJzBQZcGw/wc/wBCk/U6zTM4QLiQC2WM3HSV4UFDAmCDsazAX6JA2OtPeNeCBP0e8w4BA36DAPEe2y4XOm5Q4x6AcegmfAb93XP3DXT7nXvp+edO839QuW9FqNs28zQfW21P5wxt1s5GlQ5P1ujwVJ12t6s03RhRi0PuXNY+ftgdf6gSwtR6jvklzDN9TWQ1uhMkog6tUG9zROu9EV1cJTpxbZNeWRnS2c6QNrx6L52hbxyQYOkib69iKl3OVxA9LPHESbnaJ5yVSMdQGCC/Af7kpXSSNg8gxM64xYeTUy26/cHDDPRfeeItWl9e99kLccTsGAAOILx7/b7nvjB1ASAgiZI6MtYb4EsjBgJKS41mgzUE7HPghg0QAX7kAS5uxmxqGHhTg2pZ0sc9yXhZeOD82sR3MAQJfs9NdGigmHBC3cGuQPOq24Fu8yqRYPZYE6tF8NsYoRu0BX4Jk636hxXxjlzwL8SSvBoCBNYAl+g/uJpisl/hcItkRJ6s0QGF0TQKEHA+YFbYdmBeMiSeuZbQRoFUygMHRaAh1B6MI9yL5ixmmrJVSedZyLinfPzRT41wEZiHz0GtltIcWEJgLYKDthBEMwwOiG/r7DEckUwQ3CDGZq1OU606DYfI7CVmBbWlxQTaNNeFqNFGf+jrQoREqYccBAkfBdRMWAM42Nyk3XXkM0g7ImKO1ZHcenr1Or3GPgddjkLIEI9HL6I50GgF1gYEmoMUYuOQ0AZrPjAWgIPYAQ/nYlEg5hM73LYfNVsw6g4aYz+Lb4FjApjzbbfvpXvv2U/PPnuaXnjhNA1N/YGtCvWEGcbvWeO0B3YyXavSje0a3TbToAMTNdrWqlALWflShAWGrnVTzZ9QIXMBjkCXrczMtREuJ3v1+t/codD+YJYYEl3rjOjU8ohevrpJx1eGdFU1DG7iRVAuvAXmgT4dV7iCeSYCH7ZnaEbwTrwHnqZhMI0agHsSjhb6aIRMwCxTikp13MhzcOsDB9k36KXHT9Da8nrqOVXtYntAf7VGjW/2muOC/QtqVRqaCwSbFaBKNymGG40aM/WRodfQ1IBVaDlwoKZD7rOOPpFDIF/I8xk3+59aTqe3z91DR0qeBzh1vVUIloGEmFBG8sq89Ud7K92h1xDbmUlb0iP2Bf4lUP1v9eLhxzQOL3KNs09VDvpQWoRnPngwarSo6SH2yrjj1Ru6rrGuGQtKgIMbFhgcXDp+mS6fv+Y1x3kOibyPgWnB0k6euPbpzc1kikR72W9eq1Nmsg1+t7FZzBY/8clPjeCQ2KzVaK3bo/XhMNc5BIsnmgM4JFZoxaUVhk8CM7WAGPBdq16jqZaYFZCtUVR5AhxCGyie16JRyNRo60LEiACIdrolZgUkcKqNNml3FSFXMp50KKOoyHqNOr3VH9HSRp+zO4r6SlRYzEQMOJho1Giu5fIcdHre/hyq+IWWZCzQfKBIyrLzlyhDro6ePEhhT+AS3x6GNKzOzoIJjB8mBxzucQ9J0Y0Av8FX47Zb9tC9Dxyg5549Tc8+eypjVhhHoOcd5LxbR16bk9Uqg4E7Z5p081Sd5pviiCa8TUi8gmpAqU8EJOBZyc6TxIzxdwYZ5IEE9VfwDNVKXfd3ZxJb747ojaVNeubykMHCCguq4t2xILEMIAiNJU+xBqES0yTIM/aeVgQQuF2nBRFwIOtcdSoKL4ByBEiegMJQp2cm6Ob7DlC9WaWXvnGC1q6lwYGOE2CMNQe1GvUGA3cZkSgefN+HNsFxd3FIrLA2QXlL3YEDgFkeD27EdfFDQAIhxo3VxKxQcfQjfg4wNSTaBLSd8FPpNBGnBVvqo2DygVhaSCeFGLX9GB+xjovKg2w7RSChNxzRVeZR2VPJJthajVrO+fR6+MiWAIKbHDs6jgEQhGeOmAepL0n42rhjtgJRTyWPAZmAb1ighf3zdPnNK3TpzFXv8JeXC4TBRrCeeX4ImfHa6IMyhpzr9SAvyjhkIGUaBPu7gqUULT76478+Us0BHBKLlDxAeFC1q1kBHv+K+XRdLPJFQadp53MAcKCaAx2ABQjYUDgB4vat4CCFzM2o0Y6AgzoDm1WAg81N2lWrsOYABWAwD/ge6I0cIKLfqNOp3oiuGCcd3ywGsDniYktQQwLYQBsAZ0qUs2b7sgEP1k7LDlvI+wBwwGGYiX00RP/jahSuNybY2gPB5MZRCxbRIxjxrQAH9x+gl186T08++ab35M+9oYyh1gr7LDM3YB7b6lW6c7pBD8w1aUe77nLSO9HINyZHhRmQoGzW2dYVFDDUdwBBCdcCC+Yyqu9NlycepQCCO5gMehNwICdUfRzkWnFtjejJc3166vImnetuxot7ORNSSvgUbFKoSfBDyOyD/BLum+T2T+5EYXa1FmoqNNRLPRlIDSAkOcxpR0X3PWsBrOxEPZfpNt16/0Gq1iv08jffSoGDUNUL+oPDNIS+0rZ8VxefA9e4OiRytIIDNfUmErZtSqVNfOeAAISKd1KEybEpQEC1g9WaAwesmRCaYuFVE21CioG6f1gNQHSrnJNBNCoi8kKRT4JesIS8ZAfyQiAVFIV8HapuAIR+UEcEx6DdqGeSXWF+upf69yK+YceWux7BD9jX2KcINADkjYZSayIGCrypwNAgxh93EJTewTd33LCNtu3fRksnr9KFk1d8Ejy5vMXv76H5YFxwwGtlzmqZaaFIe2BpIU/tJVqOpBW7rzx/OFAiqyPG9aM/8RsjqMLXBoOUI5PdlCGnIK7Q/ESLl2YFiYEKjCmgWQhYDw66ojnI+0A44OY96XwOkOtAoXkMeACUwP+Bkxt1+lR14CDxORDGpQABwGbYrNOp/oiurvcLMx5i7MjRgLF0+wO6vAbnS5/ZPDMFHFCMBeOXHA0JOMg7GOEGKdMOn4/5JJQdSv1dY14xd2gTrueDg3L7bfvo3vv200svnacnnjhhEgRJi7m3xDEiEsIxCTNLjxVofWezTu+db9Fd8w3OuOYFoGuAqw46rpWABMHDcU2ChORVKtDFyC2S/wfDutPMEP/mZqhclr3306O25gb9JWHu7mFef4zFKScqFRr0R/TahU36/Kk+vbWxSf1AmOMNr8LP2Tzth0fpurJmBF6SVLsmbt0xSTa9GW96Pwf3npRprhLyH4i2PFkAAHGbS8G3rmvoCg7ZJWtPNum2Y4eo3qhyKOOK0RxkHBIBBJo16nWN8K5X+VLQwTlza1Rr1HlsAw3fY0fDmgB+52jNmoMmCpwNvfZLHRKRH0Ed4KB9a7IpwwASgAMGKf3AHJNAnxSYyztu1wkSeJ689uLzIlqf5GPPTCwMEk9C9qZ4+ohoHSZcF/7Jz1QqNNFU4D0+xyjiAUKbWroqPDvBWYdDebWaEd5l7bMW2JmUwqW3eQbwW8bGHoglyKIdzqxw5cQSXTy1lJUXDoBiT7bqiJi3qrEQQ8/LE07EfysCCJqTh9ch56IWkz92XLg/ASAwdf/3f/v/HtmqjHzjdg8w03WpiOcnW9DF0bX1TqGwB8NEKCOiGzhawXnxe4QdrBAmMokkSA4ccDrQyMdf8AgJnBocZgNhjEQQe6AO5FTMLvbZ3Wzwb5gVBo06nRmM6FoJOEC3ADbQBsBxEZnHQHzQlCB6IVxY1hy0MPaGc0js5iJZOyW7FkWb7ZONjH9WU09aYkGyqq3gBMzt1lv30LuOHaSXXjhH33ziBJELA8tDuFHv6S1qEyxI2NWs0kcXJujIHCqISrU80Jc1wShDYIHv0H1iD3bAzmsMkuPFboMMEtxs4EKPF4Eq9dRDmwBVATec1P21tztusYCD4dbKH6NJ4PHpzW+T6MzlEf3Rmz16bXWQYmBlZoYYQOCuAjFmyzerAyPWkFOpa9XH0DzIvkPIQeJimHgfUfBLEtwAKECDkGIsKU2BARLu+2a7Tnc8dBM1WjV64etv0qoDB5apKw3Bt6DRqlMPPk5u6aElqFdr1DWOv3Ba5DwHhm94h0TN38JaAoQyChAQFTIRohr0OxVkrSY0E4nmgAE2aw4EkGDG0Cbw2VJgGc1VGZgc7Gb5n9LiLIYrwj1OARGz+OOABE/eDljBzABnRfA4+JXhkhMC4JBv5WKfQIgJzWdllI7Tt6PnwB0JaE61PHFUDuTwwhAkKGUW8aqQNWFMO/cv0MKhBbr0xhW6cHop44AtwF1avx5wYE9MCuTlFE8q0xb45TBJkDLgQMNHdcIFPBlnA6BKoW/l45/81EjUU0J6ChC0YzEriOYA0QoQ+kUOVi2UPW4JUrd2eG0vtSgwKzQb1G7Kbb0oWgHvqc8BbjUQ3pXhJu0CCBCjK6NkeU7uOXBIHDRbdL4PM0ES+xujMTyP7GoAKsizv9rrMxPwAohj4hOgwA5y8Dng7I4AE5IOdtxPsuLxN7RfJsjrcBJiZmbGw7dJl9Qk19NYDznAwS176P53HaSXXjxLTz99km9iFgDEDl6ReWpcHwXMd3ujTh/Z3qabZxpc9EeZTZUrmwhQsLeoZK1cQYRUrQLVJMifAi9MEBPfxkw0A0tl14E3KbmF4Qm69rwfjfwW1yQkvjY6YAEHxnLBjHREg2GFTlwa0p+92afXN0RlGjqrppizkxQhWBG+nGgKRIsg42ZA5EhUAQIL/Yj/EMwKk01oDszHawZkzWKA09OAuTViqK12g+546DA1W3V68fE3aXkpybwZCh2omsFHIKg1/JABQ01u8bot9aYINBRz0i81lBH0qjgM4ICzuKo2gbUEdQYHGq6s2gTVHDAfQY4RBw4ci2GwANCHHAyJB0LiA5K6COVJ0xyA4GRqIQvRNVf+EeVljja5vRD4uXwJIGM1M+A5mEdT5zdn7ApQYv1yfhA2027yXcJndHGDDekXcoTNPhXnM+XCz4XpQiuYzn8wdHzQCy83CM9L2Tw8pAoyZOasYm7NEmgO9m2jhRu30ZU3l+jimSWeS8jRtWBZmfkgDzxsBSCML01cgillLbEcEBZp5sgpZW+wGPg1/o5Hf5l5G+4J+MEzWyQQgSag1eJDeHVDUhDjwxsb2QABB3IYNalR7Dk5uFBd1hkcwKmvU5TdyzEwZFOEPXK1I5qD7ZyoyanOTMpRAASg/FGryeAAKJmBDaNTJ2/M6luzAjtTdnGTkwfC8atGAdXHOFoB4EBjsnMWXlRsOVkzIusYI4zr8SQOQYLOB2rUvHoO+P7mo7tZc/DyyxfoqafekoQ0BeaEVGINM5/Y2uVxP9bG1Kr0nvkm3b+tJfXhXVIjFnJa9swxPAsS0qDTETF/6QCe+iQw4UUyTLCvivvevZfS7+uGeNWFfuH+dIBEaCtdtck75JosTFDN26saTA/KzDvdTXrh3Cb92ck+XXGx6iFD9JuhOCa8rDqqzZNP3L2/EiR/V2HSqBJNw6xQIOA8LYVaBK9GTzIrTk416fZ3HWJw8NI3T9C1K6sZMuDxIKyxJip+pjkIGZxlaL8A9t13eJnBAUC7Cv3RiH0JoCHQ0sZ4ronESEPJfSBaHHFI5FBGF5GE7zi3AoS+Y64AB9C6IaRSBSf+jWeTlM35C5QBc3bGhllvxSdBznMYoZPlUWXOixZcdwbgiwnASW1MzvTCiwIK8sGXAWbn2EWA+3Od5tKkizqbqNdZm6HP2eycdmwZnwr90ZgbhAPkFFGzfKpaoe1752n7oUW6zGaFKxlwIOdF+Emu8HfsIE+wx8BB5lknQ7YCDlLRHO5S6zmUAkQrm4o0CDhTigPQFgCCFYS6IcgwBw9+tH9tQ5IgpTfI3FKc3R61GAAOYFaw3qEhN8DmQrhCewBwYFN/pqIbHFxlO7+LVoBDIuDpAm4lLl0yHtOcHvgTIY/UbNA5mBU4WsF5tjtgEh7eNiIt4Kg03GTNBIMDcxDTAkicKeHhu9zp81yLPhjKXLvFIKIfSVktht0sOYTfsGxyEQ6FHeb8mDm4mm7aRDsAONx8dBc9+OCN9NLLF+jJJ094cKDNegBp+sFYYwStQsgOKcZAUG3ztqkmPbzYol0TpsahBazYYzhU+QHIX1RmZ0CCymoVYLzGzofACzUzcg8SVAuhUtf1ySjFsy2xPLg2RxV4X2tbDoQ62mW8EIxZ56DAgNmzs+fps8urI/riiT59/eKA1k1orZ+nmbDpyi11WuyETNkChJTcgkCtVcYCB/peaGZwSMc7XXGGxPsP0uRknZ5//ARdu7yWq8bmomlNgANkNZScJVWE2XGGRDH3YX1wSWBB7S4VLPTrNf6dgQATBr5z4AC3Sv1OzQpcgwEmE3FIlKyM7gLE4EDqOShha59sknBaGmSNlTwgXhTly9fMJrgvmKFnxWZMkFpebxUD+UI3+SX0TfBCm4jNp7kxTyYhpO0H7cGBG5FgRf5lockCa87f5STjQiIm8FaUpZdLjJgcwo80kS7glZxOohF8SPLN8P60wj9rx955Wji4QEunrtL5kwIOUuciGGuM1xVpFMLn9bxmJjUmOAj30vNU976279eNB1cMOXTtZOrJsx4g+MFyCtoq50UA3SJ9cg9OekH7wvyFrLCh6pAIVbuvcR16MDueC2AAgRwLZbST5xskSfggtBkrAAfDTZpHilzcNljISaNa8ZAzCrbqdHEArUcCDryA87Zq+YadKdmssEkrTqWZPCt/s0IRwKbdqHFlS2gauoOhhEtFPmB4MM/A1LG03uVns5SeMIpoI9YeNEYIZG4bAYH4S7EyyVqVbj6yix586BC9+upFevzxN/ztLNZmiOAtedi/l/klLDZq9MGFNt0x1+RskPZ2w2sfCEKAhFEQwhmCBHkl0STIv3FIHFBUCenMat51Sc0NuumcI0Fn72alA+IDIf8BIPArHoQkmir3Q6LqFe7ob7N6sOSGJX14QbA5ouPnR/RnJ3p0cn0oXsWeOJNdcfzW9eHaMEInBhB0ivY3lGlGEiQF23mCJzkfCYNOPevC+tqTLbr1vgM0OdOkF74BzcGaV/vHaApCmdW6jlYhgHFrt2YFOB/iXMEkKWsO50NoDog2XTEm9S/gUEbvpFihZrPBt392SHThwJI1MXFI5BDhOsInBRxgZ9nUAF8mbR8ajLoYX2wukEQxm55dem3iJ/TtgIRxAIIcAaeyd0Ka1xv1cxAWahxVw/ZsNT9QF0yt3QHMCEpreVwnxu70jMeydUoOl0mXvpvpEE7JTvumfMVqSCx/caLAGxC5YFcgt1LaTiRW2zdPiwAHZ67RuTcvR30OrHAVcJj+lJkbxgIIgTm4aEVDgJCXECkGEKwsE/CVaLYxTkgoG1GRAQisOXDpk1FISUIZsx9dKKjaZ9pwSEx8DnIJln0OEK3QZC9kaA+KPiAWdkisS7QC4l7ncTOgETtShgABmoNRq0GXAs1BrA9WMtTrDA5wC4BzZG5VRu5Lxo7cCAAHHGnhPoykA+HPYXmTSFst5aY1bbV/yQrsCEIuQnxvJ7pB+ERAstUK3XJkN733vTfRa8cv0je+8XqkKFHksEcOC7efo1GwdARfwCMTDfr4zgmag8HbgU2mHUdAnpgDgmJzA9+6k47KQII0q0haNQkaVIf21MSAY2PMDaz3VqntZqbCHJyzAoAggkr+1OqAIUgINAnYAy625ZisSyrGTo0cm68rWaH1zog+e7xPX7/U56yNPJcAOHmhbQoL2x3LPZNuetiPmRaEr3vLjQvJxfI+GDt71fOFPU1TrXaTbj92I01ON+kFaA4uJWYFZeQxO6X2Jn4Ideo4DR3mW6vXuT7AoJucPQh9pETedEmQQNuorcBmBZMCHM6HEPpqVuD05AwOXB4FzMFpDnoOHPA48Z2tDskaSmgwiM98sjoF6xQuIDesJTQTDWJRwqpME74CZ6LqVPODNJ9Uf9R3HWnxP2G2kUR2iGZQQZoWf+GMoFlFPRJrwjHHtZCXp2jRadWivlAjomnWECVvsKaHHczMarv55QKESoVpQBIqSVuWQtHU9t3ztOPwAi2dXqbzJy6n+L/wE3nDKhQgQK1fTpGjYgwYhOOQgcmT4fNFC6pRav7cx7TQDqgjmR7KsSN/zCSnAhhJ8ivnJwTTUG+TaH1zk9aGI+rAZKRgUk0MGFyzUqWFSTgkVujaRod6rqKWudykxozbN8AEg4NOnw9fnqc82pfaCg02KWhthSL0C7OCqvJxE9iGhCksFMT7GhNXDQLfPtsNujwkurru8hbkrDDUwXB4kmgF0RxYdVXstal6ndqtGnVRFyICbNAONASYJ4DLIsBBrUpXNrrUNaFEuZseMy7ahwMCwLq93RwH2vzRI7vp4fcfpddfu0Bf/NIrjuGX3R/lbc/sg4nlgQQ8P1GpsNbg2GKLD5uyJX85N7f/WB8skNzJ1OgFPBcFCYo4rHaAVYbq6ciY2Y1eoh6gEaiom5MyczYBOKTokynx06zRkI8AC8EtckNKyVfHGP0NQO2yXqvg1hRSEEDDHCZs/ytnBvQ7r3VpdShJkEKQwLTn5iL9p/cwtqNoh81gTalbwozKNRy7GHiG5MCB7I9jbaZY0IEju2jfzTs5CdLSpRVZF0fjKZoJBsUOkwhlrNeou973sXnQEmBYvY672Vedf8FoJNkVHUgDOOCqjAAH7qYMLQHAgQ9lhM8BohrY4VEcsxkwcAGoBDBAk4DvkalRoaTkWxDfB9l9Z19PcXel6LjAZWxgz4uCBQ+Ts1wiuneBdXJcs0MNeR5cuDCgFjQI3iE7Mzg5Hb3RJl+MSjTVMcyXy/JA3xIBbFZjBBNujQVY+AFIwH7Y1dVnPA9xX+i/mRYiUnzHnjnaeWQ7LZ1apnNvXspW8QzMFykdsUkBnhclMbaw3wo4MM+mwE7OpkxWqrSrWaE5zn4q6ymk5oodWvOnyw+HTJVSDmFE53pD54Pg7NHbJ1qEB+BzALOC3biai7/VDYHdHlUc4TUKJ0D4BShzCvcWQ2s3G3wD7yBDoothZntUhHzw/kyryXZAZEiE9/EckPwIzodyKhQg4J+cXniiQZehOSiJVkB3Um66wdoR1RyEDNczQufh227WqNND3HC+1gMgAf4OKDeNWO0lgIOYWSH3yGz9h1hWx620csvNTnPw2iX66mPHiW9PGl/u7IB5fhLaT54giYGEHY0qfffOSdo/JUmiAIrZcQAAIABJREFUVVgoHYjMDJwPcoBIDepob9OUh7i8ghtYIojc4dC4XZaCMrq0wyC+i2kS3Hh87QYVDTow0RZAe+CdYF0ffCCNWcH7QehpdYeF/1BXeb+BI3bOS5jgiK4ub9Jvv9ijt9ZEKCZ0Ko6wWwUI0MTNtWoMvMNwSA0pjdGTag9Scs5ENvBtXGsk6H4YEOz3JjUHaAlcEiQOj5YX6606A0kW8vxdhVqtmjgkmpLNTeQ5GAwY9DOIZCCAaAUBDPY7TbzE37EpQwpA6c5ypkYkV1M/B/CNRt2FPScRPc0G/K4ghFIGoOgRjPG6hFgVnY3nk2AoMNWXw5z8XRqe6CaIvwZnxHTUjpT2GD+Tn+Ov8rSMCeno+fIjaCg6t/DL8Z5KfMfs+zBxg0fHhIOae8YVwEn4o5sRNAe75mjH0e107fQKnX3zYhRA5NZFGLPjsR7bgllBNlRMRClw4HlZsmNz1SrtblVpQh293RtCD7IzKZ4t9xH5BbKUozdc7opvf/RTI6CLbRMtPlBXI+BAN49V2yPUf5ckSBqtMARjxEEeJUwquQ0CHNRpstFgnwPWHHhazQIEBQfqcwAEOM2hMMjP4ACCCjDYH1GIZ6JBS4MRhzLCPqanI6bCQtERaA5gFoDDoy628mZL2Pi7RFok4MA/HzkmWD+YXHDGAJrUTjrWidrqQ4a4rsfkgHncevMees97D9Nrxy/RX3/9Neo64GaHwowca8/+AfnHvui2qe0dnWzQx7a3aYGLJSS9JO+yVUxufgk/85SfAXG4/eo6GP2pahISFpccDHsyJK2u3CAlMZKyTMdefbikua57vwS9NTtW7daGbXosqF0mMjY5OEcrnpQmW1IfCVM9MrO80odqEqSLEW10iT7zcp++fkX8fTL75cwMMv90o/ZfmMp0E8xYzpb9WMewcfY24RFJO9xXQDNhWWjvtMZ2fZdS2Zj74LQI0IMkSCqfNFphqJo5mAthanAZElUw4jubKhlDgZAHCE6yJrpiT8Ze7X0OzGUAKZsxAK4E6abFhZ2GcNJzOVIKNADhHmU2LTj/uU6DOWa9VPuOtESgp+Usp6N2t0nGAwAA/aHwTUvSrkGUOcfvsvZCPXnJmEIWFpJzTGgKaEu/KX4IaTOD8nT8yZqEWjXrL5DDn1DgiU1QSJ/MmoNF1hzArGDNUDoKWxfBO9uPJfGlhbEe3YLmgNsz0QkpGWTOLZLI7WlWaaYuIf+682HmR6ZfZmm6n8n6634oGKx81w//6miOSxMTq8O1EJB/BUk0DJOx4AAe/BCxFqnW+QbndhxpVVVz0BtwboFk2DLAlEB2mgOpythn5D9RRSijxGp7DYIjbHi/V9sNujoUzYEHBzp4swjoB+aKKdR+R56Dbjqjogc0bvWxHgAHLYADVzSq6ABwaeFWnVU5V9Z6DIT+//rEBGJh35UKHbpxB33wAzfT8dcu0tcZHIjmoChfgTJz9i6PHEYv1DPMjui+mRZ9YLFFUw0HNILrDROtowYRLEkjnoFogEHAUKBJ4M8YIEGFjGpSK0iQpHKMQx1lJD5XAjsDcA28JPkCJKuOMTUPNTcYzgyAYN910xKNgXScLGUQ/mhzLVh1IBzFBiP64ut9+ouziV+CrlhZTU/teqpWpQnsh6r/zb5dL0BAE6nIhvCMO2bnF10rkbIaVJwDsZ1Q1kBzgI9mSMQ6ARyg7rZWYMXY+RZvHRLBM+qaBMk5prpKkOLwKPsHDSXyHGgYL5gwtB4QoKqZwJOcldGBAxWqMFtw1IQv9pZU7ExztYDQ8wR8yAi9ijuDGnPV+EpHEczsjkeFi0/Zo4vRYa6cjtp+YM4Zilmh6FN0aciOPNtSTKbjPQAErqWTkxYZmjV2YMz4FsR7hS/Ctu0ztOvmHXTtzAqde+NiJhuwzWaooLjIx4BJOWdxdBTR33NKU4dNhbzYtpVyJCSibbUq7YEmEOui4d3eTyXus5R2G0rWDbke9PxXPvk//js2lkLYd004oB8sbu3s7Ug0WavRlNMcILoBIkXzBXjmxAle5IigvDP8DmBWgKnAHhX9uxIYeDsSLGnhJRBtG7UEXCZH9iZ29lK+CUB92G7Q0uaI/R8y4EB3z6mskd1xSn0OXMhUasEdpTmeLZoDOCQOXEVJ87AlakFc4kwpFSXhfDl09rp8LBkSduEpLPnRyxrzXO7hrFTo8KEd9IEP3Eyvv3aJHvvacU5Io5+xExo5Jxf2NI4IAe0fh/zdc01630Jb/EfMTSRmivIgwUxA90ReDvweHCGFjot2TVK81zXAKnIJohKBwervFEVIKmYnwNlxUaU6G+4tgel7IuCt06LMWNrOzNcMUpzKki50nXQ/PID113ncXIm+cWJInznZozWnQsd7ZQABz0xyiXRpzA8jvNWo+WOMW2sgW9h0I0AvoiVUCcYoTYRyo6GhjLIGEMo+lNGtC1dgRIIfjiaQE5TkOVAggJLNLlpBSzsrOGDNgTwnJgQBB7p74D3Q1ki9BRk3C1StDukmifGyQ7NLwc48AL4Knn+Wi8bMExGAIHuT31bsFwsSZP3dmdO56J667zF33KK5hoX5wEkNuWkMZUdHknKGHCOhWyg4/ZlQ06B7AGYG8OyiD9duMOoH5cUZv4AK0cKOGVo8uI2Wz6/S2dcvssN7JnzSqPD1eOf5GHh+GRmg3ZeMBBhTc4D3/Nl3fcQ0B1ihnfUa7WxL3hKcOl9MygKEgBY8W0qNX0ZutXyVT/7EvxshWgFoMXXIvQSTYU3V6hLKuIkkSMVOgFhclGBGtALU1rDbFwkeqK+nm01q1MXnAN7BAAfssORKGitAEAfDKt8ullFwZANq1nxBjJ/YX6It6sBl5DkoeB4Ei6p1yHUAuxuiFVI+NHrgHNPC+OBMidvIardHvYFAJnZaxJqGfZkwy6JxFJ6MnB+tJkEfSfOdCh06tIPe/4GjdPrUVfrLv3o5laI2bHZcsACOzn17YSrORwBxD29r0bH5pq8Hkan4GXA5EVaOUC1IUFVpsP4YswpW75NgJqJrwowQ3rrDEQtTlF9e7g7pCiJS4Lk7kN/sIWzUK+z1O12v0EKjyo58c01JItSqI7mOCnQMypwfk4kscVJ00Q3hfIWrBUsvhYWcfDXiWcMjE3rH3J8/OaQ/eLND667wThlAaHOJ9GzxJWbHJuUrt+OGthUzQ0J74rQcu2VafwckRuJwRCckoM7HDRG5DzQ6BEAAcx0atT9HK0B9rCpwlCduwHw4oBEcOZ15hvMcGI2e5D4w4ZPgMewAJ+CA6QkXk4ZoMNSsgL9jbJwQCALGOQrzd6jxYK6bRYI9djZlsw0ZGEm/VZCQ0I07GwxgRHsQ8ngFCDAjiHMtFDQjvuSMff5z+FGRdiH2Cu+XWwNcLKaC8cbeQQnwaFseCFVo284ZNissn12hky+fT8/L8ecQCIThkbaPfGkjT3nRGZ7qArkTzqFMNuD8KDjY3U7Ui8I/kzHw/ckknAtNTl5pymc/2QA9n2xi6G1aT+70UHHDmqzVaXZSohVYle/iyWMbAxOD1FZo0HqvzwK2iLmAiOCQyOCgg+piQ06AxEVknOABCShAwC290W7QyuaIi0ZlTCJmUAk4cNkdESqZQ8z69WQD5anrtNEbss8E2rDhQekD5sCBG7t1SEQ/nDra3JZ4/f01MXAU4XCastGVDN548odPQlDddONO+tAHb6aTp67SX/zFi149Wt5qsekh9j4A3iMLk3RsUap/gp1q1IVqHPggBTZSOWDGByFgnCxwzBqmbkzuIKiqCmSK0J3z6wN6ZbVHr68N6BIAAZK74AIYDDyk0+S2kzj/YQ6Y245mhQ5P1um2uSbtma7SVBMliK0mQQYOnwRxXmQvQEkfqx3Z21wMOCgYiggODY/Uc/3a6SH9++Md6ppsp9HzWakw0JHbRtQPTF5zCXy85sI1FkIZ7SPmtIjfEP4YaphS/Rpvcb4MABxAUAPIO9poOSDAKZUdPSCMEhcJTZ+Md1rQHPQlmor7dpoDjlZgh1bRHAAc9OAL5bZLohWQNVEyKYKJSp6DihQBcuvEGRgBSFLhk6KtAEF5xqz7VnD79+sWCBQ1ffm9c1qW6wIcRuBqtcuQJtA8NAiIZJCzWOEorWxivHG4RPaZrYIEd2qYZgAQyiK1OALF5U2IjXBhxyztunUHrZ5fo1OvnqchNNmOqAsvijmseMscekyNgR17qD2I9Qk+sqNeo71tMShYcKVA25Kf9UfRwna81olPth8Ct+fGXfnYo5/yl5xQBYqBTVZrhEJN8PiHj0I2O3UyNfC9mUaDJttNWu/22M6PD5scAs6CcWHz4TCIkEOAg64DBwwGIgABOQWaAAfscyAVJfPCKtEvIgmQ3VF8DhKv6DxSV3CwjmgF470cs5MlZgXkaJB8EeEHWgSYKDB5jJ1r1XPmNcfAYg2bRq4HMFgEqU1hZDfB5+CDN9Opk0v0V198OaNSHOf4j3ujQIjSRxcn6MEFFPhKl4n1tBDxP7FjsCCBCVkdr9yF2zr8WzUlVhZaouev9ujplT6dRTIrAIJxJhh69xoBGhOMevnHjXxHq0b3zdXo3sUmzU9CVe2OtU/vrTpUDaVMzoS07ZCo08SII1hagguzTdoVkCDiC/9/88wm/carGzzfcP1YYI6IZpsoeJSA3rx5cS9sSUnskYl1A+aWLOyPRza4HAluk1JO8ronDiTAhABB34cJ0E291Zb0yVCBa36r1gSEMsCB3OLRZrvZdHkOJJIE2o9UYiTwCkQrmNLRrCUw4IDpDCYPpzngRDtu3AAHAB4cV+8+XCYaAEILQLnv+SZuFrbMJ0GEYvAJQWGBT4K+mQDadHsc6eXmlD5j8i9oYWBOwFyh9WSeFRlOXvtjHq1CJ2ffhgoml8SuyMzA/AiXSWcaio1j+95thCJhSILE4C7QjOQJfKtB2DIoMHTtjtG4S5SpnxN7EfswV63QwXbiT8J74y9bmpQlHQ6uZ4p5qZmU7mtGHGF5H3n0l0dc0S3CKaCaR0ZFoEmE7AFL5zEUdAhNAEIZcXPmCAG+PQlAwFEWhiotsOagLT4Hq/B/GAxZiMIhEk9oGVpOhsQV1Co00arT6qb4S1iEGxt7q1bjUEaYTpCBEWqzItXrZFNqK3ASJMegmKm6HbKL5x0Seex9b54J1wZ7AKCBeSGjovgnJPZ+ZT55t7IUYUYcW4y4SNERr7P55tCN2+n977+ZTp5coq989TibffL6HJeS88ACwMGHFibooW0tBoBMA1a4qwnBO/GnR5LcWB2dmAGl98AxQfc6csoDFDxxrUtnO0Nah0f7uJOxfUSYtT9AMaZpBQFiuKsV2tuu0bsWGnT3IsCyoJukmJMKdQUAwTwdKFDbrgUJ6duYOiw423tFvLpfPDmk//RGhzoRkDBTF9NIKFBCWkgJAudEqEIMv+m6ZjQujusgeVL4UXNylO6Q3IjzHFS8PwyeY3CAHP96i0eSVEQmuMJLbH6A5gCC2mjr0A6DA5fTgEEEeAtqPHQklTqegVkBNVvYcdEB1pTPgZu7gIMk8RLmjfEySAkSV+WHS9uZZ3U30XUJQQIDmPGIOqFZhMq6yIWcC4kCBOZXzkm0WL0U+AGNN6RygBBoUNn0jAqTOe1b7SxrfCIP2sgLPnlBAq28oes6j7nc8WbGdUZkFJHtKa/vFlXocBs+GuJzkJznbIkATy/OP4HPglOL628qR5j1BGTKAEEESvqWP8GJhCSUcQm1FYxZIVQb4WbCPgdIgtTvS4RAoDrGwFT48+2bcwWIWaE7GIg5Aao9B1bYxuLyM0DATrYbnCAmBAeecZmJARzAIRFjBziwN/GYqg7AANoDIGcLDixT1E1ADhtxSHRjD303AlIBA4G5BR+kW844Uwapn8vOWphBq+h5rOehA9s5WuHM2Wv0pS+/Shsb6doRbwcohCAB/b13rk0Pb29z1WSbz4BNAxLkJ1oFxyMVMOphCIk0pklI5jyipe4mPbnUpadXunS5N4SD+zvyiZkbwrWKaq9cEhXQyUKjRnfPNug9Oxu0MKNl9HR4GGiSzEdpTU6oAxHmtLKFIjy9/qXkYOPsf+2NPv3xWz3OhqaguF2t0jQyIYWTSBQXqXWzIMGDZAeeNj33FN8Tz6AKAAKeyQMJ8EHAvDU3Ada10WrwzVxDGbGeXIER37nKolgO0RKINoH5WB1x/vgOmVeFGKxZQfkw5wKAKUPDJ53PAd7QAlBgpEioxH4O6gTqMrDC3JqAA/FpQA6GWKhgwsDtqprNs2sYo94AKPA/x6Bzfo4zP5oshHp7NLTEJob+gLUHSKEcwxHqeBsb3lb9U8blOXgOzuLg//hYPp7xt3JJrezSREid102cULOfd0Rr4JodV9uq4w0T9RVt7w31Ki2qg7FztpatTtImpy5TrjGmfYSrp8CIrJKuFS+1ScDFAAEPeCczZLoLwIHXHDimnqJXOCTCrNBscLTCaq+XW2oTmgTcMGfbLgmSAQdoU7QGzjnR2awBIiZaDVobOZ+DnLgTvaUCHMCsAFU+wEFsoyxIYM0BUrpqtILfYMv45O9YI2glROshdRhSiXHcK7o+CNtC6CMcF70jaAQphjbaKPUGX5YBBQjeQwcW6cMfupVOnblKX/7yq7S+3s00Pe5hDV/0YsyoBO+dbtEjOycY2XqmaCg1JVBN4alMFIQZVCr00SDcK90hPX6lQ08td+lqP4ylGWcFi59x5ySZR7C3eqjyrEQ6Bfw5XavSsW0NevfuFi1OA4jr8TeRDe4FBgHqJWdOrmgSgpBIdYdyoELHAsH12Vf69JfnAI6Jc4jMNqU6Zma/TfSmXZEYQNAzoM8ZVxBhMmUAQa/XRiuB91DlEQ6Jeotqteri6Ot8Dtjh1VWJ1doKnCod2gTUQnEOgwgxRrln9kNwWWA5WgGaAzg8OrkqeQ5QslnKRON7DltEnxAeDrR7zYFTueMdrt3gzAoyZwEHAAyaW8HvfbDYaVasoiH9UO55DEAC9z0GSGDnxCAaILzgYT4caYaESa7dEutn6vBYWh/35I3Ld7Cn0CLoalnPfkujbGowIZz2wqHv6tgAOhVs2LG/Ay5gMs4tNMRXAcND/dmKLeRoRNPVKh1qSXlsYQ8mJNECBMs7AlqRsu+WeBLK5L/5hR1R5WMOIOh42CFxQjQHV2HnL4CqEJhTDaRPbormgNF43EsBfUI7MNtucW2F9U6fOq74CYQZ/+5unYoOkdRoslWnzoi8z0ERAUq0ggMHSP2sdtzIS+hxGoWXmkn65KLzBuAy20aeA0RaDKgDhmCEhjIf7QqoF/klAFkvrHa8GSJNO04l5BjNuIcrPCzhe1jPG29YpA9/+FY6d26ZPv+XL1G30ys1K4x7aG1/Stw3tBr0A3smabKBlQpW0mpJrPAfAyS4QETvtohc8E8udeixpQ4twQY9BpPcyrraZ69bi2DoQtsDM5+rV+nbdrTowT0NmobnsV8nSabkTrwfQopJazRAkA9BHlZzgwAOrMmgP6L/8mKPnlwa0KyriKgMJbYeISCyz4S/6brYrBF+ngFIsLNkh0XTMJtRrJ8HSjZDc+DSJztMxOp8+BslSYoq1G4hMkFqK/AHVQCh9ke0AmeCk6yMXOypDydFEeYMDjhDIi4P8iprMJBcW0Meg+qQcvFyZaKN5oC/g09DEMGQ1qok2uMEoNlVsCuQLE70LIZfusR1RfSNtMpw1gw/vilXvhpl6zXnAS+L8R3y5BXpyILEIhrK7b/kcKJN8GnsUJHJEM9VTRIo5ZEpAnNLrXU6xgFYW+UdWwEHaHtLfmajEd3YrNG8mgl9IjfJ1mo1CLyFhrTyTF/KPlLJ6fyXlAYIE9U6zUw0aTTa5PDBInDAG9eQaIWNHsBBP1dzgP4alaorvFRjuz3MCnyu3eFTx0RME3+HgIWZoDcmOEDudowFjAQ+DRYc6DqlNAeNmoAP1FaAQ2KBdGTnyzbMCuJMidSjhYdSwQHyS2z0ORoCGo2o6s5oRKy6fVxhHRIY+rhh7wI98pFb6dKlVfrTz76QSp88TrvjPGPnP1er0A/vm6ZZgAO9zUYWyPtc5IAEpge3SJqtTZhqhX1ITq726U/OrdNZE5+91QO8ledjqtMYEyxylM3wdCLa3arRd++foKPbkXXT5V9QfOC1AVJsR5bDidlCkBA6T4xobWNEv/tSn650QxQV9yXS8xhbI50HM2L3gOaejNGL5kHAb0OnZgMDC7VI9l0JZXS1FZzkacPJ2JkQhGEgzbLUUdA0kiyoWw3nW5M2K7C/jZs+zi8cFRHBoNiMkyBhjC4PAMaD9MzskGic9aDBYM2BqfGAYlLQQsSYfJ7aPa3FyT9pub9EQIJSSOwup9qSKN07cwN48XJnkEkcpO9sRZtg5x2HPumRjMNrcFHEf2UfhAYjt4V8rHRMv6mmq5Qj6du4aGwVFJRpf/Pm2SKio23Uqcg+4dlE8BM0BVbuRffS+U8rYPf7DpaiGoR2vc41BODxv9TtJsU7ckY7C3CAaIVOj5aB0M1zzEQQs+xszdVKlbUSMBdAeK86cMAmBwMQMHh8B5XozESDNQfLyO7oasPnLlwdoYkCDhBRgA0A0wh1GbpQKAYC1b9GK3hNQM7Cq1kBCZng9FiElOGYh7niGYAsZnhIOmISkRQJFB+iUnYazO9KcOjzwP4F+ugjt9PFiyv06T9/PskS557P2O5y+hnn4OJVZLP8/u2TdOO0q63gnGGYBiIQ3ao3sd9q2rLDSAGlClF3MKK/OL9Of32t8475GGxheX0RKKUT9cRnb3XXENNE7sHV+iHueZfb457ZBv3ATW1qSCSo0wRIiVstTc3M32sXpDf+d6kmAcbnJl1ab9JvPXWZ+innjHyAoMImBmy8IAqcYPMEgWoMFCDg/VCLwDeX0YgQmTAcoLaC2PExxzZyl6B6oMvyh2m3waOQZdVd/2GyhPBGdVg+95uYNuo51BgwqLXGmxo6fW4bQl3BgSYJAt1x+uRMmWgxK0CrKnQtfQJoaPughUwsfczh1YJj2U0j0JJ/22+lT9HAQkfripmmSTiiTWB+agSrNeVZukU4+rUNWZe8T+5PoS7faoS2cshiz7q20Te0CHkQwfJvcTJNz0PHbrWNbEpyzv5h1xot404k/2yn6f++hRBGKx+3Cii4/9GIdtfrtLvprwumbmvSemwP7XyEf8iMdT1S8sxrJeQhDnNE/YBZFF4awCGxy7c1XeIYYSCUEQIZmoNlHJKAKOxissB0xYsgvDcGUhkNH2wlRyg4FTQ7JzGYcJoDRE54L+F4JDDyJ8DhEQxwzWkOPJML6B3/hL8BNAfIc4AIgxhw1Dmz5sA5JMKfwSaTihFrw/kcYAc406TRDkCLkMmb78YXO5Z56q8YM1aCAziAWeHypVX6/BdeojXjkIg+7L6U43HZoyKggN/eM9eihxfhqm8iJ7xJQesqxAnYatVtAiWoyyST2YhOrg/oT85v0GmbifNtoP3r4VkxU4POl28hHoHHW/eHVsNbOQxO6BnFq/7WwQk6uIDQSNELJoc8XLekEpWABOvPYPpmiVKjSnsanjz00ql1+vQrV40AKwYI/vwETdrZxdPThPOXZC6Y6GaBFgHCHNNRQY3hwy8BAhmVGnlZEOKMWzzOEcCOC4Nuq6CGWQEOl6gEyVkZod9wUVQobczfieaAHaJZkEj4pM630YRj5KYkbXIf9nOAWcE5I3s/BFyK3JzYzo+S0JHwwAzt6EFM+YPYU5bc+PSs72ogjS5u0QAIRKc3NrnSXuaAauiwF6y4UadPcOqcuTnC8Xtd804Yhm9rm3EreczAMiXzd3VELj1zeQjTnHNc6nAZyVJY+pu8fA/he5wQK2dgMd6beXYLts3/j7g3/ZItu+oDd4wZkdPL915VPalKVVKVJqQCDWYQeGGMkdBgBkkgM1oY3HY3HtfqL+0v/cG9+m/oXj0YG4FlMzRgIRmEGC1sBLbQUFAaSiXQSNWrN2S+nCIyIzOj128P5+5z7jn33nhVJYct6mXEvWfcZ+/f2SPe9aBidfYlSVtePhmyf5cX6JWRThYx2ifOWd7L5jpQ9hr5JdVlfo96b/97/9cyRCsgV0DGCdCDBAYHGq1g4MDWOd0+CH6ESYIBIA/BzMKV2PQuE7IkSKwm7CO6YY0BCgQsKkqaf0KuD5SblmgFeb6mbndoCWNDRUlELMBjFyGHRvFe08Be83qzhclC6kKc0alzSLSx+MPP4GAyYkoAmEijFeAEaWAnpUvbVL9+KwEEaA4euMzg4OaNQ/qDDz9BB0fz4rk0AmsS/tkxJl8+PBnS26+t02SAG5n8aNEKlX3ZEuXEx8JuM0wFOhC/1xAo8DX4vVszOkgjRVY/Ya08qumBEkAI56IFIDBvxcOOqXikv9Hv0XffN6G//sCIBgh46cEcZfoJmWzkvGjAMuirU6CAq/Ym0WDMjoM4Hx/881369M15oulrX8ji3B0gLPF3C8LCcOXubTItNjUwrajjIqbEPgcKDphWezAr2C1ew6UVMCxCCLNWghwgCdIZ8xDIRggMOHRxlVK9mcDREGNLwQGHMoZiTOaQWPk5YBycLAmXHE2MFKpWanx97kxlQYLe4CqTQwwSwJvw3n2jPj2whjL3UsMEyiVM49MHZ5wNNLyVdqz1UipnNln7IKiUeLHuUnU27+jLfbJ8qiJigiCxfA8pGRl9Vnj2WZ0/5it98Xdru7BA+5Y6ZfrOjVa5DHQi5EvAwDCdLGD7mUn74zdWfE9eqfoaUY9eMUXiKOWz7iyFjdWB8iMhu1/l5xb4iI7Hrgmx2SsBIEi1DGLfPVEBm71Sy0vsc4A8B4uzoDnwi+E3b9Dr0yXLkHiy4OxcJohtwe15bDtybwOo4GZ1MDvhssn+4zNq4T0GB86s0OTsgbUCMOBy0+xzkC+kZDoKbALaZpMIEu00+BxgLHBchBkCx+8H/OLWAAAgAElEQVRgjixkdXcaHEB870FwUyGQCCwXDppt1QuvXaI3v/nVdPPGEX34w5+h/aN6tELuhGLsXTUJTFyuEXjm/8B9U3oBQ9oq3M2clgT0yBvC5DUMx7WRmhuMgKFR/vCNOf3JHUn6U/o8H05Gpb4aQYLuD0baaD5SjB+KN7nOEIH4hp0xve3FE5pw7gRbPqkVIQqDRIj47/g3dXYcTYjG62HHABJms3N678du0u489Z9Z3dxgw7ZS45g3Jz4rLJ73PTBzA1KmR9PRCA04GgLQ2G2cz/oEeQ6qsELc2KFhQGQCn3tEasAhcTSgU5ctFX5JSNnM4ZM6NgYH5uegdAnNAcIkOV2yc0i8OD/jsRhIQTQE52QImRo1gkFTPdv0S0Iscl5MDlR1UioBcO+wTy+aqDZNBT5fXvo9emZ2Tk+mexlJbskkiWeLQhXA7GJJt47mHBKb8vKc3M8l4Ep5Q2gnSchTPMieJzQ8NB0BKDVzLI4qafBXCFkUsdeFmGg/b5ZVHYR7DiQbMFgNUsgCpH2u93r0MiRGShU5xle1VEwYh216hQir7IiBUPUhsxi4AxlI6Uf+wb9aorYCC68GfLbl0icfqFmhBA5wE9xZW+NDC58D0RzkoxvAVEZ9JDVCRcke+xyk4MAEhy0OqjKisJP5HDD2LewC3uE8B5YESSMtpK3q6NjoMAbUVpCiURKt0PRhrcca8F0vqzmwd7G+AAnM+HWT/ZBTGhQBW0H+sGHuO/x+/7UdetObXkW7t4/pd/7g03R8fBrqhnc5kF19EjwTAB19586EvumS+FqIMDNik60wTUIjSHDZFO111ET40DMzzmvQluiIe7yb09dlYZJnmgACq7bNLSoXShgxQNlAD6DsZ7TxDVsjeucjE9palxZlXQwkpBlJVbtgqAR9w0lrsp1kOpR2nvgqTA13aJGArlrUSYFh5wSNBwW875m1NYDAQCKYGiQsMrSpWgKo8s3nANOCQyI0Aqzi17LjyGDIBcYwD43zh6YAFUltLqw5UHBgQ2JTBhHnTTA/h+F4wNoAdlJEcwAfo4E4Rlr6ZIQ3DqHBqLQJknipnqCpKCwNKJfW1i0ueMk9wz49MO5x1ksDKMYHsS43Ty/oyVmGNzlGwdUQ+3GkSMqzwWtvHp1m/LXKR4tz5mT3OfnyOQIIJvRYi8DmqCLkYTqHo2LpiQogXIjDqX6sjyBPww9NuYNVmDuXSN8v2uoCLtKlzL1zpS+aJDPZRb5qDiSYfCmxuHo0QyVQPE8KZPTWd/+fS6jjMKjcsuJBDmWcjGmuPge1CSljwIKAKKE5AHoXcFD5HKTvgdDWVHMAktufZxIJJQcKmoMt+Eucn3M0RFuYiGgORmxW4NoITqLknFlgVuAETi2aAwzLHBKxabDjlUwIeBbMZgZbpiavSW+aQkz5ba3dSjWqjcHBd7+Kjg5O6IO/9edcmwIfdpjqgHq9YCofufqYHlob0juvTbkmgYgv1RCowGe+7QSlOIxWt2svkPxhPz5b0m88M6PPHDUX4IqY3NcAIBigS5mrZy5eMJa0CGImsBVTUJGgdhxg1Hj4iVdMaWOCkrZ2ZYhBQnVj0QVgkNan3voW8urGm2bmjeUFfeCxXfrMrbr5qRNIsGjK5Ex6wFu631kJaMMmVnXOpo+QRKwPfA7Y/AQnReRHgM+BOimK5mDEOROMiSJVMgS/fQf8gb9RsyWkbFZTg/k5mNPWkJMxiZ+DCF/kQ4CzpAAB42eS+8CZGrjuA0BKFSppS2L03HSePD15WWcA655Bn+4fARyIrRPjFcAtABGGhc8fn9NtV8EzbInxewhKlENOiDEwfn0BztO35lXytNK42cwQgRhZMO+nwGvYwnc68RkXFp0e7yn2u0FDgPYBDpvYAp4Bf4TPnY2n9nxH/pm9xJgatbGNnM4hDyjQzAtHA7pvKBcx9MkaOB19yKviBiPpxuuf4LDoNsKq2prs8FUue2/68f/DrY3YmfwmIkkFRyvA0/V00aiSBsBA7D/7HMxP6ehMkpPkPv1ljwXxpSmCN+Dxf0InF+ch22LuHclzAM3BBQtDi8MudBE0B3BINLNCyryrRZZQRgCbg+NTqcSonxxg5YRPU7ifE91BSKhW1yqNBYs8WyDTn7RbSm9t76eadT9uEMz91y7RW97yKB0ezOkDv/Fn7MWdW+uuQAHvdjE3ABT9yLUp3b+m6i6/OKGao8xCfWSi23J12Y2PJC5D73v6mD4HDchdfJ5Pc0MKEEo0zUtRSDzkp8QCUIsHiWASKvTt3j8e0P/4qg3amKgygH+sQIIkPLA0y9Jxb22detMN6SrDnAACdvcX9O8/eZOOTq18dTWyEkhI55ubvxc8XUECJhw9q0BGIhhGbBqALwKfl+BzIOAA/4MgYLOCOh+yNkHrLZwgWoEFFrIyip7DgAD+jZTNuGRwbn6lYWgrkAvBnIslQdNYcibogYRNH5qDEw2VNM1Rur+8ry10bHP3AIvBwbhKfQ8NAsYHQWxA+5nTC/ryaZVKPNuPAYSwMfIPX+gMf8NRe09r5nQZs58SxpS9zTsn99y6dD3euXlhDTZCOHW+Ja7NYD9lmLcHCFELzwYU+IY6tiPHVLWA6oeTmxEeeXA0oMuwQyo4kL3SWXrzrYotznxpGhyPRRzbZbrTJvwjfME08IFMigJ4Kiwll5YewaywjmiFkwUdWChjHvgw8cIhETd8AwclQkDFR9jtL61PGOntz+bskBiYZWJzh1CC7Wlrfczqx31mCNVMc4TEZgWEP2lFSb9nNZDAkRbQHAzoQBM4lUJlMMbK5wBjjytKpoyemREQ7XJJe3PUhIgxp6W4TufA47XNqy6JvEYvvE98Dg73Z5znAKGmcvjLR4977YDum0AC2njd5ojedGUanGW4lpjRDo9Xbjk2HwMJ6ffVK0uCrHr/0zP69LGEhfIh0FC0rsykbf6rtFN61u9tUUjqD03r6M0xpsjNgYSXTIf0U6/coHVg6H7d3CDJTRQ0DEbU39wWOhj0s87GMq8l/cmTB/Sfv7Qv5JAw0EaQoDejIkDShWvzRfDg1zMpHrvmOQhJkAC8g+ZABbXVURgi4VFVjh1hi6NBj2bIyqjnYU2BLBwSzRSUZmXEGPAdp2zmEu0CSOCbIEmWxBQCkwVKRxs4YDrtY63zxrBUeGYFnq4Zfrun36drCg7wt/Ep0BLGg15unC7przjjoQp8fb+mGmdfhXxeEllz2WloPg9dCLac4O4fDipcQSCu0rbJg5itLQkXRVwu04+1HQEEeyjR1LEGIZl306z9GIpsdoV16Gp64CMHJ/TRkLZHWkfBNLbetOEXFiRs2CGRHX6OYQWTTbHvmT288cck1XLkMEZL2h5LtAKKdyBaoWljwcwvO7PC8Vk5hATTRfW7S+B6mgRpgXK47qDY4RZ50+MkGfBRQJGW/RPc1iuHqHRc+BvOiEjPjIOMJEh5+74wVym8BM1Bnw5n8DmI83T7TH6sgkTqT/gcIAlSwSHRky6IGWAFwAO+Gz70EUpMSwzlwGCNTm38WKMX3rvNPgdHB3P6vT/4LO27aIWwFhkKxm+ejZUItMknYdrv04+/YEo7o9gYleADCb9zszCNm9jPqt/wHjQvH3xmRo8diBbGf9BGk6owyyBWeaE7HwxP+ltf7nW/FkVBWrjVeABibb9me0w/9NIJraEwJm6TPjso2x/0hj3dot54LCAwIOAEYSpAOJ5d0C9/4gbdPNZzugpIaBAgNl8Wbg1rm4IQDxJQrRWM2zQHYPaIajA/BBbUwwHnMIDPgR1uaBLgnAZtgoHrNU2CJGYLEX1oC9EK7ASpSyWFnZx/AQAICkDpdzwflI4e9lkLwUnY4Dul7zUB75iv1hfF1gk25hcMJd08A2zdE4AtY/Y3FkRPn8VFyFIaC3zUAYRqvTV/hh5ImFHAT49NUPItNjYPdjkiNgZoFPz9sUj/XRqNGEHcEjudoyx44RwhsiRLf+557CG0R10/jf5QKwAD668TQHCudS+CBmEYnyt/EUtxkNxDnRkiM9GI3xigcOeb9zLVIOC5rTHSJ0ttBYCDdHH84ud8DoxIa6iWHRL7tDNZ4wOAaIXZxXktlDFMFqGJXJVRwYGGMqJdC4nzpIMFm47E5wBjh1mktHfoH4eRQxnZmfKM6zE02WIxdoyFoxVO8tEKNnasEcDBBuyo5xccVok0wQA5fjMt54Q3deQOFuZx7Z5tejN8Do5OGBzs7c/SC2DVdiIoTRVqXzeZHnI3QIzpW7cn9G2XxyFxUNWZRShUwp/j/FWFnIZAmvclnvkvt+b0kTvzmuNc14NbAwlfI4DgabTEy7I2QBfSl449B86w7n/j6hr97YfXaDBUnwR+EcxewcFwTL31TV1WWQCEe6lqULqJDsKSPvWlY/rg53aZoYclUwbaydSQ1FPQEdnIaiaTaI0ysK/CNFaLQtTsa8imigqMektnswJnQzQnRYkkwO2e6znoZzwWKj49lTPN/k4AHwhlhGBQQcw+BxD6psHMOCTClo8+2blRtQkAB4hoQHvx3OqU2wQSsL9Xej26NpL5Gg14kIBnnjlb0nUORWy6qlW3f+wp36Rz9lEVAsjvgAvUsYafVyOPtYBdz2K47BRMDLWz2rnh+pyRE2HCHpz13zh7ZFPbqp1sAghFQGAIqnamuk6m7Ljom5bmK7j1gmGf7lUTgxfsdW24O+4uh5A/nx7ERRee5D7BNOg1CB4cIJQRN97cQtmWwA5vZoUDRqJyI1EWVfsXQhlRiwFEe8g+B2jd4uQdeeoMAA7E5wCFmk4CWymhVGgOJM+B+Bw0ATuo7BB9AO0Eqk9KDXS5s5qY8w6NQ4Rtss/BkkMfc5EWnkRAvJz6+RzPizMlgIJ/D71F6lZH66ZaMn7A4ODNj9Lx0Qn97u99hu7sH+toXa8Z3uFLevqf2TG1QNPhRqC/47lLgz793ResE5yE5HeXwpOXrTI1hH5ccSGeK8d26+71iD53sKD33zyO/D1yQ5Jd6f7h/ld5oXvT/KRnPjl2fbdaBLSdA2c4Z2+/f0rf+qJxSKZkogAq+d7GpkQv2Mc4TbgOxjkY8Nh8fka/9Imb9MxRUtmOB18WQ+l87e/c956R1YVDfYOM2ZlwY80BHBI9OBj16WR+Rls7G3Rxfk6ns4WEMroS7QAH2KMTgAjNJ4CwSNYcoLAXfBVgtkRIpaVx1sRL0ESwlgB9ctQEwAHqOUhIJfslDDXbYpKfwzPh2nwD+PJimGin16MXDNCPYj7lQrx2+n9uLJb0jCtf3hC4yI3beWkDCODxyO+C0uiVQHLjy4y57agwIAGIAslVGLb2WspjmtpljlHTchGtD6Vcd8BMqo5HsqwSXfL69Ijg97p0wMieTy+3tXHdhbbAt+Gz3kZsKnebdkdkZ9Cnh8ay8+KkKJ9Ie6t/R0NMQIKpiMLZ1IfNxIkO7P0YIGjWQJRt5jwHmrkuUFyyUqY5gH0dGQxTs0KMUsQj99JkjZH8HUQrqC3eP2ddQKihXdzWUcOAays0qC0x2QmDA4lWaNIcMINXcIBwmOOTUz4k/pOGP4rPAZLOSG2F1I8gJSKADiRNsgRO9jvMC2kdB6YBtwgqa+XA6osvuHeb3vyWR2k+W9Bvfehx2j+cBX8Dz5h9bvGwltoQa13cQK1LML2cLDUCsv9+y/YaffuOOGVWZgJphcfswjejvmtx2DLi3cU5vferh3TEGfCee2n+fIKE9HZSE47ui6IALdzsmD7t8Lv92hr06CdfukEPXR5JtkXkFMbawzGRQbc8LMAyWU/fF3Nu6C6X9NmvHtMHntgNDMEz4lW1CCaU/Fow7WQiHyr6iMcZVKYa8miRCWgHTB/RBMhzgM/Xf9PDLMi/8Nm/YsBgjA9hi1i/hWUaBG9gcIDESAoY4OcwHrAZg00ZF+ZzIAWgGJBoiCBSLzPQYGeaGBykc83x+JQ3eF+TS9Ac9KE50EuSmRccDdw6F7NCWCmNZoiV+Wkv8jf4XFDD82Ar7QzWC5coXL4AEOQI5s+hvApfgwxhZrrmOeqzTFMmhJRAfS85M0F+Nsp69EcGkajX482d6kvXU4CQnj28EwAAam1oFdCm/sJvK/OoWLJ5Hnc3Sogp50EQzpDyH+btufBq21O34NGaGABMQELYZtMg4CWYFZDFkKMVPDhwKMUWiz342SFxyKGJCGVs+kBzIGYF8fiXDIllZxiUm0bkBNR3HCEAFaF68abMGP0ifTJ8DrxZIfec0DmyNWq0AsaieQ5qTF4xKIgQDowg5F1ETig6Ls3XwAFqWnB2R7ehEMYoEV36pOGB2KirlzfpbW99lJ0zf/39n+T0yTW1kiMAz0h8P6kDoxGZ1xCVis5sD/r0Y9emtOGQuUkki7I2/pPVJOiAbY1PLoh+9a+O6IvOe7rTIV3xoa8VSMD0PP+IhLVOumRuyE3J1il950WTIf30qzdpDarG/gX1+gPqb25JOlVHwOxUlzsABg70x5OTc/rZ/3adDrEhuJno7yLEGoSFG3QqJHPz6WfMERFtur5yIaK4CeO2j8gEo6/XvOERNh888YkvVSGPDA56Yn7QPpF4CevBYYp6FlHPwRwSDZSwkyISL7loBYADODlbZIpleLTy0jlNUhcZijXbgUMiJxgD2FOY7QAC2tk7J7qe0VJERYZ4IfPcLgIItuC69+CtnE22RzRfXBQK7clsJDxXeDDLeOcXYaDSRhCLRQMWkvK66WMXkfSZWnvJA2ujPk24don8ANMaNEq5jx8CaMLSZ7eylRo48C2VJE05ZNGOYWu/+gCucNAPft1kyGZx/E9TgLgmLK25jsepptkh1c3BjzjlMQzYrAnwEZgYkB0Rt3sBB0iaUZ+0MRw0cEXTJ8MDFqGMTfYeFF7aWZ9wi0iCJNEKcft8Q9CvpgOEVeL2fSElnj3zgHNiwvkMHCDHAWpDNG0dxo4iUCNEK8xOI2GdY4ocaWGhjMd1Jzo5PEqYms0N4MODg3Au1abUBBDsWfP8Bzh461sepcXZBX3gPz5Gh8dVhkS3j8E7m2/xHiwUaDcHFgxd59JV/7XNNfpbl0WDUmNH5kmvqtyKhVThe2KQ1peXRB/dO6Hf261i8VfRIHhG1PWAtTGnru345zxDi6ZnjCqz9quABFvnVAh925UxvePlG+JVvzGFp5zY0/XB1I4Zxly4AX3yLw/od76wH10e+YQ2gISIBlIVZWExeY0agEKUG0PbAMnA4UxMDQs2K2xtT/m7F730HpofntLNv9rjMz8/OqGD/RlrAOwDzQGnbOY8CsJAJ1OELZ5zYjheQ0QZTcesmQjgAIBEwyctBTSqRSIfA+z29olyAChflUtbrDZJQRTMCvf0+pJmnn9UQKdmDnxz+3xJ1z2Tz8CAVGNYj7ySREmeB4nuH8XjzkJtmVNoV1STV/JZMFMwt+VoKc2DcDdnCe+kfL1LOzazTWgRdJ6WPdJrC+wMednA2gOsr9enp502AoPcCKu1Np5ml3hjf3y2WsCSUET9oZdBS66WxFQz5+VQEK+FLLQ2yjDaRJMQ8bl3/NT/vTSzAgSyNJ4HCAwOxmM+PLgdAxyweqOwm/D4Z82BJkECIcpBlZAd/8H+TvsD2lpfYw9jiVYQ5OkPAsfeKgNDAqfpRMIwufAS1OUu7a/NhIWpRisAHMBkkRPUnikCHEDYoy9EIPjog3S6aB/+EutICQuTCPsc1BcF48PNpYk+FLPT1csb9JbvfjUzuA/99qdo985xUeUSMaBcv8mWKk+qDRDf43UPEqb9Hr3r3nW6NpZdtme8U5n3ko4px/mX6A9Pn1zQLz99TLPEuWsVkODH0YmRdDiQXdqJDk5ySnh1EvtdjU4Kd70mR7L0bI17Pfrpl2/RQ/dMqLex7hIpWeP5Ak6iVbDdq0Y2P7mgn/lv12mOWFP9nIcztJovQgGPBrrBP5ouEzWQgNvSsM8pcbGFL37ZNbrv/h3msJN10TDOD07ZgfDGU3foS088LdY6l5UR4Fq2Zqng4Cxk0MNtEzUexLlRCuL0hz0aDZCgCeGNgms5LBIOiQo0Ku2ZY/Z+8hmhYz9foh5d7fW1iq0suJT8lr5QAGp3uaQbuOHqfnjHRf7K6LnC3BGpVQ7PGYCg8v1QzQs4x5iW+IPFcfm5M5ETD/2mnPFJI2UAonx9hYNo9ILESXAIx7rAFJWqz1KAgDlwyuyUL+RAdHTdb2IkMfVbpItNJ3qzhR+VvMPuGQw4gRaf4iiHiAs1V5kZltGpYPzpD6N1WDY9vyw33/2Pf3bJJZvVkY4Pk7ulG4Lmwkusmh+GPAfpPP3hZ83BVMABfA4sz4Ex91TaYYORNAnJS7gSYuHGgz6RRwFRFpyjQQsvmfOHHLg48QyHMk5EcwBwAGfBkkDC3KVolIADlHhuypCI/uCQiKJRuKkcIi1saezqqNjkPYn5Xb2ySW9+06vZxvp7v/8ZurV7VFMZsxlZqcBrE4wwUpSa3jbMCdKjSfw7NTm8fDqi7706EVWoowsBadUAfEJXh6OFOauz4uKC6AM3ZvS543otjFUBwgp8RFTEK7zgzlSnt9A2M3Fn4i29mLPJNwGEnFB9YG1I/+hbXkjTqRQdCnWddFNCZjUdRHShTWlzSfTBx3fp8WeOw5AjgJAIIz+vCJgaKTSsGA+vRYtgTMzoy1SpWFuYGeBECFPAq7/xJXQyW9CXn7zO5w1Fm0TvKnUacENEdIJE02ixJzgfatE1mA45vFELO4FGRgwOBlKYTfP0c/Kkc4CDxDRoty5/I7QFSddYbfJb/R5dJdEcGM2ExGGK2m9De4DUz24dsw5pnvlagk73Dq8f/p8WefLbgsvOsTMjswam4KgY7XeivQ1ahRb7vE6t0xnEXokjc+BktQtVSC6kZw7zREVi5MDom7NuBjx5euUEWehiJd+CvGTPNWFnzjQInRhJQXPAw0SuDiJ6+dqANJhBQGWy5zX+nwAEayucM/3dy4ugjUD7P/Evfmm5d2ufa6dbsZLQiT7JeQ5MwOK23pDnAB2zz4GBg9k8oNOAbBMCgKMJUjlDhQcTR1MIHtrf4HLTGq3QYMc2JgN/BiRBOjoRzUETTYBxwKyAOUNzsAg+CnkRw3Uh2KwAzUEZHBgtov+SfRf3tcuX1ulvv/Xr6XRxTr/z+5+mXYCDFupivYzSrrfhFitCugZzz3ig95bLE/q6jbiKmkeisSahIr8cSPjM4Rn95q1ZEfzJGnW/7ptttOsbXVR7NgMGNl1PtT7L2j9jTA3OefZYdLhrzFc6N0Hih7IGrc4rrtDrH9xWkObAW0ioJG/wcoYbrbSY0t/12wv6hT+7waYx+1TpVp39OFmQdH2KzCq59IrTWlpXwuZbjcFoC3JfMhgOWKBjBl//LQ/zjf7zj39VwIEulgh0C2WUPmCiEJ8DnDBNvDSS7/As6B1mC06prGmcGZDARIG8A5w8KaEyBxDstwjoOcmAddns9emqAgV/geG+deFu05JuIT4/Q3si8CuaqNFnBiTgGfbydx+MEeYFrgvjPgAINsPIXq3zTM9lThvFY8rRsd5qVzlPnDUycezJv69JrHAJHA8rgOD8JKL56x9Se6OmQiiceM/x4kfsosYU7ZqLFA8d+Uh71QeiB4Z9ugfhzoXFjM6gat+jcelYAu5Pxhx8Ocwf5u/8859fYiNgfzvF7RqqfacyYjs8JxIakoUyNnFO5Aq4bA6J0BxwvvB4NoHQYVbQ9MmIVkBWwqZFwkQ3NEMihzJqeuF0rWzOOHhwvEQCFQMHzB4LQgiRFtua+hmaBl+VMRdahORKcGAEY4U/RhdBhXBKqcdQ98TY2Vmnt7751QwXf+u3P0W399rBQWDowYNdGs4ya3cbjDB6YeAIrfmh+6a0WXD6sb6DBiNKkBSHQZ6eL+mXr8/oKWcjLp2bVUCCMaWu7/C6dNgoB7w7Hm+xZ5cObq0Rn8+oxFidQDABgf/uDAd0eTqkd7/uPtqeShVRvxdV1kX5NpRwd1zLazsgON/7pzfo+mGcEC1yhnO0k2O4of9EiNUEWfJ7k9Bg736bnQIuu5k98nX3s1/CV79wQ50IeyzQ2SFRaYw1BzD7IfGSr+fASZAkhwHal2RMA5qfoFLjBdekgRYi5EzIgCqeRrDdyqTCXHjQsmD4JzxGriCigDVZ8pQHCfhmr7ek3QtJgsRajwzV5QBCsBoZME3e6/ekomM4H3zxMWfrqheOsEoiYCo2GR+YGATUf6vOorUvz5h5uMuBCmF37uHasdUBmnlPKvBW4b65qC47DwhxrH9KjKEOEBh3e14SMdTKFNvEa7oAgnSM0Mm/dNwntvh2AAlBe2oMzZ8jG79rJ6IxyJF3/bOfi7gLFm52fMJFUjCGncmYC5MgWuEoTcmZDJDBwRpitXt0Rx0SWc1VoAjY7XFbB4rfU7MCCN7bjPy7KDdtZgXY+dlTWQ8b3gk8TF9CpAVimM3noIkZARygCBQIE86U5sQUC9rqL4CD4JBodSGaOtA1QGVLS8oCs429srOzweAAdSx+/QN/Rnv73cGBLS8TrS5Czhvcq9r5MXd+c0N//fqIvuMqQlObHWv4XQMl/mbluvjEwSk7JnY1V3YV+F2YTfpMV01CU2htqd9hBxqwd5l2JVlyY4U62yrsA5dF11zz3/niLfq2hy/VUAmbGJwpNtIimIDW0AsTuH/05D595MsHGiZZzc40CVE63WSO4c8me2ZhwWQvyvO3stDBTILnkcwoaBPk3ENzwOlzAzggQlbGxeKCzQpi5lpKdUhf7ElTO89RJlrPDjQVfGlaoHx2IgBL81DtgPDh6p1N6tGOhvoGXwKraKmOoPuqOYiaTsx5abep86rfkpBmN5j3HBBYLulwtqgcjp2GYAYNkke4qumJDY82EiRhsnl2QNz62qD7o/xG1+MEEMRJ7zLloFOgi2Jcstl1wV+tc/43AwVhGrn5NDXbYGErPssAACAASURBVEZo42XW1QsGyLopK2POyTUep1/wuSmYWNECfjNdUjAteG3VD/6zn6vWT68VOEwoWjK+uKBRr89qfw6JMebiiVd3ED4Hl6cTpq9dBQfBdpaABEx0MhAzBDQHHK3gbvUGErgAkgrRLYCDyYidERG/680Qvkw1VGove/gedlqC8wq0EpwBrfThsBHRHDA4OI4rSua8udeQwGnqNAe6c5I6uaBm0/5hYhCHR3kJIaMY89ve9g10eWedfu19n6SDQ0mC9Gw+VQ2Eeisl/wT/PfbuHVen9JC6zZa8lQ0cMPgI8FOJl7teEjS0/+7pY7ruAGaX+T1vIEH3q20MyaWg03Z4lXGXFyJG36J+gMfB9lBCnaQs+YB+4nX30hb7IjjWxhNTxzeLbsggM9/d7TsL+refvEkn5whnq2Yu/gji8FJbL/dF2Ho/Dj8ou1Enc/TAo+yLYefKuF48V0QYQHMAniVcs0eTKYAATAgw6QltTqdjYiCg2RARDjdB1lUNR2bAhgc5NYKYVnhMuobsPyEdZNVQ1WVI7oYbSK6mfZvfAY8F/5NQETroLelWPWZNp1EtcIlWU6dPa78CCeqHoEuGCrjgP34brG1oEBDNYPsgdT7wazGvYG2cbeq5pjPHPCbR7jY5NXrymoyGnBEXchNak/TjaxOcL+o+UG1n1YYVhKkeMSOHiFc0gKCVtAYBFcerClp6BGZ5uwQoOdrjXjvI44OzbWGCgZKNJzrtM9PSD/5T0SB4guFEQpc22eZ36ys3ae9wVlPL+42DTZR9DnrqkJiJ3bVjxQ4lAxReQrSC+ByUnABNs42KkhtrqCip4CCjtwFIQB33Kzub9K3f+BB95jNP01efvsPqNHyYcTv+YoINAnqLQxmR+jk2K9iaepDgwYFVlLSaCmEPGnI8CEBI0rP2enTflS3W2hwczNpo9Tn5PXeLxiECkWGdtgc9+mGYF6CedOqIHFDwICGnSXjiaEEfuDWraQ/aBDSfwRV8ElZemI7Oi0EzVejA6Mp21ZSctYPa8r6cw/KqIKJkU1WoJvTe+JJt+paXXKqF1hnjkltemWOJinpJcLX5xY/fpK8enIa4dzuzKsvK4Vk65GjkucyasqH1rHjRHpd9E3y+Cd8X5IHmMeJpcyijKxMdFYBS3oTUzJYEKaUxv5+Vg2BclKjMcMXHA4lttpeSzt3W0VIpGxkcIGGYS1SWazN1DE5JqC4KI8Ug83WJbe/xpeoA2oOEIjzJQYuQUkveZ0p6Ft6XaFlcg7E/QzX63FxzAKHtTDBv7/VYs8zT5GJ6Zb01a4Za8vb4NQZpmk9IygfC33ZBTCaV5bFd7Jt6Tkwop/uBOWz0+/TwqE8jVZ033S1sHEWaZRqsfo382MzEENCHggOE9hwdHNPsaM62PpgdTDXuNw2bcbUDOJBDIt6mKJPcBg7wPA4XQhnX18Y0bwAHNh44I77ikXvp615xjT7+2Ffpi1++RciPYJ/4niUOPBytoHY5XyehdhCRF141BwukT+a6EPLUqgABgCg9hrnaEisLvLt4ISJi88InoldNh/SmK2scjoUPkugws3G3b1PShW5TQaHFX37p+jF9xeXJt+e7AAQ5KyvqJVdYh67mhiaQYPOwZyrNmQqHlol20SLgmUujYdgPZowo3rU5oh997X20pmGoIZRC10AuU80gwZbrPz9xh/74q4fVdhrXUebAgqC0FSkodhqDdPpZQdjh5siVQ+0ykxkHAzLNIOjRKIo7cWIc9TngtWO7vNBWylxZc4Dfqvw74qvgRGvTlgIcbFGPoE7Hcz4pnDHf/eWS8L/0dtYGEtKzkwMInvxFaIoWAbzwNIR9xltpwhUaBGgSch8ZW6pXy4ADt5c1sKET5ItIkrclN3dZn7KaHD8jvT78zPz5w9/RR3+szAv1n1PglGM7Kc+zv7Or4rXiakpcgTWFR6M11DbxHZJtPTTqhwJf/EI6CW8ebnKcVlq1+QRzgwcIULlBczCCKv/OMc21/gH6hOPP0dEsVFnDWKDCr8BBlZWwtAjTIRIySeElmBUQylhENSikpOAA6ZPhc9CknoGZYGttTNO1IT3w4FX6xONfzt5Y7XYHr2gAChAp1G4wdZQ+ABDe5wCppaXIUjV6AwnCwJDnIT83aBDgEOqSp4Zuoc347/GpmRyI6HsvT+hlG4PIfnWh+SR4jkpJ/l3+yk0B/7y1WNJ7nz6iRUHId53x8wYSOmoRPGtsGzOvj24ks6nnACCgkuZmpsQtQnLf8cor9PJrG8IfUps5SyTsjKNvz3UdwX3pxpx+5VO3I40efBAGQZC1+KL4ebr99ul0mUY6mBuCIExNEgYSmg5KJu13JDSTd3nYyR5xJmusmpMzLOwjJluPCEGl2q0lzDJqStD/hnBGIjokgAO5WEQfb7rNzK8pHLYNKGB+RzCvqBTxoDZMXf9xAnNNR0zeVNyujZetyu6wJ/E2LdnHDFFw7Cvj8OsQIY9pB+C7ifaAQaKekNqaZNag5PgYS/OOi1dYoPQyElrL8NCd/oAeHImmqraeZrpyzrHCIxIPyyQ1th0HBuQ/+E/fsxQHHgEH4+mIju4c0+xYM91pr2gTzj5Hh3POJgZnkCuoT9CXFMSiNi8vDMAB6hnAM3hvdsIEWAQHCAuyaIXTc9o/PeVnvU+CX1uxx47ZBoVDgJwLPbUz5vYAtwdoMTACjlZoBAeiOVjXsQMc1LMNykywVMjngMgNdnJ0a2fjQOKW04u8TwTYTVMK6rYD92x/51lwtkqid9+3Tpd89TCo2hQg8FwNccJG7VCtZ7b4+g93T+mjh1UGyNwY2wSuvbMqSMiA6eISddEkpAc3okH9wye3CUJOTxxrA9MriD7UpEXAPHYS7YHv+9F7p/T9r763cjxLHAaEDqWCYfWx1H/VmZ3Nz+nffuwG3TlJa5PoW/q+0Ul9MRPzATed8cuJ/I18Bg01QfhRZqRImyYhMMFE7nt68EuhWtrKZ9durLpXbHpzY0o1kdYWPMw3NcmUnQ8DizzmXo+OkHjNlbcvE2QhkqEgVRm8NDAAlHQGn+PxhH3MnzzQMECCaUgb1deqP61oXSFI5qWm3DP5oS+RUTz6hBsuh6v2JbRRp2Hgxy4q0CKEkFEAAdjRLuRqZiSYSqyUtr3vAlOzWzJ1L67G9yw1nbmxyBGqy1XxrBF0c7nfpwfHfc6PwKfJr32UjbMavICEqt0KJGrJbz47ChCw0AIOxnS4d0TzWZUGN4TyGANEBbXjU9oeSnpLOCSeIJaYfXlkydIPaivACVA0BwIOIuYZsy2uC7E+HnMSpAN2jhQ1IGenSkKA8PcljlYAODjlqoxoHmMxx6CIkQMIrYtnPidkKoEDXTGAA2gaIPDZn6GCc9E00R9yM2DNUUI1mB0S1Ss0FWnBpmh8asRvvRE0MINn8xMY25Vhn/0PoLVmVauaFgAQhPnKP0JudkagVfyMgQQwmZ976pj2lTE1jev5AgmrrEUbSPCUnRuvCRqhv/onG1mij5kg8W/ZOq+5yIXcfLbHA/r7r79G6xryKEzCnTHeL+W06cB53+RZZA58/2O36AmXBpv3OzmsTQDB00cYgTobSydGJ/xH1ufCIhtyaxF9l2gTatgr0STYPFKglwMIPI9kw+1PqQsT7wTAwYapzfU8mCXcHj1GJdiuNujM5SJsQ0Fim9YipRGYNHdPFuyMHdI762RKWglw0XmBZGqC0XV4txoFGUcdgvssjXxBcWYbVO9F2WehpPgDKITESRYyivBVjmZREqydZcsZkDaWEE0NIPAX5Ytx7rzm7gi+hfseuEpnizO6/cydGjiw53hr3EsbvR49NBrQdKC8p6ixlQnV/EbcQEU3rnALJgYDBzArHCs4iOjfESRUOptbUzq9dUC39484A5f9LDa6WHWGUEaAA6utYFUcZZAxSsbbojkYcwU1zu7oViENx4fmAOWmEfKE0ESEEPoPhLY/NDArwCER3+7P5iF9ss015Z3QBiBDIqoyIszT+zCnRIEQm7XRgPaOT2pOlx7UMEAwJ8UGxPnfy9yA9Xt0MqI3Xh6TRQwZSMBv/SWcFiNqinM6uAQnSKv8CzeOV/IhaAMKq2oRcge0+F0Hc4OdySII0Marm07M9kq3sQAQWFVanXyuHzIaEKjW06lnKGD83/vyHXr1C7ciD3RxX1aGoPvSg/u8qmPDOphqY0n0J3+xT3/4JbjP1T/8mIHEBp5oADG0kDgsBjFQMDUEQVjyS+AcyEKEpk0wfpl12ks8s619z6jtvRzz5n6gQXONs7pb12IMXynsj/c5YM1atYaz3pIOWwq91VdcBl46Eznh7suF21k5PLugowXyOxCtJQvE/NERpZ8/TMAnOgeHIzvn+lgVLOTOhtcghAsKSf4cZLDNfeAvBa0mm8cQEsyOiWLaXfXjeZ8XrGjJr8kq7aY05keFhF3f8B2vIGR6/PQf/wUDBf9hPX1hGthfhEDey34JcZkCD3ZzlxGZW8K88N1P/q+/uoTm4Eg1B01e1EOYCa5scsWsvWf2aO/2AZsMuHF/Y9HOJM+BaA725iesssppGCDI8To0B9PJmOYnZ3RwWk885MnBfA4glA+OTzi3f9MNELZajAX93EGeB01WlMi6oIITzcGIw344gVOiFvXMCREW0zHKXp/R3GWZzGUfA5F6rQWQethv/ke1+z5PwioE+KyeXRK9dWdCr9zwrEaSANkBBePzkQ3oL02Cgll85M4p/fF+s3khN9Y2kMCr9CzVeY1r1AIU6vecqrWUnux2GoSeswGmcjp3cDnvAbR1Shrelu35xNddndA7H71XziIjO70BqHQz3ME+CsGBhAtvyHVY7ZV/+cyMfuVxlIDOV4TsChKkfxeR4MBAlFPBbUTKe+w5vgXa+/w85qArnXMyzLh9VGr1WOCmzLqL5s5AEoQXtGxTV2kW/QCDWcQC9g1mhSN3rksMukiThcRJwnfzp8VOL0Iad+dSyRKSZTSQVPWplPdAwdMVQALKdERCrMsB1cmEm2gHpmR9BO2MkWry7tpwQFN232//QODCQRX5fVaHB/X2+Vy0d1t7omvfGO9rvuMV7MT/mY98PgAExJ748OO0A9/+Wq/HQOEyUodDviSg3nhJKrPTBWLzzD/839+/PN6HQ2JsVkgXYQBNwFW5oRzsHtHZYsFxx4cHCF+rT3+DoxUEHOD2DbNCyclQbklVtAKDA39ynfMJyIJ9CLjctCRBglmh6QNwAP8Hi1ZYODCRaJC4GWgODBywQ2IBeWLcyN4FcDA7OeNqmG3wGm3BxGCgSNkd9wttSQUWKtttt6NwF1SbeQWM5UfvmdJV84q3g54QBN+OcCs14nM3KnyFwly/fGNG10+b96Y06i6HMAVtzxlo0E1oG0MJKNh+WaIltBMxWObs+ZmnmoRtxHcjbEsbKNHCztqQ/uE3XWNvbm6+3w9Cnkujqf+IaPgte4obhNL43uEZ/ezHn6HFmQKMZJyrCTdrQ4z4ZoCMQvdKWgKju6Kq1IOEyt/HVjU3ThbemaVPQYJtT9v+w+aLKwdWHI6c3LbVgVFLCuAxTAtR/LyOoa39iEIaQEIOKFjbMHceowhKWJgeTTRDpRCKPIn/mzr1Gc3C90srgisl4xckSurOc1bRJvBYchJVM+/CYTztuuRizk9eNKfX97Pw4+QdDd79ZREffkmiMrqCgtA/aGg4oNf8zVfQcnFBn/rI5yVcV7P/Ni132heehWZrG/mJ4EPXX3IEVADKSvQGFkwO4bgdXxDdwqUe1oEf/19+cTk3h8SKikJDaGcIcHBF6s4f7h7RQhNNoPHFySkdH1UZ8jAA+ByY5gA+B6nmIHW/YZ8DmBUAOLTKWIn0OG8BaisM+xx9wPb8hp3g9MkcrSApRgEO8OFbcIZZjBUcIH0yJ2RSxsmi2/WDea6PRxw1AXCA/OYmoJq0MGhvrslbzCRjc/VunqEtDffsfhSf3ZPrvR79Pfgf5NIrJ+pOuU1WZGsqVpyr24sL+nfXjxkorMBHHAV2mwfWCT401+7dpqefufPcaRZWMDek82sDCCJIyvMzRg2whtBGFmwtAAEg4idfcy9d3RYtmXSgtkTeN4fg+GdNeBGITzo4Ob2g937sBt08FtUm933XIKE6MHwmEpOCMKf64S1pEtIVC/PUsot+mCUgg2GkIKsE9JhPFLYJzBYM2JsxccPzQhZXLkse72dp41wNbMlmNJ2ldN3YrHsaq9ZxGkf9JSFBtwcI9u/SfHH/Rrp0mYcAhEBmfo3CfrqR6j+fDUjAuk447h+OUXV87QGCXyOk5IefQmnd7HvMyLRm8XetQUiR46J3/+kCEFIZxCYGAwh//Hk6xf7paucuQPZ+sS/WlPfYgRGahQlnY1VfFN1J3AUWywuaL8U5FcZ020aOYiiyql6Pw0i2L4tZ4WD3kBFN9AG6PJ7TyRy3Z4CDIUcIgDh3WXMQC4gKrwrjQZ4D2O9nGq3QJOw54+EE0QpQ559y0ShWwxdmYBkSobICOOC6EAlx8SHV9wEOkBcBfgIAH+YUWWNMAAejIa2Nh5yfQXItxIMogQS0yQWjtFGAhBzxSiFt/SyXnHHxa/G5MujTj903CRksfZ9ZG2FibrD1fHJ2Rh+4NedQ1thYsdos2mYNcLC+PqZvf8NL6T/90ee06Fhz5rdOI9Dl74ram4STZziBL2f4s/1mTBpaOJjp2JnPkUOOiYPG3/ziS/S6UMApnmU/JLBwgI4bjekW+Pl9j92iz90WjaKZQVKnvG7CLSP8w7Cqqn05oF4M6Ys8r0vssTJt5MaZgoSc8Parl643dgQxUBJxJOvJKnoHKJCejRlthti6AJkmGm26gITfkGfh9JxOVBMUnWNaEsz3fKPMSPkwPqddYFiwJDpdXqiTuaejTidK6GlFRT96wSVvOuwzT6rrDuwgyVw8RSPnA3jtpr6bG6Ufj4/aCAKyYWq8t9Zp9yWonuz16N77L9N0c03BvJy3yw/usFlk76l99n+zM3q4N6NbT+8xkPGgNiv+cpo396CnwSbNaxEgoIGB8znYv30QO0w4NIsOjg5mbO+4NBGzwm0OZZQRSRKgOG8AvhfNwYjmCg6aNgWHcQeFlwwc4Mau+wPnwxQksKZhfcwExemWXfbCFCSAd4rmQHI07J+I1kOYS92REt6zEwUHyO5odOKZbekQY+NnWiHSKKUEEvA7RJ3lVPAM6G7oscs7Lx4P6e33yC20drPSL2s3yuAAp/BvSfTHd07pTw5OpWyt0UGXAbQw1PTnnUvr9KpX3U8veegKffGLt+jPHv8q7T9X2ShXAAkpkDCBYcfbO8FV9CKz4QyBbmIm1HbGo1BGOqXvnOB75eUJvePRe0J57XStBCTom65Bdlx0n//0xB79yVdgOY8ZYKpN6AYSmACi9g0wCoMVzUIOiOXOUJSauUHYpCHGaft8ltyXNVpPFs/2D/+VAGkfLih8wp5BtgE490XnxGipgDhXMSPmhHq61/A92DupXLxTvw+0Me4tQ6bHVE0UDdNrCZETh5YEq4Uc6/Y6IunYuoIE8G44IiIawY+nBBJMYIO0cTE5Rs0NJFIa9mmcMv3Emd6xqWi4te3SLyKKzkroZmaHV5DA61VveITWNkFR+sEProwpTLjc5ZJovj+nT/3Xv6SzFpN61ouxNMYMkIh40Q/+k/dkTycGv315i8ugAhyY5iBFl8ZDcFsfLc5osTjn0EdfW8GYoN9YMyvgBo48BznAY32Z5gA+B9AEwBHQh0qaX4LxPNSF2ORQRim85MGB7UNw9nLgAA6XeD69fwqzl9EgaxcAArQG7HPgSLcp5WjYfwAEbLCjPAZjDcpDs+Kb0Fk1rKaZVONfX7s+pu/cEQWkN5mAwVSFe+q61xDy2JeUrr9xa06fn4mmxJtLCvyxcYht7wA0fvu3vYw+/F+eYJPQc+2LYDReGmQqXAJwdWc+10YEwiwtgTIDMMaNgaMKl2/Cj8MLlqvTIf3U68UPQYRIPGL5Tmz3QqvMjajHruIVW3jsy0f0wc/tZafL5yah3bb9kYaq9j148jfeXIdt5oY2YRN8AjKN+5wjTQCBzVicMEpyhKTh05VvQ4+Fp9nr4UdpawMrCC9/LqGNW1Jb3pSf58bXpEnYm5+xELeVz4E5fLeG8uC6NinwKO0rl2KGeXmJfC+4zSb+CDbZplOdqzLEk0TIfI/Ggz4hhb+ZVdJLSVGTAACj4OBcnXGRvGoKkMGNVLfvrkKe30oX4y5AQZAB6huMJja3pzRBmmj7sdejF7/mfi5N/pVPXxfnSmUUR3DGP3K+grn1zQl8N9ZoGgX/nshcwwAhYSbskHhlS8wKt/ebEQtKqq6NObphdvuAnnrqdg0c2DzsQG6Px1x4CdEKJXBgQzJwgDoLB8endHKemDjcIoEAoDmAiWNAfdpzoYy5tQSjAuhA6CM0BwAfnJI1czLwLEwhKAoCrYFP4Zy23QQUzAchN55hB2s9GFCaqKXpHK7yG6b9NzbH9LqtpIfU9tkQeoX+wJh+8caMbi0u+FZlBAfgcLfmhjYhBPpAaOzz8rHbX6HxCHHrMyJ65X8l4WNML2jOdJL4D7QHoH3h8LFwrQ1DAxHgN/KPv/mFNIGrOqOU+HZXMSE5XUFzwHy46uMvb8zpl/78trCFDBNJC+blhE99qSo2YwAqvOf8E3JL3AYSAm8tKfRVg5m7pedMjrkxABxUl4oqHwtOiq0cJxgyzYISvQdUldxUh8ZMYoxIWHfQYNfWhojmZxe0z1f8PMH6s4R/jwZISOSLNOl7HaInIG5hxWBLhnjAVp12AQrWFTufo4xxT2opBIfSOJFWydJqkBcXU/BnH9KI9jZyIZF+IZIzHi1d5rlV+YwlbEJTi9K+wJQ8HNBr/6ZEMcBJERmMG7GIrXkLMPDj5ekkz9t1oSbLUoDA4OAywEGPDvYOa3GYwjWqFQM42Lq8yREN+7sHtA8/hYwKxOx+m+MRbWpthSZwgG44zwEcEkcDOppJuemMpkh4KDvf9DiVM95LzQrpxA0cmFnh4KSeIbFiPMjPgGiFdnAgrLe+pXaQsS8WdZGzUEJT0U2IPgsIW6BurMnbdtbokWldnxFUtk6TkJCCChSig/Ml/ftnZnSsRj0TBBLDK+NeRaVaI+6W0/mcaRCsn2Sp2y4T9jvGEYR85NpV8W42L3iE3yOh41FwI6sd5qwPArRQ/R79g9feRzsblcoyZxYIrtlqSJKohmpWT+2e0s8/dkMeK9wy+sk73ffU4IEKSUdEpb7kkXjVc882aRPsdlzy3/BnXfinCEzTHsABkc2NDsQZXeO8AppG5n7nqZrTJEh/CjQSgkrpqw0ch+OA8XJSpHPRsOpNP9qbNGpE2fmaj2xIlU+JiSGsVbInuACgWxz7i544ukkkQKyTtb3EEuFCh6g0nJM4I6L04ruwTLP14y9XbPbAPz3jvQhjvJAzuJkLi8wd5NJi3yW7xWsSwafzSQxuKR33hwN63d98JZ2fndOn/kiiGGoft4fp5UKoqmbVE2rD/hgQcs66TR5bvR/4J+8RDUZPoxUuW7QCHBJRNzyl3oqjTSZrDA4wiYO9I7o4P5eaDYcS+uhtq2glgIPFgjMkFngPTwbMzqdPPs4tlFs5IE+EVXK0wgwlmxt2dLmkyXBIm+xMec51HlKTiGcYG+MRmxaOOFohNivUd88IodR/jxbn5yGNaa4mQ5NPQr6/u6TepDEc1rdfntALxxWCT/tjU0tyBUnP1I2TC/rlm/NQfyEF4D6WuDPz84e+tOju+681SPBnMgCEyuIffDragBGOG5wTEQkUfyouY6rSNPkJ2v6xR6/Qi3bWo/A13rLMQoevvAYBESgHC/qZj9/gWxgLwcxBFYEbM3Frr31PSxqRem0DvwZN4ZHVeS2fBRlXJYhSMoou9Dpn9MkmEZF2kX+HAQT0yPzG37gToreLTbqUso6qXUlB0Io0j8cPFxc0yzgmhu0qaGsw9zGMBW7cFX3kd5Tnr2P2AtDTBtYsvY37NBwCYKv2/dlxJFZLWx9No0ccij5fABgJSLFsgHzhQl2fTGikkoMKz5iWPW1EQlgnY5kMS9lRTfzExjuTDfUbvPUH0/7rVIPw+B89SWcLFyauA2mSm3V+Xa1/ChCMfjsBBAxsSzUHh3uHtGD7et7LFd+vTdZo+/IGXSwuaG9XEibx5i6XXMcBddftg0UEONiAYx9KPM9PG2+QeH57ssahjKitcKTgoMR4LAkS+xzMTzi7I4Rd6Xk4JCIaAjUlAFRAXLmNxvsAB+ZzgLBH0If3SSjJKuk7x6wEINgml9J3dDE31ARIaTAdv4cjzw9dmZK6IARtjd35AhPWxDXBJ0Gd7Gy9vzg7p/ffntcKvpi6XW4ZyhTvQpvQLoBkpM8nSMiNwTNJWytbOw8MmsYPgHsJ1elyEj1VNajgsvbQxw+8/Aq97L71yq7srrw1rO8FEDsqCvjbn53Rz/zpMxzWhk8pQQv61YtqctNrCw2rzoUxKTst/u8c2baBhFYtgjZaj/mXcLCwRg4g8Bo4oJQKRqblcDMr7275F/UDSMLxSs+XvkeV2TunuStHtNFVuGmywGh33BczoNFtG0gIMkLbyvlFlIRobR66+Fk6DcQWO47zDf0CoAjRFXl+K+HC4rXgnwj/1jtvmLMOLHvG1XkdGMxkgfdlMTpOMVoN+BSkPDI/fsPfeDmdz8/oUx/9AmsSwucuAYKNyZtdSqYaTxJsvYAGwRwSe4MeHd4WzUH8kaW1zV+bjGlrZ4POIex3D1lz4IXHBez5d44kTJCjFUacUAi5Au4gfbI6/eRtgjATjGg0GNAxwIGrvmWLbJPDBsEhcUfLTcPBEODAiDaXiRA+BwAHKJq078wKgTEF4ugxoIHPAcZt9RVsnncNEno9ti+ZgExJ2gpBYxg+mVInGc/bdPfahEm/Rz96ZUqbGv9k9jXs1QAAIABJREFU5i13NqN9rv6IBcITR+f0wd15ySIswvtrABKMXnKJvDqtZ/pQsrS5W2EOJISzkTijeaFoz6wN+rSpmROzTmjuOsOOo+b4ph2/7cWX6LUv2pIzEDZQNUIFyVKdK+F+R/ML+n/+9Gk6dVwObbUBs+Cb4JIGldc5DxL8WpXe9eauiKGFGgjNZ4Dn4S4QMi+pnhIxe7/WNZAgaZ9CAqSw8RqVUeDA1RqmsFtmEjIPOqmaW/f0O9xYUWQLrgddmH/TOiO/wzATO27rltuX7BjdQDqBBOmgqO0KKxaUmD0OXcelMxtQqp6FSDuMdOXpGLC93tndb+Ewlehu0gxKfPI+p1RFmz4plucHTGEF0sTXBji2WbZKYcSIvldMFR2mgDGlpqWWwxxI/+/8859fQnPQH/bp4NYBnSXlMGNC6tGYwcEmgwKkWkYRjOijBw+loufHJ+zYB+0B7O7QHPiBSlxr9QE9IZQRVRmRIREVyJo+cD65so6QvB7dmZ0wsUTHDh7HLk8COyROxlwXHhUlc+sNIsKYpqw5QAjmgpM3pR8T4G2CxphPeK7XY3DSdLs1cjcQ0saYq7b1X0yEZSaZZ01E036PfuzKOk05F6syrK654B3qfvzgjH53/6QVq6TxvAGktS2qja3Dc2jz+QIIws7ij1/19Ld0fga8rB3QPzKKAvTydzktmDvoXs1q5+g7X7RJb3hoJ7KVa2MSamyoxp+7sNeSYfH4ZEn/759ep9lCtYJecDXIXp4fq4nkIf67UVpV7NPXVPA8J0erJYBQvdcOECph43mQAi7LKphobACSQkpxJOjza5gBj0Yd5s/gKaV8pisHRuERZXOfbw97tb9wfh2J/b7pqOTGAgE5SvwS/L5EDKLhPPr99z4G/i6ThpuydqcEZvV78O6Ts4sQobZ0YQbB4TYABJwr5FGIVwFtlMpac/nk5HzzpUa/61IOu88AMu60yc/Gj84AgyWfE5beTNfpHht/MVlTM28V1jgi+7//L9+3hObg4NY+2zsUxGXpaTwec7plPHewe8CCNkco/B3Kas5OOdsghCw0B2YZ4p9VgFn8MGjisuY5OJyfNIIDEB3MCjsovNTr0x1EKzSUbAa3nPYlWsHKTTet9TanTxaHRGgOmoRtU3hiiWHBXgl1D1bP1HnpgpvpAfvRpY9qH/RfLcRUMd5KTK33+/R3r05orOZvL8DSw13NTWu76aHGOx/fX9CH95Eqpvyx6AY+CDrWKoyz8dXoxy7g6TkzNRTOpx9DE0DwA/ehfvY9Z/0cDSPQXKtpX2IUKoi/9doGfdfDl4LLfWBIWtLdaNkDBRu/hDsSzU6X9DN/+jQdnsYhcG3MLbQT5VioTH15YBrfsVKtYml/20AC5lEyN6T7JUCsAjU2Tg7ny2hOENFwro3g3wGN5Thwkn7X04CNo74udW2N7VduPRDWtzeDVlIrr2bAQWRHbzhevn2sCXz7OI10g38EN2egNtM2v2vaLPe7n3/e9yEGmNYE6uOw1sDShpfm4wDCOiaiYarWF4S8XRJ9tFXF2wQk4FQAMGGf8A7eD0mV3J7D5CpmVNFG8VHV85rStQeXOU0604RLiNQcylAtAPsNqamKeWtSICxHB+l3EUD4H/63X18e7kqegxrxuS/GHK2wxdEKB3dgVtAwGrkm1LZofXNK44sLunNjn+6oKp+FXeZZEJBFK8DBsIvm4LI6JEITAM1BzQ5kBLtccigjohuQPhk+Ck2aGphDLH3y8UJ8Dto+3cwNVUtYOuRmgKfvYCkMlIerj/g+BbUitLGLKMycvpJAyYjZjX6PfvzqWi3Nsp3vcIgjDyE5xOGW1BOA8IctAAHdO0fvZ+WTIMKg+fOcgYRw6uP+0v692LNX7EZiv6WAyHIfpDOpaRIawN8brm3QGx+pNAjB8Jqx7wamn1zYTs7O6Gc+dp0OUO83UcX7Akq87qnq0nFXf9SZdoqHKRaRqTYBv9aAg6M5PwZf2KkaSr3jHL04d40wVOZXDett42oqFFeiTDn3rZSr8jevesdA907PqZbgFprQlnDkGp0VBor7wgC+CYnJJb+Ghfl4bVgDWGC+EKMUHVWPL3dIBZy7C/ow3TANBQhIM4w0zVgrMx2gC+inV9TaW16vwO/aQHNuSRkcaFgphuj5IP9b6xaFZeoghLwDou+T7229Xgj79OTWRSHR++H/+b3LRZQNsC5kRpznYIsjFODAyD4H3hGgujrwy9PNKW1ur9Ps4Jiuf+VmFPaYggQMHsIbZgVOgtRiVghVGTmUEUmQTKrKfz1jBpKaDvq0MUG0wpIQyghElftgXFJ4acgZuCQJUnd7XheQIIJsSWcACMu6e+JQCdoja8dvW0Rg5ufoqtRGZT3aGPTox6+sSXGg5Jwbfy9p/zyj+/iBahAabk+yFpVg54yRTjXd5u1f2sPWRfKovPXhlgcySxoteXKU0psinvXz3FbnxCzjTYVJ4XS/4dqU3vjIlbwdOgMSAgBwwgQ+N//649fpUDP++DLnqcNilTwrXoyIJegffr/rK9sOErJyI6GjsjBeDST4cxcBtMK6R0ChBVR4rBQuB40Q143dVN+6lyjEdITA+tLxdotW9VWma4swyD0hSaIk+2JpL8J7uYugp+ECSPDKBlsnOB+Cz9udtLjHOZS27BF8q5AjxIBmegG7azag2iW+qSeNpLTu5ZIBhEBj7nyEdgr7mZqrSuYDk12ZZRY52SYOdHC9d2qYozFs/x42i8EB5zk457wIAAd8lAuagMkGwMGU5rNTOrxzSPOjE5rPY3t0KEaDpEZryHMAcLBgZ8CmTwoOTlBbQcfC405mjXoJMBfgts7OkapuSSuF5cBBuOW1AXw34K6mAK7HcFH3rwjp8vX4GZHliK8TUadjL1CFsWY2MQAgaKEmv8WhqQ4+CY8dntHv3zkxp/gmC03EaHJ5ElZY/lYtgq3Zc6ZNaAEITJJ20JxnuN87AwkwL8D/IAjWHN5Lb2GZZ/76CzboO2FiKDh7eeRgWisA6RCyiEQ7C9EgHKHObxh3BVv9+WkDCMaofPv5PU3gk5ZxLu2/Pe3Xq41WzIxQAZ5qA7OgLAI2CppbAAILoY7MNwYhxoFLJzsxO3BoH3E65aDuLrwaKq5mNG3RjbJBE+fXB+QCrQJyYeRytlS8orwjxrfTs2D7Ch4JDokIMyn21/7JaRHgm7AxlAR6XdoIPMKd22zPHS4a6SUnzA0Nuosqr5JfqoaBWiRCCC8t0GNJMdUVGATafOc//lkeTk7gI1phc2eTCy8d7O6LWSH6CGOxzZ5sTGhja51OZid0uH/Mahi8c3RwpEUnqpeR5wAOiQhlhOZgZv4PBToAA0WFSKvK6Es8ezut2QzXXYbEPQ1ltKYZAesmYOyoBxHSJyM/QzKGkgduOlQT6M0114TY5w0ZIdEumx5cHm68IzG1K5obIsIrUx5+ESfFCaclDQzY30D03yCyUlgo6OjxwzP67X3klJNPF/WrhUB6kMDr0M4Xqn5WePY5AQmF5cyddbsN5cQAO8UO+wSa9cSXFVp2Vgsn/bse2KRveXBb96eglk7sxXxrc+ADWUL/1ceus5039+kCEMLeu38IIJFFszNbwYIEIJj5IgNI0YyNLHZyRk0WaT9nasjNxfseZH/39K/VMXP74umX/RKM5/uNb6BP4aG1VXNvSKMBpiFqYXFBaTX1kuatlipY2+rK20q8zkCCYcwawC1IKg8Q7BjhTCJwxjsPribW6wuM7qEZzfryZAB8aMEicZImDRC38g8lZ5MJvplUg+B/awO5PlSxC7tLl78LQIh8wn5AAYJnEOh45KIVUIuhilbITAHVDTenDA4QvXB05ygSssgffTKvnNZg10NoooGDNrMC0N8OohV6VbRCtKhJ4agpfA6QPhkFS1zkhF8cAwmIsJisDenkFAmTUJw1Q2QrmhokUrf5g3oSuUMbWETgl1KIytupmMF2sLuHEeQGk6EUlAP94StT2tZMy+axG8ZkNyp3s8rN8sn5Bf2mC3PsAhB8O5i6ESm6WsXc0LbuUT9dTkuXU1jQJPivU9Dg/8b8UJuEC8oknxJI8MLCv/I9D23Ta+7fkK/4XAhIiFSNST/MhIP5oUdH8zP6mY9fJ2joSp/nEiQ0LzHyE+Q/tr7+dxbUGu7YZetkHWPhG73nHBjl2TiZU7o/Nib7nsGC92pLB5Xa9RtBgm4rLen4bEmHhZy9NSGtfZZAgtBKNbCcUMutZQp6QULMl3oa7ZGJBDC6xLTtnEMPLBeDei/VXBT4NXDWHJhAuCYD78yHW0zWPzzmvm8FA75t9R9gnpegL1tXnrubbAB9LTy95GegR51H4ddwVX8Ded9tAkBSAAhOiwCzwtaVTU6CtL+7T0swCp5F/jhMN9dp89I6hzUyOEhGeQHHxoNZqLd9FaGMoyEdcLQCnCPLAjWAg36f9o7nXIo5S6yqLwU4QJIlOLTsorZCSQWzXNLW2pgzJM5OEK3Q7pDYFW0He2QDMaMMKZwU/UeK7YnDX3qYzT8Bz1v0Q1cGmDKA2iHQLxBe967LE7oKr56CT5kRXfhvZhBfPbmg/7AbF+xaGSQ4Fd5KYGgF4LTSwW9b7LJyJrxZYgRmXuAQ26SdJsCTMnL8/a6XXaaX3YOq7/IRzaC0wrfrlGlpB5x5Tv+9P1vQv/rEM1E++9z0U5BQcthK5yD9xJqE5uWNw/f8szgLKX2wz0Dm3DNjdk5hvp1a/ZRkQCl2qzlNOhNSCgx5fCl9lMCpdwotgAVcfG6jUmNBk5eupR9r06Uk915JVV3ar1aA7hBU67PpHmQ7rUd8AHCYoyu0oTBNe37mz2GpzklTdsHcMLLgxoC5mst8tEsA7Loetiwl3s5gqsGj0vbJ4Zosm5f4ivzKGz/ki6E21DMTg7WGPAebl7foYnFOh3sHbCJQuZXdHoCDje0pnRyf0tF+Ag6EQzGsOT6YcfIHOCSujYZ0Z37CBY8EaMX5EKwjNkNM12jQ69PtllBGdDMdDiXPAcpNz+cE+1OJwDlaAZkd1SGxA3/nYZVAAg5hLnSltBnzC2RTjHt1Nb0ohSv9paZ8bRNUbb/XMF41BoCx7700pgfWKm+KrEbFJwbRLfbN3jq9oF++fUKnyfxWAQk+RwKv+wqCn8mubR1StNzh+dZHWogoZUxm1gvmBeViOeFT6jtWsRP9xKuu0Au3pCBxoH3TJCjwzPoPhUXr0Y3DE3rPYzcDoE/79tqIEKddEMp2y8ztB26a5gAYFGbBuJX0WvBJ8Elp0nWr2YA1iY262EQdeICQuwYxzHIb2HRZqOYiXbAGMBMqWPQUy+S/sL45IdLpBbF7iNJbuGV3IfoVtKHh3HVs1+ba6fB1PKMp7Zmo92cpQISE3/R7F5J0LLlKe7ow+ok0bK0HvdrXiIf7WHATsMmtIAIGLoNjBCo5X5nVAilnhEVRQc7L4QJtmkwKprERWo431c8j0m4YQMDA1yYjBgfIkHjkwIFfL9+ugANoDuZ0BJ8DzkfumLODNRdn5zQ8O6fxYED77HNQVanCYxiuL+EJcACfA5gjEMpY0hwIBumxDXdrssbpkyUhU36X0c/WmtRWOD5ZsOagi0kgXYMsw8sRfYLyjZhPz88pl2YZa2AKMXjv5ipLhtDIjoRce6wAEnBw3rS9Rq+YJio5jfs1JukZoBGnZ5iH58S1GA7SJFq5m1RmDh5s+SRHQiPdP1342nOqRVABXxOoji4SfsF0D/OC3XL4XWdS6gJ2eF+08M0/fO09tL0mzo7cl3Yot2oT1xn1J9+u5SB+dW9O//5Tt6r8FC0LGUp9m5kiBYYNW2aOZSGvQcv25hIqaRkEmWpSUDCsg7VrDm9uKSptWMw0utBPDmywYHUM6IJzUMCvqD65nKrZnsoBucOzCzqu523jV7pqOANZdJmgDqY0z6bt6hwC2JAWv/tprz+JUtaIYAgfL0n1y9LNv3O/2Gfro8MN34ey57QUvVXjLjsPVICGmY1BkyFs1eVrSJtjDQKWkM0KcEhcnNHh/hEnHirRD278k80prTvNQWOscL9Pm1vrtNg/ov39YzYrpGfFhA9u3JVDIjGYQJ6DJhdUNitoyWb4HMDzVQ5MPAMPDo5OkCFRxmGCZ4Xzoo6Z9d2pMaSM3RIg4eziguup1zZEvaCt5jrGx1XSPJ3zM5o/YQUCiR6tgQRBrW/YGNM3buazLtT2zISPF0Ra7vnXbp/Q04WQ1TZNgheihnoD03weQALLlefKH8EvslMf+uX2/wbjhTbLeIz/zavw0+1y8i2AAahT/6fX3UdrXJhGOvdCBknF+Du+xtSvkgIoevTEjUP6tSf2ooiKnD3T36jt3dB+QpdNZ4txiaelFprO5UmQfvOd2vm2X5uEgqb90vWTQVXRD3XNVCnXQHCCdmdXbnvJSpgpzQmv8IQsqo6BOAfA/ql49bsjF/17FZNAyqvazA9hrh3PiqcJIccGFdsKA2/l0+pgiOgF8YkoE1SDpSf/kr8dsc3q7hgw87VAkBWN3W17nUahkSEsU/giitTP+QnI+HrEAGG8NqKtHWgOUJXxkKMWfIKUQIFK4OsbE1rf1miFOxKtUCkLZAXtb9T4Rt0GmC5uP3Wbbt3aL84F74z7fbo0WSPkdYct9NTCAd08PHNks8J0xGO2UEYjxYgpc8GooWZ2PKN9+BxEayNlQduElx980ZO/xqdiRoOfcchhZih9vIjG29A22HDxX0n5mjfNdCKW3KFZLunrJiN649aIr+oZDFFr2rQ/vOuqCcK6/s7eKX16ng9b7bLGxrx8fgTrvPLxaJ9pKzPRJp4XgKCEaDzF6NaPCfHZG0PxCrX1C/NMzm4KMvzPWJP7pkN696NXaTgQn3qjuiB8IQFU6PB/EnWMPfffvrRPv/vlgzgNumO0NTunCayCBsELM89f090LtRz0h/Le1R0XTf5E77g/2kBCKkQMKMjYm+tQcNuuL78+nDfC8y7vUM30UQG5rDZBBwZOcefkopYkKF3PlIbaTkiTRi4FDEHYdgQIsna2MB0kaUeQEO1xYSzjPsXagwJQKAIEv3AFXol9tVl15TNZrcGzABrp/rb5GICObMziG1OlF3d4hQEE0xaKNW1f2qTeoM95C8589ajaDYRougHNAcDBKR3dOSw7AWpqV2gl1qZjOrpzTIcHR3SggCKdGIQz/nd5XUIZrbZCACcm9Y15QIsx6Ev65HNEK8ApLq+CBt1tjkY0GQ04xvtQSzbniCPnKNZ0yFiQJYwoRyx2UPxtBIWlskVGXIdoy8CCMcEzJ2G982JXIg3NZ164f9ind15GxIiWcW8DCs6kVIFEok8entGHD04b0XsXoCCiDilO6wymawhkl3UJCUfu0jZapBEddo2R6wubowGNnGRsAglt83j9lQm9+aWSRTE8q5siPhz6rSPaHE/+rSdv0yeemVVmCje5YGYNoMAQlvzXx2cbyMutjY3PIijUOskXA/u0zdcEt2fSphzJNcK+AElER0pW1brFo24DCRm8petBhEKZWSdI1Ro0gSYbxeHZUss4t6Wurva+i7xNQWcboOB5djm4CQ/r0m5YMP+uCk9bI88FFOvWmsb3G8PYZB1oKiGqAOaaQE9TFEoSKpkORm7i9c/zaUowUZmeH/A4Awg184Ljez6ncu8d/+jfLPtI0rI5oW9+zYP0kY9/kY6PXR59h3g3Nqc0BThgh8QyOBAi6nFqZvg1HO7PuAQ00PLR4Ywsc6NfNpgVrq5PQigjfA7ShfUTnnAoo0YrHFce8/V41yVtjIY06Pe5bHSXwj1Zr+MGCpc+62RQR+exWWCuZZ/5zYZDJ4xNZo82Q81zzeeQahIKw8nPIKGiLU63POF+mJnqWymxmS2LeZwSlz+wX5lf0H+4PW8M5WR7cUfOwQctY9tuEkJdBY0997xoERxZpIIA64vSziKvezSdjji652S+oJNTPaZm4vRr5dTRNna09X0v3qZX3bte+R0kXJFdTz2pqrT3ggTmuf/v8Zv0hQPhAen6GraoCdb8EciCjNy++CkBJPjmmmgEBXGMIeY4cV0z4I6anp+a0CkQThoOmRPsOXrEd00ls9uOADJeHyCrZUHil9Yn930baOjq47MqSGibo/89dSpsU7uncxr2idYLDhn+2RoNl9TtHcJmc3k5miIhni+A4KVmMHPppBkgqJck6JG1swkHTo8xA4TtrSm94y2vYmH+C+97jA6TMpPYMDYrXNrgUMZjH8qYoUI8j9TMSLR0sHfEToz2QSQD/BD8awYOAFRuH805f0GtWf2CnSk1zwGSRtw+RrRCTH4+NSqcHSHCfHRkl0OyCkiW9uL4aBPm6cGQMBYBCuyHcKE6hJYOQxSDrgOADjsyK5OzuAOYIqz9zofSLTZi8d99ZUITz+mcXLFHs6jYtXN4vqRfvHVCs4yjYsQMAndvH20O3HWNbugCRCJP3hZNQpdbXyW5ZG7pO+N+j6BBwOfhl12jS9tT2ts7ohdcu0Sf/tRTdLB/HF6qsmyqyipRDa71e/RTr75CO1NNYpE6fiFSCCDDoz4lUs+Qj0/P6T1/9gzta5rlAEDc9hQFjyMK/0z6fCr85fwsOeqITxLTW+xtWBSCat4UAJkHnHo8K8BjWp1CKvCor6TjnP9Ddj0S+qmDhJ6EXDbcXDFMOCnvzuB3YA7g9d78mewCFpr4n2+rC1gwgBbIo8tBaznqtSZyzCZpw+aE/24M8tqDdg4T1xYpXY7896uGQzJ9P4cmBT8nX37c+E3qGAs6svVFacYsH/dakZ/8F7+w/Nvf9UoGB7/+oc/Q7d3DCL2jI685OD44iuKj/eHjyff7tL2zSePpmA53DzlxUjwJon2kbFYQAO9tLrzU79Hu7JSQH8AuOmlhJ6wrzATbXHjpgu7M4vLRkeBp8YxtAwnYxJCfIRcXk1Ibbj0NN2Ivb+1V3NYAhuyz7IhKcOc0JuvdPc3cEN3ou5wK3jh5EELkB65M6Jq6LTMTc1qCVMiVkilhWh/YPaUvaZ2PtmHY1M3R3jMJMzMww8wwVGa+bR3o703862uhQXBLTevDPpvJptM1eujhq/S5zzzN52IyGdHr/tqL6aN/8vnqrJlfoZuHZ1T3Tob0k6+6wmXbo8RHXrBHhZeqleCzoDeu6wcn9G8fvxXRpTVhb7QJf5PEYU8b9ie02asAQgQSDFiVznNGq5QlBW92USLmM9kgfJqAAp8Vx16LWginhamDBKOGvI8D2rxzuqTTQm3hpkJPXYBC2NcVhXqOl3U7fsuVIi1EmCYtN4wVP0368GPrNiHjoSZMpT+5sHXlJ3cDEAK/TwB1l6gPDwK82TA1VnPTS6LxeMgglFNXn12wBsFrDUrkH87lv/vNjy2RSfA3f/8JunnrMLrliPDv0XR9Qv1Bj46P5lI+UmfI58ztBRwSNy8BHIzoaO+Y5rPqdu+fO0W2xdkpO1NdUYfEPYADFIHSD9hc2Gd1BoFZwaIVEN1g0Qo54owKrBSotw0kiMDUxBI5iuFrS8Wxq4RP+WVPDxaEKOpE4Ooj2d+qgTaBBRGIVlq0egebj++bGHjrQe4RffvmiF4zHVbjcQMPgNCP1ZbAAQl89WdH5/SfDmKAWOo/nnuecVv447MBCW2s425Bgmru8tNL1sqWc2ttSLjv7+xs0NalKX35izdZnAAsf/MbXkof++hfcu6Q8MmABPvt9Ven9N0v2ZbzaNn/lMDDnJNCPxL2GA4c/+MzN47p/U/uNWp1gy2/oGXJ0UgOXPjFYpU1//8qzbdXY9sSWnRPtI8F0JjnC3WjcRotUhT2GeLxGoUuIIFZqjM5INyscigVfwX+9IiOz5d0dNrh+hzOXzzAkI207bKULFQXvhjtXW2hS3dv5/DZdhBdm5G8Sftyy4OsiYjkKaVVxqtdVhM8355Ln/diwLP/2rCScNvc7+D7WSACbR8unKxK67FfYAW2RXNsHkXiTFvNS+6b8OcjzhAMGQt+iWSAZyiR7QaSWwufwZZl6K/87mPLD334Sbr+zB0lzErAeMbCPyaIwBMSNAeblzbYrICcCN6sUFuciyUdH85YE4CJQBPgwYFNvwqrEbNCV3Bg/T1XIEEEcnVwa+fBwciqTwFSNQCstxdrA+lsq+rhEIz1k5MDCxbFwGuljF/SlVaaj1yWuRzTTL97ydqA3rY9jolXpZrNKR1lxBz1x93Fkn7h1jyb7yHtM70pKJ1HoMn6FnRcd+/sEt3QlS/dLVDIrm/mJEI7tj0Ww9BwNKRXPfoAPfnZpzhx1+XLG/Sih67Qn3/yy3HuVNeON63ARPeDD2/Ti3fgw+PpFCBSCM5MUaydY3oxOKsEyeBuSX/wl3fovz593M25tJCV0Eic+8l4eqd7EIbcw02n+lUuCDJpf5YEgFTPMaRI1rhpn1O+VtL8FdtIfijVC/CPpW0FD3IFc0Gk6j+gWYT2YIWAAVmnRLp7hm+aWWX0gVRTPlXbH/3CC2pP58oaurAW12eeP+Ya8fmHShofjGF9gLLU8QXJs9su4CDqf4XFzz2aAi08Y1onjhII9R5kZPi/ADdrayMaqGA/OTnjxH/V2qvvQDDHuXXUY4A2pgoO0MfRyRk78qcm1JpcdpPAOiKRYO+n/+WvLp+6fsclGKkKMFWCVv8VqFiGG4QF7D6XNmmyvkaz/WNxSKz1Xl03BsMBjc4v6Px0QfuzU7LCSzmHItyIUbMBoY/QGOwjWmGFZBJNaLI2vwYSD46LTadBgYIHCW2nBn4IuPkHJtkRIPh2fXIlNjkwIUqLYPqpVqFtTBv9Hv3IlTWa5DZENz4HEPxhxKsovPIrt07oRhIZU+o/1SJwV8mpNi0CfrtbTUIXkPCcAgQ7/e4YwbSwAW8q/Vy5Z5Puf9EVDtfFfn3uiafp9ETCRL0mLdCsA61XJwP68VdeprVBX25PlcTV9VMtGC+mnm9N3uMBKWj66QRfAAAgAElEQVTxlz59m754cMox0kWnOLcnvjsbm6cDixpI99xmHtFMDlCrP0IqnKL8Dry+1aDa9jf3e+4mJ/ytnJo2dZTqAhSMbwobkdYB9u0SgC0Ce0O+A/gntc2l6Sz7iBJPNzwGQVnZ15vWx26rOdaw6ljFFFYNwQOVUlslgLAG08JAPcFyWSvbmJ7/3YiyI0Do+JiEyyqZQnNU+QMoCEZk3tqIb/3gP7gsoHqy924DxeBpLwJ97RHOURQ0B0Sz+YJ93Xih3UBTsOT5HS4v6xOMo0e9t/+jfxOuYpWjR7w94S9/SiP1AdFgMGDmhEyGGAjjuMwu9wcDunRli5anC3rqKzcoLdSUEh6Y5WTYZ1CQC3VTKRhtfw0Rd8jU1UWtBhsRC94OkBmM10R0E23C5nyqCZNSJuWZd5t/AggPqZLxgVLalEn43hwYux5gPPdDl9fo6qjfaAOsrVkm4+Jjx2f0n/fzRbBy61LTJLiKlunzTREpTSGQXdbh+QQImMfGaEBwLPQfBpZgHHBcTZhc9KiG8/KNg4i+8Z4JfdeD29xU4PusKRBCDXnVVZ3NiEO1COYFCbremy/oPY/fpGMtAhTi3g3gJMycsagV6MlsptyI6lK/dHwyj4ZWvbkhZkPVoLwN1/dRujm2AYX0d7HeJqc0ekgSzzCXSAhZklNVvkPCt8Qmb00Y058tLKQxdmxto9scIEi3hddFFzq3LsU03B0F7GoZF5sLcaXwCDSQ0zQOkWYf4MBPiCNh2lasmtTFhVRw6CIHQmhkLHNbV4jXXl82gGAvgQ5Mc4BnZicLhKuFNi3rLgM0Z4rzwG/QWzLAGKn2AUXXOKeR+8j7oDsBKBH/UdrYnI5ZE8MABgAhv4zxYgXGkzRZAw/6e8mBBgBhNBzQYnFGe0jKVMu7UF9nQVAymcg3obgledJoI5cuxIE22GbZ0YulyXFReQRnVLTNyt5kdIfaQAIiHXBADeUbUdkYumoSADD+1uaYvh46u5Ijl8t+l26DVzTNz4l+/uaM5k5L0nqSXJ+BOAsOoCWQYAKiac/b6OH5Agmgs63RIAC60nqITHECUP/pGSFSyf7wI5ek/oIuvLyiAkmRRf9ckplZOmWzS1nzoJ1P3Tym9//Fneh2IqaMsKNBmsVOpcJwSuuZ+34VkGDTsQ5qwlcnkQKENjozQJKOr6RNMJzEZyLbuHhQ1MQem1oqRm0aRmYjLskcnkDyUYQ0Mu/O37HkTLZNzpkbcnRs79saWJtZ0JAxXTR1zzxohVt8KcdEaSx+/nhmk3MeuDAhVbUrPo6AQrgN21nR1bxYlgFCVw1B8Rw7+5c/JZwhF1FtADhrI85FBBo+ni9IAEulCa4AAgR33XQN04Xc+vv84+F8UQMHtkQlvsZ8ScEBLuNH8wVxmGN+YkJCQatgD0WUqc8UKTaPyIz4ETI5d2WgfX+lxe4GEPLosduhaj95q4KEfurqr/hCvkba5XNaOCosaRJEWJbuQzJui3DAv70mAfUbupob0MODowF9z474iPC+6G3RBIMdPtPG+VWLRtgj+tDuKX1O1eXtq1v1x7N1m2Z92/rksiz69uWAlT9t9PB8AQSp3lgVxCoylg4A4WWbY3rHI9uc58NuqeAsFj63VJusVAqVg8r+CHZ1VU0C5vpbn9+jT96smwfBfKqLgJ553WTbH/u95Mtbo+mCkLN2PA0FwY9Kp/qeaRQcdFkJoHiB2A4QzC1M4mm89wunr3aDReHiLEBgdUv1oAE/Awj4Cf4Xki2xkl4lEJPSeedzpdVi22jfs3SMBrf0po85lwYxUfBPKbXRJRFVOmeMa72/5Bsz6Lco+JxZjZ3sM3PxIMD/3gYOjBaKFRI5fLcaOQNjVeFYGQdoDvjWT0QzROZpaLglD/PjAY2kkRM4H5tT81tQs0Kh6rFpENJ9AMBfRx6Wfo819QApZ7hUlAFC2OruIMFTVTSCGGzYT1B/HB4c18rKtt3k0VoaAhm68xyjoGTK0bpHvG392zQ7RtMEAVtiRGdLC3eUwZtzYbqJkckhsd/5ZxH7ar4XTExcxc5K5grL8YWxcocW6u8fvLxGO05nmAs54ltpgdnbVjxzuqT37c1r1R2bGE7OH4HXPTlshsJzbTUJrSKpuoaaAAIO+V0BCOTxSPwPGhlvBiSIs5Oo77/vwS165eVJ5XbAExOdm6c3Hi88vGG+wKaZl7R2fnp2QT//+C26BZWPAjO/1rEmwd0c9P2oL3eZS7+vuEq3W3B43ttP9YAycEkOVXrGPODoIhS982e8Lx4kgOadRsDykjNtWuraem8pa0/XBhELczjuuE8XXuTXtImWar8V8kDk2jBexwKuYydskGnQgvhmjIcYIGrrAs+N+kvaUDsYBH8pK23IYtsw8Lq6vdssPQ9ITTylq5ysoWj4AA7M5wD+AgAHIsTTXZUvakAM5sqJRCvAIjFDdF8hLLYJHGyozwGDgxnAgfL1doAgA605BaVQ31SMxXWNtQlGEMiseIqscRl7TulwRACh6UK9otozbEk32hAVUMdnTbilTMEOBApSGYFHt6fMSTGg0KRRAEgwPxD0IVmzKgdGQbLNCok3bo3pFROUS60GEYEETwOZlMxC0PK//7h3Sl+8Sy2CCazoyKiQtMiNJjLAeyWfhC7bd1dAoIHDbQzr/gdtDDE1N+D5F02H9K5HLrGPTo5xY9/C/My725ssHPf+wu6cfvXJO5Emy2jWxiZraPpb/rUyOVgETXJo03HZeFYRNDKOZIfNrNABJKRr68dgNOppK/1dfnPxh7YOUcNVMvUKjivvrLwMwhvp/MGQ2bRQIITnEyh0OQN+WOab0vae8Pi2p+IJy4Wj0qGbk2t071O1/MYgvuiYQ2kTUMjJGd7d4FggO828vWX05mTK2gsHnNp4EfoznwMLQ4RDInL72LvcXhIBZOzankEbiFYwDQrMCrj168nkOYSxZKK+eHfYIXFQ+S0oOAjn4e0//W/4QtH6iZKs6NN+BJ7x2AiTRnN+CUi7fHg4y3b/tQYIAcV2WQ8dsdn8u77iY679RsJj+dzZKdMD4RfIAALWczCQm6x4qsYfmBU8gBGQID4UIMW2jIsPrw3ozVtjuQWUQEKGs/q14DXtEX355IJ+c+/k7rUIjqa4fQcQogNeIOTSzbDLvj2XAAH9dfE/SKeRAgTsyfc8sEmPXplGfgG2T0bLIUQMsdVmsgFYcDWSQUe/9Rd79Ilbmegjp7UBQ/SmAnZFjjZbatinn5x5gZlk8qB3/krb8ACBz4YBBDhcFexIpb1tAggpOVdteNadJzJZYREvkRkizFTOqGkrA75G1MLJsqZJra1BF2Jd4YZfa98JlLaucpoBvJNeXr3moVXGdHwA/awPljQKjrbyYg4g2DkIQjUDWFj3AJ6okzaxZjwjB3KQqwSOfAhHTR0B26bhHRKh+ZifnhFKC9jHLlWpxjbQiwIMRCuM2SGR2F8AAMN/xCCma5OxleCsTicCMGDWggYD/7WMpnzMvh8Aoa4xzM4xPfw1IkpvD8kDOeaBBTo4OC4u8tcaJAQG0XZC3Aox2lzheWaODmYyQS6pqlzZRmHIGDYe0Stfeo0218eMfp/4/DN0685R7U2LYvCCA6GQoVx0g5oRoUPv3JnQFYCQhEay4UZMSBkVpEY3fGjvlJ488fXEOkzUGJ76QDDRCjfgj3YpGpIWgyHvU6bLrlv3XAAFmH62RxLxo9Ki2yIojdgZemA6onc9sk1TDZVkvwJN128MLghCMzlon+yXYCF0PdDdkn72U7dp97RcXbTabwUJtv7cSRwa7W9TNrkSSOCMpTYublNvQJmDn4IErwFjbUlhI5uAgme60UbouIy+qt+MfXfZNtuJwKWjl8xr/nhBNDvHmayujOkttNrLLv1WZ6P7081Ptp0R8D/b41Qot7276hgRzjhFRIMtawsoqm7R8mBqXrXshKUQSh8qD5cTONkjTwFyFHih3HipM/jCCYwqs4LkKBDBztCyg/oBdI4cBQj/h0lgNltwSGz2k+GJAADwQVpn04RETc3mmEu9DQYIfMQ72YoykQ3pqILqT3+oo4jaQT6Zn9LxcTnjXpOGw9K9ZAV02LFqEOlw2oi3k3bFVFJtjSVrNUASRfcOiE3vGNm9NkdBLOA3ff2D9PQzB/RX1/c4neZ3vOGl9If/9S9oduIKbdkW+FBH7Q9+D/hY2GbwAk56/rbNEb1+AuWyOre58daI2YrsFELor59e0Pv3UJ8h7yhUYhQeENh6mR3ev9MGEFSU1dTxq2xbDiT4Y9XWFio3QoMQPm1eULVFkXvqD73kEj10aSTBCv3KH8IybNZfs6RJKjzcOX1id07v++J+FL2Q2wvZb5ktZqCRe+HRRoatGgx+WNsxPw4RLMJb0vUt5TvIgRAbSA4sNIEEDss2kOLYlmf4MsZUS2caA7daISOVX0ELb4wdFXH6cAM9OhUPoRAt4lXLmmXVaFeXyv+ndGwcjZXBU9OZa5NVWdBSeknlS5PTcG0s6SYvl3xrh2kBH7shp+cvBSjp7wb6fCB6G/gHeYDPDocD7hdOfF6wp2Ov+qhu8WjDhyGiDUuj3cY37Nig73WYFRQcsL9AU16gHH/p9dmswOYN1RyUUtUEgMAE2AoSZBp8lszkkB2APhdRdbWEqSZBnBVnwXszy5xaVpDV5V1WuWAXS181IhOm1X7AbO06DkHWMQ3d66hFWOsP6HWvfYg++okvSJKlZY9e/sg12r9zTE/f3s+e+VST4G33OCglFfy9oz6949IajZgXakroZJIBKCRXiNyafuRgQR/DlWnFTxRWZ0w8w4y6ggRjMAUSbRxdE0ho2n8Md2MwYJ8B+2C8KzFNInrF1pi+7yXbNOzBTS9O5NNEh77qqJ1B6Ax+6Yld+tKR7Ekb/cotHk/FmgTPF3JJi/gtM3Mwt4udKMX8UeVscNwidpJWflOTHW7sKUDw5zc3vyhHQerOrn/L2DsCBDvcOSryzpZEhKKZF7i5yZJGt+Im4R1+0wm17Zs93/W5VY6nCUMTYtlpu5wY5sPQ1kcOgMK0gIiKukE1Xjs/z8DLE37hNQPLpblxy6hMT2RmuelkTCPYk5EF2N368awfi3WB/yKNOkCfBFAS11iB5gGaokO+sedmUV4VtAFwMBxK+uSj2RmdF4rhsZbA+c14eYZwSJimW8EBeItpEGxY7aryBCSUbkB2QylC99iygzoPJ0gO0fBpAwBosTlRhwMuST9dDk6pfyN4A3Lta1h1ziGQgTP3aHFx3uodD8Hwza9/CX3yz79Cx6enzHi/9fUvoSc+d51uHRw3r6GGQtpDC/gicAikHIs0+A7r+d3bY3pkTW+9qvXwa1ELgbTIL6i8VfoZgR6eE2sRbnXMrhgYm568WtKOBGTxwe5wK8d+l9Te7Ywrf03qokmA9gBaBPtAk4O/uoKEjUGf3v2yHUnTrOi1OvyVKYjBZ4ao8R33pT/eni/oZz+7RwsVUp3OgVvfmk9Nrk9v23aai1JxmqwZKLmQeIDgb/qBj63gl9BWJMdrOtIcDCmtCGM2DzO3GAHhVlQyW/Ro5oREupYlOmzco9ZLnraqw1BcIiyoy+YXBrXqq21hk0FIW7lzLsS0lItKx0+X9eQjZJ0l7eJ770woCYzqgr1kNLU1QcTdZDxg7QOAMTQHfN4y/eUuVXjM8hxICmYJZYTfAj/vkVTOpKAxTYP+ktY5jbOAA9GCVIOIRsQAPgMQjFC6bHhN/ZfO2Jsbsg1WYANaBJS3bWPubeaGdnRaDSR7m2ghviY7Z7sGJt+41yRg85EXoe1z/7079PBLrtL1G/t0aWtKZ4tz+vPPPhU5OuUSK2HOAAQ2DxAF96ZZInEj9SAB+AXg4K2ozYCXLUwu55MQcZtw0awxni/AYfHOSTkzptK8HVDjt2FN7FDrwc7tY1dNguc3XWje70tKq+mRT9vD39vjYRSiy+vfESSA0bzx2ga99h4Na0yI0SfgYVosgAQDsKC13/nyPn3iVt68V6T1iKNqSGUy+aZzEhwMFTiIeatqoCQD/Hp6UrM9Sdc767zokIU9H5hs5tBF/XDJbDFHVM3YXdMxWj5fzmkmalduBGcXPTo8NZOiPJCa+eA01ybk6nMW57nFGdB51XFX2o7W4tkghhZtFDs55nF2tFq2zlC6QXuQ2/d4lnGjJdNpG39lfwCtaQChDPpEpIEJZb+edsdLKQFg0YQyOxPCnHRSRRrYGHx1xShdt2rrsFbwF8A4wHNSgBHGEoEDMQkLYBWa9WYFDw6atqGmQQiHrRMSrZyT7DZTW/g2TUKwPRIdHc0IUQ1NnzaabU+kFB+VHBO/2/7bwUkBICTOKSDCUqhOxQx7tLW+RtuXpqx5ubV7JKkx3RW7lHmRAQJLXeEhjIBV5YsjKB4H8gHxIFvf915ao2twG9Yvw61Nv+LDbiZZO8VmJExoCf19ZH9Bn5xBf5H/BBnk3s3mRihkWOyqSfCmla5M1EbcBhB0icMEIeChQUjrg1T+IJVdNX0Xf79ye42+58EtCdm0dcmAhIpG1IkzmRj+xGu7J+f0ns/ulssJ5wahjdfSGmc2MqvB4DbrZ9C313ZJ9G97TYKRnf1uACFSVWfUDQEo5Dy9faiYF3ou4ZBPA83HwwrpZElb4vVhWmAVs79EdXRS882mNPvAA9t0//079NGPfjm6bLXxzajN1MzSyJGbfyydKWMXTIst7eP3jeHqpaL9OSiljcnxH6YpV/AoVEN02h6MyftApODA5iUmgQGDg/lJXXPgwQEfDYtkU9UGgCbaGA8HmsAojngIcwwTEaOjMAgBqWjKwEGIVihpDpK9KAIEPNdZVa455LOqOpNExliy1CBfojDFwcEs66iUT92ZFy/IJlimuvoAnkuQwITTRvGFA2FOi121CE3nqi1XAkcxqLrZnKfPe0saLntcfRHCzAvkl64N6bu3R65wkBFiSwhkASScXIip4ekFe0MUWGmlPQuMxD2ay7Ko+KWKPO9gbng+QYIXWrhFoEgTvvOJvgwg8JkrmBvuWRvSOx/aou01cZIKjAGCKrmNyZETIjR6DBdalahY9Y/81RH90Y3j1ptcIGdH195h0fqphWUVzkEYmW+PmWO1uawNadi7tGkTOLb/+K9e/GQd7AXtIvhuJKyCaynY2hX6tz31AigqTW0aBAUL6ViRDOkIpXfNv8Gl1G1jHR4QBVo3f45ejx555Ao99OAV+vAffr4YNtkKFhh0u4PW+sLdI4gu5jVYN8eIWsgRYvGKEY+J+YfnHfpzjvOgn6ho0vyMTtXWb3zI48ycJwHmxeDAbv1smqj3xv4JTAf13/jWrz4HrDlwDon2tIFR8Y8RXoD/Y7+zaWIq2geLVuDKjh23rPf9P/2vC3cwaaGbsKtU1sU9dESW32g5xEictEBC8s6f/FTbnRbjo7gKSOhyXu5amwCb25JocQH1Y+dtVLAYP9+mTfBVIEFeAAYACAzWTLjoPqAQ1Lt21ujyyPmOeG/rmvBwG2jRDclt4c7Zkn5t74QOW5x10ktfV4dFG8Eq5oY2Bp0jS69JKO7Ykmgd9RdcOVrOY6EmBv+eARYby3TQp+99YIse3B7J3UAfDnSowtRU3yIQq8JADEhsT1W67Z2c03s/v0vHZ/UCOOkcBXAkDNc5K6bPd/FLCE2m2gQnNM2E2eoj4AFRkhCG10vHnoKEMO50bvqD9fv/0/YeQJte13nY+fr3t+29AgssgEVfVJIAwQp2UorKKJpolEQzkZTImSTWOBPHSiKP7Ik9luxkJFtSJKpYVrNkyWIVSIIgCYAAQWCxAHYX27C97/67f/3+r3+Z59x77nve+963/Evwsyn8+5b73nLuOc89VWsgfO2G7JMQ3fhAggX6iGi2O+B8Ae5+zLySKAeVJDmVmAfbtVouUw2F1Yhox841tG3rKnrp5VOEEHI4sfUYhAcEJl/SuysCRzyl76ImIYud61BX/zn4KkB7cDP7MvjNlA2qXcFM+F/FVVTUCYz0jKWNCX3lU7/kKGDNQfS0lHw29JDskNFglGm8gbpFkVkBAMMHBqE+8FwBNMLnQAovZYQy+m2oFClU+uwv/MEolJ9Av5QPEpIRBMEFTYAET0ijRHB/QIsL7VxfhPigUjQJuZI8+n4aAWYRZm7z9jRY5Dk9HhYADBKWA5SwoYEgM0BCQM/G0Q22g3gTwlR8EOS0InOwk30RavE01wGQELQtBvTGaPdMZ0jPzHaok3Fa9AFCzNs7C5jYSeXpLKBJQFNam5DF1Px70n4WQJioV9zcybfQDkwO8EPw34VQx9o8vXGC7lnbNGGAVlZrvxUWNJwHwEyGTIlhNNE1+SaA4AvnF+jl623jp1AQh2o69jUIPv2G9g1nxQsIKm1y0EKZC0AFKvilMkW13tE8mCgP9F33H8KTn3HoIdmq1LPQ7gQMONSj+uzn3wsBhMXekNr2JIkTnemXTWJlGbs0z9ddXQar6tATaGn6rjs30e471pnxlZEcrcQheDhdXp9epFe+dyqq7+ANUwur6JamoNjKmn+8a9JafdHTHolPykStRLUggaqw0Ni6x6sU8vwmNmtYZ4mpHW/UqVY1YcOcG8BqDrK2iNj5RXENR0BEGoDGjM+BHqdC+NxovGWzZ2ESiHIlQHPACYw03aWUWJToIAYHzbpLpLeINjxxIhjfn5/I2b5kAIILWczgiNkgwTIhzayZmwWmVRgWP5ukNFxZbMEXYXnCMU1NLSWQizJ7P2tW3l4IMb3Qt4rmJHfMAZm9vOyKeWOIzAphkMAkFhiQLvDU54Q7Rgwp64BTVX9uZYM2cwqz+EzJUvPyWinm9rXmnNZxTvfwYKtPLy70Eml+Zbz6Wel+yB8hS9D9sECCCGzD201PQ8wETBsplmNC1g4QNApg5p/zAA6eXDtOj65vuugcKb7Eu8ctZ+SNyNf0ZlX7UC5fafXpL0/MUmuoIihuCiSkv6QBjMyJW7tgMq04uBHeoYFULv1HpJd41M8GKgAhBhLc5rNyUIhaOXuGAIKMK0ubgBaxn+H3oYFbgraVBkXkB8Ll3E8REJwYAajqtQpnxMNv27bVtHnzSnrttTP8PTgvI5EOh5AaIo0hJYPbsxc/lqPBTFjeUsQVE/lPR8OTPhJRvWzKOKcMPxWnZKUFcPwp0Ccn2EdELRbs+WGIOusgzEzic4B5XmCTgKaliD9kzSCDA6c56FMfWr5SNkAw7ZmMkCYJks1zYE0TCXAQ9wt2Pmky/TyWZtUCBDtZWZqEIBILTHKEyFNsiPqU42YpPl2cFwHplwuc+qIupBO55NQuQtdM/x7p5W2Hou0u2+wAkMDJkwpybxYallQCmoQ0gIAx6wJPOOD40QxoFbS+pVamT6+sU505pWLqKumTO5RJt+3pjf1vRJOgQiCxofe3+vS9ha6JqAj8jICPTF7OzGAWjH9FTsJFzA34UBFgyWYZaFzkBKjo1V8xPDOhEyTlHMRAs4+ubtL7No6Z+GsZny3ZzNNvHeXNSTeSujqMUU8lrkM8ffXMPB2YNQm1RGOS5y2v8y2YvAGgkWhnGDVx9DVnBrGXNJDS+EWRiF1EGWvksb4ckKDIIR5p4GgHWeSIT3cWB5s5SNnEbM1VMlUrwthM4FUt1CSu5x7jnO8OCTVXXJU+OV2wOtjuW0vo0h2m+cB3XNsKAOLV23atpR071tDz3zme6oOgc+s70GYs2Cm7z7+czKxa8MVCjzEtwTGxBhNcdp98uST+VGkfEoCgW+WaBnUtlCOTAAtmz6fEbxtaW/E5QJZFFFxqsfZBiN93RYy3oPcAKipKAiNTUVG2RdRjDUpi8s/205hItGkiORtZIIqjJsaqXNnRaBDULxMkZIDHxHuWcIPRDTEtgt7SUUeWljrsnZ8nnJNDTxKUQf3xugTZlBouMZLVl6IgQeQqnATTogykbyyUhybscXnzYBwME+2bo0vqiUH7JOBRE34Xnwu8/YHJOt09Zlilv+4xTYIvtBV3db2wHJVBwmKfXlnssRBLbEIPILg5spInJmhy+FwuSLCDKAISxMGQ1cEZAKFRLnNaZOb/OeAA331wZZOe3DTGPgsun70dl69FACZ0At4Pb4zp1Ud0fK5LXzq3wOmVNZ25yJWCMkISJrlyz3LyDYC1EO1qxu7cGdS8sAZCvYhu5Zl/QvPqTlY2U6GYGwACZS0EKIU0qWLyEDnMdCtOoZJEzW6rrD2KuPeZLlC0mmDBdH7HvTXQQlz6mvatHTtX0fZta+ill04yQFgO30iGrRckhsRuDXyVJ65Axjm0xRVPTSnn3B5YRqKwViEQIkIf7zXryExofA5MCGGhJmIYDf4CpvAS2WgF3Qb8fOIj8ccF+kLhJUQ8SD/6KqBPwmaz5sO0Yfph2kAa5/AbaQDBlH0us18LR8V95hf/ICZHzKZMJysRcIVAhQABj3FGn9C+C/FvAoXBYRG2l+UQeZa6jD3zC6998tl3AyDI55djchBno8Jdt5qEEEBgy13GUTtmbrBIXtJZM2AhopVwmltZi0pBB8wNodOk678FCsIzDNIwhV7ebBmQoD37Lc+IaRBcW+LspRYnT5Mg1ddS59PSK9vAc4Q5NhH4iQAE6Ya/LceqFY5gwC8NoOCdmgUH79/UpIqN05Ooexaq3tFH28cZJFiG6fapk2wlaveG9Nen5uhCOxlKjOedc2QuV44c2GKn0RQtQhpH0bwkBvDsgmtNAxiaA0qBNXHAS6VNlu/G2zb/0iFq/G91ZI+BXtee1Who+e5ZUbW6XvNR0Ntcd8TaA/+XpfJOo08Bg05Tp+YDqulavUJLXrbSwnxPaQWLaxSWw5mKPFuiqeqIJOFoEUWy4zfQukqYaQoj4JVkejImAYADrmkQAAd5YB6Q3wh2Aw6MaSIpQf1IBb3FWLAjjXOtwpotyVFQYBvGQArAAQovgb+wBmMQlp28V7zGGcodwGMAACAASURBVIDDIXQMjtQ2U2N7YACCfEXPZ665YVnC1nzBAQO3Yw3ZRsIkTsa9bo8WbY2GwgSuJUeAFoucCmPgR0EKbHQ/hj327DI7WRQkwGwALYJZ1OWQTXgzGmfG9LbgpMgMdGRU0pgC5E7QjP6usSo9NV7lUDJZRCccPSbK78V2hB2Gqt0gjeOxt5cG9N35btBxUXvYprGaPIAg72VqEhRICPhXxj4NMCPD0zkk5CHcm6hVqa4iGMCQ/B/uP7J6jB5b3zBhpkq4a5BgDmLWhKekqG/3d6d0G7P//MVF+t50O5WCBAwxWAiRmQUf0XrGvd7Z6CB+EYFEOKHtkWluUKBARGveWqBv/IzP2XnOAoPykYmo832VoAsltKuWsg1DNn0EEcz62gO1+MtkGwm6kVDBm2kn8U4BVah+54cBIrAPxriU87vB7VJ4INlSyfbEDnBQxO1NSjwbOhua2gpWsMMhkbUPdoKiPeTX4Ij65DQHNmpCmxXS+Jt/HW1Ag1GxjpHShjbJal6UBg7YbwHzgcP5kjGRpAIEn+mHOmVOAMXJMvXJmMkhegqLsYgUzN2+Ockt41umv8ldbE5Kxes2+B4JfqnW0CIup5tFQQK+YzyTw+MqSkyGuUdzHNIm6BwJqPwos4jrzmeoRPTRyTrtbkYsW8LsfKDgTjq2IeNxb3sc4Py4heiG5+Y6NG9De+T5IgCBx5gzTUXNDDKvWdonDRDMycQmKFKLMokTggLVmAr0QeQYtAsfWjdGe1bXjUFMbRaRy2buBdxF1iK2X6sjtjZ1CP3CMfHPT88S5FTWTz7LQCcDJODekCvqJXc1TktpgtzRRkALoB1+Y+unP2H7lOU0bQBC1HmeP3cyNtfF8c65xHigVuZc+I4kEotO7TZJnD7GsxwwwsBFYxCx9sAv5+to1C5GEDxJCWIfXKcsoLQhIM0BxOUwB7suOmQ27/VwJETeW+n3J6olqqpqjTffUvJNsd9PiDC00Qqh1MfsBJqyD3CdT+wAB9YRsKciuvBlBgiS+ChlEPAXqFUqpraCl/o4b9zCOzAWgAPOc8CVHe2bOWdJx9dVIiXWgmjnSq1BMMIj3q1iPgkFBa6f/MTtCgUK+M9oe8LUwIWcvOIuockzbxU7YRfLkxAdL+KoOYfJ2oflAJi30Nn1I+Jvc0yu8nTOa9usaU74Y8Kh0YAoYdgm17g5Heo0zCsrJfrsygatUJ7GIZ8EZpbeSdf1Wzi0d+LDFM70RvTN+S5d6A6M3deje70mfjRYHkCQ7+dpEdwmciGrSVYumSgd5XkgAXMyWTMhjr6sw/fX1Cr0sU0TtGm8EgGwgATEu9bzw1UBZQYmg7HvGAFheoMvtodD+tNjszTdz3aWkmai73gMUralWwfzDTBCbWowNOfyuSVINCQM9bd53+CCJ7T5GX0tpn2MfyYOkixPUR/mk6DVdgi+4qc8OtOkW4Y/CP8v+pbx0lHhp/w+2h6x/1CnN6A5ZAWThlS4Wi5PkT2Rqa0wfWFZpDaID9B4TbMmPsBIYo+rvBppvNe/jnmo1as0NlahubluIadzmNjGf8C8ByzY8X9SxsROfLH8AmEuGmoCEV7s1AjTBJyOuWiSyZAI36DQL66Ni7QJE9aZkIWyckgM9yZ+VUjCAB0TUrkQAhiZ4pBDHmi8WTamCYRlwm9BHSKyNQg5p3aHWFkdWmBYGiAknjcXQuaGQb9PCwvtAh/wOIh9wzBR1LaKz1a2T0JyQG68BXtSaE5sW4U1CTaJkl8NL71LHleXOcnRIkDIiDkGs8Zx+tYZThwXQUe31G1uBDwUMDfwikisvXZSTDudorvKFbw9HNG+xT69BZWXBUbiqezbqDWDf7cAgqYoVuUGTGtufmQR7NgE+KE4EwCCT1H49x0TdXrvhjGasmmsmVbNvg2GkzGdaIEcx16mBzBlWJAAv45nLyzQGzOd4Gk/SDcBO7540jscZyNdeM7Nzk00xXULMvZK2j2+roRdjC8E6CbEl808Jk47rjeuPFkg8tcHCQB41ao1+RgdDreTBoEMwGKRzaWcO/0Rh8wx37VI1h+G75SZmLYCIEELtJCJaLkgIbg+Iaam6UU5qzaaNXro4e28Z9hpMuCD4S/RZC2pPcA8SwipzIuLkvEON2EPf/OWUecj+VDcITEtpUCIdBHt5TQH1l/A1xzo90CDURImgz7LwyHnOUB00nLAgc7lws6VKloh5D9hiTQ5DCsSYHJDeKwDB6hSCfcktfClT//C5zlREgNc1ZShg3ypzxtRJWnJ4AdxNhKmPreQdkldc20b1RCd6bO+VEyLkF/9MTkHutv5s2NQe7HeRKrpvDnEWvVtYGuRPhhmFlrNKJ1ymk+CdlrUlROMAIKvwogemajTo+MVo32yHYry+EXhcFqTEPN34bAzNWoQogIJ2ERnOgN6eaFH0zZMDE/7gkF75oogzZrLomYGvX4YXsiPRUIe3ffsS8yUKhWasB5XuIzvrqpV6LHVTdq9os5+HDxfVq1qBIzT9caGIPuNb1tfkpjvgRAEg4QRHZju0NcuLbADaNRkUaqJnPlcn5iYItOCr7ETgOMYeQoXEVIJgSZHr5aROezpgYYYI7YFaWLfLeLdltI/YX9Q3UJrwF2x/glhu3uks+H5QW6LwZAWeyYCCYIL2VHZ1BBiCKqvIT8nua3LRPEeyGMWgfvL0VjGOKAGBxlzi/E2mlV6+JEdND7eoP2vn6FrVxdze4p5nuJ0DhGwlLkT8JMXjou3xTQgdCTgNg4OkD65KGc2uWHg1DgGnwNbbpkTKYEfxVVKvO+kDz7vQF/GmuJMiKqM8RTMBlbGTZR+kjcNDlxVRs0/A8PyL7EWxPbD1GdQYZlqpRggCOuQTcGb3D2UzUzkbh5IsHvdfirKgmX+ik9jhE2ib7Odp9U2xZycPTGd5sz38glgucWd9IYpymZ/GJoEqJQky1fRfoRmK88fAcIHDAuMyC+tJI6LSIf6sRUNuqVuAYcDCeaLst3diU6pwp3Ukl3h7Q6hG8zhYh/5Enr09lKfk/z4Nla933HPOaulkAlvxjwhohwQ9TzLnEjTaCsWeaEAwni1QuNQ4XHylxLtHq/R3tUNWtU0Ud6y34ROWHkgEWEaEXiYQWsSnErd2cRLdH6hS//57AItDoZx8J+jGfSny2EOzRfUyVvvM37WO5XH+Um89SyAEBNO9rVsWo87EWtTi/C4NL+kxJiRBhtaAwYHAhDiuR5M/+I8xuZt5KvtLgrrmPuieQJI6HIdBu+L3oUESODnrZFbMZSsuU3jjkJSbm+lPHizfKU5VqNHHtpO45MAB2fp6pWFTE4s32lUShze6DuTilbA7RU7d7HwXjUG3zSA/QRwIKmPW6jKuAxwwH5FqGkg0QoQqF0Idsvf9ETaJBeyvALeue+w9de1BiMODsAfNFn4vjRMb2LeqJapbwU7NBgxk5pHWyFwECvexHUiAkSAfSwAwQjlOCwoChJkI6eBhIgJezUbUiSn+673B9qB02K/F4VphXwkhJDyzu6yrj8ISAgxsSSzSQcyoTtFzQ04dffxfwr4Z2T1IC25kryDeYImQcwMQnBSNhq8bbwMf4Q6rQNaiBbAGHfk6KWZoFWDx/qlUWTAN0GA45XOkF5b7NPp7oCzLwoZielBSDkPIOC5XC0C8+XImVAPTYMEXE+kS7ZCfqpWpbFKiTY1qvTwqgZtnahZJhhnwbzudg4SIX3ah8OzPmD9IkFl/prpDugLZxfocrvHjYZs0kWdfsMAQSEgO0eaXrSGSBi5Hq3QEP6rk+XJOLiIjRPA5k0POyp2GhGOfMNEeSQFeOY+EBAiJgW3IPaGZf5aHoS0CRBorDru9mNAQPY1QEPH1yQEgKrxbjA/AddDj2e68XpmoTyOg/fyfBKckJM+5DUKQTxWo70Pb6cVU0167dXTdO3aYqF8d+jPFA4YYTkVzUPgvgHK4c5BcMJfoI5TP5kTeyHNgTqwVGy0Amz9GIxJgmQjeKxzcOigUVIVt6FkMJEGprKjNgkIPQXbUMPS4ACn/lZn4ICO+PwwhtR81JsWrDnAgS7exOAgsTnN6hsTg73Pdh6PAMUpKo82YhuzCPQsECYpAkH3nkMwABIs5Ek4xekJdWwlhXiUVRb+CbrCXvKN5KDcmHMmB1Odtxn9JoqCBFB9dzSMI8i8xUq5H3JmZCKxAAF/syrdOcCZ8EfcB42tq5bpUytrtELsKnaCjLDwSkemOC0GHTstgcaE4IjoQndIr7Z67MSoAXDCYVFOHAF18nIAgmPWSpB4mWBZiyCHPTwGjcGtk3V6bNUY7ZhEWGjEBH1kz0y7DBslmA/sDsYxNEY71qOOT7aOJOOVN5Hr/0tn5+k0UuyKHE9Z86ywXf8V7p/MoYA++28z5mhEPEoLXHGiE9UwW4+U2Q02XbEmRYBAoL3MVRzyc3175xqYTuwMEtiJ0p/p6J0YlrWXIQjKFaUNk4n2T50y/zamXlpF7zrdQayMtljNhF66A5UXIaN/AhK0P4Wu3qkBA8YpzqJFTQ83bW4ITDubFR7eQStWNumVl0/T9ev5ZgVpBrx3snaTjCvjNdQ/EYfEJSVQs77E4eyWZGBW4FBGdmo0zoSsfUgBJWUvSgjbddvKNu3dfYNWrp+n+ek19P23V9H5efhBRDJlILwyRbNhBLvNtzBAjQdoQeJ0nOBPXlvY62PNcpSpUUIZY+DAOO86Lf1nLECQxn2QoILYCq2eVvtmnVDcxswACpG21J4grOqSIxsW20Gnl1AnfdEuaYRFbul30jdWGPXoqwVxUaF5xEPL2bxi2ywalxxKCZulSQBxgZknQAKcGe35FSBre61KH1tRI5to0Y3VtG2lnecskJq3QLgqWtEOjgJQOAysRNO9Ee1r9elku0cdJQtitJgiI3B5OWYGAUx6EbWzq5gZ6qUSobjVe1c2actqJD2yMDeV3s2OML6JDCkdqOeCRaEkSQ6oRNFHOJh+9fwCHV0wqZRjZpcfFCTYU6qABJ473w7uCTtWz/vqcws09alPaEsOK5HOhpGH6rlAg/RQSj1MATX+tUiYxw9POFmVOblHYM7VfIdkOve9hBTOJWbg8owGIbKOeHapP4yKKKkGfdDC7QacKd0Y4EPmASE/qkSeDWmS3L0iDCyFhuqNCj3y0A5atWqMXn7lJF2fXirgwRY1Bg1b3Ufb6lu+NiME7HTXsKcnXalkGyUAsyT8dnLQk4sSQ+KgutU+cLRCP1EvxoQyprP0j+6+QXs/cojKzaEJLx8SDVoV+sbf30P7L0zSaGTdWbN8Oiw4gDMh+oYaD3BB4+ZytPCmro45+CNawaRxJo68iEUr2CEkDi2fdT4IEfM3fxlqcbZcdS19OqI3ud9Zwl/mNU+TECvsElEwaxJaHRoEjSfxHoboXlS5oWEtFyTIbBXZX8vxR0C7hTUJSGo0jEIg89YolHgmz9QgCZTQtvZHAHOPznojuq1RpQ9N1qmh8//aMEnnOMAdcDA9vY6CtlgIyvZ3pHWyXRyM6FR7QIfbfbraH1JfcZFMBhuopBibP7t5Q0wKzwlAAKBbW6nQnvEq3T5epZXVEqvyymPmaCSARbRyvlrUaaRcumRJmW0ET8LT3TZotxqh+Oc3Li7S23NdF7Hjm13SmFkhTYLWEFizhXiXx/aMDwjSwJnaMKChmCCNL0CCnAGfTH2I/J88I32MHZjU62wyqpZtqex0gJD1RZw4u/0RZ63M+pky30TtvkmAxmMPCAlRnztbttBGzrDTAALzlJR3/bn0eVXaXNdhOntoO61cNUav7ztDly8vOLbq75nQp9Euohcqss88dau5bO11Adpy4YUcLWVoAt75LpRRlVvmkNwcda4ABIADlNFmzQFCGe23HSiwZx7hZHp+wAs+eOsMPfTRw1SuD1htxqGXACjQ+i426U+/cDddXKyboSXW3jE7mkD6ZA5lRI2HgTFvcFhr9nGQ+YL11fKzLLKFKwPYyDqV0gFCZG4AQW3ZsILWrpuixYUOnb0wQ70cwSxMK70IiumC0WZkb/P4bQUSkOSi1aGe8knI2jex037WJ0OhY67h8IuxtnM27w8LJICJwA4OoJDHOP2gAUcQOTUipF6D77BYkyJR1jn0zmaNnpqoUZ13pMGbMU1BuUQjpAJ13DuuJo+ow0hWQye2ly6le0ThOkkTePNMf0gXu0M60x3Q5f6QlrCpUk5huamXmVB9V1rjeAbfi/W1Ct3SqNC2RoXW1ksmY6J4vFfKVGrUouiOaN8750S/eA5GBQGC64Zp2gk0VgcHNjTqgE3yhUsten22G3Oc47cjHBY81cra54IEXzugCDl2+EvhPMwTFFPSAIlNKfHgFTsOxYXVvnJgKh8fOGGFP7gPKe8AzJVsalDznJy+on4LiMk6wS4ib0dBJzhU6uvhOOjZ1qT9VO2aHUPWPGSBBLfmAtML+DCEeBzMCg/tBTho0hv7z9GlS/PB2c3iR3BbGlclKxMyoYAk0+mnJfUxO7YrcOB4nGi+FC36jo3jAg7Y1m98DtycZWA/PIUkT++/dYYe+8AxKtWtLQKagiGiBTET8GUo0Yvf3EUvnJ4MaCBKbIYTx0iEQ4L7LC4NOH0ysyPwzxzah6nS+C0gakJCKgEwjIdPaFq1OZD3i3ZSTH7Q2Dlv37meVk426NzFWVq9coxWTjVp34FzqTXGdb9hc037xZB8Ro4EEwLmt2IvjEbU6XS5QEbujCnmwG/nSNEoBUrKt73Ly2FaywUJyzE3YOERYlUkiiOK0Y2mI0+TgPvoD5coFoFnTQ3inwBtw+3NCn1gsmYqP6aABAOFreS2kxIxRcWONUhw6XzjFOuApuLe7CyGMru9EU33hnStP6QZhJ8NR5xVEKcCPB7zRVAyyaj8TWgjzAYTJaLV1TKtq5dpfa1Ma6sVmkTmN4nMiHtoUrlWJqrCNTsCws50pgSWDxL0adfF3ZdwujWaBL0l4HT18tU2vXbDpFFOI2vZijGtgkfDywUJ0s/Vqyeo1xvQ4iLyLcT9ETRj9gVeyLksMjdocZzORYpk8vPnJKRqLyNXRWBjmmctWFDzG5trSzOgo3kkRrK5EHKBOrQIPeQrNSHDwsMcQIg+HQM63uVIeAWmScaUk0Rz2SGTjXqZHnl4J2sODDiYc5UqHRGqLapNfrqbHL0QTNwQ8fgcWWh8TYioybUVomJFfrSCdCe0LgIeUbypXjOJg4wjYDRzjsfb3C6iCGURDj5RJnpy5yw99v7TVKnDB6hqQ7gBCgwwYOPYsESHX95EXzy60lFWLI8FGadGFuxIYIR+6LlMsWzABwL9AFfj6I16hR00cXBst61Tt83QCSdK+cEHQpqvuu+MIoCQEIF2o1QrFfrYE7vp6y8e5ZhPTNB9d22lsxdnaGa2lS78bSET4whcDCTEGou9YhXY3jX9PCIblpa6XGoz7+eaCeEOn2EWgjfmoRDCzusLv5fHRWwjhc0NlnuwAM+ZD5bPHnDKAwhoHgAAROgABp8AzUAUHqBdjQo9NVmjce94aIRcgAGoEEiTBlo0C8YBy7UtwEQzb9se3tIOW7IGbFkGXULFB0/iIdHScEhtZLxD2CiVnJMhjAI42TTKJWpWjKYAY4B2AOAIgjSyVdpx6+p8diLK9SpFDggKJKjhi7CK0gFLop1oPg0Dsul9lU0aiaReutqm/bOdhC+FXgehM77mpYRNCE+fIOWoYces28U8rJhq0Oatq7n66rWrC7S40A6ajJgBe6eQEECQZyQI1FBB+nnJMe0Cm00/Gxt32eY7sPwKKl/+orVFykpwPwKnbWmrA20V27ZEWxE3g4S2+lJvwOYGAAQZe2xP2qH7vjIhvirt69nSYOhmTA+haW00KvTQA9tozboJev31s6w5KHDQtz42UYvo73haWWfHHwxDywK/YAwoeNSw4AAZAQEO9HyHKMjn2TArcNpiaKc9cKB5PPfFeUabliuVEj2xY44ef+IMlRuQ1FUGAqw5YKddkw+jxNoEouef30TfOz/B93TfMGxxrsRBj0FKOvm7su9oxPA9Q3sIqUSfTIVJY5qQMbBp0PIB6xrhFoUBOtcdIip96uc/z333CVeID1mnnn7fbnrmhaPOKfDuOzbT5WvzdP1Gupeq1pgVBQlGZmRLy9ht/kgk3aDWQ0IlmBzyiDVGGBmfZKaW6jEdfzHUTEHZXxgkYMhFPZR5xYcoGY0sbukUJiABj/OJWWdZZANZAc5r34OmUH8JTns76hX6yIo6TYVAQqhpq6LXqWONiSKy/UTmAqPLd+pgRgeWnSuvbt4YtmBPIphKCUDdHV57wTAeANQAwcgRG5anODT6X2nCvBClt+H27OYQWg+tqcSCS4CioUMeHGsR0Ha7P6JvXV6iIwvdfEdLEVhWuvvUkAkSPICgGSXGsHnTCtq0ZRX1On26enWOrl6ZN3bVFLJxQlp7goszg70pJgdpwow8g0sqbUzos/KmmcfoJ3upDC2P/SFCxI98cGyG1850ltm+x68WOoOYY6hrU9oO+E2YsEeTUEkDBJlnOVwXAQj+2P3x5u3kPP6L95v1Cj3w4FbauGGKXn3tDF2EWSF7aWKfFa0c8xs2L1jtSaBzUjMDt9I8TrAOpiqj8RfgwksFTTzySQhFaB9Ec8An9rTqm7KWqpQyDg1P7Figx564QJUGfA4Qzgg1a9WYJxmV20MFDigLJfqzb+6kq11lW7G0KT4Hojlgs0IGD4YpQWsfQJnj9bKpMImDkOQ5ML63jsa4eymbBesyWS9T6ZM/j0yK5inDuzyhVyrRA3dtplarR6fPX6cVK8Zpz+719NKrp4K1poPjsACEmarqkOKl8W4WiGyIXog6L+0hBHJpqUP9ArnnHbPKEYLLMTf4TRWUr4VBwnLMDSLsGSQ4O3p8N2uAwJvW+tCLc1DCmS4lxAfMDZoFNm7gb0tLUG+tq5XpY1MNWhvfD+nOiQHTlJ9oyfJpN2+aulJ9X3D6UzkYZG241oeYOFQZX00fcSGTpN4ESMB+aiLngb+nFPVarYBEBjiBoo7aBiSYuBMRkkga9ZWLC3TOlm6Wxz05m9j+ooXytQha6Pu8QNf+CO1fPL9pwwpqd/oxraKMKQ8oMPNXDfN02fhyHyjYs1imPLJ8MPP0qEE297NmCFNydjCOGiH0OT6FJsQw6qzmmfADWeim+/9wU+pdIXHw/yXrR6Wdad1XuPhTJCN0EaEi2lkDrpb/C7UNAfrQQ9tpw/op+v6rp+jSJeOQGNGt/cvTUoW+jvlA5MKYrgDnPZiHO9AG4vrrXA1xaFTxXOY4782on9yGzZWANZ9nR8B8TTTzSqul+MC2Fj3y/stUquNERjQaGB8rBgfinMjrTzTqjOjrz++kA/O1hDxks4LVgiws9VmzFBoJmxKsSUpHZWhwgG+72gqBRoIAwfpOTTbKhBTxDBB4Y1ghbg5g8V2Bf9+6dQ1t2jBFc4tdeufUVUZp5rHw9vevysEuM/RRq+5yohtcF9OeGyH/+YA6rS7XYecNH+itXOcNdNMgIfmybqooQJB1KLKVlwMSDOMzJx4wMYAFX+iHQIK8x3Sd5y1lOy0gQY9B/BJWlMv0/ska3drQKWBSqgby7vMEq5Yico9PCpFaJcYY5FQv+e/tO3w6ZHq37Sekk+p9jCYj84lEIpgnhbIMyJBtwSF+EsEQ46KBU6wyrchRMvJDACwwAAFtX2316auXW3RDcoEU5IVCpVZrHmQ8Pq06UJ/heMhLpcbnR8iwEA0RtXM2TQIEd5K2L3K6XCu0A6SRaD0kEBPgxoVtlqiEwju8lJ5JQHU8S8hihRC9gNBF+Rk6iOsffZAgSlBOqmSZkUR0xEjGCqL4STG+d4qc/pcFFKxfGFM3fHAADvZup/UbJmnfvrN04cJcgoaWxeugjajCqbcIx0s+g29N1Mu23DKxQ6JfrVTzgxAJ49MilDEYhDJ289TPqit4/wObW/TQe69QxTokDns2mswyVWOWMhi/367QN7+3lQ7M1XlHC02iHdYcIAzRAh1FSvHB26gH42tg+DorV+1YqmxWMCYSm5E/lnsE34SfQQwgqCSdU0joVEYbQwUQlDo1bNsyTJAHpNBshCU8Zu6tp5uIDJ8EfUJzmyzF5BC/nF4sCohw0B9St9tjJyqtppPSzcI4Q6YWnyzTaTl7/MvaOAUfXg5IEE0Cn64AnkZGoyA/HyA4pm9DGIsCBLyH5ElyisO/BSDg72apRA+O1+ghZPOykiMTe/AzZkLMc4pK+GCtj57CkKNrxhRgTn0S3qTVx5Fjo3+EjZ/2tHaB97uUghW/C9Y6qPI9YK7QVECDkML/tPnCAFTrY+BF0Yi5YQDHptkufXd6yaWaji1gPsaNC68MvhwDuNrfwntHnhN7poAjObXi35KojUtIaxNUBkCQ9fYjHSSaRISv8VMI/CSKRN1ye99NvHm3Av8DZWJwvMeP2lAHqdAnW0jYlaHalj6LFkHPMRwVRWBobYHrSwAgRP0Ma3/Tlvdm5DEqF+59cCtt2DBFb7xxjs6dn42UIXbRHS1k0JW+xQIe/gcF+Z1+F+Gk4zVbbtk6E8bMCurknaZNAD1KfQYWqDbPQVG8jX4/uXGJHnn8MpUbJSb0Ub8fFeQSWrBG/l6rSt/Zv5nemK07c4kcnE0K5jJHoC12hhytkGptt3zQ9LPEWgwcpsbrJVN4CY7Z1udAm6x0gjIABO2YyDIdZoVGmfcDDpGtjgIIMvlyMEtDo2aTWYYt6N521KeL4Lorfwf5hr8gsfcCGgJhMoVAgmIGw8GIej0DFAaqbLJPtKkLYx8sam4Ijb/oXsjrg/R5WZvLCnvjR2tQpg8UtGKNZfNNAASc9mBqEMEgYxaggMRKtyKJ0GSNVinv2fi6W24sunDlV+DWS2kYnE+CLbfrmKcgbJuwRzv68eZUQspxPDX5jtY8/RNfF5BgjlhmFzjtl1N5BgAAIABJREFUBFEJGfkaNZuZzPTIX385QTocZNvR/cK9hd6QXplu0+GFHjtSxsJUbaMFlTyxbZpKjzyO6G4MMAQEgO+ELoKdx2UNJPivDodULiXcou8K4v4dLSavlwBb8A9jxigGEnTKd6245ToJ1ajaZkyQ+yXqFUjQc4I+wbzAWfhSBGQWP+BIBptV0vFi+weTl2hQMlTn/hrkmR+K8iLYsh/au82AgzfP07lzAAfpYlTmL699bN8J9j8ojmyFZmBjr9uqjJxVUPkDRNMvvj/JvvJpG1kWkecAAANp24NthBcTBqnHNy/Rex6GWcHaJHEAtVkWWeCqvzutGj1/cBO9MdMgbYQCwOXS0TZaAT4sRbrh2mY+VKJxmASs5qDVNQAD9BADAd5QfIUstDFR6WiYWYi43LNDvVblJuaGPKO48JC4ujXeixCRMGNWKWfljQh6qDb8Daoa9MMfUzeEL22hVRgMqN8bMFhg+7zy8GR6zaBuuRV+JH41IRBSmEfoclGQgOeKngqMqcH8zDsjJkjMAQS4b3kr2q7ff0nBrK8bLVu0WVdXyvTeiRrdUi+7LI2JMbMEte8oZ0QjbWPEYJG7rYqobnEqBi+M1qWkZcYbCUOnBRB/GfttQ1tCoTbVrwhmT/SLSrFUr1DZ2rZl0kMAwayCBQ9KwwZhCrI8v9inl64v0aWOdWSzp3InN23XRBiHNHFZZBfco7Fxi0d+eiv8bY8PR1qWyBlKtAiW9IKBLLK0McuPCBFWdUUfknURf4cYvdnHIr8LPTNay1RmMCeLYMCapTv739C6aT4A4bJoVct4JQaElPxLAwmtFMdqWVOhvizv69Aa5JkdpP20lYXm4MEHttKmzSvorTfP05kzM4Xql5j+mmN8WVc7VB8y+Q/MjBhQYW8GsYc9L0MY2tA9k+egH0tp7Uuf+F6QM7fxOeCqjMOhjVYoqjdA5liixza06PGHrlKlYTbpCD4k0PIou4GQaRfg4NAm2j/TjJl22UGzhiRIiHRAjYcB9QrIBwZJKp/8GAt2UytnyYIDLVPTmpT+MVBrRCmYFzpRhs/SP/2/vzB65+o8XUdWQkY81lkrcNJPfChmakiXqP4dYYbMc/MyKfrg0msskSMhrb0MaTsaDBkwMFjA33Ye8lxzf9jmhqIAQRhqUWEuIEEAgllXQ2DYMIjK1hsrAyulkrNoEfxtZ/ZPdBX5Be5uVGnvWJVW2AHExu2pg6FKC2Wcc3W15YhhIxakg86GjQtsmjDJRvhkZgs+xcas1Opmfh2LjhIuKX8DM4PC7AxjLNWrVKpBVxMHMon5VNjDMexSiaMU3pzp0JtzHeqwJ7Thoei+RFiBSXY6C9Rpz1O3s0jXpk/SUus6dTot6nYWqD/oUqVSo2qlRuVKncaaE1SrT1CzsYpWrFhHjeYU1WtjVKs1qVGf4HHyPPgnRKlrkMHA9AlW1wvA1Anw1ABBaxBEUeSErsKFMSBki+SE0jcb/w9FcfZEHgnZsBAolSS9cjQ4IbsEMLBgDkxVM9il3pAFlT5ZQ7uH9zF21gIrtxq/Xfgg+D8dRuv2tmcWDPUvS5Nk7NaiOTNva77B+MvyXDYrPLCFNm9ZRa/vP0fnzt7IjQ5DezfmL9Gbx75Bl64f4flYu2oH7d39SVq/ekdsiAgfbnhMKzOclUMZTVw/pgFFk7KrMiad4jFiPm1D+2CTIIXaQLpsMztxVT/o9/ENS/SeB69QuW73CfxH9LHfhjPi7f5Shb51cAu9OdeIgQO0zf4TbFaQkMpsTQpoyO0Py7PGa2UblmnMChiL06Zq0OVm3o7K0hGDFOuQCC0YgxTxdEZ3/vh3v8HO4Odmlujg+RmaayOe2ghu7SOW7hWuN9UyQYKoaAtIwlwkrD+9XJBgVSEOwIIZC2hAadYBbIuGWDQDiFztQownPBdugQsgxRhjLPD8sswNzCSMZBJ/AT0KmGCYsRVNZxuIbIDAYFNGwInNLxE8VSnT4xM12l0rc/4BT8MdH30mSDAJeCUkUoc/JoCqcgw0WoTIQM7POu1FlH9AQKNsQhZKjnBsN8U5ErVrkZ1PgQe9T3V/hCljDcFrLrT69J3rS3S9ZxSSImjQzeEQYLZNJ068RKdPfpd63bgneQFSCT5SKldo3drdtHXbA7R18x6qlKtUruC8ZHtaACRoQMY7RmXQxN8sJO1DQhc87V6q5awxxH1Rkk+KYBasEAe7TldjXzTaI1TZi/2UhSW0k3lN7A0WVtBGyiCEDIShW7oKAXhpm6MYZKHxvkVUwm98jUSQ96sBhPIOpc2p9EubfKFqfuD+LbR9+2p6dd9ZOnduJj3iSDV87uphemH/fwh+6t5dT9N9t3/Q3BuNaLwKT/nko2kggbMb4rTN890nmbLQQS4UEslC2YIDE0Joyi2bvR7nOQAI+MHXQSgGXX3vuiV6/IHLFhwQjQAOBP06D1JELhANeyV69q3tdGChHncKHxFNIPKibA5lMG/4Dokan3OEFf4faxfNfGEPsOYAWRZHRPOS50Ax8YDiPDbZaGoS9RnKJpESfA78kEoGCEy/pRIT+LHL83T0wgy1bbremBY3RZD7iNU8li0gY4yygBaBW8wBEkX6mmc28XsdO8AiAsCCh/5wQEOAB76G/zLVMzExQk91TYvPTDqkim+cAhiKX7gZkCChc9J33hjCxOGnwHm7k5EPWUxc7lVDmXCkWI9nT4UVeHO1TE9M1mgDqul5oC8ZC5cSGQ3Bb9fD5UQAELKbx5fnOo+Co1xt2jDEZ1Y0kXI5vnENNzFfKDWrxlFRIY9EDgYvB8lMZ0gv3ViiMwhxkkm0/R4O+3T48LN05uR3qd9vF8p9UGSNws+gjkSNarUx2rnzcdp163uo0ZgwMkzGl9a4J4PxDs+9nXgfkJp5dTmJCndZtAiJ9XShuqYp3R0rq93pUD5WsaYg//QlbWftUwjxxb51+vXPCurUJ/vKbws8pSup6wUkKIDAIB1+PQg7U/RXhHeEHB7TJpjXBWCpYsDBju2r6bXXz9K5szOWp2UvzczCVXrm5d9kXhH6QVPzmff9Mk2Mr+T5n7CHgaxWBSxMoPCSFYZLXZgVkm/5wEJzB3wPfgs4sWMwLTgkZvhzCEAw/MC09OTaNj163yWqonwCgDrqaPDJURypomRIg26Znj2wlQ62ojTr3NbIhGXWOErAZGq0ebUMrUryoqDPieE12Evic4DDxAKXny68bQxvUuAAPk0ID41Fdho1IpX+6He/4UgaGx/fmV3q0lvnbtDF2SXTmKCWDCkVAwmO6SVJOHFFnn2XQAJG7jZ1llTNAxtqviPAI6wGaidDaO4kDPU8x7za/w2QMGXEJgugVXassqvvM6wiS1sUICwr26L9MDQJhi95zm+qY6brAAt4JqyqDTIF6+QozFE/45sb5F6jVKJb6hV6aLxK6wAU7I2YTZqljtmQiROHC4GUFs0Gdw64elyWKeKBWHSDEH7C3h0HCWJ5cJoEd1wtUblZNb4PHgjwTQ741FxnSPvnOnSi1eO6EfrXWpyhgwe+RNeuHqV+rx0kl/rYKtq+/WHauHE3NepTVKlUqVw2jndg2P0+Tlwtun4dDH8fzc6cLUJ20TOlEjUbUzQxsZ6eevLn+XpuWmb7NtOWPsZbBiXCWhiW6Ws80iFPCAbNTbZ9OXVHu1bxBsOOo6RVlWSaZa0Z8tdQTx7nP4CAFwCqB6Y2u3+Q4nobKHwGDSVCsQObnOuECP+1Zgr5dmxulAbPn7NC2gTb52q1Qnvv30pbtq6ktw5coJOnrpvoHNGKZVDNviNfpaNnXsykq8nxtfTZJ/+hEVBwUMxZYOxthFeO1ZDnYESoc5FWBigBEKzvkXFIhBOfOQohNwD4mJ5u0ZobWjQVOeWH959YvUSP3HeZqhzKOKJhz2iZ+Xm77qjMiBXttWv0rSOb6EALDgrRXkaLbCKpWM0BTuyBfmTVhsE6IIERHBKBkRaQsyHHq5HfmapTtVahhbk2DXpDmmjaaAU413aGNndEBNLN6C1AEBqWQxNuImTk6JV5OnJxlj3dcxmCPp3FGGIGSLBEWQSAuNXKO71YbuO+mgU8sgCPR+b+o8b3IUzdmnFaIMbClbUN7BCJmp/we4DmwQAIBha+3TenD2k7cblaBCFyOdnpdg1wsD/mp/HohyJQgUPg4LilHCSlyTSQgG+OI/9Go0J3j1VoA6oiKtO4m3prd06YJCx4YNq288rvWJW3aEhi/fdMFzxupUnQIZEKByjBoEQ/+sVZFO0JxKMVG71MM90RvT3fpXdaPVrwMrd1u206+NYX6cL5/TQcJN2XYBK4ddf72SSwatXWCEipNdPqfLPORigutWbo4qVDdOTw16nbTc+I6tNYuVylH/nsP1fMU6RX/Emp0cVmBTXJvm9C7C0LDnzgkClx7E2My7qWGKadkhzI37HCCNmkWgnXG45pwQNZZzsDpFeO5z/Qe8ZXJkZAwRwvur2+zfIZpe9OG3PQz4hVfybUjb+baZ9LrpNcgVnhwfu30tatq+jgwYv0zqnp3KJTHAFiG/j6936XpueygSdA64998FeoXq3TVC2hT4sdPXgNS0RTzSovKHwOQpoD6T/XKVHDg5DH+1DFs98CJ7KKA4xYnoSA1hfz/fjqFr3nHslzQDQCOICG3Z75jCw1X4ZD4ndObKA3FxpOPkhdBM5uaIssQZ3PCZ08gozVhPGIgIvDWbMCh2V2h5x7w1PYxd4Cz9p1+3ourtjr9mnVynGavjJHvaUOyx1ETfhzKnuH2/3D3/66SbpsQ5CYzO2pB3+fv9GifWemqd2zHtQFjrJMq0rzEDI3xOalwKk/NgnLAAkJJ8a0nZcyLuln6HYaSBC0jU+xndUhIO/jFj0wYgRQQH14nCbwX6ivAqChwPQn8p0XYbBGeHhOXuqkZ5hutGoMeFT1yBRLgmHWkjfA+iT4TFrnSfD7CsbfLJc5XfNdjQptrpXJFE9W+MwDmq4NK9xZ2YOQHe8dl8JWSaQkENQ9iswevGb2AGq2j8fskK63aTKlSbCVTB9ODdOdIR1d7NHJVp/rQRgmY7DGaDSgkydeosOH/p6Gg25w+bZue4ju3PNxmphYHQ3X/uUzjJCPiXHMhPf0kI4e/zYdO/ocmy1yf6US/Ref+xdxJiSjD+BlmWNd1Ctt7zu+kTKOvL5hTHIqxxz4wtTNixfaKkCwxFqE8FdiQFkwkd2/S4MRtWyqZG1ajL3jNSt+FLD9SjVa3ywp+4ZJw4JcyU6aNxey7xLE4ffDnnFRc2fv/Vto67bVdPDAeToBzUHBdMUCEv7+pX9LMwsXM7tmAMI/oWatwSGOqT8LKscaZa6HstQdcBKknDOUTX8t28kI1DprDmzBo4BpIq0PCEF8eNUSPXH3Nao0rBkZkSoqfNHsW5g0S9RpV+mFU+vpjYWGC/HGbRzYGKTArEDWmRAOrQmeapmA1yEu5MURDzCRaO1DRBfyij+jUysatHLVOJ07c4PbWLt6jG65fSMdfessgwPg2tAyO7n3h//uayPYSZ3d1AoFXTP7eqtL3ztxleaQPZGZbMbCeqc8s0mTz/tMIvaUal+eS6CkAiBBdzOtz3BOunXbGppd6NDV6WSpUt3PwloEX2uh/x0vH5G+P7BqCD0E8uv1aYBEKlbTUAgkBE46RZhKIpY6tnpK3a+wPjYtKp6BoXGa5QzykLwKmnkHAYIVluY5s5kQ8bChWqE7mxXaUSvTpC2cpMeVxeCdqlYxeGHiksWOsYIGrNK4Vh+rCAcWalYCmwgA61AE58S6VfHbZE1LgyFdWBrSsVaXLnIBlqQPxeLCdXp933+kG9MngstVq4/TfQ/8OG3ddl+kufDs7E67kbPgWoAttmbp1Vf/jG5cP5lLJp/51K9RrQYX7ugnTlT+y35GRNxPxuurdpy2wWefGd1SJ2aUx5azPB9S1GviFCmPi5A2a25NQQAJKZ9yQM/el9Nnq4+CX5EGwYtbUUDFWxmAg74xRUr0mE44JQBBp7qWxF/ML7PZcDwcVNtevfEhe9+9ezbTrbeuo7cOnKN3Tl83IXtF1INuLohePvDXdObSG5n0U6uO0Y998B9zamQJcUx7AYJ1slGhVs86zynZkvURMQeJzwGH/3EK5lzSdg8YcNCiJ+66RmUOZYRDopGmDFJs8iPLnqjbqdG3T6+jg60GC1xHg7bwkuQoQD8Q7RL66boTEdsxdMkRD7bwkqSTDrXhk8TaDRPcmenpRc4YiZwLu/Zso33fP8GmCc+vNtFkSQCCbJL4ro+SWMx3+vTi8as0s9ThRxzCSKFSOQ1EhJwDEoTQooaDk5hoJcd3Id696G25vmn9CvqJT++hC5cW6G+eOZTM1uIxGd2eKdGavlNFkyBRIw6k5G3sGOOVf6Ds54D6qG/e6bGDTJY6Cm/djKkBxOTbBbWaWtgnaxA88MBaEDC9mKdXchnZ4cpSENpI82mQ04KZrmhTYR6RkXFbrUJ3WK1Cs5w/XtEk8JLZQaU5Lpp1Nq7NQe2RBQlWsxvfNngPzlC1CocdXYO2oNWjc50B4bRpfkkmcfHC2/TaK3+UamoaG19LH/zIP6Rq1epQ1AJoZl4UIKAXJu20OdlAEL315pfo1MnnMznpk0/8D7R+3c7EMyHHXAZM8U3D7/mne5lunfkNcx/RYvFN4/sl4E1tPtO8yWgaFG3BzOCyZFrg4I1UgILQ5UJvkEjP64MEaUJ/C9VxYWZkapA8LGqYHGXE/ramf4ixRwrchC9O5mp5NyH4ZVJRor1apnv2bKI7dm/gUEY2K3jHdMeScwDDpenj9Pzrf5zRmxI9fvdP0q1b7+fT9FiWBsGmYWYNCwI8AmGvaR/Cs9A81MtGc8DJhwQc6BOn3YUG1Ec0ib8fXdGm9wIcsM8B29xpBG9CFcIIkACta79Xpm+eWk+HlpAh0bANHOZA93BIhAaEE2lxlID2JkwmcuJQRnf4tW3AmRMmEowl4HOQtTPq9Qrdevt6unTuOpsXV6+d5Lojx49eZbrHyH3/RmYrYpZlgABmZ0OQhv7J3P4biY0Wun164egVmml1ch0Xk5EN6cPQd3jD8tEmmyHE7i4HJDClGdLCn1s2rqQf++RddOnqIv31Vw4G47/tmjt6DGkSpBSxJlqJKdcqXmd+KM7vjN2fBX700hCmiHaXOu0uoThV1mZh26xVqxb6rAcSeDnsB3yrYeSkGW3ibqB6pFaXOmZpUzLj32lmBuFVJu5ciz7LNAklmcu0sVqm2xoVNkWgamTI+YlBsIzDAwj+GvMhwTYCIerPG6+tqOnVfcwznAwvDYhOdEd0EcIjeGKIt3no4DP0ztFnU9dx5art9P4P/oOw9k7o2YMd/r5KW3thBjxmIjp58mU68Obfpvbl3ns/Q7tve3/ivqGTlK94jDkEEnSDxqPemtadmcZfpaiok98Zv6CS9jnx1dRiDuUIAU6RXXYgQdpN8ptIWs734Ilu/h0HzVromBbcNCDfCMyI8gFrshK+FOMjqAIoqgUlpM0BICXNvEqkk/CBsI1DG/HAvZvp1ts20FtvnqPjJ68l019YE2EqMXg39r/9FTp2/qXg46umttDHH//v+V6TQxwNtQT3qi2pbnLSZHxdLYyAdQEHeBGFlziuv8DPZJglemyyTe/dc8OGMpZp1B3RCGkqhCDRlo2SGnRL9OypdXSoU3VzJ0enSS4iFYEDU0TKUIlNtZY4KHCZKUtLJkdBxWgOSqZOhA52kSGJZsyRkv2DabFUoi2bpmjnrvXsWH/p8gydOH6NtdP8Ga+AIk+10oaV/gAAwarYhDhFsDGSxvrYhcT12aUeffedKxzpIIIjTX0fCn80TDrORBIsxXJyh3Tz6CPH3JDEGtEXARB+/FMGIPynrxw0tJgC0XU/gyAhxfyi50cYCF8rJK3N4HUbsfbYo7ZP3aUOdTu9JPoX4KdU9rmqSWYKcY8DDRKM83dE6qHlAVJGwqW8H05JxrlMZ0aI3oppEZgu0tvE7XqpRBPlMq2rlmhzrUIbqiVaVSkTNAyxvB74hAYJKl7f32hJcGCeAO/qjojmeiO62B/She6ArvUGND8cUbVsCp6Ef/ExfP+lP6Irl99O1RysWLWd3vfkz1O12kjHzYFp8QEC01GgQz5AwBwfO/YdOvz2V4Ld37r1EXr0kZ80dOk9kQkSUmbDdxg1bci5zrxkzAVqkCGmzy9GPQKw05AyjRwtu7GnSIOkS5U046jdj2osc0jdHld3BefFpWiHSY4zJ1qQy74g8QXkYQhiU99yo/NLmVtfp9je9o3LMj/w1ahU6IF7NtMtt6ylQ4cu0tF3rsamR1ltDJ/P38p2TwzonbPfp/1HQTvRS7t3PEn33f4Rzq2Bn8mBYEYjfQ7SpgZdXh/8LqEdhP/hwIC5RW6AIuAA38VyIwTy4ck+PXLrDc6QyCbTNjQH4vypnEhZc1Ch5y+voXf68Asw/jyDARzRR9SAvwDCMtkRcGj64Wq1JCeTZaKmV/AxTmBkqN5oQULvaXlqJKujeS7ZXGFlJoAvMn32oAnx9qEGqVYAuidKn/+tZ1iD4BbJahP0qglI4I1aKtHV+Ta9dPwqLfX7uaYGTVghdT86F/TMtQOF5iLrF7uboUlIAwlbNq6gH//UnnQNgnw8AEJC4wmCJRUiJHs+1XExY7BO9RSQ8Ow01x9QZ6lNvXbPmR/kdKRtTXmhRW7IkizECm+9TlGesXTOAfTfS4mJjr5hckaIycIffhIg4Ili3Ar9hdYFYZPj5RJNlUvst7CiakDERGlEjUqZYE2v2cRgZmphmzMbE+YSnA47Q+ICSYtDovnBkOYGI446WByOGCTgOTYl2Q5P1KoxjU98XKb/CD989eU/ocuXDqauenN8NT31gf+R6o3JGDMNvsDEZQVc4AEBp/4tfdqO5O6IXvv+X9CFC/sTLTXH1tDHn/5fo8qV3hOyJ1O1Cd7zmq7EHCemj2ilzekuEpApZKCSXzHD1f4kBchGgDDj9wyQIP1Ak3Mw94UEvB2nfFayefYVOHBT4fXNbXHxXwXQh/3bSlTRduiphId87CfP64qk4LflMt1/zybatWsdHXr7Eh07ftXwi6yTQwiYY8+kzGmn26LWEjIvjmi8uYrGLP1K/8YgQAOMSM9rgk5lyRWwkmdMtEKJGpUKj4Xt9DmaA7wDUADHPwjz+5t92rtjlipcsrlMo07faA7MzrNlm82/ep0qvXx9BR3tI/zSXJP91aibwwGczedaPerCsdECAPE1MS1G78US8OnaCuA7HHmhd0IcmJvwAddL01vfbyFDk8ItM/3ab4jVAHvg93/rGR4fGClvCjkZajTO3492GoTbqelFeu3kVWae5tEcQR7/dvAsk9aCSTZT4Gf7mfYsiGH3rvU0xuFn5qmVUw168K71NLvQpTcOX41xnXMXZunKNeu4qMan2w8Nm3MkJKjbvKVtoTflkyBAJW2+uXplnzqtDvU6XRP9ZAlGtHWytEXmFADP1DKIAzkHEEL+BoppsA0xByQwdaUwmgRAkHnN0CTkUYoIAQEQ+K8IHzhCsg2R0XyJ06Cia9ji4nyUZqPVAjgbIECL16f9+/6KLpzdl9HdEj314f+ZVq7cHFScJEjAFzJey9I/d8IQpmLnUjv3Sa2K73zrN2nGy5mABEqf/vSvxQBC+PRXcN9aYMWnH6vyNKfWuNAy2E37JYRP2f6EGg2V2fLgcwyWc+hH9ggfUCzA1+vrmPuIaKZvKjEaB1z18ycFOVFgg/a/nQNcxDznAwR/nJzkSGf2FKmlv1cusebgdgYHl+nI8SvZ0Qp5zC6Lei3vCD2CfAC1IgwoMchosoR/Yn2hOYA6H0NFKKPvkBhNgaGfeq3C+RUgyBH5cnezRw9vnTMOiYMSjTqDCBxwCI6JVMCv26vQKzMTdKQXryUK+gI4KANYDkfURnXPAXLHwJw04vwDeX5jLNjFrDAkzvsgponQdBnepO7Y/cHaB1R2xKGma0IqYz8xiaUAP8wtciWUfv83/34k9nN2gFGncD5ACnDg3WF8FYTu3jo3Q0cuzuT6I0jHeANl7KBUerH2qDzGz/cztAjr107ST3/uXqqhgpebrygJiHiyy3cOv3Od/v5bRyNm8i6ABH+MywUJaaYGny9heP12h9qLS+wIJX4IWjhYWZg7rQwSRJi4/0YjCRsHIkjdgzOWOFoFUjIXAQh2aYNEnjuAgg8Ig+c5zhAgIeHCws3CXt5c1UpmIqFjR56jI4fCKnzp7v0P/Ze0Y8dDbs+k7OVodAFBo+lNCzj9qCSIEoAgIZBouN1eoG9+89ep1zNJ0/BDLoRPfupXub4Dr0uK6SK6Z3qhvx9aEjYJeACBl8IyQAEIMbpVB5+sZQZvQwjf+FSD1/bKxTmaudHKpAwB1sxT1GlX1hr3wXdnoRGQuZGbqmXeHwIO1HW3Nj7v9ubT+e/YuiHcnwAxuAJk9sDm2JUFRMiQCIfEO29fT4eOXKbDR66YnCwZ6xebIO7wMk2jktvCGyPH8+ccKlMXR2kQ0CUDDoxZgQWq5AaQw64zr45YY9BsROY/gIM9zR49smnB+BzgQNBGEiQQnmRktX9DUzgo08uz43Sk7x0CS0RNgANr3mh3+4TqwUL3/N8hUa8/pJ4t6uWPj30OXApmYi2I5CiQbI76HdO6Mrw5cAC/BaMUMI6RUT8kEyeTqaYhtRZQABiQQlT6/P/71dEIg5ITorML2U1thbNDzGp3Ah1968glutGykQ0FFjwXJAQ3mAEWhTO3pQhyZAnbc8dGmho39bjxqanJOu25bTUtLPXp7WPTbqNjSk+du0GXrsyZNQlMZja4hkYmAHkCAOZmQIIWRqGNJEIODKCzsES9jqmxoU0N6F1Rc0PZ6n593Ygk/AluZklUx9niDEgIOSvqd31NQgoNJ9ckk9UXu+kAQs7jvN1Ux/yTJU5xY7VqqunswvkBLh0ZAAAgAElEQVS3aN8r/z7zK+MTa+lDH/1HHG5hcXoqZtGCIEgL9qIvoJ0zlL0fAgh45sTJl+jAW3/nmoaG7JOf/D85DbP8skCC+KxENvewM6NoDNBP8Tlw02xBm+womRP+fgEntK3bV3Oq3vNnb1CtVqXb79xAJ45eoaWl9Pp5vD8sI2UzLBd5kBOSOViA984xQIhm1+0RW/yMPdpT6IVZfI4GIbY/rLdxWgZJmQ4Dbkxf8V8ApD13bqS779pIBw5dosNHLxtPe9V46gEtJMnstVAYa+xxlfxKnsV3uI5AqrwICAFpVPksmtN2mRo2CZIRqErDELPHl0xkA6SeBUSYo7vrPXp4Y8uCA6JRByjAUDMvmYAyHLj6ZXpxfpyOD3QsimmsUatwimrQQafdZ5+UEKCH6ZIjvbo2UZ59CLLNOFcah3QR7DHSsNraGOi3D/CesWGhKCsCt/XWksnUmGgj2lTRUtlGMaeoz8BjAX0wQABqV8BA1k070mkhxstnBR1yIzz79kUWAGbT5pOZU5m5pYpTYFoLjE0KtC+bQjMv/QWrDOFLmzeupJ/81B66ACfFLx9w29ydtEPfU6rPHwQk6G2wbJBgBhmlQQ30U0ACaxOWOtReaJn0zx5DKhQOaZlwTmRSUj4J3xwRdYZZKZEiKZU25XbI0TeMpE5+8we4woy1QJNpKmqsaa1cpmY1HE/fXpqnZ5/5Z6n56tH1crlGn/jsr1E5ZKpKGRvPWUq/0/aTDxCYD8Bk6Nmsce3ll/89XblySMQCfezj/zuNNVfEepPlSxSaUx/w83cLrp1+LgZyA2ABZoIHHtpBb+w7607MGzevYBXshXMzwS8Kj3LAR3F7NnkaZsSmp9newMyb8V4xjDWU5CxjbPw9y1dic+BFI7gyv0YT7sqkZ00bMkTec+cG2nP3Zjp08AIdOnzZOcQVPnRlfqDYqom/ApsEquXcA19a0SaTOGjkqjKCbhD+p9XompKACcaacNaLC/Z7awN6dFOLSlWsV5mG0Bz0bclmd8I2UW/DYYm+PT9BJ+GbpPYZ/mw2qjb81JgVcCjLsmABJIDJ4IDd7eDZoTmxW4fEOYQyZoHeQOMs2KEZqSIcHumk0UYGI8NDAUa7AgXm4Ec6QhtDAxCw9hzeaDsIojGmN7NEjKL5gqYSWziiVKLXz9ygw5dnYqrGPEEeaRLSicu/I4K9MFF7E5D4UikCCOevLNDffOWQ3aRmqJkgwbFKD9wEhpPnk1A0TwKanqiUaU2tRGPlEs0PRjTdg5OcVTalgQTbxUG3R0tzi5x8yac/p07NYgQpIMEPs0lrgr3+hznZSuw3/KHInkheLy5UisgecSTLe1a0CDEasZ2EurOJREl86o239PILv0/Xrh7JbH7jlvvp0cd/xjxTAKzEGvOEO4Mq+0CaBoFBiTqIa4AgIGJ+/ho999yvu0898eQ/oHVrt6eOIwEWYmAu2iR6L/uhiXlrIPdFiMt0c+sw9dvP4Bv33L+Vjh28RN1ujw83O3euoaV2l6YvzfO/45zN0xhKKKE6GIhHOsh1ptszJeLtYmVlOwxxu0xAGmDyDrSoTmv/ET0WqLzvvmsT7blrI7399kUGB3npfIuJ+2UFYbkuiVyYKgAQNO3KZsDJFjb+ennIZgX8OJQxWLwJToglBgcxOiOie6sDenj9ElWQ52BYpsHSgIhDGe1XeS8bU/SgX6Jvt8bolJ8Bjn0O4uDARBqkbFoLDBgguN+QgQtonysqpoxFEIfjN6oFo0mpUBWVLuFzIA6JaepXua72JECvRE1gKgEOuD6IAATmRaJJgEqKuYbKnGfUA8aR0U2BUV0hDfM3D1/kEEi5nwUQYhuiQJGmkGC/GZAQAhwIc3QahK8csLGh0ey7dzQT0YwiYL9Lyul0c0OMMYsGRnfUqujW1sv0gVU12t4s01jFhAZifef7IzqwOKCX5vrUsck5fMbKzdnTIfIntOcWqevVn7fLG8eACYliVW5WnSXddAAnj6OPiJ1aB0DYaVxI7y+Eo9sd4WhdXWOaFXAU+Ham+SOlr8sFCNKMnipERsCb2hc67xx/gd5WqvpQF6q1MfrIx/8x1WrN6PZyQELgFKoBApOCfSbmOe0BBOeYp5jMobe/RsePfZP7deeeT9Du3R9kxhsUev6+EGZkTQUiXmQfoy/+XhCQ4ZNhkL7tReE/DiDY/TO1skG7dm2gSxdnqTlWo7HxOr0DYYlcBD5AsGNmLanWHNh9xJ+SZ9gHIQIIRqzYGQmY6xNzZQeX7qQbmeV4a4jTse+nII6YytcD4OCeuzbTnXdsoGPHL9PBQxdNNtacfZq2pmmvFQUU8j4fdGqVZfkg4J2NW1bSqhVNljHjEw06d/IKXZ9pp4KDOg5SjXgRLrRzT2VAD63tULVhaquP2kMuvhQ52EXmBfgcvNht0KlhXJ+BPiAJESpsgnbbnb4FifFZioOB+JZG7QiOeIAzISKj5rvUQT8cUzF/Z60XtL+cK6Fs8E2rbc0KIS2Dt4CyrzAn0D7ANMHmDbQhhahiAMGCBAAD3rjKcx0C3zhzRhW4zAfMc8evzNPrZ64zOhWVXxpISGyGvERHIeZ/E+aGECFvXD9FP/npe+j85Xn6z89AgyCcxvxXwFBwLCmmBs1Hoq6HQYIwSGf/9UHCiGjXeIU+sbZGKwAM2FM5cgwzYyrR8aUBfeFalxZSVFOu/1ZAL80ucPEO/xdTFIUkv21fNA74fqzvWczH2g97KJWd9Zy6KbxbH0DjWC3aPv76RkA2hyOq24VNDEpIyCaW741VUevdO0OPRvSNv/9n1Glbn5aULm3ZtpceevSnk3fzuLrHVGJzIV74GXpPAZy8p62zoFyTTdHpLNI3vvEvaTDo0oYNd9Nj7/nZVIAge8f1wy5gJOyFcs0mQ9cAqfRBUEOsIkIIjJq9+O2CaKzJQmW8xsVqkKDoxvUW9fvW/1vlFECqZllPaFXl325BPNCApwEQ4hny1K73DhZa+MYVEgBIgVFaDYLzl7N0gCc1hfFlVRgL+x3pk+/cvYGOvXOVDr59kftYZB7xbqxt70CkiVPaK9Kufm9ymQCh0azQzh1r6NL569y38akxWr1+BR1460JwTPWqyWKo+Tbeu7MyoMdW96jSMPmQhy0fHEQSuTso0/d6dTrOVRoF0hrHKvgycHbDIYom9cM5CrJyzpMFB9wGEZwasT7wTYCTpWEv2ZsevFpO/ZFDog5UjrMRf40YzMIhkdM4G4db+D647J4Y6uf/9ZdHI1sG021qG80gNgoIJBfdwJQZbW5DOyXqDob07SOX6bp1WMwDCdL1eJ6EJJllEd7N+CT47aEE5p7dG2n6RosuXBJ7pHpKnwJCem91LSGgnGHYwYygDwU7QGlBK3kTSkS3NgEO6jRlCprx/xDvLH/zN+3zr8/36cvTXa4vHgI0co0Z52BArdlF6nWTTloxnwQNmDypbvFiEmTkyGOcYlC7IXX/5Did+QBBKgQul0mFunmzAEELkPEK7J3x3hx888t06p1vZc4M1ufJD/0vtHLlJklnEH++CEjwmIoGSVnzowECPuqbCIRZnTmzj/bv/49UrjbpM5/61cyoIbfHU7zkTZvZoZBMY3zoCPdeaxcksyWzKJUP3x+Pr5Fw9RvsNySqYyD/Fq2LWg0BIbgEJ0WAXrdVVK2OMI3pqp/KBKQc+nxHIbTtbwvhAcK3YyaVOzfRXXduouPHrywLHOg1E75SZF/pOS3yPKJ8QnkQ0jbIqtUNWjU1RrPT86wF6QxGdPueLXTgzfPsrq8zKaNy4+RYEhzcAXCwqkvVeolGA6Lh0pCzJDpEyFLZ9L4zBDio0YlSPOLNgQMbNQHBrhMYQWMAzYAR8GkzMaRGvUZlFqzGb0HnOUCUg8mdEOVV8bVZJsuidWq0gh1+gMv5cXXIBtI4w28Bpgkb8aC1Zr//618acRop8T9wFGJ9EuwmMQ68UZijsyXwTMDZukTHrizQ66evqXCviNxS9rd51z6WqnHIGPW7ARIi5h7bHjEjm1vqHJAgm5X/a6S3pyQKaxK08GaGhlLHY2X6+NoGTVUMJhOGgFOS/jdrdezp608utOlEJ99hlAEJEv3MLFC/H9ckiOB3TDDGheOLcTMgAc2BmNNqMOR5pYf8ELyVW84+iT0rwiWvAXMgDkhs1F73QhyHgz597Su/SoO+ifZJ+61Zu4ve99QvWuYS8CG6CYCgv/VuAIR+v0PPPPPPWYvwiU/+KtVrUPlmiwQR3LIb5GlO7iVC0YFpvYNs77VmQC4FQIeQqey42OGDj0s2O55616y3ZeheiKWknTegMT75/A2rEVvoowxxtm8NtAOupoKt4WLT55h8EgA0nrlMz2qav1nEO83YYPK9/bb1dP99W+nYsSv01qGLnLBHWT0KaRE03SzH5FAEHKDtcQCEEPMI7CnwulUrG7TzlvV09sQVTj5UH6vTjp1r6dCBCyxvZO2R8GhyvBoDlFi/3eUBPb6iT5W6CV0ctgY0krMRp1DG/0fKQS67QC8PK3RCw2Rbk6UOnwMBBx3rkKgmSwBCCByYuiQ24qFqchR0Ov2gQyLCIbtdkzfBiBFj7pIp0+BgPlHjIY972URKzTKhUFcaOODPAiCw4EeSCVEtiUpJ+STgYadJsFQgKZhNd0q01BvQc4cv0UInOpUuR5MgAtVPsxpgGXGmvgxzQxYqZiKLkED0DXstCBKEoH07puohm135pBQdx0NMFRtRMprtHKvQp9fWaQLOPCBdZe7B36JKFeIRlf8LMz362nTXrGUO42aQ0B/Q4sy88QtQPBCv8ilSdh/+1kZiNb5QqKSAmTRShRNtFzA+9YH0WyGMJpa6ogwqawvpvA/uOV7EuJAI5kMI5ECA78HhHN8DfGfPvZ+h23Y/lb+7s4BChloyNDe+8Jam0zQI6NyFS0fo1Vf+kD7ykX9EExNr1RSFZ1/Pk2jL3EvKJh6XF6YtI4hNr1iYq6RFIb7gAzdDh7Ytixz86dNmBD0Czotv94EfpigmEZzZlgYDzipb9If+mK1kgyPhVyB73zbi+pGx1v5sgyfcsWs9PfDgdjp27DK9cfC8i8WXvmE8lSJA0xuMWZtsbU/E3bJnAs+NV8KZFP03MS+TSPpTLdGGzaupOdGkhVaHk90dPXKZbf/yQ9gkwAHCWeWHv+4oDemxFT2q1MpUGoxoAHCAPAb2hI8iWAz2YMcfjOgFqtIZVcKL5dGIqIFoBRymUR2SkyCZg5iezhBAMMDQgIMmMqzCrDAi7rvWHDC7dfVdcIhCOOQg4jv2HsIQoX0B94S/AArCZYW96jkVh/IpOG5WTNOsOUgJmyj93r/5Co+Ps3Rx+E5MSpLkSBCB5psbXJ0GMwX05rkbdOTSrFK36YN4vLBIyDHHEGFEanry05i/CIy8k4xm9qkCLPaRCBnEL3s9Cdjo/L4mZXW6JmFbs0KfWVenCetzwEVECgKEo4t9+tPL3UIRGMxgSyXqtTvUmltMpItluuDTUz7rS8unkPBmt02hyS47iKW0naEtC+EeI0PevYiGIkw0BBDgGAb1qUzZaNCjZ774K5lhjTIDH3z6f6PJyTX5k32TACEkUNM+JusGz+oQWHjjjb+j225/P01NRgDBMeUAggt1mZdeaRC1BsAwInuy11pGQ7SpDFGDYgk9NP0yx46QnT/hZ2C1A6ydVBMk/bPdtn0fEYqToaJj0ZATAQhoj7UIdnwxQSN9tRe1IJK/dd8w7j27N9B9922lE8ev0L63zgfD3NiUZOuOpO3NfALMfyIrkgNvI8oHVQ6zSBkh1XAyhK0fkqyF7IYAV+USCzQdxsdAohnlOZC1upOG9OhEn2oNa1ZocV50jtoDMMCPxTxSqpeInh9V6KxH8WjLJFeyDokWHCRmwaZnF/rA+kBPKvuuCe2DBQdLyJUQUAtpnoLvDvpEnV6fw2bBq5HdELkSlgsOLHvkbYUiUvChduCATRPh5HCl3/uNL1sXDDNcaBJighbJQGwmMSFIAWhicpBa6nh/erFL3zp8KSpeYvGGxnS88bKQsWUwTD42NarlC04lGSLRvLoNsXcUGk7IKO8Cj1M2qtxLk1LqehIkxPGmH/6Iu9vHqvTJtXWarFo/A9bqWIBgX0d/sAYsvO3EiAbhxOKA/vhyx6imdF9ytAndhSVaai0ltOYyhrSc63pOPWzpbqUxIp1hMchyAiDBT/ks70UH5wgkFA2/9L8d1CAEOqg3s3zLBwhzMxfoxef+TS5HHZ/cSB96+pfjAiktPX5RgBDQeiSZmleO2T4gyiKJLkgbgBaaMVoolQh5FtfAvjkimsbJzeUKiJ5M4wNyYg2BBP2dEG1F76poAzUuk+NAcSQFgkJ+ubyPvMJPfCa06wDt24JLlpS71M5UiN0rACHtLZ1cyF92x4rKRHfv3sROiSdPXqV9B84nTqZp7fvz926CBsOTwicAOPE2rSDxNQ94A+8CHMDZEPcR/ockSG4OPMJDZsaxZtXtH9DtHTSixyYGVINZYVSiAQqpABxwLoNoNvFXp0T0Mhlw4B9KJdIgK1qBZac97UjSLFOdxcwB2jDqfOOQGCy8lNBQGupHRsZeb2BCGW2GROMvkGSQvpzytcI+OID2gfuoCVoRS+n3YGLABWgPeNItbLZHQn6P9c1mobUmgS9ENgSWVmD63z5yxTkryrc0GhebW4hojQDQcCKMy1PldIGwSTsQ8x/bCZ+MdZEXGbdPyLod/jtgbkiChBgbjbKdEdGOZpU+Ac1BNfIiNh7FkQbBzT9fi9ZEAMKrsz2OZnBE7hwewxtVeoNKZO3ZBeoEIhuY4RbVJOhJVUw5uNY2eVIqS00BCHLi0tI0thHs6H8QgCBjzmP3BplHefQQ04woBpn/g2/8HZ058UJeM7Rr94dpz72fSAAEQ3ve61kAwafDDJODLFWakOemlI0+uIYBXwA8t7Nepk+tqdImnNxoRGdbQ/pP14c0O4h7nriheWOS69I3v4+hfaunKbHvlJ3anjtcz01oq1lDvcf9b/BUWvaoD38cGtbrBjVwWQsvx4U8DZ1RH8d5ouard962ge6/dwudPDVNr0NzsAxntSw6T+MY2ZwkGrHjGwGQAHMAkiVpchXtBqJXkFUQaZGxtxZRDdFPW6zSv8P8ANMC98uayW8bDenx8RFVEf8HJ8bWgAYSQijpSazfR5tK9Fq54swKPNv2gIVQRgh2BgdpmgPPIdEUnrOCt1SiJrIsWp+DNqoypjiUxECLArGYvjojdmMGDoGDnG3OPGSiWWFTjfgcROWn7ZpJI4rcSv/fbxiAgPNqJHSRWTEqnOIEJMIfLWBglMcvKj0cLoyIDlyYpUMXkxnKfH+E0MYQ9ZdwxTxiDKq2lwESspiKBglBLYLepTcFEAyLhqDf2azSR9cZzQE2iBPIPOfFAALW9a8ud+jAYmSXi2kRgtIm2tCDXp/9EfzKdG6Y1js8T9r5a5J1KoGZwdZASTabARD8oYQAQl4/M5m39ijPaUhv7HoFNeDNiIfDAX3jS/8XDQbZzol49pH3/hxt3HRXGCCIJJd+FAUIBSbACamUZ28GIGyvV+in1tdoLUrmmqMJQZ978AbRX1zvc5RNAmynAAQBKSGB73c5jc5EUGkx64vbNBuuFqBCY6BvzePR7mI/PdQxaxmcMMpyHWTNSwAglIju2rWB7rPgYD9rDpbnyS77KA+k6DEUBc/yTkiTwOF1VVsAW629Cd0zggzzDbOCTp/stoB9B8+vsH4Hsr630Yje2yQTrTBEFtkBO2qyn4EFB7Jnl0ZE+0tVOuNlLQVgrNeqJpTR+hyY2grmwzFy9eyk5injn4BESqw5QEVYL1ohGktyQ5u+Gmd0TuMM/wiUkl9ExEzS5yALIBhwAIdEo83jXAmB0tHugKu6U/qdX//iCElhjayPiNBoDQwAcJuZwYABBLFa9wIS7PtXFzr07SOXgs7oeAQC0IRtJLeOAwjqlq+m0ppT307oXrsJkBACIy50yLNwu6mSzsgFX6cTOGFpQI2ZBzh4em2DxmFWYAdE65DF3NkABJm3LA3CmfaA/uxSh8sSxzb0ck0NC61E8hjdXp59PgKa0VtpTAV2RFR7DALBPICgBacVOuYUITtYZ8gvIC29R4qaGoRhYNabZVs4BuFvsxfpxW/+60Iffuojv0xTKzYGAYIwcdfQuwgQpM00IB4JsPAwtJYGtLm5Wqb/an2d1iAJTRmCDU+MqFRGkRqiXz87oBmPOcW+rZmT/aQerjwr1zQoyAIIskbyTGK84cyz3AMmJ1fwJxSXRNSyjoohMBIKT9Sk65KB2fEm+qacNEUIQsDuvmU9PfjANjp1GpqDc1wI6GZ+es/o/me1tVxThO8bwj4DSEeuBms0B9askAEOeC0tASAPAEwLuICmbqURPd6AUC0z5fVaUOebaAAW3FbG4163VKL9pQqdDaQ0Z6FswYEuvOSDA0MbSm4KfEASJAAMAQedcOpj34+JHWPtxGOOjWnCAFKApaVWn6Dt9X9pAEE0B66NNHCAcXCdj7j5v/TbDBBwMXJQdMMF2pKcCEK84o9gsyriMjMJBRJa/SF9/cB56qSgWXG40yAh5KyWlyNBJinNQS7PadHJEVHVp2zQuLlBIXm9kzWlB0CCZgjC8PH69maNPra2QRO8CAGAYIFbuTxiYAU/CzQPJbZsOvwXGRX/7GKbLgSKoBvtR2RrzpoXEN/C9TmXLCPEJIpmGyyiSWDV3bA4QAj1xweMkSCNAELixFqAkwr9FWWG2Adj0CDYgiuXLh6k11/+owJfIvr4Z/8ZVasoJxfDN7F3HYktFyDoCcrpjS+cdARBCEQIQMC9TfUK/ey6Gq2sI820UTcZdgfpCzUx0W+cSQcI7Our+oe/B4Me9Yc9ZorQyPCKMi3jG0i7W6V6pU7lciW1OJae01SAEB0OkyYdJZAcz/HmsT8a0jzSOKtgHxG2DJHUmmEcCBNFPWHk7UefyiU4jiE2vp44rPmOQTic3bZ9HT366A46cXKaXnvjLNuozW9EvX6b5wr/43kp4wQKD3xDX1m/EJB3AEYtTtE9ob/lr+0kCprZi/gPJ/2REzvMCqjKmIJcmQeWS7R6smb9WUd0C8wKYyaJEUdJtbrOO59FqiRLRIGtQY9eG/TpjDXfVHieytSojRGcCaE5AKhApIGvUdXbLwIHloDYRg5wUHP5BcSswO9lHPUFTsuQ69URDYcdTuy12OlxIiOo9lE2ugJ6qaI2tRQUS64q9mDSITHqvZYJvM/tLScXwYugQZAOlS1I8AWIhEAawWaVXRY42FwPblMh6RKckb599ApNL7RTaZHj+AO2Kf+FIiCBiTqFkPK+oUGCT8Bx7pxC6ir1dOJbGT4J6O/WRo0+tb7OdRXkXSTgE+dDcQxkPwQABBveKGhZAMLSYER/dLFDVxDAK9wwZeYZLAigS3kGZaKRRInj1L2JFdtcUZVkEZDQGaQUcbqJA5E7DdnNKCeu0Ck0j1nK/cjnId17Hs+iuzpJ0rEj36Zjh76U+5lqfYo+/un/I/lcAAjwcuQBBN0SS93s8tWhDspeiIUoBrRhMr+bahX6r9fXaEXd5D/kRJIlAD8BCCM6dIPoz6/3qecxyehbUVjjydPfpyPHnqVuezZ3/vDA1NRmumfPJ2jrxjsTz+t9rc0Ebn31lCrbdp5d17izlWip06ILV4/SxelTtPv2p6lWRbUbKwvUei0tzdHhI1+ha9cPpwqKRmMl7dn9Sdq04a7YVtYA9/ad6+k9j93CPgffe+0Ug/ler0NHTn6TTl94JTXCY3x8A92+40navuWBQnOqH8rTGsZIDmMeDmlxaY4Wlq5Rq3ODet0FWmzNUb02Qffd8VEGQZwLwSZ9E3AA3saheyEVuPoISHrFGAS5Wd2pueu0eO1tmu+06L97+GPUWeoZs4JdWw4/JKITNy7SP33lL+l062pwDsAf79hyH3300R+hRm0q4S+QlTpZzAo6WqHVNgAjHRyIji3qzvWZy/TigS/QhWvHM9epVK7RttW76Y5tj9PW9btiz0bgAIfDEi0gamIwojOXj9DBMy/S1dmT/Px4czW9f8+P0YY1O20uiOiAwiHF0CDwhkaeA1GXWNMCC15LmQAJMb8A9EAJNvb+xSMWOLxx5gYdu5qdVjYSHmaRU4W8YohpAj9Ni2DaTUEP3vQn7PXe/TRNgvQ99ZTqC1ki2gaHRDEr2PztHKMcWXF47hmpK4CARePELtYZZ64/oj+/2KFL0BwUG6YBeTlzsnh9lvrKYTFU0KZIZAPTVqBf+gTSHcKzOGRPWKYwtOvlQIJyHgzJ1ILTZWjTZqfMK7OLEEcBbq+/8h/o0vk3cpnxmvV30Xuf/LmkYJO9F2hhOX1nMZYn7dJ66b8n9Kee31qv0E+sqdG6epk1XLzmrGaKNAgXF4b0+WsDWshi/LAHv/m3dOH8fkJCppv54ZS8Yd1uemTvT1DdlqP258ppKlTyMaEPByAUwfR6Xbo6c5pmZs/TteunabF1jfqDDg0GiGPv8Eldfh/6wD9xmiCmGyK6cvUovX3kS9TpFAM7eA+CdPdtT9P2LQ/GtvXtt6ynh/dup7NnrtMr+8/Qlasn6eCxL9Nia5pGWXlF1GTWauO0bdNeunv3xwpPsQ8QTl7YR++c/g4NR6hkaSoSstaC/22qW4Z+a1bdRu9/6Gd5TM1KhSMZxusVqiFrEsBBZ5Qakz83f40uzZyiKzdO0/Q8/C3a1B/0qNuP1uCONVvp8x/9Jer3rPbBHoy/euI1+sPDX6fpznyhMYM/jjdX0BN3f5L23LI3mBUxrkmAVgvpk63fwtBoH8TqI/MhWnPhdrqNd869RS8f/BItLiFNwHJOAUS1SoPWrthG77vnR2lqbLX1OTDmj6uz8/T8gb+hKzdOUi/gD4Wx7tq0l96350d5blgrWEbYaIVKv/2vvsCJksSqTc4AACAASURBVGQTsbOiTRrhroveTASL0nXygCXvvNIKnL7Rou+fMlkVs35imRDplgcS0gSbCIVUxvku+iTEv6H+pbUJetBqUBCM2xpVenqd8TkQbYGODhGByjzWDkw0CPinOP3M9Ib0N1e6dB4lQ0U4xo5LgSOffU6SYoXmE8SMyo+t2QVjl1LvyN+xIjYp/iTu2UDfGHza6/BDgIo2+CuoRRhBGEniE+HMOQBBHivEMZTjaBqNYaYmalGo1YvP/RbNzZzObX7HrvfRfQ+YzRkjG7V5bhbgaBNBbkdCDwQYfcQriAAOPre6RusRgoVDhkV+EUAY0pn5Af3p9IBmM8BBt9umF178HVqYv5ToBcZ+370/Qls230vNxiQLonZnnhYWrtGRo9+gGzeSc1ytNunB+36Udm57MD6nnpZX9po/zOszZ+mV1/+S2h1kGk3XhPqd1QBhbu4SHT76FZqdzaeB0NSDF69Zezs9dO9PUbVSdT4H5y/M0LPfeZXeePsLNDN7tlCOjVD7K6e20sP3/RSNNVemkoZoz3y2cmX6HTp2+nm6PncaxuvCpAWA8OTen+XnkQth7XiNkBoZApGrECoa2Xfka3Tx+nFqdxdpqQvn6ZxKsER0+6ot9Dsf/iXnM3Lw6mn6d299iY7NXijcx9geLJVo27rb6XPv+2+pUrGaIeeoaG0WDIRLhCyLyORoTBMmWiEElESvJt/pdJfo2Vf/gs5eOZzoI0xDd2x/lLZvuoMa1QnqDtp0Y+4yvXXieVoK1HWpVup017aH6cN7P0fXZi/T8we+Shem36HBMDuRF/r/3rt/km7ZdA8fHleMwfehRKXf+Rd/Nxpxtj7zM0oznFJNZilJ6sHMFNoBYxuwD1u2hTAQ5ZOAD6Amw3NHUVo0f120JiHrYJtnbsgDCXmnZulpniYhflKPA4Sg0FE+DtAcPL2mQeMVolIFxWDMVwUIcH4D26QABBamYnqwTp7XeyP6wtUunWtHm0avATfKTieBknLRQJP2TrkHND8zz1oEAQN+7LhbWT5V5q+z3xWhOfAE5LIP/grynpsFCMH1yhhKiGG6KYO3cDUCCM898y+p3bqWOzG77vgI3XX3xx0NuKyQgTn1L+VpEnwTQW5n/AdSToL4LsDBZ1fVaD00B6USQdtbBrO0Gi+M4+TigP7qWo9uZIAD2OGfe+7/ocXFK8HuPfLwz9CWLfeafeI9AWZ8+vT36a0Df5c8QaPM812fpLtuT8lOKT4PAuzV5Lbb83Tu0gHqdhdpZvYCXb523PgN5Pw+/MFfoVK5QseOfZ3OnX+FhooxY14q1XHOo9gfLNEoh2nLp1au2EGfffoX6ENP3UsnTp6nP/2bP6RTZ76f15VC98eaq+nJR3+RU2aHfs68pm5iDYycMJE6V66/Q++c/S5Nzxi1ddYvBhCqZdo0VbdJkIaJaIVjZ16la3Pnqd1bpOm589RqJyPj/G/dtnIL/daHf4l6gz7929e/SM+ee536BTUrWf2eGl9NP/3h/4ma9XGbMlvUe4Z4mi7PwYirG0uegyRAMCYF+c23ZujL3/08zSwkaX/r+jvoqQd+gibHV7jnhUThm7PvyHP0xnFTXdX/QYswv3TDXW7Wpmj11Abq9jo0PX8u+M7mNXfQR/b+DE2OAegQwYXQAAT2GoxvPQSgiLDmDS8FgBDio3Mi4JTGwMGwe2mm1RvQ19++yHkRUm0HqpvikyAmU38Evs3bqMlT0+Gnatt/6CAhw1SyY6xGH17ToElbpg6AK6pYZ8YDJivzLs6AxnTjgkpopk/0xcsdOtMxQtWp62MRJ15Qdwb1p5kc+ksdWphb5Delwp80E0s9a80dRfwSQngF73VVsZtYV1MjGYRFmac1QOD+mqscQslgN2X80L0wrWdxB3VPJ65JvGPTLMvjX0OIY6+V2/Luuz9Nu+/4gHtO6DrNEUyPJa/ffprjLCepYEe1H41405dKtKlaph+B5qBeNmG5lpYBENh2WSI62erTX13rZoID9O+ll/+Arl09Fvz8ephf3vPfJO7JuE312BKdPbef9r3+F8nnShV64vGfo43rbwuvgwboKUSCb/W6S/TKG39FFy4fylzP9zz0c7T/0N9Su22Yc7U6RuvX76Etmx+g1at22roL5kPd7hJdnT5KFy+9QddvnMhs95bt99Cje5+iLz7zJ6zVcPuwVKaJ8XX0/zP3HuByVdfZ8Dt95s7tuqogVAAhJHovoglJdFzjGpuYJI6T/IkT24lt7NjEdopj53Fc49j58sUNgo1jDDYIJIGQkASSUEGg3tvV1e1tevmftfbe5+yzZ58zcwX+n//4wVczc84+u6y91rtXbUp2colwclwjrlIsjmJ4pBvj2foAtb1lJm68+o/q0qncUhrP0vdVFbsOvoD9R14MbEcHCE2xCCanY8hwBcP6J4HhsT5s3vtbnOjd6/sOAggfu/he/NOmRzGgmROaU22Y0jETk9tmoKO5C9FoDKS1Gs32o7v/KE70H0GxjlmLNQk3PshOn/qVoLDMgFBGx7wgI+EU5yqWCnjypR+gd+hYzXjO6jofd173EQab4vISp4rG2LZ3DV7d+7TvfHQ0z8CFM6/HnOkXIyyjNTJUlXXrjzA87tXWTZ90Ht52/YOsOSDtx1i2jND3/+kJjqHTfQzU2/QiHRQKSUBAaRbEaVVmGOMiTvJ3icYJGCzf2Y18SZ4MG/AD8NMk2ASPOnH71W0I1EQ00BeagwlpEngu5MxJ7uVRxSYFOKCqjJwuQha4MgGCrkFQaniltCGBQdEKv+rJ47gEB6qPjqDQCs54qKaOJLGBBPIcHx8cZS9a8zIBAs9XA3kShE+Ft7W3AiDYdohKfqNeZ+P/TqrbBk1QOkAwh0Je1WRXFbQDLP/1Q6iUa6tlmn2df9HbMPe8G12mr90QtGwGufkyCZuaU+3dhqSChtpp3SdHI3hnRwydcQFw2S9GZfeUGoQjmTJ+3l/AUJ24/LHxfjz//NetSJ/6uHTJQ0gmW+qOje5du+4/MDhQe4ptSnXgriV/W0N4PH9OCKGY6cD5rlSwfPU3MO7j4GZ2sq1tNi65+N1IJJr5NU5iM4tW5uiJrdiz96kGzQUhpJLtOGv6FZg98zqEwyIawNb3kz1vYPf+5cgXXFBhm8xrLn0Akyd5Hd38Jl0P/9XFOr1/4+uPoafXH0R5AEI8KtItN6Jmlp1pSYTxyMqvYzDTb+0eCUHdn+ms1qm4deG9mDyD8ip6NxaFMookSMDw2CieXP8TnOg9EGj/X3bV+zFv5mVCg6I0ByoJksxzoK8D++bJ9aZn9GTwKzY9ggMWH6VIOIb3Lvk00g7dez0SdPIhB9Un1nwLQ2O1pjka7ZXn3YMFs67lgat3Uz9Gx4fx5Mtf98zh2ZMvwNtv+AOOABnNivLTAiBw8KMIaTQ1CSqnNgMErZiTHtmgjrxc/YxABGkZKsDynSeRLZa8JokA4cwCUdkJ9JOxhRR0gECdtzF/0zlO1068FZoERSRu97zIQBHK9GQMSztEKCNHKZwBQKBnsmXg0e4sTlNOcn0eVbZEKZkUQvWcsQWHCpQHJkggwVLI5JAdy9Y8ZwMIdBP7RwSYG5TPhRm+RLnVK7YH6+RCqC/g3C3pBxB42jQGXq9NP5BASZJUCdup09rw+M8+jbERV83n1+658+/EBfMXe35W4DCoL40CBCEHvaOfEEDQOtEVCeOd7TF0xES6bwFoxWEhytoD4Fiugkf78hip44lOzb78yk9xuud16zAp7O+uOx+uObHpN+vjGh7uxpq137K2dfUVH8A5Z11i/Y2irhQ4MLVJJs0cProZr772eD0Swdw5izF3rmva8Ey/DDlWa6zesW3HL9Db+0adPRrGvPPuxOyzr2ZVdU2VSUsKeQp7XLfpB8hKrYbtBTTXy276rAgflfIgqCN+UQ3DYz14cdP3fB/VAQKxsDhlGqQg/QaueCSE+ckItrzxLB7dY1etq2Zi4Sg+c/WHkZwxD70EAsQmcN4iEhiJxEGUPVZlN1y+8THsPbbFtzepRAsevOtzIn0yh2VGGOBQjoKacEjnfa5ZQdFrqZjH/13+ZY8JSr100SXvwoWzr5Efa90VvbQERFHGD3/7BXYQNS9a1/fd8nfcXxHqKeZgPDOMX7/8r57bF5xzLW657O0Yz1DSLxkiLgCCuLgRAyTwqZCAAVW8kpkUdeFakVUgnVOaBAnUj+d2ncS47glvnMr9VkGZGxpTWbvFnWylet5sdAPb2wLqNgSBBHp2ajyKJZMSaJV5xwMBQlhEkjA5a0KfhOpYFfj5yRx6aT59PTndFM2sFdJPRA0ABF6PsOuPQsRULpdZi8ChOlptAD+A4DDaAJBA94hkWS4FEBK2BjtqAIHMCJJSfZJsiRHrdCNMCLXJbdSbzZLTLOzq9N38XZkCyOmKCroQOLj11gvw2U8+gO7jh+uyvjnn34oLF95tva9evHmjIMGqRajbM+8NUyIh3NNG4CDMYIDS5SqAoDQIJ3IlPNJfxGgDGf3y+XE8++yXfXtBqvnrr3sgsJf6uPL5UTy34h+t97e0TsftN/8l/6YOPSI/AYUPhzy1YwS92MH0wOAxvLDuu759It54w5UPoKlttufQojN125qSqaRUKmDNS18N1CIsuuYvkUp3eN5f4zBs0YTQ3Kza8I2AaJYQltzwSSTizfWpIoCp0hieXfMPvm0QQLhBOinSDHMFRkqpXEerS/demAzj0qYwnj7wMr6z8Ve+72hPNOMbi/8aJ1Jp9HNBKLGWilY4DJHkFlVUlOCA3QzlZnpk5TfQN9Lt2/591z+IebMWICqLTWW19MnOftQWnP4ptAfu9csXv4s+i2mB7vjAss9xBIW43Kd0GlK8vSkhoqZ+/MxXMThmD92877q/QkuTtwjc8d59WLPjJ/yGzpapuGHB3Tiraw4y+RBrDpxxfP8ffyXS9KlLmgt458tLec0rPwQPQJApmT0n8hBQDoWxYtdJjJGTmz7MBlS5ApS4xvy6DJvbFEOygYRgP706unc5BxMyN0iCnEbRCuxzIDQ0PC6pQVBzq1c9U3ZcJmltniiU8ameHE5S6U9Lf3RK1p+zbro6w/VoESRlZ0bGkM95VeXutvMWvpE7sSG7vuIztL6UTVEV86nZmdruUiBBRSzo94rfagEC3WMyZR3sCAzibkRepwBls9XkJSMYpk5pxa2LL8DwcBZf/vz/g/7TB3wZjfrh7FnX4pLL3+V7Xz1tAjM+bQ/bltgv7Ixe2sgOmBIJY1lrBJMYHAjNgRcgkOagjJ8PFDBart2FHh4gR0rC5PCRTRgcOIzTvftQNqIFCDSdr53CbROkj6tYzGL5s1+yziMJvmVLH3LV/NpdtAcVWNAftgGF0bFePLfae/LSn7npqgcxbcr5yJRKUPk9eOwm6JSZ/9RBgMu8k4p+8w8xOurvcb940WcRidUmPLJpEkya7+ndgy2v1/ppqP5fcuG7cPa0iy3z50YI1SVmAM+t+xcUfXxvCCDcqAEEIlvKqFivNP3scAVXt8Y5Q+JTezfgOxv/177OkRj+9da/xlBrJ/o81SKFXwwlUSLNgQ4OnIZkNcbjpw/iVy9933eoV827BbdfdT9zjGzeXnhJySKHdWkEQCaQ/376760+D7FoEh++62Fp3haHMvNSh1IKD6WoISo+9eKWZ7D9wCprn2++6AM4W+bV4H5Vq9h9ZANSqRbMmTYH7c0d0qwgNAceefK9f/yVOMh5QIJXkimhQwBBxeWLDIuCr7L5naWwi7tJlK3Yc4oBQs3VIEgQGEW8pzGQIJbFZE+KAdpBqrcEtR9V6JoEKwP2TGEIM5JRLO4Q4EDDOl6AQPMpE4XwSJWjl6ZBoGiFZ3pzOKnVPa814mvnHWUGUgMxB92ANDD9Goq5AsaGhbOi06xYGf5o5khQiZz0+h62eVWCj/4qgCBW3MqjZCY0g4D1NKdnCBBUi7oyj5KGmdvCGbtl09I0z5rWjsWLL8TISBbrXtqPNat+gJ6TO3wZjfqhrWMObrzlTwPvCwIJHuEv19ucwxqAUK1iZLSXs/dRaBTlD4hSBIZlk0yOhLGkRYAD0vzQgU8HCPQMpfn+1WDBDWXkE3ERpEotVwpobZ5UN+SZEgllxvsxOt6PkeGTmDptob9zoZwtfVwEOJ5Z/kXrPMZiKdy57POsQtdpmP6tR3CZD3tAAhUOygxh+Qtf9V2rdyz9e0RjcfZ0p8yKVOnRe6mVEcdK7RP/+43dT6K7e6tv+wQQwjGRbdFzmSYkqQXReV+pXMCqtf9iVUVTW5M6zsc1l33A+m5ToxLEj1/c+H2MZew2cd3EoF7EpZ9VfKxlts6qlnENgYNEhIXbU7vX4/tbnrD28+zW6fjY7R83wIGQUVRbgTQHNO+ioqJoQtfCqWPmT577OoZ8TuQzJ5+L9y/5My7exCWnHR8DcVAVoEArUaBpL2ivlMrj+M+nSHNWy0gumHktbrr8Hb7AQDAlIBUjx0jxajJvHD99BM+8/O/WOZl39g24ct6d7m/k2BsOo1mGMhImGM+URECBOf82gKAAg+6T4CTskY5oKpJBCQfmK1oCHkLEy/f0IEM+CLarEZBQp26D3qzXJ0H0xURfb9rcEHBKc9T5IWBGIopbOpJsVlDaC/WoR4NgAQhs4ZE2ysFiFc/2kkMizaFOTLUi1KPh0IXEGQAEpkFtfchZcWRghMuOOsw1CGio05FqJ0BlL07rEiCQGUOWALHSDJm5LJxJaRPOVIOg3lVbZ5DSW1vm2hgPfZwxuQ1337kAY2MFrH1xD0ZHc9i7cyUO7HnWl9mrHyKxJtxxz8N17/ONatAJXYLqegCBTEcrln9JFJLy6L/pVBJDOBxHLEqpfxNoj4aRpnS9lNqYCxVVWPCVZXIcClEdLpWRrRDTzQvHTC02PpnqwB1LP10XIHi4dd3ZkMxd63swQEhKgFBr7w4CXy6IFenKs9lhPPP8P/v27h1L/h7RuDjhZ8sl4YPluQxdikFLR49uxL4Dz/i2f+uizzIAMde3XiIs9dY1r3wHueyAtf1YvAVLbvxEQzOvAIMNKGzY+hMMDNs1Z51t5+L6yz/keQelJqe0yzXCqVrF9GoFV6cjSDXFmEzz+RKe3v8K/s9rv7b2c0r7DHzg9o97uWVIpF8WOQrAOQpIsCth7uZgdrnsyld/gd1HN1vf0Zxsx4P3fNZz2laggHlnlaKnXEilQCxpSZLxMHYe3oJnNz5qbfumS9+Heed4c3e4BxgBdCj6Q9VWyBZE4SV6x3//9iEr6JjcNgdLrvyI8z7awxTKyNEKBA6yJd8okpACCEJtIQblCjuhSySHlLJ0pafBq0hvHSRIvsRtEGggp4/lu08hp2CaZTocIg9yXHwTIEFpErh5VczHx9v3zTotqjmbLsFBCzkkynAvXYNAfXHAsgcgUMIpYVohgDBcAmsOjuc0BuMQnbNC+mp5oy5sIEGpoieqRSCUOjqOfNYbB+67bBpAUP4b9fIkKKGjNEaO8EQIUzqaMTCS4XzzNoAgNiXRXX0Tg6odYNudNoCg5wFxwJHG1Mmxcvrkdty15EIUiyWsWrkb4zLFePeJ17Bto7Dz1buW3ftlxGKJulGINpBgNR8YmoQgE0MmM4qBgQPoPbUbg4NHkfXxEK83Bvqdagm0tc3A1GkXoXPSHHS0zWDNWJAQrmk3AFCa9zauQUjijqWftzo80pzqr1S7S98min7rAYS3LXkYsUSCNZ5Ea6OFgvBvsOmK1WC0l/f178X21+zCg26/ZdFnEVMmBp82g/xW9h96EQf9QhFDYdzJDm2NrLR7j9K2qW82vfY/OE3ppC0XaRCuv0IkSlIX9bdV5g9xT/NVzKhWcGUijKaWOK9PPldGqVjBiiMb8V877ABhsgQIevui4JGIVlCaA6UpcLSGhtf0ln1rsf51e5p0CnP82P2mn4UL/HSw4CQqC4WQopDgSAgvbV+Ol3eutM7P3dd9DNMnz3Z+08/0NE+UbyFCAqRa4fBQ3STwk6f/DuVKbdRUOjkJ993wcWHiplDslBuWOaZpDhQ5eYwJDkBQxXwM6mAhR8VnjNoJZKN1izgIi60CCURh2XIFz+05BUqjG0RvSlsRRJIsVPmG+pQrBL0sTMSZ9Gqf8dMkNAoSdAdCvd/kc3BrO0UrCGdBMh84dnbZjUCAQOAgDGQKVTxxOodTNvOMYcrwKMgMrYwD+GhtVbZLcxp1rGEsgm5qKBYKGBs0zAx+y2EABBYcdaIbSONUlsmSdJNFKh7H+991BVY+vxvHu4feEoDAJGJJz2EFCFV3DdX06KemKZNbcdfSBQxeVix/A9lcwaG4gf7DeGWNv0ObPt033/4JtLROqwsQTEHLzEibb6dNDSAEgQNz31H73Sd34fVtjyFfrI1e8d+nIbS2z8SiRX8SGHVQz+mS29crc9aRVRMFCKGQt4Kgok0xj96XOdo/uUfoTzYzjGcDNAj3L3kYcQkQqDXyQxgvlYKL9GimhoHBI9i6zb/Alx9A4IRG9dkjjnVvxa49T/nO6pKbP8cZAxtaJ9mKCRBeff0XONVnj8YgDcINV3g1CDTvaYoA4pOTmOzplRKuiEeQSkcRjoaRy5ZB00iLtOLoK/jvBgGCAw5AmoNas4Lw31FVnFxueqh7F54OKLT2Z2+v1SIps4LjEyQJitYlxYJdaDCe3/wUtu2354u474Y/x5RJM2ucGmlmyCGR+Dhrsiylo3/yzBesybwobfc7b/o0gwMyKyhNymhGhDKqywoQvvuVX3KqZV1roAtKapR+4xzrpBmQKmClcVDyhmwazotChJxLWLWvFyWJzd8sSOCTdcMgQfTKdFykhVKT8GZAgglq6POUeBS3USgj16cQfbUBBOoZhcqr+aC5VuOi5whQ/fxkFr0y94DfvNmZgbjbNDfo/XURuuHa7/Mi1Va1LMwMZsyytR8WgFCvyJMOEFw6CiGViOMD77qSAcKxU4O+Od51jqc7MCqhr6hT1Qxx6EB70Ixo4Lmsilh/njcF8qQA6+psxj13XMSMZ9Vzb6CQF9X81FQW8hmsetpuEzc59FXXP4ip0+Z7hJR7Jqnl57rdXBeSDciIOiIX6IyEsChexl8+/jDyDdZEmDrtYlx9DdmvRQ/8cGdDgsxIbBU0pjMBCGKPuJ1UYsnvkE9RRXQEokNSPYBw39KHEZcmBjXRmUIJhQBNqsOYAVCo5uYtP/BdIx0g0F509l8A0Ncb6+8/hK3Se932kttveshJKcyHQO2mQBOt5hxcFyBc9vs1r6YcIs2xGC/KtEoZl8fCSKYiCMejyDM4cD2Enm8AIFANgiSl/6Y0zlQXoSDqIjAW4LewvdKVWUaPjvXuw5Mv/afvOvzp2/6Z557SJivzDof5axdjD1S51gSBA3J5yOfLrD3YsmeFte1bLvsgzpt5sQcgUKsCYEhwoNV44L0mCehHTz9kBaKpRAfesegTjs8B3T4qQxnN/qrPaighAghSqog/cvfoNmgWEhwCaTgzalUBFZBQz53K5LHuyADnpXZe6jPdjZ7cnWQg6nRURxUp+qIrrbwdeDMgQUyTIIgpiShuI82BKrQkhb4OEPTQYgLKzgJoToXjZeDJnix6tFDGQGCl8il4bqoFCdRHXy9hjz7JX3bQbZmhMRQ8zpLe+11mpeUe4LBBpdAT0QG2MQl7tqpGGcLMqe2IRiJI0NzefB62bDuB032jvAFOnh5G3s+3RQp11bN6AIHnRt4cBBBoc5MJg05LxKqmdrZi2dIFKBRKeG7lTpSyhZo5pnGuX/1dDA82EOo473ZcuOAOz4RSv4Lyy7mCLXiPNSg7+N0EDm5uiqI9GsJYdgR/8vhXUKiT7CmV6sCtiz/BDo/q8gBRC1kFnlD/PwAIJiMMdpCQLBJAJjuMFc/7OykSQIhJgKDonLPSUSloA4HocySECTAy0oNNr/p70BNAoCyAfCkH8YZ0q+KRoYEj2Pzaj3w3ug4QXL7dGOykaBASwGcCEOgNLfEYplXLuDQWYXV8OB5BoVhls4Je3IgAwk8CNAjvv/3jUJoDGkM2J+oiCEyo7fIAgNDdfwT/u8Y/nwMBBKXp9BVDVRLsYZFvgSMeymwSON6zH8+8YgcfC+fchGsvuschR/ZbIOdgBQ4MzYGiqf7hHvzmpX+zruvZXQtw13UfEpoDzpBYG63A5GQZSOi7X/qlCBQXEs8FCJaTKGdL1MIf+RF5nxPdID/v7RvHjtNUlcq9/E/DjREgtSQjBp3FaSy6QQko73sEGLIbLhoBLfT81GQUt7QnkeYEI4KMGRjIv0pN6QcQVLZKCmVcXhOtoK2J75Z2ls4z02b/1To5DNzPSdRPk0CpYXMFZEb8Uwc3AhC4HxaQoAMEKpd7/x0XI5UkJ7kQOjubMDKSR1GCk2df2I3TA/6VQieiQVA0LPitfavzlEgfB/r3lI4W3Ll0AfKFMla9sBuDwxkO1bJdxw+/itctKYDNe9Ot03HL4r/2fF0PIDDDs+xqtYSsGQyyfRudIHBwfSqKSVREjMIYUcUnnvxXHBo4EUh9c8+7jcGNTjoe4WcRYIIOfC6f1Nh+96sx1nNSJB8ETl1rY4RCevh3SNKsAAj+Too6QNBpK1+qIFMseufINGk0AhBu/Aw7KTqXRH+NctCBgSPY8jsCCILHAFt2PI6eABPDtZf/vpOYRJkeaRizw8CViRhSsTCbFahArUrBrKaK/r5w9BX81BcgnIU/uOsTrubASWCkogu0SfcBCDSO3uHjeOz5b/vS/Z+87Z+9CQBr7qQqlcLngMwKwiQgSIwqlf7omYet+S6SiVa8fxk5G4rmKVrB1RzIqAn5LqJ7Bf537F+DLXvszq03XvQ2XHrudVxbgRwSdbOC3m0fgPC4mDGReEB43WunSo+gUTkSjLye9KSK5ycQQROy6cQQjo9aMvAZE9mIINYfoXep16vSi2KSuwAAIABJREFUmeba6GGRrh1dTKWNB5ypJoEcEhd1JNHM4EC1TiEk/gCB+69pEOjJ4VIVK/pyOGE7nZuOowGs2l222nLOSlgooKAnf7LQtvUrSmY0NjAaKHQczYjSGpgaBKYPma9fWwzhpCiUf0SElJWQw3kScbz7HZfhhRf34UT3IP9M6lo/waeDAzrxm6YE08TgHai/SkoB0a6OFtyzbCHyhSJWrt6DgcFxzgeQ8gEIucwQVj/rnzhGf/9tyz6HVJNbWa8eQPBzWFCyrlGhQX0gcHBtMopJ5D8jnWUJIDyy+Wn84nW7Q5Xq+/WL/hydnTN9AYIfyfqaGzSAUCjkMDZ+GrnsCLK5IZSLOVD1O1FlMYMKlVwuFdn2SozXr6Qy1Sm4g8Mc7QBBF+a+/XU0CI0DBNUuUdZ4voiS0pLpckq+kNarngbh1hs+g4jUUNQEr8iXBa17/8ARbJ0gQBDNNkZNxEvrAoQrXBMDZzCtAlOrBA4iaE1SNEMYJVLfawl7mDPILjx/5BU86gMQpnaejQfv/oSIeChoRZMY/hv72wcgJOJh9Awcw89W2LNy0nx8lE0M9mJA9HVS5lsgzSNHTUhwQM9SOeyfPvsV5Av2w9b7lv0dmhJpx6mR8hxQvgU2kWjEqQACDeuptd/C4Kg9udN7b/srtDdPxXiO9oq/TtIKEL7zJQEQmABk9UYRrih6IgSyPBvL4zBrEgwgITCGIKNSFVh1sBdjRXuFPmeQDYQ6+m1WStbCk91I5jtlkpAE8lY4Lk4lcNCeRAsXUVJeBELAidz0MseB0lBomgrxm+j/SLGKlQMFnDASETnj1onQGYd9VrwmMC9IcHwJtDSvapGt6mAffjDSP4JKqWyNl2d60Z4zQ6/oPTQ35NUtrFVuUiMCCCXqm0GlyWSCfRBWPL8bR7sHPBvEjVzQ56P2KEhN+vkg1AcIbnuT25px750X8alm+Yo3MDQsNng0HObStbaLNvGalV9D1iemWn9mwSXvwOy51ztfmQBBTa3D5ny0A/oMNMLW20LA9U0xdDIw8AKEFXs34Hvrf+G3Dfn7JXd8EYlEyuEXvC/lEx6GZtMkaBUV6RGKEhgaOoGe0/vQ07MH+Zw9JC+wQ5YfPQBB76DnXlG21++iX+ppEO5d8kV2UlSvcGhdqnDJ1EBqXnMt1ed6AOHmGz7jmDBqnCobmBTSIGzdMTETg9lsPbCwdcfjON1vd1LsaDsX11z+QZe9VYHpVeDyeARNVCpd+ropYa7oSEkSAg7PHn0FT223RzFM7TwLD971CeTYw7/MlTOZK1v2iu04QOCAIh6O9x7BIwEA4WP3k4lBVzoJbR0dDkkDEo1SjQlyOC+zJsTFJuKta7f/GnuObLCu2O1XfRjzZ10sKiqSQ2K+auRbkI68kmjKpSIeW/kPKFHIsnF1tkzDu2/5C2SoDeWQ6MM3PIBTpVD/7t8/XhW2FJm9T+nEJafnQav8Buo7cQx1QIJ+YqF7R0n1erCXnTKCLrUpJqpFUG2qlMz0uZ6pge/RgMKbAQkEDm5sJ82BGAGdIMUl/FjZFieZrWNikMKTnfVIwxAGxmUoY7eZjlqfNNW24WLqx8Z0LYI+Zs86KL8HtZ7yR0+bPi/IjowjlxWe+vXWjXOSaFSnAILHqU6CBIqrF/4q3m0bi8Vw9+ILsX7jIfQOjnqH4YQ2eiaspo3GAYJi6972aKyT29O4cynVSgeeenoHhkazDuhIaDUYbPQ+NHgSL68m+6C/hoKemzT5fFx74x/7bhnz9OB3Yy1EEnfalrQlBCxqiqGNQa0Et1KDEEEVz+/fiO+85J99jybkXmKWAWBF9VOpQz2zyxGAFXbOe/31pzDo668RQjSaYAc6SnbEpyf2WyGVaSE4jBDgSoeOBsG2zHL/inmyE3+jAEH4IIhV0HkgAT4qA0ymBtvpn+aHAMLmAB8EAggqz4JJTo2AwbcCIARzdWDbjl8GA4TLBECg/k6rApcQOEhEWaCSUI/HSXclLv28S6nYe6JhrDuyES9stadantJxFudBIH6i6I0cCVkxqXWc8xQY/nEKHJAi81D3QTy+2j8C6U8YIHhNeCT7dJ8DSmBE6628H5jsZD+I1z3y3D8gZymiFYsm8NH7v8Ahw9l8BUWVjMlmHalW8cKWR3HsVG1CNuLPH1zyGcrx6jUrBJgduX8SHKRTUYS++/AvBEBwHPrcgk18eFXCQ4IEkefAPSrqmgQlNI4OZ7H55FBg3E0NMZ+BNoHaYCHUgBZB0YbrE+AmUlKHdF2YO0xNTpgShl3xKG4icKBlQFQAgRxgiAn4AQRqUzBhSgwUwv/2ZNHro2URO8iYJbV6GrPXma6pQfAwYqMtxwlVAwkOYDO89vV2SjkqAZ2RdRnqnSVkXQnZgA0giGGGQOYLYvjmpUwh1lA+K6eSYFcDDxMDCLXSo6tNRCsQsPv1k9sxNJ51TEq0d1tiVE3Pnz3TuF545ssoaGV6/ZjsLUsfQjrd7jsy/YcgoWyDImYPiYYXJaNMy6zYtQCEp/e+gv9c/5ivTKC1u/u+fwqUGfpp2exDNjOK1S98zRqexY2GIzj33Fsx77xbXec8xZPkybBcLuHEyR04dnwLBvr3W/vSGEBwjZBiX3l7OxGAoKCuvg4qVDtXLLlVbo2Ij4YAgpFq2dTWBAGFegDhtkUiiiEoYuFNA4TLP8gHuqmVKi5ORJGU4CCbLSCepAQ+rMrm2Wero5RDBA7GImFsP/gyVvsABMqD8L7FouYGz4tjRnBnqUYDJxMYkVM0iXNyajzeexi/WuvvpPjR+4UPgtqDNF8caUCaA0o+JMGB6ohOB4rLdfcewvJXfmAFt5fNuxVXzr/LqYugH4D1lA0DQ6fwm3VkCqnd8ReecwOuuOAuBimeqw5AoMNrSyrGWpDQdx7+hRsrw4siyUt4HbqhXVJgqYgGBQz4XZKaiEcSMtpyckT4HwQwTW7OOFLUO5H6ESaZG4JAgtcnwUWSuhZBKlFq5LJ+cJ+ciOGmNkqf7M3UbwIEGgfRuJ4oScl7Qq2ZSgi/6cuiL6jwkg0gqAnQgIL6SsNs2jS5rMI2t65GRe0jcT+35QMSyLwwKos3OfcGrDODLuWPIE0MNsHGtlkZFlSPAQX/7g8QWCWoPL8DD/PujwQO7ly2kEn86eVvoG9kTFR+lHnYaL9QFrh6p7fenv14df1/1B3ajHOuwmVXvOd3AhDUetHflnAYVyYjaFc1FRjYuhoEYpX9JeC/dm3AK1v8TQxvBiDs2rUCB/e/YAWGlPr5qms+gq7Oc3zzKvBKa8yOUjWvXGUHK40ABEX3ND/K110HCRMBCGoBdQ0C+1zIRaCwu4Ilte2ZAIR6RKXTZiMAIRypzWqov4NPmAEvratBuPz3MbVcxcJEhJ3wSGBmMgXEqfAQ8VaqDCplCu1EStLXGw4xOKDrtQCA0EUA4baPW3vnB5qV5oB+V7UVTvYfxRN1AIJqj7pKCYxIoLJDImdqdMMCTHmsH4NO9h7Asy//0NLfEBbMWYSrFogiblqdOkczcrJ3P57f/COUK7XZimdNvwiLLnpvLTigxgIAAs19i8yySLKcAQLLacXkJTUpnwRdYpqnTt6gXJNBaiAoFK5QwYtH+xkhe9q1TYEJfRtQW9tWnl4vqgNKAResyZWb1J+l6+hZTA4wOR7Fos4kWsiqxavlbpFGAIJiDKOlKp7rp1BGwTrE96IvCi858t+mQTB3qhUO6NgsGCTQ4/rpl+dQJc1SbetTRTG0AyMoyTwN6pagE7RrgRECyBbuRSrBeuli6zFC8bsdIOiWGqUx8m9PqAW7Wih//0W80s89vws9momDwh05UiUUQlMj5WqrVax74ZsYHQ6OCIjGUrj9zs97QgZtyyD2uSD0iUYrtIVDuCQZQQeXaA4hKiuBC4BAmT5DOF2qYPV4CXuObMKOrf7ljU2AoPfFAZka4FSktG3b/+L40Y3WJUinJ+Paaz+CdNpbga72Zm+4Qz2AsEw6KXIffHiEAgkuQHDfSjyxng/C3Uu+iISWB8EECC6FAuNcq8Fr7HwzAME03Tn8RZs4clLcFuCDQBoEG0Aw11KdH20LWA8g3H3JBzE/FkJLMuaE3VG0UiIpTAv0X1wCBbLB90XCGJfggGbrtYMb8KKPBoEBAmkQjMyIfiJBhEOKUz/lKKCDCh24ewaCAcIf3y+cFGleOEOiBg7Y54BVH95LjU19u2nnM9h/7FWrmUHd09E6Axeccx1mT7sI8USKnXJ7+o/gjcNr0d23zwquLzn/Vlx6/jIOD6X8NbUdsc+GyLIYRYzGwuGQZQ0gCE6jSRbhsEO2dEfQO2GQGump07s0PRwbzuHVUyK80RGhPidMz0bVhNCZaBLocY7A1O0iPhKAhKBwXRHOmDZnH73LXdIhsUna7lURKTULTgSHNDG4jl5iUApwULTCCwM5dOdF+ij3HW6Ka73L/LveEV2dYfgk2JiBMJnYIzdskSoOWLEhTM3+khm2VXeU4tlXmyAYoQ0gMNgOSCTjL8htvwQDBPVEAIhmFtXe3IS7yecgHMKq1btxmpwztdeRgyTRNxWZietZKv06S8WRhk/h5TXfQYVs5gHXtLMvw+VXfaBWK2EANx0guOMKRset4RAuSkTQIVOo01mR6JfLjIeo9gTQU6liXaaMTKWCo8c2TwwgGA6KljMADhx4CbvesKexJYB04w0fQ2vr1AaWXbYukTUDhJX+GgQFEJy9UucgoVCEYk2NAgTyQVA5KpR2V9dO0L+Z5itVjBdLbC9Xv4+M9uDVV/01TYtu/AziURHmaHafKd8gbM8+B/BWaBCYp8nVsW33IIAwvWUuPnTJ+9CajCERj2I8U+BDZirlzaEheGgIgxIc8Fil0H/t0AZfEwMBhPf6aBBMgtLBARVeKrK/gLhO9R/BrwM0CAQQqI+kfVBmhRz5C+hRAjqqkutF7Y9nhrFi048wOCKqdtIaLZx9Lbo6z8Kmnc9jPDtopX3KM1IOyEkyfdIcXLVgGSa1zeGEe1SisVwgR03jsjA/mus0mXdkYqkxGQ4Z+s4Xf84mBp4Y3Q/AMDcIjYJWgMLQOtAgi1Vg48lh9GTyvAHYU131zQ8k6FT+ZkHCBOs2BPksK3lISZCuaU+ghRBtRWZI1MYugInSAAgfBN3EoADCcKmCFwbzOKnVVmD6caw4NcvoYgP9+KvPp4+pQScHlcDKSyK05F4loaMdCmLLEunkx3PIjNnT8PppEoSzq91R7ncBEPRhWKYpMKVxR0sK9yy9CNFYGM+u3IVTfcOCIev0WSWtldAeqBwggRJNdmLvzmdxcE9w2CCp1xct+RukU27Io+iATCEuXzRRgNASDrFalzQIwucAiNE4NIBwulzFy9kyxiUTOXp0YhoEfQ7MUyf9Vizm8fzKr/qWA553wR24YN5tgVPp/iiRgfT8+v8DQLhryRfZiVDxPhtAUMKdDimkQaCssyraYXS0B1sCAMJNN35G1GKQtR6cuVDaJHPmDN+ugYHD2Lbjx77zqzQIitQdrab2hG1dtfNDoJPi7Ja5eM/F72O/AxozdTudjnsyW9J3lLF3LBpFjkqHqkueqt44/DJWvWov9+wHEEwxY4IDSmCkHwDqAoS3/bNjVqD+5nICYPhdqu3BkR48ufbb7FxLVyrRjMVXvgvnnnURMvkKRyscPLEDh7u3o2/oODL5YV+TAPHw1nQXpk2aiQWzr8W0rjls3mBwIGVviaLjdL4RAA6E5gAYzVJKatHj0He/+HN+xMl/byRLUi+qCsnnzZHAP8rTbziEvkwRG04O8SApLal6NlCTYHiX6nDnjDQJUgg59vW6pwS7Nz4RPJkVrm1LoIWcNWicFWHKEAd7MUBh3lDbSZ4ElKZBJpUaLVewaiCHUwQOtA3LjndkovHkUXelkO9hXFFhkGZGo1QdJIgNr1TThiVR65vDIHRvX8kFyoUiRofGrZ7rHnOFpgIXtGCvy8HFbGrK4jYoI2puM2C78hw28JcQrrWgrLO1CXctXYhUMorfPPM6eijvg0UfTVYmUs9TDvnaLlhSXMpFpveuX/1tjA4dCxxgLNmG25Z9BlFK7GNecsNPBCCkyKwQD6MlGubiawQQaPR0blMAoa9SccABz0y1OmENgt+gxOkW2LN3Ffb7pJmlZ2+77VNobu5qcPG9AIFyJaxoVIPQAF8wNQjUKQIhQYmSFEBwBiDNNw4f1UzAVJSNLuKXIzKygQDCtjoAQSVK8vD6AJWYviep1sO2gDwIt0gnRX1nkOmvpqS7tkJK+6HYUZAG4ZyWufi9S97HO4qcEZsJHBAP1Nojs8xQOIJcJII4VcR1fqwiHo+wieG5jb+00ogNIHDuEw1AUdloVbxJ1TQwyaEeQPjLd/8LHyDIr5qEsog0cLvEMtXo4Xh2GL984V8dh9ymRAves/jP0dI8iaMVuHS00gLJhynV+an+QygWxpArZhEKRxGPJdCS6sKUjrORTpIzIbHPEDtGcj/0uSyUHDMDyzCDTrxmBQIHRQY6av+Hvv3Fn4uDkWEHV589QlrWGfA6Hwo1PQGCbT1jODLiniwVSHDUUdp79EHUhCgq6jyDyAb1CiXEGwl/FM94BXNXLIprZW0Fzt5YAxBoIcihxg4Q6HtytMlQVcu+LE5LnwPFKJgQ5CSI+ffMCH9wtS8N8EsDLJiiT/zsngsc04NHayTBnp4rwdMtqSmh8s/kqGizb2k+Db5Z/gwnp7cWINTOlV2DUAsQ2ptTuHfZQiSb4njiqe3oGx7z7nhDg5AIR5C0uXsru5VpHpKf89kRvLjyq6iUgk0N8xbei3PPv8kadicErgJ63tVm4Kn2c7XKfbw0QSWbyX9GVGfVAQL5IPSDNAclZCRRqhbfjAbBpGjq7vqXvu8byhiOxHDP3V+WdmhR/yD4kp2VS3kmAEF4m/i9pxZFUJ6GlQGplq0AwbAUCingdRYjxj5aKHKY47YtwSYGVc2xUYCgz+EQAYQADYICCF6WZAfT5vqqWdz2+uPo7d9pXbqZLXPxzovfzxkGW5vjosaP4oVUJhkhDEUiyIRFUS2Cx8JhscImCcoquHXfuroAQYECHdiQcKT6DFQUin6nGioaW/b0t7vvCJ58yT+K4RPv+xr3lSIe9IqKNmAgxlfFipd/jBO9u5z3vH/JX6GrY4bIc0C8VPINfV2V1tKtISEe56iJhEjjTHUnxkiDYfF7oLLuVYqU40Oo9C+T8y2KNymfAwEOuHS0JilC3/zCz8kE5DjLqS3B4s85JculF1JXCC+5sAQCyGFrqFDC+pPDNZ65OkhwBZ53Q1qFuM6M6x6la2mRkxFJzYitfX3i1dOKqU4izUFHwgllPBOAQM9kqyH8tn8c/XlbYqHaTecdppznejxSc240o0Y8pwD5QReWDmP000SYAE0zdYwNj6HoU22S6UMJSWNp1KjpZwUcyTHorXFQtIsTf4DgssG2dBJ3LVmIpnQcv3l6B04PeXMumC2TD0JzJCL8XupdJmBgf4RurH/hG/WexBXX/SGmTrsgUFQGdSEJYEEihOZwmPtKe5X+EuOlvwQOBqsCHOQ0efi7Agirn/86xsf7rOOOxVtx5x0PSVWvCRA8cNp9XnHTEDjbYpAGgfMgyLqwqoGJA4QRrAxItWwDCMw2TZDAw3FPnfSRhET3wIlAEwP5ICiAQI5kgrb9PI1qp3lw8Ai2BwCEm290az0ooKmJcKdBvygG6s/2N34ZDBAu/wDa0y44cOosVKsYjESRk1oz5hVVIBaFLHgkPDs27X4Jz79qz4OgNAi61kDMtMxRQDZ2ipqQ9RlqDzFCm3Gq/zCefOnffffnx9/zNeRluWUdRvoBhBO9+/Dcy//Hnb9wFH/+zn9AtiDWXQhVIcA9AEGyKFU+3AUHpAUhX8gQZ0hkx0jLRX4uFdIiyEZ5BkmrFSEnUfI58JoVOL+Iflj+1hce49p7DsNW/gjyZa4qXenuZSikRvHUty09Yzg+lrN2sh5I8D3lvwUgQRycdTWV6KIe+qh3enI8hqtJcyBLNtPzIi+9CMZVtsWQjGQQvwuE6zICoTl4bjCLPmlWEN3QBmSRWrVy2gUJSiMedNaxmWRs96v3KIDAG7EBkKCnZ86MjiNP1B1w2d6twyLOYcEq1gqUurWuxDyDG+oBhLbmJO5cvADpdALLV+zESelzoHQ8tvMT0QOZF+rhA8+zGsCiYQwOHMXGtd+zeiKrYdKpmkBC1+S5NaFlijGZzFq9MxUC5sVCIMdEWl8GzdI0IhLaAkOVCjblyh5woHOoYxN0UgxcHip1u/KryPo4YZFN9d57/9EBCMwMNa2X27aadU2t2yhA8KRaVqcl48DCmU5FgZwInVrJzyQa5u8ymSH88jGRK992vefdX0UkHEO5SCdL+q/CzoiKj3ie0bQIai17B09i/Sv+J1cTIDh8JcDEoL+zEYBAeRD0q1G+wn2pVgMBwjlt5+KBGx5gAaW6TGMnGTIcjiJP5Yzly1mQhUSZYypYRPuR0hZvPbABa/yiGNpm4D23iTwI6qK5J9MEaQ6I7xM48KtHQM/QQbxngDQI/gDho2//qkgNr6ED/XBt0sbqLY/h0ImtztdTO2bjvpv+tAYc0A3OvKiDu+ZvIjQHEhz4mBX0dzOJ5UX2ToenhESeA+VzMKalYK4BCN/8u8ecPAj1QIJjP5cxLgx4EMLpbBGbe0asKg7uFJfFFBdvFGfl3I35uwQJNk2C6XBG00dJkMghMc0hNi4Y4HA2qTEJKz8EDSAQWFAjoXtHK8CLQ1mcymuhjGr8+snaJpQ1Rz5XTSznrp408hPydl5Wk6bCdFx0l0maHjSNQj7j76hobk59yDZhW64IT1v1n093HcdXv9/9vg8yMbSmk7hzyQKkU3GurXCcSkq7AafcZE2fq0AyHEFC5f/weXHNmdcACPTYQP8RvLrhP1EOKKscjSVxyVUfxNSpXk2COq0QuNKZOG1yMifMoVCysDgzk58BhzCSypYT0AKDlQq25MrI60cgnUMBeEsBAhXaWfU1ZMb7fZfwppv+Eu3tM5w8BAogqHx0/msf4jTNflEM4XAMd935BYTDUvjJEzz9CYcoNW4YkUQMo2OnMWnqTERk2l+mfPdshNGxQfzix3/j240H/vDbiFHaaTqJ0Qm/XEGJajAUiijmihwezN8b86waHBzuxpoN/hn8bADB2acNbIx6AIFMDGGL38tE/MG2vfYYBgb3WHtzduts/MFNf+ixz5NsGJXggB5iWSH9sjiEMCLyIlBthUq5ih2HNmDNties7XdZAALnKCBwIPMciNx0guglGThtqa1AYY5BJoYH7/snxzRlahBsHfvFyn/BWNZNG55OdeL3Fv+NozXQn9H7pGskHHAQFvkWKFOjckj05X00n5ofAoUwU7QCV3akhE5GfQY7QKDWZf0FJYPor5PFTndeIybncHKqcV3F+pOjGMgXA8lTCWTekPJOj93fZFKmlFF9NN9i4/7GPaoCpG7o9wAECQ6ubEs4dtoagEBtkg1XRTL4AISxMrB2JItTOZEHgrtt9Mf5bAh0nnNDFSniyr0NBeKECYAEm8YiSJPgmJfo1F8oYmzY7qhoLpHeX1PYEqtUZZ6DQII6ZXgiYxpgiIoPm2OlJCBt6RTuWrIATU0JrFy9W4ADZ3eq1bC/pCXsZpsL0up4mLcFINDvQ4PHsX3zz5ANEJwU2XDBxfdj1uxrPGdqnk+5B9S+SoaAuVHScLjgQIQxCn8Z+vdApYrXcyVkiUvYaEYS3c7Xf4vDB9f6zjTRS71MivrDa1/8NkYCckHMPOcaXHbpO2sAglm22+xQNjuK3buX4/jxLb59veqqD2P6tAvFniRfjGgE0WQcsVQc4XgUe3euwZb1P8dFV96DS690E9SQDZZps1rF6EgfHv8ppa+1X+//8NeRbnYzYTJtOEfCKsrFEoqZAmvfyETnlDiXzfUNHsO6V/x9EG64/lNIJJr4bv1UaOMzth729u3DGzv9U2ffdMOnEZVhlPrzEwEIr2z6AcYzp6wT1JrqwF8s/gQzRZoWktVjBA6o4J3cSIokSWugahrkihQhJmq4vHZwHdZuf9La/qTW6XjvYjdREkUrsM8BRRoUZSijfur30byc7DuI367/ge86P3D3VxCVmpYgzYFYpzJ+9NvP1bT17sWfQXNTe02Ugg0geDUHBA5ECuYgscnvpv8rlVEplvmQ25yMcY0HGvaoBAce/myaGL7x+f+pCvWjsL0o+U8rGE9Eud693FHST0GaGOjl4RD2D+awmwVFA9xaqpTVrQ6zl5Thp0XgAbC3v/ek5LyxAZDg+pK5hajU812xCK5qS6ApGhZZ8jSwxNoD+R+BCrbhyphxpQAV5gZgrFLF2qHaaAXrzKgxGz+64MGzPT13+WAA954GQYLY9ObC1VaCVA2zKUXSCeUt0DMq1lt9mkO2Cxo3Ugy43gePhkm7VwEEJgVr/EG9Hri/E7m0NAnNQVtLEs+s3IkTPSr2WFNf+zQZRZi1TP4rJH7RZ5ZbNU1MWgMU/rd1448x0LsvcCBnzboO8xfehVhcFEdSl/LhSIVCmB2D8J+hJEiePAdCgzBUAV5ns4L/ph0b7cPrrz2Bgb7g/kwUIOzY8RSOHloXOMYLF9yHOXOvF2YRSTEKIPA0yqdp2xWKGRw7tpXBgQod82ucNGTLln0Oze0diKeTiMRjzFcKuQw2rn0Uh/dtQEfXLNxx/ycdIcyCTFu34b5j+PVjD/v2f9m9n8TMmRd6ltrxoFcaJ6ldKOdLyI5lBViQ5f5O9ryBzdse9W3/yis/itaWafy7CRAcWgiY3aPHN+DgQf8w2+uv+2sk4s2+LXj2r0E/9Fu6UsVvN/wzC0XbFY3E8Mk7qKqmcBQcD0eQJ7OPvFhTRKmPY2FHBc6RBhXhkxKPAC+//iy27Hve2n5LqgMfuuPTTCWcIZF8DghzA1NUAAAgAElEQVQcyDwHznu4BojXmVdv8ODJ17Fq80995+Fdt34S7S2TpUOt/4TTnJQKo/ixpaJrR+t0XH/R27nSIkUmmNoMxUOI/MisEKqWkS8VMJrNo1AusiaKityxDwoBLNJqRlMOwBO1bQRADZUqSJODZjQskyCVUCwLs7geBlmjQWCAIBG1MhnQU6SSmTV/Go7uOQ3yhHQ2pkQQhKkHCyWs7R5hFFhPPewQb0igRnWJ6EmX7PyjDrwnnYkgWuddmvRVr5wUi+KqtrgwK8gbVTVG+qgDBJ4DGTdOSWWIZJWwGq9UsHooh558qTYU1I9+rFEarrrAdsL3NCU77KtRsAAF/V5/oGEHCbzGYULjvLswPkQld+uV5HJ7XNNPogVFWzLDYiMAQbVoCQAMYI3uT82pJJYtvhBdk5rx5G+2o7tf5Dlo9EpRqBExex8Ba4MY5nd+a3bowDrs3/mMf20Cqdm75oY/QfskSkMs0jyTEKKQxXPjIaSlOaEGIFAxoHIVbxQqVnBAzKFQGMfeXStxzKfSnD5HpNVIJFtx2+2fanTqkMkMY/Wqf+GSt0FXqqkLV1/zYTSlWhGNJLQcFFUu71wq5nDk8EYcOPgiqjKmPB6nojQFVAKSyYSjcVy/mHw6ZnNWusMHX8Xrm37FwqK5fRrufffnEYsnvcXftEiV/bvXY/0q19nMHMPs867B7Us/qvFLt0CPHsyn7z2KBsqPZDE+msWmbb/EseObfadm7tylmHWOqPjpBxAcXl3TShUvb/x35HL+Jp7LLnkA7e3nBK6NH0hIV4HE+DB+ufXbvs+TOefPl34W8VgSmXAUBUoyZuwjEoakCieJSeBAzy9A2uAn13wPp4eO+r7jQ3c8hM62Dk5iRiBEhTKqeRG1jwSf1aN9RINilda99gR2HbZXW6S7rllwLy4+d5End4LZIZIVNJZCIYMfPvXFwDkl2u1omoqmZKvMolpFrpDFWG4I2fwwcsXxhh25KdnY1Pa5OO+ca9DZPgPJeBP7S5FTI4EKynNg+mCIEHRxCPc4KX7jc4/yTAkUIk7X6ZYmzJw/Bc2dKYwP53Fiby/HvbvyNYQcZVvrGcUIC0SBshs+2Wk+CfTuhkGCRplnAhD4XRpIoGgF1hxoDoniHjEPSliJ/on1ZR8EWflOAYQ8qni2P4t+0rZI+a6iPHyFtyIXX5AgnqwLEiTVnylI0KnW+y5BD7ZQOnLWou8zoxkUcsGOirZd4QpL17zgTIfuoyK/dLycjcYUKK07x9pz6WQCdy5ZiEmTmvDkb19Dd28QOKCWvads2vQtsVjgZm0EIPgzcUomlMO61d9Gbrw3kKlEoglcfMUHMG36fCRCIcyNAUkn6ZEgHgINRM9RipyoVvFGvoq8BHj6Hurp2YudO55ELtPnW5lRdSaWaMHCi96O6dPns+OePf2Vf9d3vPZrHA1gvl6aJOfACCJ0qq1WUC5m+HQq6NJdmzlzb8bCC+9AoZDHylX/WFebYPauuW067v29LyBGWgV56YcVWlPS8vz8x59CqWBPEkaPUba73//IN6FyFXjGotqV/Tb3NhVC+8lPPsXr73fF46244fqP894MAgg2+iIfjVc2kfD21xylkpNwzdUfq0mkZvbH3HPpCtBZqmLXyVew6eiKQLq9af7dWDDvJpTYuUN67jMVUaQB1TQQjoLkkGgmH9p3bCte2uZfPIxePKltOv7w7k8JcJAvcV0EZ09KcCC05e4o9LwohWIeP3vuK6JKqM+VTrbhvUs+458foiqcKzlNSjWEbz3+N3UrjgZO2hn+SGNsb5mGe294EE2xFoxxnoPakAd9PT2aTwUQ9LwHZKuIxaNCg7C7RzjWaCivVAW29WdwfJwIWRNkqoywZTCm7VlFNihCZmZv7Bhfk4Mt9rzBCRTvATpjMVzJDonCvuhEJ2jaFB0gcD/JxGAABFLTrhzIoJ8Cag1fgaD6BDXddYCC0YjDVNRU28WhUqWZNk1+vI4mwWGItiO+w8y8KnUaWy6TQ5ZpYGKXeg2px4jJqe6xpUilzNaa9BohvO+aiHhqTiWwbPECdHQ04dmVO3G8WzkkNt7/RCiCpDIvNGRXE20HgQb72ykU8jS2b34E46PdgR0kJ8bWpk5cMH0hZk05D3OmzEKMOJMCCGT+InCQKaFvtBejIycxPHQSQwMHUMiPs9Yg6NRNL+/sOh9zz70Zbe3TkUi4KuiJgDM1CEoX+8r6/8Lg4KHGJ97nzo7OObjs0nc7dRuIloaGT2H9un8P1MLozU2dMR+33fNXiEWioIRwNWMif41tz2HntmeQz2m5MXz6RGWpF166DJddcbe1AqWZ/Jyqfb722ips2/wbPm3Wu2KxJsyedStmzLgy8FY1Dqp2efDIanSf3NQQcEokWjH7nNswffolvu3rc9RUqaKjDOzp3oTNR56rCzCp0Svn3wmqWKhfKc5zIE73uWJVCDLJDguFHF7a/jiOnd7la77Q22pLd+LqBXfg3BmXiPLg9CMHHbihofyV5uBFZqzt+9bgtf3PoxAA0tR7kvE0LrtgGebPuqZGa+w4RlarnEjpqZf+Az0DB+st7e/s90g4inNnXIXLz7+rrt+C3omQAxCkYFTIik7AzS1JjI/mNJ/EEMgjYfdgDvtHszUaVrJVqLTDNsah0i+rDnB1PflBCeOaWH4b2JWNn6kWgcwKVxA4oNAlybyDAIJzUjUAwkgFeGkwix7Kc2AurZHR0fzZBEwOQFMEaxPqzkvct5EpaOEF05BMRtgbe3Aoi32H+2qcnxoBCcG+DbVmB3JUHB+pz9BsVE8joOgF/dJdSXTzQRBAUMLXDPXztAtC83HcefsCtLc3cW2FwycHGlbZqbboHelIzDcjZNDuNhG6Dhj8hCyr+6pVDA0cwbEjm9B97NXA05/+fmIIMe4reSuTQxM5xNVWffPrczTWhBlnX46p0y5EW9sMxOPCMc7vmihQIGDy6qv/U9fHwe99XZPnYd75i9HRcU7NwYJCE0cLvVj73HdQDBS4ISy4/G5cfu3bmQuIQDpxWjhxZAdOHH0dg71HMdh/jE0aE73IT6Rz0kx0TZmD2XMux7Tp53ETJK7ITLJr5xqcOP4Gek8f4RwOE72i0SY0N09Da+tMTJ16EZpSbnErAmHHj7+CoeHDGB3tRrk88f5z++kpaG6egcldF6Ct7Wyni9ncMEZHTyA3PoBipgdDY6cwmnO99BsZSzrVjkltM9CWnoIp7dOQTjVh1vT5yDM4qOLA8W042XcAAyMnMDhyKjAc2O99JMQ7WqayVuGsrvNxzrT5HrPCyPgASCvRM3AYvcPHUSj6a4f83pGIpdHZNh2T28/B3LMuxvSus9kxkgQkRRqQOn/P0Y3YsMOeu6GRuXqr7pkz/UpcPf/+us2xPCY/pn/73KPuOUhKCCV4hRnIVbfT5tk3ksee4Rzn0bZeKuugRfGoGL3O/BsBCSwEan3pHPWUTT3iBx4oQ+KlMgmSiNaUVfk0PwplatE1C7yxJUCg0/N4tYJ17JDoCjmTSSqB69cXEyR4ng+Q1uIncfesszuRTMaw/1AvL+jC86eifzCD46eGfNbH20u/Ptc+XAsQKuSoODR+RqozRvIB6ZVtaxoooLSUtvp9NMcEDpbeeiEmTUpj1Yu7ceTEAM+eLdOj7R0KuFCGfUd7MEHF+pkCBL0/+fwYTp3cgf6ePejv21/31F+XC2g3hCIxdHTMQuekuZg85Xx0dMycyON870RBApkKDh5YhwP7V6NUrA80I5EEpk1fiLPPuQpdk+ZYeEIIsXQSsbY0QpEwBnqPYuPz/4Xh/tq01unWybj8hvdi1uzLXGCgRhwCVjz1TYoPQySWYIfQeCyFSDSKSCiKcCQiQwEFDRMAo1ThlSqFMFZY+BeLBZRKeQ5fLRXzaOucgVtu+wMxT9UqxsYGsOq5/0Ai2QSyPycSKfaKj4Sp5HGEU+qSSYXaKxaKrKmj/UYawlKlAFKDs79FpYhyqYjpMy7H9GmXO2s2PtaPvfufQjSaRCSSRCySZCc2MteQWYhP1QxAK9pf8b5ypcDal0qF/itzgaDm9Fm44II7nPa7u7ejv2crUvEEEtEkkrEmkAMi548IiTGQgCR/pQr9r1JFCdQ2/buCQrmAUjmPcqUIioUrl0ooFAu4/5Y/A0LCzPPrNd9BLBpnp7tEtAmxaAIEfHmO+D+ZIKpaASv1yARVqSBfLKFQKqBI7dN7KiVuPxFP467rxRqovb/v2DbsPLQB8XgcqXgaTYk0wqEIJyBS80VzJJJS0VyJdeZ1KJO6vsjrQe+hdTj3rIW4euESbl+UfRamMLp/+YYf4vTg4Qnvq7fyAZJF1134HsycuiCwWZVlMfSthx6pVrRiTfpGV4KSQAIN89BoAbuHsyjVUa2y/d4nTbKpQOfp0ziLe1r3Zzd6bexAoWEIWQYHbXGkKOZZAQJVN0E2xO83fBBUTzhMrCLUtRuGZbSCwRYnAhLeHEAQ/bz84rPx+q5TKBSpzgPQ1ZHGWdPa8NouUSms5mrA3OCHTcw8CbQJxobGfFMuB62NYkxvFfETSaqshvoaJBNx3HHbAkye3IwVL+zGkeNuFr+JAATiP02cObGWLs1v7EYiMVIGJobJwfxOzYnZPx1oRikJT/8+nDq9D33D3aA87+O5MRRKwScgWsNoLI1EshmpVDuam6eis2suJk8+lxniRAW9GUCkxuL44jSAGshx6vCRjeg7vQfZzACKpTyqlTILhli8CU1NnZg8ZT6mTVvgUdl7fASiEcRb04ikE46jEf1OTPuNzU/hxKGtbNtPploxc+5VmHfJYsRiCYTZO96wyhP/koskNKpyRcgEJgcsY74c8rVpsPTsoALTi4b4/9mD3kv9boogN8Rc3VsYz2N4YAxFDuIXCXqyJAh90p2b+6qBZWhoK5LgSEYiaI9FMCkqcmvwcDQ+yPxczp+ydpdCYZSVnNHU+gkZrSDGI30OfM6eykzg7A9KgEThvPGwSIKEKudKkJmFnUOAyhFU63MgVoPWIelUZQxx4SVK3ubuQ/vU6F4w3EZM5FsgUET+E076ZPl4NjeG5S//EMNjPQ3N9e/qpng0hbct+ltfPxPicU2pGEeMhL750CM87wQSBPW6pOR4eAI4MFrA3pEs18pu6KKcAQ2eKmwgQZ3u670rkPA1kNIZi+Ay6ZCowItyjlSRCjo4UU6K9J3a/LQZsuUqNpDmIE/qWvvb64EEG0hS73Z+s0lpgxvTLRecNxUDQ1n09VNq4BDOnTWJl3D/YXs6W2vMu2UkdpBgahGqGB/OoETgZIKX8JVolJjqN+5YZjQfhqZkAktum48ZU9vw9IqdOHKi31P8eiIAIR4S2gM/etO/p1ERk2DaMf1qLADBERrmb2YYmWyLzldTIyFQpkRFN+QrSCGNJBCHR/rRnxvDkXyGT2iRSArkp5Bs6kA62aqFMnvnVafLGhOYzxKYtOwABCE1TJaipIn8QTbq9zJTIhh9UAAhHI8h3tGCUEIkQeJpMovAyWc1Wc81KXQhrvY5+0dppCkOPBI0OABBG6DywzL2UQ1AMPgrf3S86d25cp5ToeeSlig743DvCPLsGCxGki+VkCsJLUAj15kCBRYasQjaEuKAlaDwOsoeWw2hKhdC7wHBLvWZnBGFEdbbR9buxUXEghmtoI/FeUp7nP5J/JgEO7VBrVMoo6oloJ4X/rjiwdqIBfGdCIcUnvPi1O+ubdC0KoBA7ybnSsq8yf4T7FwpaytoHSHg+9S672JkrBfNTZ0g8wdpQkKhKKLhOJKJBFIxoe0hLQol9wpHo6yVkQWTRHImlmsEUUkzUUKJtC/5DAbHupHPDyFfyCJXGGcNh9+15IqPsVnEvOiQ1ZyK8ViYh33zs49QrQdvaIMGFghJ7Roq4NB4jpd3Qo53MsGIn33Y5Au64yJ1nM8zwYZxsfABO4N+a49FcRn5HMhiUyZAUCDA8UPQNAjqN/pbqAIvDlDhpRKfMNyu1fag5hvNJ8FkqjXdt2hfxPbyPknvj8diuOW6uejuG+WYX/Kc3bjthBM+aJ0aetA8+jUEEsSodCSeG88hl81PSL1MhEeqzAaW1tZN65D0jUy9JLPCHYsvxFkz2vDrp1/HyVO19tFGmSrtTgqDtWkP9M7owkfFINtAgk6zOss0acamQSAROC1C0QlVriapAwTOmEiMsgIcKsloBa2Dah9y/Lex3qZ4UXuznkAJBBKNAISAzSDW1F4BVOWmjyXjiE9qhdAxu5dJWyzDNP8eNX7+y5l5WEPtAU8uWHf3urhXCTt3dtS/VLvMK02A53TPTZdqAgRFG44jo9qr6lmq/Ng7gsx4nr9hFT6ps4sUularlbBtlnprqj9DJ/P2eAwtiRhU5WWa6ajhz6JTlE5LDA7MMcgX0H0Ul08apKBSySZAUOCAsixSsSK6iiUSlgYAkR91gKDvKRcchDlsgvwFynQClssbBLlMcBCWPgeuWUGbReJ3qOK5Df8X3QP7mH++Z/FDSCpnX5lOWkU8UOElTuOsXX7HKX37NDNIEZRD6ZP3n9iBLW/8yupX0dU6G4uv/IjnHTSV6aY4KKs1TQNFPDBAoLuo/rbHVh4K8Wl5+2AWvbmiB/tNFCT4xavbmIsOEhwNRB1JEkTwHbEoLpF5DlS4ogkQaPzK5KCHXArmLjQI+UoVL1JthULZsX0GAQQbcHHu11WNxg52hEzNPQZ81n4ntJduTnBoUHa8wHY4IcitstT9QYEEg3Hq6+KnSVAtF8hRcTTDSUz8XmeuM/WPNmojwSg6jgkSRjovTiViWHrzfMyc0YanV+7CUdIcWDrXKECIhcJIcThf/Ytew5tZ6xALjQYrk+rdNPsXoxLk4TASkiZVhlBFpxFSsVZDOFKqoqDgpEY2EwEIaqT1hEkjAMGkRV3bo8tMc3Z57Z0vDeZPwqUpiVhHM+fm8F7iXp2fcTU8fS4YI4tEOaRJYPgt36cDPec0TzZoCq8k2hULLF4pk8xRbQHuB4dMi1Oerb6IOZ/6Z/63/ELQjByVCTQoln1wXPj/qFtYm0CJdOrnJam3pgSEm+NRtMZjSJAjt/EAzXZEV8Frky8EJ+kWxF8+fMr5rVlf+/A8t5mPMr1R4iAGBxFh65eaAyoN7Zg8DM1BLdgm7UMEEdIcEN9kk4BLIPU0B2qpqA0CUeST52gOdIKXDW3ftxpb9z7LY6Pw5A8u/SIXPKSp5bwP7LIRxniuCN1qpICIDazwb9UqH1woCRKDg0oVY5xlUcgA+r27dy/Wb3u0JqrnXbf8Hft00EUyneozUK4EBQ4YcP7bZx9xTEZc1lEqgk5lS9g9mseoSFxdc4lb65Ga3EPS3GBr53cJEkhzcElrDCk6/en5DSSz1sGAByBozEWZFdYPZdFLtRXUBnb5gxyWfS5qvpVHDKEksl8SwHptljpEc2CjaMEOVMTMegSjOdnqR8/xW9Zd0FbXuU0pthztSQjlUhkjw8SoRKYz25go6bQqa8QnHkm8jQAEfYYIANmesYGDs6a3YcXqPThwrNeo3ydabBQc0HiayDGqMVJ39o/t9C+X3mfV3a9dueCyhVgohEnhkAMOmEnrJoaQ0HAdK1Vqaytob+Q+WE62+kkkUOgbva97r42zGW34AVkvQFCcSSiqY+kUou1pp6qsS3nuC2ucg83wb+kHQPexHwJ9psfJka5QRIVrKJTYx4ZqKvAJlU+DYnMITYx8s/K7Iie9aAQxiudPxDivAp8ujTUI4p58BtQmRfdNUM9RXzKD45zuXNUMorUlu3fGCEu3EZwHiMqDUDpKmoIomxBEiWWfi/x9mIYM0CbTwsvjiQQH/gTgtGC5xfOV/OAFB6J/lHK4JGwCzHvIByBCSez0Ol5yLnVNApkmRBpnciYkx0+NvgJoVvWZ+UKcnDFFtIKTjMmhDzl/5KeVGcITa/+NnVbpWjD7Zly98C4vOKiERMSDpjnQydXsEjuYSpnWzP4TQhMzxhUmJTjQlq+7bz/WbPovz4K+bdGnkYg1CYBBxZu4OiSVfXYTKYW+8ZmfcaplGg6d3rNl4MBYAcco/aelvrT+homCBHq2sXOY6Iu6XwnMemGNOkmT5uDilhgnQXIiFZTpwAAI9JzScjCRSZ8M+nemUsFmmSFRzzDFBKmtmqDBBkGCJtTrjUlQPlWj1I5TOrXomgZPHyyM0sbNde6sn3ob0P+z5pBUnkNjjkqMvqNu+Fnr2flHvsfkQRarh4egXWcj70yrbqfiMSy55QLMnNGO59fuw55Dp5mJ0yHBvPwAgjlFccp7MFEko71MoXxFHRPRvqk+xkNAO2kxpC1c+cw4ACFURa4SwslSBX6pXdRpWdCtXW2v+lhX6BvjcwCN+t4s71AHJPhtnVqAIJh4tCmJKGsOvAvrQltztTWgrHN43lKic+FyBeVcAaVsAWWufmex64vFtCTYqaUvIeNDbMuNJaKIpxJc84GiKxRQZAZveVSsgzaJFm0ba0RIldw/irGRrIgYkO3R31yxhLwSnD6ynmgxFY2gJR5l/4JYAJ07hxZZ7ZAPXDpY4qkRmgPFOpxUv/bpCUzP75CMwWNFfgGRwC0ryy3rDQmQIE1vGg/TwYHyOSD6yhE4MBw9/bQHinS4LgLViYiEUK6GhEOiBI8OzNDMKi9seQRHunc4s7D06j/CjCnnykRKotyyaZqowbLaHPK8yoRo6USYfTjoq/FChX0f9O2m/3vTa/+LQyfcLJ333vgpNCdb0Uxln6XPwZiRZZEBAr2bkh9RyN7+TIG1BnX2tNPdiTA82tCNAgR6AYGEGkfHOoKLytm2xyNY2BJ3MyQqQCCfFeExUpDJ3xRAoOf5tlAImXIFr47k0ZMTzh71AYIdJHj2p4N2pINZA4LYabWGE8tlUOprH0bQKAjx7FjZpqKDgPMEn2I4l7xh1jCLIRPp0mlMXWcMEIz30OZIJqJYevOFmHlWO15Ysxe7JThg5i/pyJFfAfpDpS9TGqUmyuLX4BrZeD3Pn2KkGs35yAXP18TUSHPQTo5USmMgx6JAAo0tVwW6A8ABCzWDfhVIMMGARp6NdLEmIkMOV+wvP3o1WnZoSycyKQBNugtTcaVJLY56thYK2LvtOqiJ3x2fhFIJ5UwexUweVeZ7/pxPCWVPN4OkieqKfCAajSCZTiBBdSAoXaBe987SbQc4KUAtGYE6mLDql8wNfWNs5jPXslCpcGSADoZFFEIY6XgUzbEoSC3PcyPRmN9wFF1IjOTwT+EqJwaoaq2oGQwC4WJf+JOYCRDoDVx4iU79pM5nYSjv0jqtniOww+maNW2h7nNAbeRJFW9GgXgrODsddPpD/gISHNBrWYOhgQNnWHJOCWj+z4ovo1By81D8/h1fQnM6yQCD/UcYpLiToYCIw6+MaaJ5Zn8BLmYlayv4aA70KSZTw9rN/+20dt+Nn8Tk9i6OBCGNFIGDsgEwQl/7259W+wsV7M8U0U/e6I0iA63TEwEJSjg3wn1UjgQFEpwNEMCwO6MRXNgSZ7MC0UdUInHBsGTWRMm9mMn6AIRMpYpNw3mcpiqVdQQEMw7p5WwTxjXCVePCE5m7ICHNWoY3CxAc7i4YBo1FJwe/95OjYtaScpn6o4MEstPpuQ8UQHA0A0F+E/LkotONej4Rj+L2RRdg7qxJHMq453CvwxQdO7NWRjvIvMBBZGTKINtghE5VAtI6zmSNEK7lHt1pkX5uZN3phNZOPgfStCKVYQ5oJs0IOSR2lysIrqUq+m8CXDUPOggPpDHLuHSh5AoGKYQnABIUY3VAowUgUMXF6OQ2RnzUz3qHjcCxFMsoj2VRGMuxSUFmovfyP6MBBRCknPYIH52Z82M1E+NCbVJLp9JJpFpSCJNeV17Mlnzoy9F0SICoC3LS4g2dHkYuI1TY3D+5d4nu8kURQ0BObORXQKV+XT7lZfiBtneP2t5fwAsQYRckjvCbCDgISXDA6vwKaw6KUjuiT5fZJIEERU80Xjr1h8mRpxoSKZi1ss+OYLf0S/WZ5pB8H1SpZJsGw2lHduxw906s3vITz6r+6Tu/KqMEan0fgjQHOqGkSeMjAQb5HKiwTL375lCGx07j2bX/5jTz/iWfRVtTG/scjGeLNZoUpqN3/tF/VgdK3pC9iTIJakipORrin7JGfSP36omUPM6OhjQkBtgai2JhcxxN0huRiINuozARJ0JBniiZwcj6E+o0xoy7Cs5V//JgDqdl+F69E7iZxKkhkKBxhUYd2BQCUMLKc2Iw58NkblrZaNOqwP11Tnte1aYNdZj0QSrZkbGA/PTyhaowk2KwDLKVQK5DdH7WLkrPetsN5+OC86fgt8/txIGjvWxHE5ewRSqGKQBLMPNSQJ4ThVBCHI3XM40HmN1idEKMRTGeK4iCVpZLMU8dsOq3OeGRANrCYcQ1B1oCBEzPUvAWKsCpcoWzmzZy6b4HBBbYUdTyYD3B686uYepRs24M3aMpskyLpo2t6Y1DFmQXn9TGZZmVFFe/BfXXJCtav+pYDoWRcfYr0Mei6FKSjtsX2YgOENS9vmDTFyA4T7L9urktjURzSvOlkPRqWRd5Hvb8ongihUAO9gxx9V2+jw5HoTCaohGQjZoOZuSh7z2nel8SBA50sg/aqkFmBbEjg/Oqcf80GiHaYH8BdvGvOKdtc949glH7QA6EFH3hhDISf8+VUfCJePDbs/R9mqMEVJ0IUW5Z0Ir4a5I2fV7/2hPYd+wVT7Mfe8c/sKNihtT5Pj4Hfu0RrTclRN4H9hfgyAuvWcH2LH2XzY3iqRf+yenLh+/8PCgLpNIc2MYeuvmB7zt5ijxevzV3e8SRrS2nyFEQodGCCztV43kS6GXK3KBvYt0xqT0axfxm4ZCo5B1pD2hjVClzmFZvgYGDD0CgRV83mEOvLHOtI1DroOWX6tTJ/VMMxRN1H7Dx1f0BmgpHfst7+ERoO3FobQ6xHIsAACAASURBVNiaM8FLoN3fUT3WsgT9G8rwNqx5VJvzRCp6lY1M/aZ7G+tz5jfHNrmcjEex+MZ5mHfeZCxfuRt7DwufA/dyAYJ6hzql2ZgcPaminKj6mdIu0d+2pgS3TaVWbVq2WCyC1lQCI6Su9vEkb0klUCyXkSGtlFw7BRQEYxR9JybQEg5zoSUVukj3kQZBmUuKFaCHsuwFEaX2m+mYyHsq0AbuT69+r1Qzb+5/McZ6KmV33XRXVyHsQoh0tiBCa+DQvH6/mw/Cr2/cTqGE3MAoKhym7GXn+ieHNtSXPgCB3xVkYnA2Ld+or4b7mUKV43E0d7UgGo3yPKkx+gliXa/HfgAKgOeKGDw1hEQ4jJZEBEmZyEi1R38pHNCWBTdQcyCHGQQM1PN2USmGTvdY8KEzLzXggMwKiQgn7KHfdIdEfZ1rBLMBMJoTUSQSwk5fyJVZsPsBCpN+1NxxvgYGByJng2MSsJg3VBv00zMv/wCnB7w1RxZf9V6cM/1yEVKpXUFOiYpfNJPPgQQHFA5JmgMvx/NnCMMjPXh23TedGx68+0vIFUNCc+CzMAwQHGalC5cGGY95WyOqU/XMRMwNJNGVjUs/MRAzaY9GcEFzjJ3JdP8CAggcSkKJJvRQRq1SI/2m7M1UoZI0B32Fknc78/3+Knw1nlqnRTWz7izVbDKNcVLfAxmchcfWtuf9xo45xATwq02HMr0D+tHO1FB4dmgVQ4NjwZEBWliUIzA0/lrHiqNpBcSL6f5brj0fFy+YjufX7MOuA90WXu0FCKrLyrnPnGuiLwIiCZkUiX4ncNPaRCGkZKMr8BiVYFUzTeAgnYojkymwc5ipEaL7mpsSPN8EMJhRaoyF9owCCPRvKtfMVRglzSoNl9IgEDg4TaleG9yjykPfxozqnb6DhIKNmQbZsG1t0byK8QsOZYuDCbc0IdqW9oQAincL9i1K1YqfFZNVn9VtldEs8iMZkX9DFu3R72kUIKi3OmO3DNgFMfIuU/KJneeZPtJytnSkESdtghESa86bH0CgBsPZPBJZYe/24BPtM2nnSSg0KiR1E6AfyTE9h0LomNTEfkaDg1TDxxCAAejA+Un+g/oufA6IQoXmgH0OfObbYEcOj6AQQgrdIyopFmXKZO3mIGCkblPggJwwMzo4YGJwB2UDKr/Z8O/oH/SWpm5p6sTbbvlUTQ2RIIDAPESCAxWtwBoMzb+phjb1cQI4enI7XtkuKmG2NU3BPTf+hRMB4reuDkDQCUqdMifCHNQLXG11g09PwNyg50hQQp00B/Na4kgqoa87IHLoHdhzWHl9Uq+UBoESzdCiEoOinA+vDuU4CZK50LpAm4i5wRV6htC2rIboh5B85szxbz4HMOss19EiCELSwrPqCRqLJkGfE5owEclAnt+1jYnwMfcHEyA4Y1f8VLM/62YIs+XzZnbxsfrgkT4nc6F5j58KWPifuHdTH0QYJSVFEp4TSnNAQmxECna1T5QQoPSqTck4Mrkip7vWVayqbHhzMsHvGpEAQ72V2qD+JaIRNCViyOQKiFPUBUIcSUN9YG9xDSxQlEK/BRwQXba1NiGZimJoKIuc4RNinpgVM2rEnOARtsYE68JQjMdOTOo+sy3b7a5gq4KyJEYntaIadb1Z1O/u8ilwUfvuULmK8kgGhbGsoEEprPX++DFWv2qyXmFU++4zAQgitXMITS0pNFH4ppG107bPlQDmOZWaBPobHxtHxAxP9yyUgGN0CyXkCZDbPFSZR8qXS4hprSKZiuPa6+dyOuiX1x1wwpmZLgKkVw04IJ8DsrHr4KABnwOd9ohvCHAgIx6kIyD7JUiir6c1oT2blA6JNZoDDRz4zR99v3Ljj3Gid5dn7miv3nHdn2KyrHfizI8Pj/eYFSpVjlZQKbbVu4PWkPlrFVix4XsYGD7Ofbnpkg9hetd5vpoD1V4NQDAFYINi3pgA+0nASmGsNvXPCVDD8KUKjhhnG2sO4khJTs9M3QYQOINiyPFGNwFCplzFVnJIlGYFWz91M309kKDr/l0G3DhIqNu+1kHHA9lBaN5/OG+1IwlHk8BP1XA22ZbP8V4Jetpo2TFK7ykV3ia1GkWZdICgTie6sDbtnfUYmL5eNeDKhwsQzSVCIRQ564246F+pUIRjwHVwMJp1fQqofdUfEuzNBA7yAhwIZur2NhIOozkV57ZGM3mrXwKFF5HpIZ8voloqMTggmjEBAr2XfKoIHJiZSYjmzzt3KshLPjOeQ0dnGsePD6K3j9Jve6W2mh8bQHCYgrEBggCCGXrqVTW7Delt6+0FAQQG9V2tCCdE8R7dyVIBZq820WiN/DMGx1DhrIPihMvaH6kFYsYpgZi1HxMgPJETQU63zfRnSEjl2OzMkALFJJTSSTR3trCPgqoJQfeZtK2f0HXQRCGb8ZExDygnAcdXqMrCQmz3KsqVEKupbSY8Flzy3iA5oABCUzqB6288lwHCSy/uE6GiutDzmU8dIBCrYc2BSltMtRUaAAc6mTM4oHBIGfFA2oeC9L+gcdD+toU+e/iIBg5ofBkVUqluMjUHMhS9tT2JkeGcAFUhYNehtXjljaeNHUUZJJNYeu0fo7NthsNPbNNDfJE0GLEo+dKGMJ4v14ADxbprXiInhbSg23Y/w32hKxpJ4O2LPi0LjlmfcvrkAQhMP1Kd7pksexuB39ra8XuA750gSGiPRFhz0KT861SEggYQHNUjgwPNKVE+QxNHmoMtwzn0UG2FOn1QIIE3S4BOXFfbuymZa7dYzTdS+qj5aGjaNZ8EwQB0LiU+iP7aWnNNDZJj8H1WnKBrEXRtgHy/yKiYrX1W6NM9L58IQGhoDrSb6gEE+p2KzTRFo8iUisiXRcpnZhyhMNtvXXAADLPmoDZvQJJO/ak4srkiV49zBK8cq6iGRtXnQhjJ5Kwna3JqbJFtlIslZlpCMyY0CMQcqGAzPUzQa1Cm1TXnpLU1hblzJmPbdqHKTMRjmD9/GnbsOO5k1VTPKOGszHX6fPkBBPWsTdugkvQox0l9qfVV1/+t2tHBlmJyen8i6SRC7c2GpkcslhcYuDPiCM1yFaWBUZSyeXGvPGGL05QwE7njlVUBjYn10yB4ckqo7ab5BPnh7KDAf8/pl2g0nUDLpFYnS6RiN4EgQQtnjWXyiObc0DpSj6vxhqmGgjNWqpNAJgcCC+4q6eDAl304fgXiOcrmet0NXoDgwO964EASQDJhgIMzMSswOBB5GSj5EJkmzNcT76f95mfVVWmcRb4FIxW0DRzQgSMRwezZk3D06AAK+RKDnOGxXjy64mtW82s4HMWtVz6A6ZNFGXCzjw44oGgFQ3Ng3u+HZcvFPDa98Ssc7X7NWfHzz1mEy89dGshaFbCrAQgOMwiyOTfItcXkB2FPbWNPIEcC+Ryc3xxHMiJUJ0pg0186TbkMiDL4CU7L9lwheR0TA6HKLcN59Giag3qn9wlpEuTwGgEJ+gIrAVqvL+4el0CAkYniWOrlGkiwLYcBihzaVwcOfa11mnCOFjLJVpkyKmZqVf0+JZ114aADBnqdeZrRAVcjpEf3e8wHsq/0npZYDOlEDEPZPLJlmbuBwUGIqzU6DokAhjPyJGC8lNSfLck4p0UlnwN9s3J+AU5bGgdpEIaohom0s+vN0Gm/lfwWciWUi0VHayC0WwIgUHYzOu2MZgoY1KIVTEHdNakFHe0p7D1wmgUh2bMvvvgs7HzjpOMwaZ7gG9+ZtTOuQIZaK+ck7qTVdZ9R7zXp2xVW2r1aEiJSsUemtLODsSeLpZS+/ppOAUhLfSMoZwseIOFoTQyAwCzCQlhBJgYFEkzuZoaz6iauGm2f9k6boivZFEfr5DauumdjpbwOzuYQM+p8R5UOR8Y4AZSjPZDv8wIEVzCxb0KFMp0GRnu69C5NC2oYJkAQSdH8d6yuOXDaSEV571LiIJvmQN3nAZ/yg6s5oKJJwm9BaQ5svRCHAhGBp/gR/WXtg4pWoJBKhYJ5o3tBFMkTWuNUKoZZs7vQ2dmE4ZEc+k8PY3w0T5lf8LPl/4qhUf8KjrOmXYqrLrqPy1Gri/pB6ZNVKOOoLaGTwer1MZbLJQwOn8CaLT9CqegCxeamLtx1418RIgyUzDRKStfsCxAE0/aSf2Oi3rsUrmbAF1cLwpYFo5TKz4+syKwwj8wKSoBpNSRUZIQTecApfl2AoMIa6VHy5N04mEefUYmwEaE8EZCgmEwj7epjVvNfz3nPnCeHkXg4sn5eqMVsqm+mDa9mDWxaBPkdvWF4eJxDbtTFHtY+Kn71tQpFdTa+4elct08WQtGwixsZEA4hHY2iJR7DYDaPXFkkA+P5rQLpSBTxsHBIpO9ZsFvgLRevSSc5WqGgbTI+kcq86NQG0drwOAEMdyHUXqA26J6xXBEVqX1gZuUkdSLtQwzxaBgjYwQOynzK465atDfJRAxXXjYTG189glKpjK6uFkyf0oodO0+4+SDkPClK0IW8ba8FgTIrDtWYldm2GdutM0E/nhJuSyNEDnsK3KmNoH/+f3u7tl5HjiJcvo2P7eNz291cFLJssrsgEApKsnlJsop45Il/EB74B/wUnvKIEH+AB5QXJEIikQsBBXIR5LJslEjJbtg959jHPvb4hr6qrp6ads+MnQRGWp21PdPTXd1d9XVd/WAyEyXOyfN7Q5q7sFt/WHDmBWYH3wJAsGOw9JOTtzE3hNozdaoJJGdsmzCg3etQ56jvqvhlb8ppKYPIDgUJzXRO9SD8WPgrfIVcweoABSEzIDQJ7JtQIdwPDndod7fjzQhJ0qSrVy+xyeLjf93JapIgHO90TINBlqch17TZ87D5A6QUedbb56AHscWuINhZFe8SGMU0B3auNCMhaNJ2OROsQyJXmFRwEBCD+xFhzlevXqS7XxwzfXGNJnN679br9Jf3f1ck0vz3R/uX6Sc3XqSddo8dEmF+xGsRrYCkV+Glp/zcmJZL+vDTN+jdD1/m2iE5mVJr0E+f/yX1ugcc0VO2hqd433JVDBB4/A4kWEb5dUDCNpENetqPvWevWafrPWRIBHKWO7x5wqkQoSWwAAF3qVZBNRqzFdFfT6aSGKrgqhLoFiRIP4op83VAggqurcwNgRAIVofQq2hVeMYVsrsgeiNg1Nkqq3E2N8Rh83sipoVcy26nhwAhpj3IL/LyfbYGKNwXe60WOwLCZKDgQFuC5oBDw7rIV0h0NpqwQA7XfcKagzZHIkBzYH1nNLIBoY6InAGAAAjNOWciOsGYFeC3oFH97HeA0wwXXmlR0qrTYJTSyXyR88xXb3HLvTGn+/s9+t61B7j4zHAwpY8/uUNTwwSsBsHv7RJSVgGE8FE9gen39kSeO+2ZB4tASq3VoNqlA8+AIdD9/gp08aFpcoGS9IMzn6/CvkN9GDAnIbvdVoOgw7CaBK8tqQAIPIdB9FAojHGqvYCCSe0GTbs7lLZlbcb2QjZGA0bdHkwGYz4tZvMiI1cB5tmBlmx2wAF9hIBV+Wi5G96CyJ1nb16nVrvhokIyU6aAJGE2emA5vT+mN1//dx6wmoVh91qmWVhHKOWag8ysAM1B1RU6FO/vNKjNfguu/HSF5iDPz6T4XK8joars1DiRCptYbX9489f0xb2PqrrEv0OT0Nvp03cf/AH19x6ho/3vMmgI3zccHdPx6A4dH39Od+59SJP0jKbpGS0DYCDP1eiFZ35BDxw9Jh/hoWo0q9o2aKIOkAeIvNIwx6KebwYSyrUDaHtbkCBDkgubt+/AwU5dvbqzJWu9/613ugpxMF38H/dNFkR/H0w5lLEyQ2LF8R3t5YTIxiChml52/JuAhJxdVE/64aS6/nktQ3TSM0Cgp1Uw4cIeG63C9HxKY5fNrVZgWtBX5k75JqKgCiAwXUpQatguQoKQPW7XmBWsMAMwQMZEqPsxRjgk6rjtmOFzAIdDhDqitK5nrA4c8hrtSLQCQIjlTwoSEgcOxuncJ7SxAAEe1gAxqKAHs8KpAwfaX/yF2QL3nJ3nnR5Ze4Z/iJFeLNZL37oOK+kwtqIqq3lGtE7votNuyJJjAMAK5nAa5fOKavu7rD3I0dhqTkwHAcYg+FkrgFoK/xmIv0FwP9rO8j7wGTq3+ssAQk54BRoNu0e49wHTjSX0yQ4M0oWQnrvNBh11XBpkt+DPex1KG0jPrP4S2QFJB+KrRzrC4k9zOqMmtAhl6oAIH8CYOezXlWK264Z5Tb1ODz+8x34HbtoYNDzynQPWmn326f2MxiviyJq7d4YZ1QvAgaVh2K0ycIBiRRgjTBNIglQ1XF6HZi6RTAppi/HddGaisTLUp8Nc2xDCe2GaaLLvA2gmNR6yHo8mQ3r5jZdoNF4vOx9lwxHeXa8BfECrMHcRItUgCM00Gm26+dSLdOnoim8VacXDyCZofmBWgEELeV+gwawECMqQwziDb6ZJ2EBAmsiEvYZoDuBzoEzHVg7k79z9aqJQQMBM1QGEyWJF7w1Tjlbw46kYyLaaBKHXeqM2f3rGODejYlmypjwDcsLdCO21BDmVIMGyArtKM64T7TVUuKjsOBhJtqES4+PaKb9kh5Rt9JDMsXZ7rSbtJi0OU1SfA30d/A5gdjjoJq6KWcqbW04AmR8D+xy0ExpOJM+BzrHSHoIZmgPME7QLUM9qMjC+FzUVVHMwnXO0B2iI5xQgwM6Od2BTIuJhCNtxQBeoHPEepM4dTdMC50+xicau2CmN+7ERh8pu+iYAAa3YCApV8yqdaq0m1S7uAwn5F+p6430TAwr4AU52905pZbUmkY5q9IPSAn+Lxu/3rPX9NW1aUF5IwphqOlfGOnsSWoMjpzXQw4f+umrUadTr0ZKTvuXn1/IbdczW50Cv9mBEdc6WK1eoPQj7HoI4bGeo/P2BumB92SiG1/70Uc7cyO/1HXD9MC/2XCfSdmw1i4arJmWf+dQvfgubgAPmTu492INdpE921RA1hBDgGfwhrOLKfTGMJwMHSKQE4S1lny040DU/HB/TH9/+DZ2efbnljvv6tz944To9/cOfUa97yI2oc25tsaC6AzDQdHIkC8BBrU77PQEHSOQUBQj2hOUXWsTDfzPxlh/cJpoE1XZjATA46CbUBjgwGYERDub7Zk0NLsI/BxDqNQI4eH+YcoZEYQ6m9yUDqQIIul5sE5s8I0xpMwp6Bmn8LbLNbrdPIMS1CmS4vjYCCbHzoFEb2jZde9gcw5MzBgpVV5kK2z77TQACitEAHMDnYOocErVtrMN+o0kHPUmCxKGMrL4Q3a/2D5oDOCSeTcUhMadVYYfAGvXbiFaAU6NEPPi5cXumWZdNN5rOJJxRcxu4imwgnwcH5ymdGc2BtoU29roJpfMlnWmOgwhxrMq9CChYZq1gdbOVqAKmanbzv2eAWL63ERQeIDi1fG2vS7W9vDpVd0ohQMCsDca0GI5zL46NP4S/Yd9yy9pNZUyDwDQMtAlRqhQAhHD3o4DSxU6TuhBUEWdPCPppu02T7k6O78mHvBkwG5MMoDVJqTUS2vA3PndufB5DeC/PIAOjRDsUratOr03PujDHV1+RMEe/F3Kb2q0j8x3LnBJgm39ctCgSyihCGf4C6bw6p4POG+9BCw5WKxqxU6MzwTjuLKY/AQpeLuZOJqss3wJKRyMcEpUPg0spMVuk9I9bv6d/fvJ2jj7b7ajqu7udQ/r+lRfo6qM3/IFVtUK8YhC9Bcdn+HssUdBLDkT73R0BB6jSO0430yBod2LCfRvGUtZObmO6RveaDbrWbVHCoWdystPFb4sAyWlMUII/Efl0ykTwOQA4yGkOXByw36gV5oSqEEhrbigDCLoHJCxsc+oV+SQUbar8qSKyoCpBQviMhY3FWSXHSEqj+RBK1vEmAKFKTchzZ0ho7++3mmzLh+ZgDGdCcx/mapfBwQ4zzMEI3sailsyYAJGaFZAEiTUHGspmaAezApgHwAGQeHgaheYA6joGGC7FMvotpjAXrbADs0KThuMJVxCNaQ4AUuDVfQbNgWPYReTVfbopw0U7m5gbKl5bONtrAMH5FOD7HEDA6Rhe+81GFoKoE+doG90x6ZwW9wZcdCknSEpOo7adbTQIKmDsX1mH0mLO1BcReiJspZdKFyTbeggRKy4qqxBe14jGvR7NuS5BqOnO9qQHUrpOFwtqIy8CTonspFnOd4r0fxgbfgtDInVIAAjPOYDw2isf5UJs7bgNCTwdQnrqPIaiVvlGBg6Qgnku6ZPjirO1NcGADzyATQKicUOeAy2PHfZP96sHCp6ZCDiA2a9Ic6Av55WJsu0HHXr6mSt0+9PP6KXf/oq+un+bFotNE6YXbjH+oV5v0G73iK5fvkmPP/r02s12Xa0WC5pNswOPRm8BHGBPno5SSheLaifFkOb/D5DAJ6qGgAN4l9YYHMgGaLgO2X4oQJB5k6RIqmoDUd4dpuxzoFqDIpxZKrCtQC2YJ103glWKNyGjNdfG+n32vJJ/kba4Ka4IHbh8ayoFQ61QQZfVByHbgXJj2I/GcknTyYzOxllYTYxUm4ADYRjlG8L+ylon5/jFmoN2i47HcEiEr7NpyBVhOgI4QAZIF8qobSlp4E0NdT40C1OjEVkzK9RrdOxCGW0baKfVaLDmYDiZ0bkzK6j2AL+DzQNgQEAMUBEzUnQFzAcRDynMChPnBa6Ddeusk7R4U/tEVXb9BaWmla4ANWsJlzbQaW0zJ+HsqUBkGlo1retUvdMmOurnHrNLMirUV0SL+0NaTaY5fVwVOKoCCNYkaPerFWRlGpqoU6U/wasDONFe0mTNAUCr5GtYnxcRULKGU+Tv6JlwuGDPhvxEaI7siufUiFRcje9PdeLM9nkYjQP1s0QJOG66Iur0Enru+Ws0SyVREjKr6hUDCNr1GB3Xt74IciybDBwsuT6DRhqUsQsGPUbj00/qBL8FfIVcCciHYq/CttxJu92Av5BmaqxJuHLEMVLBFsaKJEo3blxhLeIbb95mOiWNBX1w68/0zsevUjo738q3QPyOGlRvtuiJx2/Sj67dpHTZWDNviOZA5ArmUc0JtVQ4ANbeXneHfZ8wBERfoWYM8/jnf/7SqswGac+NSsAQJJTj0WImX2RuADi42kVtBfgWyPZQDUKdbcTikGUZsnjD64IWgIDBAhyURSvkhIx3uy3o8xYgocqUEgMJ6gpYJRcFgGwmPOFMxLdazp57Nk9Hl5cnaD+2CgKQgBMeHMUWSzqB53SoWq0uEhkd0LYCCacCOCXeR6SBE+yWVkiQBHCA/kl2Qxdia051sEdCu4DftQ07HvU5wHqDhsIyQh0EsixCsCPL4rnTHCizUD8ZpGhWcGCrumkbAAcAGJMUBZ7WfQ4wV70kIRStQlhmyJBl3jOpb6c9tsZUgBctrW3nIjahsbZFeKyofthHqbq1x8Jncp9RORMAAZ0z+SaqAILlHfaFHrg7AqnYiBW7KgMIvn0D5izNMYajpEVHnYbfa1otMjY3ChAAd8e9Ds2akl2S+xvZz3bNMxhNZ+yLUHWplmDt5B48CHALEQK1viZYgh/Ygw/1aTFf0ld3z/gJ3477j35mjlKyoOz72STljv3wFxCzgtMcOKFcCg7ce6SJGpe99poDV9nRPl/alpM/KIaVcDrGGk2mcBpcp6wFB/uHHXryycscWfTWW7cpTRfUc1UZ0b3hZE7j9JzmixmdnH5Jd45v0Xh8QuPzAY3TITXqDUpaHdrvXaJe9wI9cPgY9fuHdNDZoXYiZqcBijdFgA5nzIR5CFlYlebYK+nC531hzcFyxYcq20YlQND1FxJNhFR+624oszLBHsnaCHDwOIMD0Riw9mDltAiIVV0KQw8BgnwnvcX/U2dWOGbVcPxoVJjguWIgVaaBTJNQrIoPTyUZNtmcikVZwPJLdd0+mT9q5dGGhQLlIMS0i/h/3YQ4lQ/HHI//bVzbCKV+0qRe0qLTSUrncMpSoe8QFcIZAQ6AokcufbJSW9/DDomdhH8HOMjeL4uI7XQIZWRwAKG8zk44BTMyJKJ6oDErKMPA6b3bTtjreziaMOJnjZchuAcHszlna4wx095OwnUcAFJijMEDBLeJywCCzjv+xg4M28xD5bzbsEV38wr7/WJgXnC/+Tkyn3lKV0TL+wOOXhBp5Io2GXV/2JcYH/tfAgQvv11CHf5cc+BgJwMHrvsZb3Qnf3wBUKAAAfMwgxZht+d9WfihgG2EPAraveTkjOoV0UXq3R8TkvY76+zpiz8ZEBDOme7F7QGCS4/tfA4kz4GEIQKc6FUFEPA7ZEYvBzAkbfFG4MAU+EJ1SIADkHI4dZoDJ5PgEK91gtghsFajo8MdeuLHj3Lk0jt/+4zG5zMGB5rngNMns4mkbBTCzvgW5/u06xMpAWAgY2ReYzN3mVc5YZXuM/+fFTXmSzrotNlBE+DgdJx6zYHexgBBTw5lGzt2hvw2zA0WaPQadbraNbUVLECANsFtGiz+0AeBwYQDLTiNfTCasVlBy0R7Zmk2UmkFiBI5LTikXJBrf+TW4ns3qQBZNi/VIGEdpDgc5Ziqcl3pY2ye14fr7uWbRXNgr3OEAqIs8rd0bSKcYFboI5QxAAfoAmiE9MoXkNTFVWVcz3gnBWIg2McABzNJpGSJpJoDeJsjy2IROGCAkc5Zc2CFrTrn7SJaIYFZYcqo3nIo9FXBAaIVUMCJ+xEQAQCjnTQ5aiIGxjwmjhS+ik0L+hl6r1u+sMkcFE63NSkYNa+9f9VuUe2w76ORspDE9VZ9ZtL5ghZ3T9ZtUVohMtRiRToY7kxuW7eErQ4ZIUAVQ/dM1qF/vf/QmRUsWwibV0CgU6/3sqIEtT36iGhwvgiKD0pAAhdxGo6pWeIfhP4tjcYjJFeZ+AJOhgOtHYes26wVCw5kXPEWcwLbLWQkMPK1FbhYUZZdqbxf8iuGlfkciFlhY3CAvrroJgYHXG55RWecxlkAhtc0uXdBb4u9pMsV1gAAAERJREFUfOGgQ08+dVnAwTuf03iUroODiGkxRnvRkkleH4ADKUQl2gfOWeE0Beib/svtMfMB8hNJB2FWgLxEIblYmfr/AsCuWt8fnl0oAAAAAElFTkSuQmCC;" vertex="1" parent="2">
                    <mxGeometry x="5.91" y="28" width="610.17" height="343.81" as="geometry"/>
                </mxCell>
            </root>
        </mxGraphModel>
    </diagram>
</mxfile>